<?xml version="1.0" encoding="UTF-8" standalone="no"?>
<svg xmlns="http://www.w3.org/2000/svg" version="1.1" viewBox="0.00 0.00 1683.00 1581.00">
  <g stroke-width="2.00" fill="none" stroke-linecap="butt">
    <path stroke="#e1cba0" vector-effect="non-scaling-stroke" d="   M 1648.95 791.37   Q 1648.84 804.00 1649.67 816.25   Q 1650.40 827.12 1648.55 855.97   Q 1648.46 857.39 1649.46 857.26"></path>
    <path stroke="#e16139" vector-effect="non-scaling-stroke" d="   M 1581.24 825.61   A 741.32 526.91 0.0 0 0 839.92 298.70   A 741.32 526.91 0.0 0 0 98.60 825.61   A 741.32 526.91 0.0 0 0 839.92 1352.52   A 741.32 526.91 0.0 0 0 1581.24 825.61"></path>
    <path stroke="#ef868a" vector-effect="non-scaling-stroke" d="   M 664.71 885.85   Q 664.56 885.53 664.56 885.00   Q 664.48 839.50 664.68 794.00   Q 664.69 792.60 664.69 791.25   Q 664.75 760.29 664.73 729.78   A 2.30 2.29 -21.4 0 0 660.87 728.10   Q 648.45 739.57 636.20 749.59   C 621.43 761.68 605.63 771.49 587.38 775.21   Q 580.95 776.53 568.59 776.32   C 541.80 775.88 522.94 776.04 500.08 776.47   A 2.88 2.87 88.9 0 0 497.26 779.41   Q 497.73 799.42 497.43 816.75   Q 497.36 821.29 497.05 825.67   Q 495.35 849.56 476.20 862.65   C 453.09 878.44 423.11 877.12 402.33 857.81   C 385.56 842.22 379.11 819.76 381.22 796.97   Q 384.45 762.05 404.30 735.33   C 420.42 713.64 443.15 697.86 467.72 685.66   C 498.22 670.51 528.37 660.27 561.04 655.59   Q 596.73 650.47 635.88 651.62   C 727.84 654.32 820.20 666.22 910.16 687.61   Q 949.42 696.95 989.37 706.11   Q 1049.30 719.85 1104.75 727.76   Q 1123.99 730.50 1142.16 731.81   Q 1216.53 737.16 1284.26 713.47   Q 1294.40 709.92 1303.08 706.07   C 1358.92 681.32 1374.27 617.87 1365.96 562.59   A 1.40 1.40 0.0 0 0 1363.58 561.81   Q 1359.23 566.22 1354.76 570.51   Q 1289.10 633.45 1197.21 632.47   C 1195.76 632.46 1194.37 632.78 1192.91 632.76   Q 1153.78 632.19 1114.75 629.29   Q 1042.34 623.91 970.25 615.23   Q 912.34 608.26 858.42 601.73   C 817.13 596.72 775.68 594.09 735.11 593.63   C 684.57 593.06 633.18 596.12 583.82 604.06   Q 520.49 614.25 462.85 640.98   C 431.67 655.45 403.22 673.56 378.82 696.85   C 353.21 721.28 332.82 751.23 319.94 784.26   C 296.88 843.45 294.18 911.03 317.15 970.77   C 344.95 1043.06 415.84 1100.12 495.90 1096.13   C 567.43 1092.57 625.98 1040.06 654.36 976.69   A 2.12 2.12 0.0 0 1 657.54 975.83   Q 683.27 994.38 713.34 996.30   C 746.80 998.42 779.90 988.87 795.89 957.07   Q 803.82 941.30 805.17 922.98   Q 806.37 906.57 804.76 889.88   Q 804.41 886.28 800.65 886.28   Q 734.88 886.23 665.36 886.27   A 0.71 0.71 0.0 0 1 664.71 885.85"></path>
    <path stroke="#ef868a" vector-effect="non-scaling-stroke" d="   M 1217.44 759.18   Q 1202.01 760.10 1184.25 759.71   Q 1181.26 759.65 1181.25 762.51   Q 1181.22 785.11 1181.37 804.75   Q 1181.78 858.59 1181.25 915.01   Q 1181.12 928.16 1181.35 940.51   C 1181.79 964.41 1190.73 986.04 1209.06 1001.29   C 1241.57 1028.33 1291.98 1026.32 1321.30 995.06   Q 1336.89 978.43 1341.40 956.37   Q 1342.83 949.36 1342.81 936.64   Q 1342.64 848.54 1342.80 760.52   C 1342.83 745.31 1343.17 730.09 1342.94 714.78   C 1342.92 713.73 1343.10 712.24 1342.47 711.36   A 1.44 1.43 49.0 0 0 1340.27 711.20   Q 1335.98 715.62 1331.49 720.39   C 1322.78 729.64 1311.38 736.55 1299.67 741.66   C 1274.60 752.61 1245.35 757.50 1217.44 759.18"></path>
    <path stroke="#ef868a" vector-effect="non-scaling-stroke" d="   M 442.46 854.44   C 454.09 853.65 465.15 848.93 472.05 839.51   C 482.91 824.69 486.36 805.13 476.07 789.14   C 472.69 783.90 469.18 780.26 467.89 773.58   Q 467.11 769.50 468.18 764.93   C 472.54 746.31 486.27 737.36 504.99 734.85   A 0.82 0.80 -86.8 0 0 505.67 734.23   C 506.11 732.48 504.94 731.31 503.33 731.09   Q 490.12 729.28 476.52 729.84   C 458.49 730.59 439.87 739.06 426.85 750.84   C 407.86 768.02 401.99 791.87 403.66 816.54   C 405.12 837.97 419.45 856.01 442.46 854.44"></path>
    <path stroke="#ef868a" vector-effect="non-scaling-stroke" d="   M 987.53 963.03   A 0.86 0.86 0.0 0 1 989.13 963.15   C 993.59 977.50 1000.72 989.20 1012.59 998.70   C 1022.98 1007.01 1036.19 1011.06 1049.58 1012.55   C 1069.15 1014.72 1091.16 1011.75 1108.06 1001.69   C 1133.24 986.70 1142.06 954.22 1142.99 926.67   Q 1143.60 908.55 1140.18 889.40   C 1139.39 884.99 1134.22 886.50 1131.32 886.50   Q 1071.14 886.53 1010.85 886.49   A 1.57 1.57 0.0 0 1 1009.28 885.04   Q 1008.87 879.72 1008.32 874.76   C 1002.71 824.66 976.13 766.72 923.63 751.05   C 913.59 748.05 901.78 746.67 891.00 745.84   Q 859.48 743.40 825.41 747.50   C 823.95 747.68 822.60 748.76 822.58 750.32   Q 822.16 802.17 822.82 853.95   A 1.49 1.49 0.0 0 0 824.29 855.42   Q 858.00 855.69 892.28 855.38   Q 906.31 855.25 909.71 855.77   C 918.98 857.18 926.01 862.11 931.77 869.38   C 934.56 872.90 938.39 876.58 939.80 880.96   C 941.08 884.97 935.88 886.49 932.96 886.49   Q 878.14 886.52 829.89 886.51   Q 825.90 886.51 825.49 890.15   Q 823.08 911.62 825.26 931.75   Q 827.09 948.79 832.61 961.84   C 843.48 987.54 866.61 1010.34 894.97 1014.68   Q 911.55 1017.22 927.28 1014.89   C 955.26 1010.76 974.28 993.13 985.28 967.90   Q 986.35 965.46 987.53 963.03"></path>
    <path stroke="#ef868a" vector-effect="non-scaling-stroke" d="   M 1067.64 1044.99   C 1065.96 1043.81 1064.70 1042.03 1063.14 1040.62   C 1047.05 1026.07 1021.12 1029.75 1011.12 1049.71   C 1003.21 1065.49 1009.35 1086.29 1024.88 1094.42   Q 1033.26 1098.82 1043.65 1097.80   Q 1056.90 1096.50 1066.83 1085.44   A 2.48 2.47 43.4 0 1 1070.42 1085.34   C 1072.63 1087.52 1074.73 1089.78 1077.28 1091.56   Q 1090.89 1101.08 1107.05 1096.74   C 1121.88 1092.77 1130.02 1078.21 1129.73 1063.53   C 1129.36 1045.41 1114.14 1031.27 1096.05 1031.83   Q 1081.16 1032.30 1070.60 1044.61   A 2.23 2.23 0.0 0 1 1067.64 1044.99"></path>
    <path stroke="#ef868a" vector-effect="non-scaling-stroke" d="   M 731.33 1045.28   A 1.93 1.93 0.0 0 1 728.37 1045.28   C 716.51 1031.23 695.46 1026.99 680.50 1039.08   C 671.61 1046.26 667.70 1057.74 668.92 1069.01   C 670.56 1084.21 682.19 1095.72 697.17 1097.85   Q 710.19 1099.70 721.57 1091.37   C 723.96 1089.62 725.93 1087.05 728.05 1084.93   A 2.56 2.56 0.0 0 1 731.77 1085.05   C 734.64 1088.30 737.58 1091.52 741.38 1093.62   Q 756.20 1101.82 770.88 1095.58   C 784.76 1089.67 792.31 1076.30 790.79 1061.28   C 788.79 1041.55 771.73 1029.27 752.49 1032.68   C 744.16 1034.16 736.88 1038.70 731.33 1045.28"></path>
  </g>
  <path fill="#d2a64f" d="   M 1648.95 791.37   Q 1648.84 804.00 1649.67 816.25   Q 1650.40 827.12 1648.55 855.97   Q 1648.46 857.39 1649.46 857.26   Q 1648.81 857.49 1648.69 858.26   Q 1648.20 861.52 1647.40 870.44   Q 1646.47 880.86 1643.79 895.68   C 1628.19 982.13 1588.16 1060.88 1530.18 1127.25   C 1522.81 1135.68 1514.61 1143.67 1506.96 1151.89   Q 1501.60 1157.66 1491.67 1167.17   Q 1455.67 1201.60 1419.80 1227.49   Q 1415.28 1230.74 1410.80 1234.13   Q 1404.29 1239.05 1396.62 1244.07   Q 1344.13 1278.46 1290.52 1304.08   Q 1177.56 1358.06 1051.10 1381.53   C 1046.36 1382.40 1041.33 1382.43 1036.41 1383.27   Q 1008.61 1388.00 1000.48 1388.92   C 994.38 1389.61 987.27 1390.79 981.99 1391.35   Q 977.72 1391.79 973.19 1392.37   C 966.61 1393.20 959.77 1393.62 953.03 1394.49   C 946.53 1395.34 939.79 1395.60 933.27 1396.40   Q 928.00 1397.05 921.99 1397.37   Q 897.61 1398.66 873.23 1399.84   Q 863.32 1400.32 853.29 1400.30   Q 825.78 1400.23 798.54 1400.29   Q 788.32 1400.32 778.91 1399.50   Q 739.98 1396.09 702.91 1392.94   Q 693.65 1392.15 683.35 1390.49   Q 667.73 1387.96 652.42 1385.57   Q 622.09 1380.82 581.06 1371.14   Q 458.35 1342.19 348.05 1282.52   C 336.65 1276.36 325.16 1269.66 313.79 1263.14   Q 304.11 1257.59 297.21 1253.20   C 195.81 1188.79 108.56 1097.95 61.92 986.09   Q 40.33 934.30 33.45 878.22   C 32.92 873.88 32.77 869.55 32.27 865.26   Q 31.17 855.77 30.99 849.38   Q 30.65 837.90 30.91 807.91   Q 30.97 800.97 31.90 793.92   C 32.73 787.69 32.68 781.30 33.48 775.13   Q 42.69 703.93 72.85 640.52   Q 91.50 601.33 117.23 565.22   C 121.22 559.61 125.88 554.24 129.75 548.46   Q 132.24 544.74 134.90 541.47   Q 172.75 495.09 213.32 460.43   Q 274.52 408.13 346.06 369.31   C 354.97 364.47 363.76 359.57 372.78 355.25   C 378.34 352.59 383.89 349.53 389.42 347.01   C 400.50 341.96 411.73 336.50 422.39 331.96   C 471.48 311.04 521.90 294.69 573.47 281.68   Q 608.19 272.92 643.03 267.03   Q 655.20 264.97 668.00 262.98   Q 693.76 258.98 727.53 255.52   Q 734.51 254.80 739.64 254.70   C 743.75 254.63 747.59 254.03 751.60 253.42   C 755.02 252.90 758.35 253.17 761.68 252.66   C 766.50 251.91 771.23 252.17 776.00 251.80   Q 789.43 250.75 801.01 250.41   Q 807.48 250.23 814.03 250.11   Q 858.48 249.33 894.99 251.25   Q 896.17 251.31 897.33 251.58   C 900.15 252.23 903.56 251.95 906.54 252.00   Q 910.41 252.05 914.38 252.54   C 917.70 252.95 921.08 252.90 924.42 253.31   Q 933.85 254.46 942.77 254.98   Q 947.83 255.27 953.38 256.04   C 958.20 256.70 962.97 256.91 967.82 257.49   Q 1003.63 261.76 1039.09 268.19   C 1118.60 282.61 1193.99 304.08 1266.90 336.09   C 1296.77 349.20 1325.94 364.24 1354.36 380.79   Q 1430.30 425.01 1490.98 482.63   Q 1509.24 499.96 1529.46 523.21   Q 1576.71 577.53 1607.02 640.20   Q 1633.40 694.76 1643.74 752.97   Q 1646.37 767.77 1648.39 785.30   Q 1648.79 788.73 1648.95 791.37   Z   M 1581.24 825.61   A 741.32 526.91 0.0 0 0 839.92 298.70   A 741.32 526.91 0.0 0 0 98.60 825.61   A 741.32 526.91 0.0 0 0 839.92 1352.52   A 741.32 526.91 0.0 0 0 1581.24 825.61   Z"></path>
  <path fill="#ef1c23" d="   M 1581.24 825.61   A 741.32 526.91 0.0 0 1 839.92 1352.52   A 741.32 526.91 0.0 0 1 98.60 825.61   A 741.32 526.91 0.0 0 1 839.92 298.70   A 741.32 526.91 0.0 0 1 1581.24 825.61   Z   M 664.71 885.85   Q 664.56 885.53 664.56 885.00   Q 664.48 839.50 664.68 794.00   Q 664.69 792.60 664.69 791.25   Q 664.75 760.29 664.73 729.78   A 2.30 2.29 -21.4 0 0 660.87 728.10   Q 648.45 739.57 636.20 749.59   C 621.43 761.68 605.63 771.49 587.38 775.21   Q 580.95 776.53 568.59 776.32   C 541.80 775.88 522.94 776.04 500.08 776.47   A 2.88 2.87 88.9 0 0 497.26 779.41   Q 497.73 799.42 497.43 816.75   Q 497.36 821.29 497.05 825.67   Q 495.35 849.56 476.20 862.65   C 453.09 878.44 423.11 877.12 402.33 857.81   C 385.56 842.22 379.11 819.76 381.22 796.97   Q 384.45 762.05 404.30 735.33   C 420.42 713.64 443.15 697.86 467.72 685.66   C 498.22 670.51 528.37 660.27 561.04 655.59   Q 596.73 650.47 635.88 651.62   C 727.84 654.32 820.20 666.22 910.16 687.61   Q 949.42 696.95 989.37 706.11   Q 1049.30 719.85 1104.75 727.76   Q 1123.99 730.50 1142.16 731.81   Q 1216.53 737.16 1284.26 713.47   Q 1294.40 709.92 1303.08 706.07   C 1358.92 681.32 1374.27 617.87 1365.96 562.59   A 1.40 1.40 0.0 0 0 1363.58 561.81   Q 1359.23 566.22 1354.76 570.51   Q 1289.10 633.45 1197.21 632.47   C 1195.76 632.46 1194.37 632.78 1192.91 632.76   Q 1153.78 632.19 1114.75 629.29   Q 1042.34 623.91 970.25 615.23   Q 912.34 608.26 858.42 601.73   C 817.13 596.72 775.68 594.09 735.11 593.63   C 684.57 593.06 633.18 596.12 583.82 604.06   Q 520.49 614.25 462.85 640.98   C 431.67 655.45 403.22 673.56 378.82 696.85   C 353.21 721.28 332.82 751.23 319.94 784.26   C 296.88 843.45 294.18 911.03 317.15 970.77   C 344.95 1043.06 415.84 1100.12 495.90 1096.13   C 567.43 1092.57 625.98 1040.06 654.36 976.69   A 2.12 2.12 0.0 0 1 657.54 975.83   Q 683.27 994.38 713.34 996.30   C 746.80 998.42 779.90 988.87 795.89 957.07   Q 803.82 941.30 805.17 922.98   Q 806.37 906.57 804.76 889.88   Q 804.41 886.28 800.65 886.28   Q 734.88 886.23 665.36 886.27   A 0.71 0.71 0.0 0 1 664.71 885.85   Z   M 1217.44 759.18   Q 1202.01 760.10 1184.25 759.71   Q 1181.26 759.65 1181.25 762.51   Q 1181.22 785.11 1181.37 804.75   Q 1181.78 858.59 1181.25 915.01   Q 1181.12 928.16 1181.35 940.51   C 1181.79 964.41 1190.73 986.04 1209.06 1001.29   C 1241.57 1028.33 1291.98 1026.32 1321.30 995.06   Q 1336.89 978.43 1341.40 956.37   Q 1342.83 949.36 1342.81 936.64   Q 1342.64 848.54 1342.80 760.52   C 1342.83 745.31 1343.17 730.09 1342.94 714.78   C 1342.92 713.73 1343.10 712.24 1342.47 711.36   A 1.44 1.43 49.0 0 0 1340.27 711.20   Q 1335.98 715.62 1331.49 720.39   C 1322.78 729.64 1311.38 736.55 1299.67 741.66   C 1274.60 752.61 1245.35 757.50 1217.44 759.18   Z   M 442.46 854.44   C 454.09 853.65 465.15 848.93 472.05 839.51   C 482.91 824.69 486.36 805.13 476.07 789.14   C 472.69 783.90 469.18 780.26 467.89 773.58   Q 467.11 769.50 468.18 764.93   C 472.54 746.31 486.27 737.36 504.99 734.85   A 0.82 0.80 -86.8 0 0 505.67 734.23   C 506.11 732.48 504.94 731.31 503.33 731.09   Q 490.12 729.28 476.52 729.84   C 458.49 730.59 439.87 739.06 426.85 750.84   C 407.86 768.02 401.99 791.87 403.66 816.54   C 405.12 837.97 419.45 856.01 442.46 854.44   Z   M 987.53 963.03   A 0.86 0.86 0.0 0 1 989.13 963.15   C 993.59 977.50 1000.72 989.20 1012.59 998.70   C 1022.98 1007.01 1036.19 1011.06 1049.58 1012.55   C 1069.15 1014.72 1091.16 1011.75 1108.06 1001.69   C 1133.24 986.70 1142.06 954.22 1142.99 926.67   Q 1143.60 908.55 1140.18 889.40   C 1139.39 884.99 1134.22 886.50 1131.32 886.50   Q 1071.14 886.53 1010.85 886.49   A 1.57 1.57 0.0 0 1 1009.28 885.04   Q 1008.87 879.72 1008.32 874.76   C 1002.71 824.66 976.13 766.72 923.63 751.05   C 913.59 748.05 901.78 746.67 891.00 745.84   Q 859.48 743.40 825.41 747.50   C 823.95 747.68 822.60 748.76 822.58 750.32   Q 822.16 802.17 822.82 853.95   A 1.49 1.49 0.0 0 0 824.29 855.42   Q 858.00 855.69 892.28 855.38   Q 906.31 855.25 909.71 855.77   C 918.98 857.18 926.01 862.11 931.77 869.38   C 934.56 872.90 938.39 876.58 939.80 880.96   C 941.08 884.97 935.88 886.49 932.96 886.49   Q 878.14 886.52 829.89 886.51   Q 825.90 886.51 825.49 890.15   Q 823.08 911.62 825.26 931.75   Q 827.09 948.79 832.61 961.84   C 843.48 987.54 866.61 1010.34 894.97 1014.68   Q 911.55 1017.22 927.28 1014.89   C 955.26 1010.76 974.28 993.13 985.28 967.90   Q 986.35 965.46 987.53 963.03   Z   M 1067.64 1044.99   C 1065.96 1043.81 1064.70 1042.03 1063.14 1040.62   C 1047.05 1026.07 1021.12 1029.75 1011.12 1049.71   C 1003.21 1065.49 1009.35 1086.29 1024.88 1094.42   Q 1033.26 1098.82 1043.65 1097.80   Q 1056.90 1096.50 1066.83 1085.44   A 2.48 2.47 43.4 0 1 1070.42 1085.34   C 1072.63 1087.52 1074.73 1089.78 1077.28 1091.56   Q 1090.89 1101.08 1107.05 1096.74   C 1121.88 1092.77 1130.02 1078.21 1129.73 1063.53   C 1129.36 1045.41 1114.14 1031.27 1096.05 1031.83   Q 1081.16 1032.30 1070.60 1044.61   A 2.23 2.23 0.0 0 1 1067.64 1044.99   Z   M 731.33 1045.28   A 1.93 1.93 0.0 0 1 728.37 1045.28   C 716.51 1031.23 695.46 1026.99 680.50 1039.08   C 671.61 1046.26 667.70 1057.74 668.92 1069.01   C 670.56 1084.21 682.19 1095.72 697.17 1097.85   Q 710.19 1099.70 721.57 1091.37   C 723.96 1089.62 725.93 1087.05 728.05 1084.93   A 2.56 2.56 0.0 0 1 731.77 1085.05   C 734.64 1088.30 737.58 1091.52 741.38 1093.62   Q 756.20 1101.82 770.88 1095.58   C 784.76 1089.67 792.31 1076.30 790.79 1061.28   C 788.79 1041.55 771.73 1029.27 752.49 1032.68   C 744.16 1034.16 736.88 1038.70 731.33 1045.28   Z"></path>
  <path fill="#efeff1" d="   M 664.71 885.85   A 0.71 0.71 0.0 0 0 665.36 886.27   Q 734.88 886.23 800.65 886.28   Q 804.41 886.28 804.76 889.88   Q 806.37 906.57 805.17 922.98   Q 803.82 941.30 795.89 957.07   C 779.90 988.87 746.80 998.42 713.34 996.30   Q 683.27 994.38 657.54 975.83   A 2.12 2.12 0.0 0 0 654.36 976.69   C 625.98 1040.06 567.43 1092.57 495.90 1096.13   C 415.84 1100.12 344.95 1043.06 317.15 970.77   C 294.18 911.03 296.88 843.45 319.94 784.26   C 332.82 751.23 353.21 721.28 378.82 696.85   C 403.22 673.56 431.67 655.45 462.85 640.98   Q 520.49 614.25 583.82 604.06   C 633.18 596.12 684.57 593.06 735.11 593.63   C 775.68 594.09 817.13 596.72 858.42 601.73   Q 912.34 608.26 970.25 615.23   Q 1042.34 623.91 1114.75 629.29   Q 1153.78 632.19 1192.91 632.76   C 1194.37 632.78 1195.76 632.46 1197.21 632.47   Q 1289.10 633.45 1354.76 570.51   Q 1359.23 566.22 1363.58 561.81   A 1.40 1.40 0.0 0 1 1365.96 562.59   C 1374.27 617.87 1358.92 681.32 1303.08 706.07   Q 1294.40 709.92 1284.26 713.47   Q 1216.53 737.16 1142.16 731.81   Q 1123.99 730.50 1104.75 727.76   Q 1049.30 719.85 989.37 706.11   Q 949.42 696.95 910.16 687.61   C 820.20 666.22 727.84 654.32 635.88 651.62   Q 596.73 650.47 561.04 655.59   C 528.37 660.27 498.22 670.51 467.72 685.66   C 443.15 697.86 420.42 713.64 404.30 735.33   Q 384.45 762.05 381.22 796.97   C 379.11 819.76 385.56 842.22 402.33 857.81   C 423.11 877.12 453.09 878.44 476.20 862.65   Q 495.35 849.56 497.05 825.67   Q 497.36 821.29 497.43 816.75   Q 497.73 799.42 497.26 779.41   A 2.88 2.87 88.9 0 1 500.08 776.47   C 522.94 776.04 541.80 775.88 568.59 776.32   Q 580.95 776.53 587.38 775.21   C 605.63 771.49 621.43 761.68 636.20 749.59   Q 648.45 739.57 660.87 728.10   A 2.30 2.29 -21.4 0 1 664.73 729.78   Q 664.75 760.29 664.69 791.25   Q 664.69 792.60 664.68 794.00   Q 664.48 839.50 664.56 885.00   Q 664.56 885.53 664.71 885.85   Z"></path>
  <path fill="#efeff1" d="   M 1217.44 759.18   C 1245.35 757.50 1274.60 752.61 1299.67 741.66   C 1311.38 736.55 1322.78 729.64 1331.49 720.39   Q 1335.98 715.62 1340.27 711.20   A 1.44 1.43 49.0 0 1 1342.47 711.36   C 1343.10 712.24 1342.92 713.73 1342.94 714.78   C 1343.17 730.09 1342.83 745.31 1342.80 760.52   Q 1342.64 848.54 1342.81 936.64   Q 1342.83 949.36 1341.40 956.37   Q 1336.89 978.43 1321.30 995.06   C 1291.98 1026.32 1241.57 1028.33 1209.06 1001.29   C 1190.73 986.04 1181.79 964.41 1181.35 940.51   Q 1181.12 928.16 1181.25 915.01   Q 1181.78 858.59 1181.37 804.75   Q 1181.22 785.11 1181.25 762.51   Q 1181.26 759.65 1184.25 759.71   Q 1202.01 760.10 1217.44 759.18   Z"></path>
  <path fill="#efeff1" d="   M 442.46 854.44   C 419.45 856.01 405.12 837.97 403.66 816.54   C 401.99 791.87 407.86 768.02 426.85 750.84   C 439.87 739.06 458.49 730.59 476.52 729.84   Q 490.12 729.28 503.33 731.09   C 504.94 731.31 506.11 732.48 505.67 734.23   A 0.82 0.80 -86.8 0 1 504.99 734.85   C 486.27 737.36 472.54 746.31 468.18 764.93   Q 467.11 769.50 467.89 773.58   C 469.18 780.26 472.69 783.90 476.07 789.14   C 486.36 805.13 482.91 824.69 472.05 839.51   C 465.15 848.93 454.09 853.65 442.46 854.44   Z"></path>
  <path fill="#efeff1" d="   M 987.53 963.03   Q 986.35 965.46 985.28 967.90   C 974.28 993.13 955.26 1010.76 927.28 1014.89   Q 911.55 1017.22 894.97 1014.68   C 866.61 1010.34 843.48 987.54 832.61 961.84   Q 827.09 948.79 825.26 931.75   Q 823.08 911.62 825.49 890.15   Q 825.90 886.51 829.89 886.51   Q 878.14 886.52 932.96 886.49   C 935.88 886.49 941.08 884.97 939.80 880.96   C 938.39 876.58 934.56 872.90 931.77 869.38   C 926.01 862.11 918.98 857.18 909.71 855.77   Q 906.31 855.25 892.28 855.38   Q 858.00 855.69 824.29 855.42   A 1.49 1.49 0.0 0 1 822.82 853.95   Q 822.16 802.17 822.58 750.32   C 822.60 748.76 823.95 747.68 825.41 747.50   Q 859.48 743.40 891.00 745.84   C 901.78 746.67 913.59 748.05 923.63 751.05   C 976.13 766.72 1002.71 824.66 1008.32 874.76   Q 1008.87 879.72 1009.28 885.04   A 1.57 1.57 0.0 0 0 1010.85 886.49   Q 1071.14 886.53 1131.32 886.50   C 1134.22 886.50 1139.39 884.99 1140.18 889.40   Q 1143.60 908.55 1142.99 926.67   C 1142.06 954.22 1133.24 986.70 1108.06 1001.69   C 1091.16 1011.75 1069.15 1014.72 1049.58 1012.55   C 1036.19 1011.06 1022.98 1007.01 1012.59 998.70   C 1000.72 989.20 993.59 977.50 989.13 963.15   A 0.86 0.86 0.0 0 0 987.53 963.03   Z"></path>
  <path fill="#efeff1" d="   M 1648.95 791.37   Q 1652.63 792.50 1652.86 798.50   Q 1653.86 824.76 1652.75 851.01   Q 1652.52 856.29 1649.46 857.26   Q 1648.46 857.39 1648.55 855.97   Q 1650.40 827.12 1649.67 816.25   Q 1648.84 804.00 1648.95 791.37   Z"></path>
  <path fill="#efeff1" d="   M 1067.64 1044.99   A 2.23 2.23 0.0 0 0 1070.60 1044.61   Q 1081.16 1032.30 1096.05 1031.83   C 1114.14 1031.27 1129.36 1045.41 1129.73 1063.53   C 1130.02 1078.21 1121.88 1092.77 1107.05 1096.74   Q 1090.89 1101.08 1077.28 1091.56   C 1074.73 1089.78 1072.63 1087.52 1070.42 1085.34   A 2.48 2.47 43.4 0 0 1066.83 1085.44   Q 1056.90 1096.50 1043.65 1097.80   Q 1033.26 1098.82 1024.88 1094.42   C 1009.35 1086.29 1003.21 1065.49 1011.12 1049.71   C 1021.12 1029.75 1047.05 1026.07 1063.14 1040.62   C 1064.70 1042.03 1065.96 1043.81 1067.64 1044.99   Z"></path>
  <path fill="#efeff1" d="   M 731.33 1045.28   C 736.88 1038.70 744.16 1034.16 752.49 1032.68   C 771.73 1029.27 788.79 1041.55 790.79 1061.28   C 792.31 1076.30 784.76 1089.67 770.88 1095.58   Q 756.20 1101.82 741.38 1093.62   C 737.58 1091.52 734.64 1088.30 731.77 1085.05   A 2.56 2.56 0.0 0 0 728.05 1084.93   C 725.93 1087.05 723.96 1089.62 721.57 1091.37   Q 710.19 1099.70 697.17 1097.85   C 682.19 1095.72 670.56 1084.21 668.92 1069.01   C 667.70 1057.74 671.61 1046.26 680.50 1039.08   C 695.46 1026.99 716.51 1031.23 728.37 1045.28   A 1.93 1.93 0.0 0 0 731.33 1045.28   Z"></path>
  <rect fill="#d2a64f" x="-0.30" y="-10.94" transform="translate(798.28,1423.65) rotate(-34.8)" width="0.60" height="21.88" rx="0.26"></rect>
</svg>
