<?xml version="1.0" encoding="UTF-8" standalone="no"?>
<svg xmlns="http://www.w3.org/2000/svg" version="1.1" viewBox="0.00 0.00 1773.00 1773.00">
  <g stroke-width="2.00" fill="none" stroke-linecap="butt">
    <path stroke="#e39497" vector-effect="non-scaling-stroke" d="   M 752.56 351.05   Q 752.35 352.05 750.53 351.32"></path>
    <path stroke="#d8232a" vector-effect="non-scaling-stroke" d="   M 1548.95 688.06   Q 1550.40 688.82 1551.59 688.14"></path>
    <path stroke="#e39497" vector-effect="non-scaling-stroke" d="   M 750.06 850.30   Q 751.44 850.04 749.74 849.39   Q 748.49 848.91 744.84 850.08"></path>
    <path stroke="#e39497" vector-effect="non-scaling-stroke" d="   M 599.29 1037.69   Q 598.92 1037.21 598.26 1037.21   Q 577.55 1037.15 513.50 1037.20   Q 510.62 1037.20 509.70 1037.72"></path>
    <path stroke="#d8232a" vector-effect="non-scaling-stroke" d="   M 420.48 1100.75   Q 420.31 1100.52 419.83 1100.88   Q 419.43 1101.17 418.93 1101.16   L 399.33 1100.79"></path>
    <path stroke="#d8232a" vector-effect="non-scaling-stroke" d="   M 425.97 1101.24   Q 428.00 1102.66 429.96 1101.45"></path>
    <path stroke="#d8232a" vector-effect="non-scaling-stroke" d="   M 434.68 1102.15   Q 435.15 1103.44 437.38 1102.57"></path>
    <path stroke="#d8232a" vector-effect="non-scaling-stroke" d="   M 400.70 1352.31   Q 399.47 1356.82 400.64 1361.61"></path>
    <path stroke="#d8232a" vector-effect="non-scaling-stroke" d="   M 243.00 1271.48   Q 242.73 1271.43 242.95 1270.77"></path>
    <path stroke="#d8232a" vector-effect="non-scaling-stroke" d="   M 388.84 1101.39   Q 390.28 1102.63 391.65 1101.27"></path>
    <path stroke="#d8232a" vector-effect="non-scaling-stroke" d="   M 1142.18 1104.04   Q 1142.23 1102.36 1141.44 1101.49   Q 1141.10 1101.11 1140.59 1101.10   L 1095.72 1100.74"></path>
    <path stroke="#d8232a" vector-effect="non-scaling-stroke" d="   M 1139.20 1131.77   Q 1138.14 1133.35 1138.15 1136.01   Q 1138.16 1137.78 1137.21 1140.52   Q 1137.00 1141.13 1137.55 1141.75"></path>
    <path stroke="#d8232a" vector-effect="non-scaling-stroke" d="   M 1136.85 1144.23   Q 1136.15 1145.81 1136.39 1147.71"></path>
    <path stroke="#d8232a" vector-effect="non-scaling-stroke" d="   M 1136.03 1148.80   C 1134.72 1151.13 1136.88 1152.66 1139.02 1152.78   Q 1144.30 1153.09 1149.62 1152.70"></path>
    <path stroke="#d8232a" vector-effect="non-scaling-stroke" d="   M 1117.51 1355.14   Q 1118.62 1356.06 1120.26 1355.47"></path>
    <path stroke="#d8232a" vector-effect="non-scaling-stroke" d="   M 1122.73 1356.07   Q 1127.97 1357.50 1133.40 1356.23"></path>
    <path stroke="#d8232a" vector-effect="non-scaling-stroke" d="   M 1040.94 1165.09   Q 1041.80 1163.89 1041.41 1161.72"></path>
    <path stroke="#d8232a" vector-effect="non-scaling-stroke" d="   M 1042.35 1155.51   Q 1043.75 1153.72 1045.75 1153.77   Q 1063.41 1154.19 1080.97 1153.33"></path>
    <path stroke="#d8232a" vector-effect="non-scaling-stroke" d="   M 517.47 1101.80   Q 496.27 1102.09 475.09 1101.87   C 473.99 1101.86 472.93 1102.24 471.81 1102.50"></path>
    <path stroke="#d8232a" vector-effect="non-scaling-stroke" d="   M 519.99 1102.05   Q 519.71 1103.86 520.34 1105.75"></path>
    <path stroke="#d8232a" vector-effect="non-scaling-stroke" d="   M 519.18 1113.01   Q 517.65 1115.73 518.60 1117.39"></path>
    <path stroke="#d8232a" vector-effect="non-scaling-stroke" d="   M 518.22 1119.50   Q 516.74 1121.26 517.56 1123.33"></path>
    <path stroke="#d8232a" vector-effect="non-scaling-stroke" d="   M 517.38 1125.69   Q 516.11 1126.92 516.66 1128.75"></path>
    <path stroke="#f48f93" vector-effect="non-scaling-stroke" d="   M 602.52 1232.07   Q 601.60 1240.60 602.53 1249.16"></path>
    <path stroke="#d8232a" vector-effect="non-scaling-stroke" d="   M 601.92 1255.31   Q 600.88 1258.81 601.71 1261.45"></path>
    <path stroke="#d8232a" vector-effect="non-scaling-stroke" d="   M 470.07 1109.91   Q 470.74 1108.46 470.42 1106.78"></path>
    <path stroke="#d8232a" vector-effect="non-scaling-stroke" d="   M 1353.71 1268.46   Q 1352.90 1280.18 1353.61 1291.88"></path>
    <path stroke="#d8232a" vector-effect="non-scaling-stroke" d="   M 744.60 1188.30   Q 739.50 1189.18 734.35 1188.31"></path>
    <path stroke="#d8232a" vector-effect="non-scaling-stroke" d="   M 747.51 1341.39   Q 751.68 1338.75 754.07 1334.77"></path>
    <path stroke="#d8232a" vector-effect="non-scaling-stroke" d="   M 621.22 1329.98   Q 622.18 1322.61 621.35 1315.25"></path>
    <path stroke="#d8232a" vector-effect="non-scaling-stroke" d="   M 923.30 1356.01   Q 928.94 1357.59 934.54 1356.00"></path>
    <path stroke="#d8232a" vector-effect="non-scaling-stroke" d="   M 837.45 1333.12   L 837.47 1312.96"></path>
    <path stroke="#d8232a" vector-effect="non-scaling-stroke" d="   M 1455.37 1322.45   Q 1450.40 1326.01 1447.76 1330.46"></path>
    <path stroke="#d8232a" vector-effect="non-scaling-stroke" d="   M 1430.07 1348.79   Q 1427.32 1350.01 1426.26 1352.65   A 0.99 0.99 0.0 0 0 1427.20 1354.01   L 1451.76 1353.30"></path>
    <path stroke="#d8232a" vector-effect="non-scaling-stroke" d="   M 1481.93 1353.23   Q 1484.87 1353.82 1487.87 1353.76   Q 1490.88 1353.70 1493.78 1353.75   Q 1498.84 1353.83 1503.52 1353.91   A 3.00 3.00 0.0 0 1 1506.47 1356.90   L 1506.51 1369.20"></path>
    <path stroke="#d8232a" vector-effect="non-scaling-stroke" d="   M 1505.82 1373.81   Q 1504.92 1375.94 1505.41 1378.22"></path>
    <path stroke="#d8232a" vector-effect="non-scaling-stroke" d="   M 1407.30 1406.70   Q 1407.38 1406.63 1407.35 1406.43   A 0.37 0.36 -2.9 0 0 1407.01 1406.13   Q 1398.98 1405.44 1390.83 1406.31"></path>
    <path stroke="#d8232a" vector-effect="non-scaling-stroke" d="   M 1372.11 1405.87   Q 1370.29 1404.43 1367.73 1405.59"></path>
    <path stroke="#d8232a" vector-effect="non-scaling-stroke" d="   M 1454.63 1250.29   Q 1455.19 1249.62 1454.37 1249.09   C 1453.60 1248.59 1452.77 1248.18 1451.80 1248.18   Q 1431.02 1248.09 1410.25 1248.20   Q 1405.41 1248.23 1401.94 1249.01"></path>
    <path stroke="#e39497" vector-effect="non-scaling-stroke" d="   M 1060.13 867.32   Q 1060.21 868.95 1062.04 868.97   Q 1067.18 869.01 1072.73 869.10   Q 1076.35 869.16 1076.60 872.77   L 1076.73 874.54   Q 1076.97 877.94 1073.56 878.18   Q 1047.21 880.05 1021.82 878.31   C 1018.46 878.08 1014.86 877.37 1016.45 872.78   Q 1045.85 787.71 1075.53 702.51   Q 1078.05 695.28 1080.18 688.61   A 1.29 1.28 6.1 0 0 1078.83 686.94   Q 1032.94 691.48 986.68 696.07   C 984.14 696.32 983.42 694.05 984.39 691.93   C 1000.62 656.68 1005.77 617.89 987.13 582.42   C 972.06 553.73 945.92 532.89 915.92 519.85   C 913.77 518.91 913.30 516.82 914.36 514.66   C 920.94 501.28 926.98 487.85 929.47 473.58   C 932.91 453.78 926.67 436.83 915.26 420.92   C 897.45 396.07 871.01 386.41 840.86 390.61   Q 831.81 391.86 822.74 393.82   A 4.26 4.26 0.0 0 1 819.08 392.89   C 815.12 389.48 811.39 385.62 807.20 382.39   C 786.40 366.33 759.18 362.35 733.56 367.86   C 699.96 375.08 668.76 395.39 650.78 424.88   Q 628.47 461.46 638.64 503.96   Q 639.28 506.65 636.49 507.08   C 593.42 513.63 553.33 530.65 516.48 554.88   A 1.50 1.48 52.9 0 1 514.53 554.60   Q 513.94 553.90 514.00 552.80   C 515.63 522.53 504.01 496.39 478.32 480.50   C 448.16 461.85 407.76 467.11 378.10 483.56   C 356.70 495.43 338.57 513.95 328.78 536.39   Q 314.48 569.18 325.55 603.99   Q 326.57 607.19 323.03 607.14   C 319.84 607.09 312.83 606.90 311.49 610.61   Q 237.67 815.70 163.44 1021.94   Q 162.63 1024.21 164.94 1024.86   Q 165.46 1025.01 167.25 1025.01   Q 252.12 1025.03 337.00 1024.94   Q 341.57 1024.93 343.10 1020.66   Q 386.95 898.84 430.61 777.63   A 1.06 1.06 0.0 0 1 432.45 777.34   C 456.42 808.51 489.83 822.85 527.30 833.19   A 1.16 1.15 17.6 0 1 528.09 834.70   Q 494.40 926.72 460.59 1019.13   Q 460.19 1020.23 459.92 1021.38   A 1.34 1.33 -77.5 0 0 460.94 1022.99   Q 462.34 1023.30 463.67 1023.30   Q 549.92 1023.45 636.48 1023.33   Q 641.36 1023.32 642.95 1018.86   Q 671.83 937.73 700.82 855.76   Q 703.23 848.97 705.68 842.55   A 3.88 3.86 6.6 0 1 708.80 840.09   Q 737.29 836.42 769.91 832.34   Q 770.32 832.29 770.71 832.43   A 1.05 1.04 -69.2 0 1 771.33 833.82   C 747.58 890.38 756.76 948.57 805.75 987.40   C 829.13 1005.93 857.09 1016.52 886.68 1023.63   C 910.77 1029.43 935.49 1032.69 960.52 1035.11   Q 1021.31 1040.98 1080.46 1036.49   C 1158.50 1030.57 1237.26 1009.14 1301.52 965.53   A 1.15 1.14 -18.9 0 1 1303.31 966.40   Q 1303.55 970.04 1303.72 973.43   Q 1304.48 988.41 1310.28 1002.45   C 1325.19 1038.58 1361.82 1053.02 1399.01 1047.89   C 1441.55 1042.02 1477.23 1011.91 1492.76 972.12   C 1494.18 968.49 1495.01 965.71 1498.59 964.62   C 1534.42 953.70 1565.49 927.28 1576.00 891.01   C 1579.50 878.92 1580.38 865.08 1578.05 852.60   Q 1576.00 841.58 1569.53 829.45   C 1568.33 827.20 1567.71 823.84 1568.55 821.53   Q 1589.64 763.58 1609.26 709.63   A 2.83 2.83 0.0 0 0 1606.77 705.84   Q 1581.22 704.26 1553.86 703.24   C 1522.47 702.06 1500.00 678.16 1488.93 650.69   Q 1485.66 642.59 1482.64 631.62   C 1475.48 605.67 1465.96 579.33 1453.28 556.26   C 1437.38 527.33 1414.89 503.33 1383.54 492.64   Q 1354.88 482.86 1324.68 489.13   Q 1288.50 496.64 1260.54 520.55   C 1239.90 538.20 1223.84 561.81 1211.88 586.41   C 1196.70 617.60 1185.44 651.45 1174.33 684.57   C 1173.00 688.53 1169.41 689.41 1165.71 689.33   Q 1144.92 688.90 1123.60 689.13   A 1.86 1.85 -80.7 0 0 1121.88 690.37   L 1060.17 864.25"></path>
    <path stroke="#f48f93" vector-effect="non-scaling-stroke" d="   M 787.7694 426.4870   A 62.00 43.88 -34.9 0 0 711.8142 425.9717   A 62.00 43.88 -34.9 0 0 686.0706 497.4330   A 62.00 43.88 -34.9 0 0 762.0258 497.9483   A 62.00 43.88 -34.9 0 0 787.7694 426.4870"></path>
    <path stroke="#f48f93" vector-effect="non-scaling-stroke" d="   M 879.3582 448.3373   A 51.24 36.32 -34.5 0 0 816.5581 447.4277   A 51.24 36.32 -34.5 0 0 794.9018 506.3827   A 51.24 36.32 -34.5 0 0 857.7019 507.2923   A 51.24 36.32 -34.5 0 0 879.3582 448.3373"></path>
    <path stroke="#f48f93" vector-effect="non-scaling-stroke" d="   M 463.3491 527.5137   A 56.48 39.94 -35.1 0 0 394.1743 527.3131   A 56.48 39.94 -35.1 0 0 370.9309 592.4663   A 56.48 39.94 -35.1 0 0 440.1057 592.6669   A 56.48 39.94 -35.1 0 0 463.3491 527.5137"></path>
    <path stroke="#f48f93" vector-effect="non-scaling-stroke" d="   M 1260.61 794.50   A 0.77 0.76 89.7 0 1 1261.43 793.66   Q 1271.16 794.47 1279.34 794.47   Q 1405.00 794.56 1526.53 794.50   C 1528.86 794.49 1530.73 793.08 1531.51 790.87   Q 1538.72 770.51 1545.40 751.83   Q 1546.23 749.51 1543.79 749.09   Q 1502.94 742.08 1474.62 712.08   C 1457.73 694.19 1446.73 672.40 1439.93 648.31   C 1425.63 597.63 1401.53 520.35 1332.12 534.04   C 1312.22 537.97 1294.74 549.40 1280.84 564.28   Q 1268.95 577.00 1260.50 591.34   Q 1253.85 602.63 1249.90 611.60   Q 1232.24 651.74 1216.14 700.89   C 1215.62 702.47 1214.92 703.99 1215.37 705.62   Q 1215.73 706.90 1217.06 706.91   Q 1247.79 706.96 1278.05 706.90   C 1280.32 706.90 1282.12 706.16 1282.74 703.96   Q 1292.62 668.68 1302.77 641.04   Q 1307.15 629.12 1314.22 618.99   C 1325.68 602.56 1340.06 616.93 1346.74 628.09   Q 1349.30 632.36 1352.91 643.60   Q 1367.73 689.69 1392.77 733.28   A 1.11 1.10 -21.3 0 1 1392.05 734.91   Q 1391.03 735.13 1390.00 735.13   Q 1313.00 735.05 1236.00 734.87   Q 1233.66 734.87 1231.50 734.87   Q 1194.04 734.81 1156.77 734.82   A 3.37 3.35 9.7 0 0 1153.60 737.05   Q 1138.96 778.32 1123.92 820.70   Q 1123.46 822.01 1123.84 823.31   A 1.59 1.59 0.0 0 0 1125.29 824.47   Q 1167.79 826.76 1206.73 843.01   Q 1218.69 847.99 1229.53 856.97   Q 1232.78 859.66 1235.31 863.39   Q 1240.03 870.33 1234.05 876.01   C 1222.18 887.31 1206.13 895.19 1191.12 900.68   C 1114.29 928.80 1029.57 931.92 949.73 914.08   Q 929.47 909.55 911.32 900.90   C 900.55 895.77 889.03 887.87 884.53 876.73   C 880.03 865.58 885.98 853.11 893.79 844.94   C 906.93 831.20 927.38 826.01 946.78 824.05   Q 964.60 822.26 982.57 822.94   Q 985.64 823.06 986.66 820.08   Q 1000.18 780.63 1013.04 743.16   Q 1013.50 741.81 1012.45 740.81   A 2.73 2.72 66.0 0 0 1010.50 740.06   C 1002.66 740.29 994.87 740.94 987.28 742.30   C 911.47 755.90 809.89 797.68 804.72 889.05   C 801.65 943.54 850.38 968.14 895.71 978.82   Q 938.96 989.01 983.42 991.19   Q 1019.63 992.97 1059.57 991.56   Q 1112.69 989.69 1163.02 977.26   Q 1185.41 971.73 1211.02 962.02   Q 1220.40 958.46 1229.41 954.10   Q 1240.86 948.57 1249.66 943.79   Q 1263.36 936.35 1279.66 924.39   C 1305.63 905.35 1336.50 868.53 1317.06 834.39   C 1305.10 813.39 1282.58 804.68 1261.31 795.44   Q 1260.67 795.17 1260.61 794.50"></path>
    <path stroke="#f48f93" vector-effect="non-scaling-stroke" d="   M 878.00 745.38   Q 885.77 740.61 894.25 733.99   Q 925.15 709.82 941.66 676.77   Q 948.65 662.77 951.45 648.14   C 958.15 613.11 941.66 585.20 911.73 568.67   Q 877.16 549.57 833.22 544.25   C 831.32 544.02 828.72 544.19 827.93 546.30   Q 813.67 584.67 798.78 624.81   Q 798.26 626.19 798.86 627.53   Q 799.32 628.55 800.43 628.44   Q 818.96 626.67 837.89 629.33   C 850.60 631.13 872.00 636.42 873.85 651.40   C 875.29 663.04 866.90 675.40 858.46 682.67   Q 847.45 692.15 835.02 698.13   Q 813.72 708.37 788.30 714.67   Q 744.69 725.48 699.91 727.91   A 1.19 1.19 0.0 0 1 698.73 726.31   Q 712.47 688.82 725.12 652.97   C 732.83 631.13 737.40 607.16 734.36 584.20   C 730.19 552.65 696.17 549.39 671.44 550.14   C 596.42 552.41 518.32 591.08 480.41 657.57   Q 467.17 680.78 461.99 706.76   Q 459.52 719.18 461.76 731.37   C 466.67 758.10 491.08 773.64 514.76 782.16   C 538.09 790.55 563.04 794.26 588.20 796.21   A 1.92 1.92 0.0 0 1 589.86 798.79   L 524.97 975.63   Q 524.51 976.88 525.79 977.27   Q 526.12 977.37 526.46 977.37   Q 567.39 977.29 606.82 977.34   A 3.66 3.65 9.7 0 0 610.27 974.91   Q 641.35 887.19 672.26 800.00   C 672.91 798.17 673.98 796.46 676.14 796.35   C 723.07 793.90 766.78 788.32 809.91 775.55   Q 827.95 770.21 846.14 762.03   C 847.05 761.62 848.02 761.73 848.75 761.37   Q 863.77 754.10 878.00 745.38"></path>
    <path stroke="#f48f93" vector-effect="non-scaling-stroke" d="   M 425.98 655.78   A 1.56 1.56 0.0 0 0 424.50 653.69   L 345.33 654.01   A 1.56 1.56 0.0 0 0 343.87 655.04   L 227.96 977.34   A 1.56 1.56 0.0 0 0 229.44 979.43   L 308.60 979.11   A 1.56 1.56 0.0 0 0 310.06 978.08   L 425.98 655.78"></path>
    <path stroke="#f48f93" vector-effect="non-scaling-stroke" d="   M 1437.5212 829.3554   A 62.01 43.96 -35.2 0 0 1361.5100 829.1783   A 62.01 43.96 -35.2 0 0 1336.1788 900.8446   A 62.01 43.96 -35.2 0 0 1412.1900 901.0217   A 62.01 43.96 -35.2 0 0 1437.5212 829.3554"></path>
    <path stroke="#f48f93" vector-effect="non-scaling-stroke" d="   M 1529.1088 851.1072   A 51.21 36.44 -35.0 0 0 1466.2589 850.6301   A 51.21 36.44 -35.0 0 0 1445.2112 909.8528   A 51.21 36.44 -35.0 0 0 1508.0611 910.3299   A 51.21 36.44 -35.0 0 0 1529.1088 851.1072"></path>
    <path stroke="#f48f93" vector-effect="non-scaling-stroke" d="   M 1446.8936 924.9397   A 56.40 40.10 -35.1 0 0 1377.6923 924.5622   A 56.40 40.10 -35.1 0 0 1354.6064 989.8003   A 56.40 40.10 -35.1 0 0 1423.8077 990.1778   A 56.40 40.10 -35.1 0 0 1446.8936 924.9397"></path>
    <path stroke="#f48f93" vector-effect="non-scaling-stroke" d="   M 647.14 609.69   C 636.39 606.45 622.10 610.60 612.18 615.41   Q 586.15 628.01 570.15 650.01   Q 560.28 663.59 553.92 678.30   C 551.99 682.77 549.76 687.32 549.40 692.27   C 547.42 719.52 596.16 726.73 614.69 727.64   A 1.42 1.42 0.0 0 0 616.08 726.74   Q 629.15 693.46 642.76 659.47   Q 648.44 645.30 650.69 629.71   C 651.51 624.01 651.73 615.33 648.16 610.42   Q 647.77 609.89 647.14 609.69"></path>
    <path stroke="#d8232a" vector-effect="non-scaling-stroke" d="   M 1204.14 1305.53   Q 1201.89 1312.09 1204.11 1318.65"></path>
    <path stroke="#d8232a" vector-effect="non-scaling-stroke" d="   M 1306.95 1302.24   Q 1306.81 1302.03 1306.89 1301.52"></path>
    <path stroke="#d8232a" vector-effect="non-scaling-stroke" d="   M 1307.93 1296.61   Q 1310.07 1288.93 1307.84 1281.71"></path>
  </g>
  <path fill="#ffffff" d="   M 752.56 351.05   Q 752.35 352.05 750.53 351.32   Q 751.40 350.94 752.56 351.05   Z"></path>
  <path fill="#c7282e" d="   M 1548.95 688.06   Q 1550.40 688.82 1551.59 688.14   C 1555.75 689.26 1560.17 688.80 1564.39 688.83   Q 1568.79 688.87 1573.13 689.44   Q 1577.33 690.00 1582.16 689.77   Q 1585.69 689.61 1589.19 690.22   C 1594.21 691.10 1599.33 690.11 1604.43 691.18   Q 1608.12 691.95 1611.92 691.62   Q 1612.45 691.58 1612.92 691.83   Q 1613.91 692.35 1615.00 692.61   Q 1620.84 694.01 1623.52 699.46   C 1624.08 700.60 1623.68 701.68 1624.45 702.63   Q 1624.72 702.96 1624.79 703.39   Q 1625.01 704.78 1624.79 706.21   Q 1623.81 712.54 1621.22 718.03   A 1.53 1.48 55.9 0 0 1621.09 718.77   Q 1621.15 719.45 1620.73 719.91   Q 1620.44 720.23 1620.30 720.64   L 1608.60 753.41   Q 1608.47 753.78 1608.23 754.09   C 1607.75 754.70 1607.93 755.34 1607.67 756.05   Q 1605.74 761.26 1603.93 766.63   C 1603.62 767.53 1603.07 767.91 1603.09 768.97   Q 1603.09 769.48 1602.80 769.89   Q 1602.42 770.43 1602.09 771.43   Q 1594.56 793.65 1585.00 818.71   Q 1584.21 820.77 1584.17 822.42   Q 1584.12 824.23 1584.43 826.26   Q 1584.46 826.47 1584.62 826.63   Q 1584.89 826.88 1584.99 827.23   Q 1585.96 830.65 1587.73 833.59   Q 1588.00 834.05 1587.98 834.59   Q 1587.94 835.32 1588.42 835.84   Q 1588.65 836.10 1588.77 836.44   Q 1591.03 843.10 1591.82 848.55   Q 1592.02 849.93 1592.55 851.15   Q 1592.74 851.59 1592.73 852.08   C 1592.66 855.39 1593.75 858.31 1593.73 861.60   Q 1593.68 868.80 1593.70 875.72   C 1593.71 878.57 1592.46 881.01 1592.80 883.94   Q 1592.87 884.53 1592.56 885.05   Q 1591.57 886.65 1591.86 888.62   Q 1591.95 889.26 1591.60 889.80   C 1590.80 891.02 1590.89 892.40 1590.50 893.81   Q 1584.32 915.95 1569.52 934.29   Q 1562.77 942.66 1554.95 949.49   Q 1552.16 951.91 1549.41 954.11   Q 1532.23 967.86 1510.99 976.01   Q 1508.65 976.91 1506.86 978.95   Q 1504.14 982.04 1503.02 986.37   Q 1502.89 986.86 1502.53 987.21   Q 1502.04 987.68 1502.08 988.41   Q 1502.11 988.96 1501.85 989.45   C 1483.12 1024.67 1450.87 1051.83 1411.92 1060.29   Q 1405.98 1061.58 1399.06 1062.34   Q 1390.84 1063.24 1385.90 1063.29   Q 1379.47 1063.36 1369.87 1062.21   C 1348.02 1059.58 1328.03 1050.50 1313.33 1034.57   Q 1298.83 1018.86 1292.14 995.74   Q 1291.81 994.58 1291.77 993.61   Q 1291.76 993.17 1291.55 992.78   L 1290.60 990.93   A 0.71 0.71 0.0 0 0 1289.39 990.85   C 1288.81 991.69 1288.12 991.68 1287.31 992.13   Q 1256.32 1009.06 1222.93 1021.35   Q 1194.77 1031.71 1163.59 1038.30   Q 1129.24 1045.56 1097.87 1048.76   Q 1088.00 1049.77 1078.31 1050.74   Q 1073.76 1051.19 1069.50 1051.15   Q 1066.47 1051.13 1063.48 1051.63   C 1057.58 1052.61 1051.06 1052.06 1045.12 1052.13   C 1043.93 1052.14 1042.86 1052.50 1041.64 1052.51   Q 1026.48 1052.58 1011.25 1052.38   Q 1009.34 1052.36 1007.47 1052.26   Q 1001.83 1051.96 995.85 1052.09   Q 992.06 1052.17 987.26 1051.44   Q 983.54 1050.88 978.82 1051.16   Q 977.19 1051.26 975.04 1050.68   C 971.45 1049.73 967.88 1050.57 964.23 1049.83   C 960.93 1049.16 957.37 1049.09 953.93 1048.72   Q 915.11 1044.53 876.76 1036.02   Q 854.16 1031.00 833.86 1021.46   Q 805.28 1008.04 785.29 989.10   Q 765.99 970.82 755.06 947.03   Q 750.57 937.25 748.11 927.52   Q 743.96 911.16 744.27 892.48   Q 744.61 872.15 748.99 855.72   C 749.23 854.83 748.95 853.69 749.52 853.05   C 750.22 852.26 750.33 851.29 750.06 850.30   Q 751.44 850.04 749.74 849.39   Q 748.49 848.91 744.84 850.08   C 741.52 850.06 738.47 851.21 735.26 851.08   Q 733.07 850.99 731.16 851.61   C 728.46 852.49 726.02 851.52 723.43 852.85   Q 723.00 853.07 722.51 853.01   Q 719.82 852.67 717.71 853.87   Q 717.23 854.14 717.01 854.64   Q 716.04 856.79 715.23 859.12   Q 710.82 871.86 706.65 883.61   C 706.37 884.39 705.72 884.88 705.85 885.79   Q 705.95 886.40 705.53 886.86   L 705.12 887.30   Q 704.76 887.70 704.84 888.23   Q 704.96 889.02 704.50 889.64   Q 704.16 890.11 704.00 890.66   Q 702.94 894.32 701.36 897.96   Q 701.09 898.59 701.06 899.28   Q 701.04 899.80 700.68 900.16   Q 700.03 900.83 700.08 901.75   Q 700.12 902.25 699.89 902.70   Q 699.25 903.98 698.75 905.41   Q 677.12 966.56 655.10 1028.58   Q 653.13 1034.12 647.26 1036.47   C 645.51 1037.18 643.88 1036.97 642.06 1037.26   Q 641.04 1037.42 639.94 1037.42   Q 620.72 1037.43 601.50 1037.44   Q 600.35 1037.44 599.29 1037.69   Q 598.92 1037.21 598.26 1037.21   Q 577.55 1037.15 513.50 1037.20   Q 510.62 1037.20 509.70 1037.72   Q 492.94 1037.40 458.25 1037.43   Q 451.90 1037.44 447.55 1032.06   Q 443.11 1026.58 445.29 1019.52   Q 450.63 1002.19 456.25 987.28   Q 483.30 915.47 503.71 858.29   Q 503.81 858.00 503.87 857.72   Q 503.96 857.22 504.33 856.87   Q 504.89 856.34 504.84 855.55   Q 504.80 855.01 505.04 854.54   Q 506.13 852.39 506.81 849.96   Q 507.00 849.28 507.44 848.83   Q 507.70 848.55 507.65 848.18   Q 507.56 847.44 507.90 846.79   Q 508.19 846.21 508.42 845.58   Q 508.82 844.46 508.72 843.89   A 3.39 2.49 -2.9 0 0 505.53 841.78   Q 504.36 841.76 503.45 841.09   A 1.51 1.42 -22.8 0 0 502.75 840.83   L 501.07 840.67   Q 500.53 840.61 500.18 840.20   Q 499.82 839.75 499.24 839.78   Q 498.77 839.80 498.29 839.64   Q 467.49 829.58 442.94 809.97   Q 440.69 808.17 438.68 806.23   A 1.91 1.90 35.1 0 0 435.65 806.76   Q 435.13 807.81 434.68 809.05   Q 409.81 878.76 383.07 952.92   Q 382.78 953.70 382.42 954.34   A 3.02 3.01 -23.9 0 0 382.09 955.19   Q 381.92 955.93 381.65 956.69   Q 374.12 978.05 366.27 999.46   Q 366.11 999.91 366.06 1000.38   Q 366.00 1000.92 365.58 1001.25   A 1.18 1.17 -24.3 0 0 365.16 1002.35   Q 365.33 1003.38 364.60 1004.09   Q 364.24 1004.45 364.18 1004.95   Q 364.09 1005.76 363.80 1006.53   Q 359.48 1018.30 355.45 1029.87   Q 353.10 1036.60 346.73 1038.69   Q 344.73 1039.35 336.72 1039.35   Q 259.66 1039.37 179.65 1039.26   C 175.42 1039.26 170.66 1038.54 166.28 1039.00   Q 164.43 1039.19 162.55 1039.03   C 159.81 1038.79 157.77 1039.16 155.04 1037.99   C 151.63 1036.52 149.36 1032.45 148.44 1029.01   C 147.92 1027.02 148.20 1025.01 148.12 1022.98   Q 148.08 1021.78 148.48 1020.65   Q 157.03 996.70 165.67 972.82   Q 165.96 972.00 166.08 971.10   Q 166.14 970.65 166.41 970.29   Q 166.49 970.18 166.58 970.09   Q 166.67 969.99 166.72 969.86   Q 181.12 929.67 195.94 888.59   Q 196.23 887.76 196.29 886.96   Q 196.33 886.55 196.63 886.27   C 197.37 885.62 197.14 884.81 197.47 883.93   Q 200.94 874.76 204.33 865.30   Q 250.99 735.07 296.46 608.77   Q 299.34 600.75 306.12 593.52   Q 306.48 593.13 306.54 592.61   Q 307.06 588.03 306.33 583.89   Q 305.72 580.46 305.71 577.15   C 305.69 573.97 305.53 570.73 306.04 567.62   C 306.66 563.74 306.67 560.00 307.39 556.10   Q 309.43 545.11 312.80 535.95   Q 313.21 534.84 313.82 533.86   C 314.36 533.00 314.36 532.00 314.82 531.04   Q 321.05 518.02 327.61 509.41   Q 335.65 498.85 344.52 490.46   Q 348.51 486.69 352.71 483.23   Q 377.58 462.71 409.29 456.27   Q 411.20 455.89 413.06 455.71   C 414.79 455.55 416.36 454.71 418.05 454.83   Q 420.33 455.00 422.56 454.43   Q 424.71 453.88 426.99 453.87   C 432.93 453.85 439.37 453.47 445.34 454.31   Q 448.33 454.73 451.36 455.19   Q 480.66 459.67 501.32 479.79   Q 508.60 486.88 513.72 495.12   Q 523.77 511.27 527.43 529.64   A 0.94 0.94 0.0 0 0 528.83 530.26   Q 543.45 521.72 558.43 514.89   Q 571.21 509.06 583.19 505.27   Q 584.71 504.79 586.15 504.11   Q 586.57 503.91 587.05 503.92   C 588.21 503.94 588.67 503.37 589.66 503.07   Q 594.78 501.51 599.60 500.24   Q 600.22 500.07 600.82 500.07   Q 601.29 500.06 601.69 499.81   Q 602.92 499.03 604.41 499.12   Q 605.02 499.15 605.55 498.85   C 607.06 498.01 608.46 498.42 610.02 497.75   Q 611.59 497.08 613.42 497.22   Q 613.97 497.27 614.43 496.95   Q 615.85 495.97 617.84 496.40   A 1.11 1.10 22.6 0 0 618.98 495.94   Q 619.39 495.32 620.15 495.36   A 0.75 0.75 0.0 0 0 620.92 494.46   Q 620.74 493.59 621.41 493.01   Q 622.05 492.45 621.29 492.09   Q 621.09 492.00 620.99 491.78   Q 620.89 491.58 620.89 491.35   Q 620.88 480.19 620.87 468.00   C 620.87 465.15 622.06 462.84 621.85 459.91   Q 621.81 459.34 622.07 458.82   C 622.88 457.23 622.62 455.69 622.99 454.03   C 627.32 434.39 636.72 416.86 649.90 401.64   Q 651.32 399.98 653.54 397.28   Q 659.22 390.36 671.71 380.48   Q 696.59 360.77 728.90 354.12   C 730.63 353.76 732.21 353.91 733.86 353.16   Q 734.28 352.97 734.75 352.93   L 750.53 351.32   Q 752.35 352.05 752.56 351.05   C 756.64 350.98 760.83 350.75 764.82 351.47   Q 767.80 352.00 770.81 351.95   Q 772.25 351.92 773.53 352.52   C 774.73 353.07 776.15 352.81 777.47 353.11   C 794.87 357.07 810.15 365.63 824.36 376.46   Q 825.33 377.20 826.55 377.34   C 830.76 377.82 834.36 376.67 838.43 376.46   C 842.32 376.25 845.96 375.53 849.93 375.52   Q 869.04 375.46 883.37 379.95   Q 908.96 387.97 925.60 409.63   Q 933.96 420.52 938.77 432.47   Q 942.22 441.04 943.19 449.33   Q 943.75 454.12 944.25 458.93   Q 944.66 462.78 944.15 466.27   C 943.66 469.59 943.73 472.87 943.27 476.15   Q 940.95 492.64 934.55 507.49   C 933.08 510.91 936.33 513.30 938.96 514.73   Q 940.82 515.75 942.52 516.82   Q 956.37 525.57 967.53 535.18   Q 972.10 539.11 981.86 549.32   Q 983.46 550.98 984.66 552.56   Q 985.93 554.23 987.25 555.89   Q 1008.05 582.03 1012.23 615.21   Q 1012.85 620.11 1013.24 629.17   C 1013.50 635.05 1012.76 641.12 1012.24 646.95   Q 1011.50 655.09 1008.45 668.87   Q 1008.34 669.35 1008.04 669.75   C 1007.52 670.44 1007.85 672.02 1007.37 673.04   C 1006.63 674.63 1006.50 676.46 1005.79 678.15   A 0.90 0.90 0.0 0 0 1006.58 679.40   C 1010.29 679.55 1013.74 678.73 1017.35 678.44   Q 1029.01 677.50 1041.39 676.15   C 1045.26 675.72 1049.35 675.85 1053.11 675.05   C 1056.26 674.37 1059.40 675.10 1062.34 674.22   C 1065.50 673.26 1068.51 674.19 1071.52 673.31   Q 1073.50 672.73 1075.54 672.76   Q 1080.79 672.83 1085.72 672.78   Q 1086.28 672.78 1086.63 673.22   Q 1087.07 673.77 1087.79 673.72   A 1.49 1.45 56.7 0 1 1088.55 673.89   Q 1094.32 677.11 1094.64 684.09   C 1095.01 692.03 1093.15 696.86 1089.98 705.92   Q 1054.58 807.02 1036.08 862.00   Q 1035.59 863.45 1036.93 864.89   Q 1037.30 865.29 1037.84 865.29   Q 1038.77 865.30 1039.73 865.29   C 1042.60 865.25 1045.69 860.37 1046.46 858.20   Q 1067.97 797.95 1089.86 736.13   Q 1098.85 710.74 1107.77 685.73   Q 1110.32 678.57 1115.75 676.04   Q 1118.93 674.55 1123.66 674.59   Q 1140.86 674.74 1159.42 674.64   C 1161.35 674.63 1162.90 673.33 1163.48 671.52   Q 1174.81 636.32 1182.90 615.58   Q 1189.95 597.52 1197.89 581.23   Q 1204.32 568.05 1213.88 552.95   Q 1227.78 530.98 1246.93 513.18   Q 1263.95 497.35 1285.85 486.69   Q 1308.67 475.57 1334.68 472.77   Q 1338.05 472.40 1347.45 472.40   C 1384.57 472.37 1417.82 486.96 1442.01 514.68   Q 1457.34 532.25 1467.71 552.16   Q 1476.96 569.91 1483.71 588.79   Q 1486.30 596.06 1488.36 602.27   Q 1495.58 624.01 1502.24 644.22   Q 1505.74 654.85 1515.41 667.11   Q 1525.73 680.20 1541.28 685.87   Q 1543.12 686.54 1545.11 687.01   Q 1547.06 687.47 1548.95 688.06   Z   M 1060.17 864.25   Q 1059.39 865.46 1060.13 867.32   Q 1060.21 868.95 1062.04 868.97   Q 1067.18 869.01 1072.73 869.10   Q 1076.35 869.16 1076.60 872.77   L 1076.73 874.54   Q 1076.97 877.94 1073.56 878.18   Q 1047.21 880.05 1021.82 878.31   C 1018.46 878.08 1014.86 877.37 1016.45 872.78   Q 1045.85 787.71 1075.53 702.51   Q 1078.05 695.28 1080.18 688.61   A 1.29 1.28 6.1 0 0 1078.83 686.94   Q 1032.94 691.48 986.68 696.07   C 984.14 696.32 983.42 694.05 984.39 691.93   C 1000.62 656.68 1005.77 617.89 987.13 582.42   C 972.06 553.73 945.92 532.89 915.92 519.85   C 913.77 518.91 913.30 516.82 914.36 514.66   C 920.94 501.28 926.98 487.85 929.47 473.58   C 932.91 453.78 926.67 436.83 915.26 420.92   C 897.45 396.07 871.01 386.41 840.86 390.61   Q 831.81 391.86 822.74 393.82   A 4.26 4.26 0.0 0 1 819.08 392.89   C 815.12 389.48 811.39 385.62 807.20 382.39   C 786.40 366.33 759.18 362.35 733.56 367.86   C 699.96 375.08 668.76 395.39 650.78 424.88   Q 628.47 461.46 638.64 503.96   Q 639.28 506.65 636.49 507.08   C 593.42 513.63 553.33 530.65 516.48 554.88   A 1.50 1.48 52.9 0 1 514.53 554.60   Q 513.94 553.90 514.00 552.80   C 515.63 522.53 504.01 496.39 478.32 480.50   C 448.16 461.85 407.76 467.11 378.10 483.56   C 356.70 495.43 338.57 513.95 328.78 536.39   Q 314.48 569.18 325.55 603.99   Q 326.57 607.19 323.03 607.14   C 319.84 607.09 312.83 606.90 311.49 610.61   Q 237.67 815.70 163.44 1021.94   Q 162.63 1024.21 164.94 1024.86   Q 165.46 1025.01 167.25 1025.01   Q 252.12 1025.03 337.00 1024.94   Q 341.57 1024.93 343.10 1020.66   Q 386.95 898.84 430.61 777.63   A 1.06 1.06 0.0 0 1 432.45 777.34   C 456.42 808.51 489.83 822.85 527.30 833.19   A 1.16 1.15 17.6 0 1 528.09 834.70   Q 494.40 926.72 460.59 1019.13   Q 460.19 1020.23 459.92 1021.38   A 1.34 1.33 -77.5 0 0 460.94 1022.99   Q 462.34 1023.30 463.67 1023.30   Q 549.92 1023.45 636.48 1023.33   Q 641.36 1023.32 642.95 1018.86   Q 671.83 937.73 700.82 855.76   Q 703.23 848.97 705.68 842.55   A 3.88 3.86 6.6 0 1 708.80 840.09   Q 737.29 836.42 769.91 832.34   Q 770.32 832.29 770.71 832.43   A 1.05 1.04 -69.2 0 1 771.33 833.82   C 747.58 890.38 756.76 948.57 805.75 987.40   C 829.13 1005.93 857.09 1016.52 886.68 1023.63   C 910.77 1029.43 935.49 1032.69 960.52 1035.11   Q 1021.31 1040.98 1080.46 1036.49   C 1158.50 1030.57 1237.26 1009.14 1301.52 965.53   A 1.15 1.14 -18.9 0 1 1303.31 966.40   Q 1303.55 970.04 1303.72 973.43   Q 1304.48 988.41 1310.28 1002.45   C 1325.19 1038.58 1361.82 1053.02 1399.01 1047.89   C 1441.55 1042.02 1477.23 1011.91 1492.76 972.12   C 1494.18 968.49 1495.01 965.71 1498.59 964.62   C 1534.42 953.70 1565.49 927.28 1576.00 891.01   C 1579.50 878.92 1580.38 865.08 1578.05 852.60   Q 1576.00 841.58 1569.53 829.45   C 1568.33 827.20 1567.71 823.84 1568.55 821.53   Q 1589.64 763.58 1609.26 709.63   A 2.83 2.83 0.0 0 0 1606.77 705.84   Q 1581.22 704.26 1553.86 703.24   C 1522.47 702.06 1500.00 678.16 1488.93 650.69   Q 1485.66 642.59 1482.64 631.62   C 1475.48 605.67 1465.96 579.33 1453.28 556.26   C 1437.38 527.33 1414.89 503.33 1383.54 492.64   Q 1354.88 482.86 1324.68 489.13   Q 1288.50 496.64 1260.54 520.55   C 1239.90 538.20 1223.84 561.81 1211.88 586.41   C 1196.70 617.60 1185.44 651.45 1174.33 684.57   C 1173.00 688.53 1169.41 689.41 1165.71 689.33   Q 1144.92 688.90 1123.60 689.13   A 1.86 1.85 -80.7 0 0 1121.88 690.37   L 1060.17 864.25   Z"></path>
  <path fill="#ffffff" d="   M 1060.13 867.32   Q 1060.92 866.15 1060.17 864.25   L 1121.88 690.37   A 1.86 1.85 -80.7 0 1 1123.60 689.13   Q 1144.92 688.90 1165.71 689.33   C 1169.41 689.41 1173.00 688.53 1174.33 684.57   C 1185.44 651.45 1196.70 617.60 1211.88 586.41   C 1223.84 561.81 1239.90 538.20 1260.54 520.55   Q 1288.50 496.64 1324.68 489.13   Q 1354.88 482.86 1383.54 492.64   C 1414.89 503.33 1437.38 527.33 1453.28 556.26   C 1465.96 579.33 1475.48 605.67 1482.64 631.62   Q 1485.66 642.59 1488.93 650.69   C 1500.00 678.16 1522.47 702.06 1553.86 703.24   Q 1581.22 704.26 1606.77 705.84   A 2.83 2.83 0.0 0 1 1609.26 709.63   Q 1589.64 763.58 1568.55 821.53   C 1567.71 823.84 1568.33 827.20 1569.53 829.45   Q 1576.00 841.58 1578.05 852.60   C 1580.38 865.08 1579.50 878.92 1576.00 891.01   C 1565.49 927.28 1534.42 953.70 1498.59 964.62   C 1495.01 965.71 1494.18 968.49 1492.76 972.12   C 1477.23 1011.91 1441.55 1042.02 1399.01 1047.89   C 1361.82 1053.02 1325.19 1038.58 1310.28 1002.45   Q 1304.48 988.41 1303.72 973.43   Q 1303.55 970.04 1303.31 966.40   A 1.15 1.14 -18.9 0 0 1301.52 965.53   C 1237.26 1009.14 1158.50 1030.57 1080.46 1036.49   Q 1021.31 1040.98 960.52 1035.11   C 935.49 1032.69 910.77 1029.43 886.68 1023.63   C 857.09 1016.52 829.13 1005.93 805.75 987.40   C 756.76 948.57 747.58 890.38 771.33 833.82   A 1.05 1.04 -69.2 0 0 770.71 832.43   Q 770.32 832.29 769.91 832.34   Q 737.29 836.42 708.80 840.09   A 3.88 3.86 6.6 0 0 705.68 842.55   Q 703.23 848.97 700.82 855.76   Q 671.83 937.73 642.95 1018.86   Q 641.36 1023.32 636.48 1023.33   Q 549.92 1023.45 463.67 1023.30   Q 462.34 1023.30 460.94 1022.99   A 1.34 1.33 -77.5 0 1 459.92 1021.38   Q 460.19 1020.23 460.59 1019.13   Q 494.40 926.72 528.09 834.70   A 1.16 1.15 17.6 0 0 527.30 833.19   C 489.83 822.85 456.42 808.51 432.45 777.34   A 1.06 1.06 0.0 0 0 430.61 777.63   Q 386.95 898.84 343.10 1020.66   Q 341.57 1024.93 337.00 1024.94   Q 252.12 1025.03 167.25 1025.01   Q 165.46 1025.01 164.94 1024.86   Q 162.63 1024.21 163.44 1021.94   Q 237.67 815.70 311.49 610.61   C 312.83 606.90 319.84 607.09 323.03 607.14   Q 326.57 607.19 325.55 603.99   Q 314.48 569.18 328.78 536.39   C 338.57 513.95 356.70 495.43 378.10 483.56   C 407.76 467.11 448.16 461.85 478.32 480.50   C 504.01 496.39 515.63 522.53 514.00 552.80   Q 513.94 553.90 514.53 554.60   A 1.50 1.48 52.9 0 0 516.48 554.88   C 553.33 530.65 593.42 513.63 636.49 507.08   Q 639.28 506.65 638.64 503.96   Q 628.47 461.46 650.78 424.88   C 668.76 395.39 699.96 375.08 733.56 367.86   C 759.18 362.35 786.40 366.33 807.20 382.39   C 811.39 385.62 815.12 389.48 819.08 392.89   A 4.26 4.26 0.0 0 0 822.74 393.82   Q 831.81 391.86 840.86 390.61   C 871.01 386.41 897.45 396.07 915.26 420.92   C 926.67 436.83 932.91 453.78 929.47 473.58   C 926.98 487.85 920.94 501.28 914.36 514.66   C 913.30 516.82 913.77 518.91 915.92 519.85   C 945.92 532.89 972.06 553.73 987.13 582.42   C 1005.77 617.89 1000.62 656.68 984.39 691.93   C 983.42 694.05 984.14 696.32 986.68 696.07   Q 1032.94 691.48 1078.83 686.94   A 1.29 1.28 6.1 0 1 1080.18 688.61   Q 1078.05 695.28 1075.53 702.51   Q 1045.85 787.71 1016.45 872.78   C 1014.86 877.37 1018.46 878.08 1021.82 878.31   Q 1047.21 880.05 1073.56 878.18   Q 1076.97 877.94 1076.73 874.54   L 1076.60 872.77   Q 1076.35 869.16 1072.73 869.10   Q 1067.18 869.01 1062.04 868.97   Q 1060.21 868.95 1060.13 867.32   Z   M 787.7694 426.4870   A 62.00 43.88 -34.9 0 0 711.8142 425.9717   A 62.00 43.88 -34.9 0 0 686.0706 497.4330   A 62.00 43.88 -34.9 0 0 762.0258 497.9483   A 62.00 43.88 -34.9 0 0 787.7694 426.4870   Z   M 879.3582 448.3373   A 51.24 36.32 -34.5 0 0 816.5581 447.4277   A 51.24 36.32 -34.5 0 0 794.9018 506.3827   A 51.24 36.32 -34.5 0 0 857.7019 507.2923   A 51.24 36.32 -34.5 0 0 879.3582 448.3373   Z   M 463.3491 527.5137   A 56.48 39.94 -35.1 0 0 394.1743 527.3131   A 56.48 39.94 -35.1 0 0 370.9309 592.4663   A 56.48 39.94 -35.1 0 0 440.1057 592.6669   A 56.48 39.94 -35.1 0 0 463.3491 527.5137   Z   M 1260.61 794.50   A 0.77 0.76 89.7 0 1 1261.43 793.66   Q 1271.16 794.47 1279.34 794.47   Q 1405.00 794.56 1526.53 794.50   C 1528.86 794.49 1530.73 793.08 1531.51 790.87   Q 1538.72 770.51 1545.40 751.83   Q 1546.23 749.51 1543.79 749.09   Q 1502.94 742.08 1474.62 712.08   C 1457.73 694.19 1446.73 672.40 1439.93 648.31   C 1425.63 597.63 1401.53 520.35 1332.12 534.04   C 1312.22 537.97 1294.74 549.40 1280.84 564.28   Q 1268.95 577.00 1260.50 591.34   Q 1253.85 602.63 1249.90 611.60   Q 1232.24 651.74 1216.14 700.89   C 1215.62 702.47 1214.92 703.99 1215.37 705.62   Q 1215.73 706.90 1217.06 706.91   Q 1247.79 706.96 1278.05 706.90   C 1280.32 706.90 1282.12 706.16 1282.74 703.96   Q 1292.62 668.68 1302.77 641.04   Q 1307.15 629.12 1314.22 618.99   C 1325.68 602.56 1340.06 616.93 1346.74 628.09   Q 1349.30 632.36 1352.91 643.60   Q 1367.73 689.69 1392.77 733.28   A 1.11 1.10 -21.3 0 1 1392.05 734.91   Q 1391.03 735.13 1390.00 735.13   Q 1313.00 735.05 1236.00 734.87   Q 1233.66 734.87 1231.50 734.87   Q 1194.04 734.81 1156.77 734.82   A 3.37 3.35 9.7 0 0 1153.60 737.05   Q 1138.96 778.32 1123.92 820.70   Q 1123.46 822.01 1123.84 823.31   A 1.59 1.59 0.0 0 0 1125.29 824.47   Q 1167.79 826.76 1206.73 843.01   Q 1218.69 847.99 1229.53 856.97   Q 1232.78 859.66 1235.31 863.39   Q 1240.03 870.33 1234.05 876.01   C 1222.18 887.31 1206.13 895.19 1191.12 900.68   C 1114.29 928.80 1029.57 931.92 949.73 914.08   Q 929.47 909.55 911.32 900.90   C 900.55 895.77 889.03 887.87 884.53 876.73   C 880.03 865.58 885.98 853.11 893.79 844.94   C 906.93 831.20 927.38 826.01 946.78 824.05   Q 964.60 822.26 982.57 822.94   Q 985.64 823.06 986.66 820.08   Q 1000.18 780.63 1013.04 743.16   Q 1013.50 741.81 1012.45 740.81   A 2.73 2.72 66.0 0 0 1010.50 740.06   C 1002.66 740.29 994.87 740.94 987.28 742.30   C 911.47 755.90 809.89 797.68 804.72 889.05   C 801.65 943.54 850.38 968.14 895.71 978.82   Q 938.96 989.01 983.42 991.19   Q 1019.63 992.97 1059.57 991.56   Q 1112.69 989.69 1163.02 977.26   Q 1185.41 971.73 1211.02 962.02   Q 1220.40 958.46 1229.41 954.10   Q 1240.86 948.57 1249.66 943.79   Q 1263.36 936.35 1279.66 924.39   C 1305.63 905.35 1336.50 868.53 1317.06 834.39   C 1305.10 813.39 1282.58 804.68 1261.31 795.44   Q 1260.67 795.17 1260.61 794.50   Z   M 878.00 745.38   Q 885.77 740.61 894.25 733.99   Q 925.15 709.82 941.66 676.77   Q 948.65 662.77 951.45 648.14   C 958.15 613.11 941.66 585.20 911.73 568.67   Q 877.16 549.57 833.22 544.25   C 831.32 544.02 828.72 544.19 827.93 546.30   Q 813.67 584.67 798.78 624.81   Q 798.26 626.19 798.86 627.53   Q 799.32 628.55 800.43 628.44   Q 818.96 626.67 837.89 629.33   C 850.60 631.13 872.00 636.42 873.85 651.40   C 875.29 663.04 866.90 675.40 858.46 682.67   Q 847.45 692.15 835.02 698.13   Q 813.72 708.37 788.30 714.67   Q 744.69 725.48 699.91 727.91   A 1.19 1.19 0.0 0 1 698.73 726.31   Q 712.47 688.82 725.12 652.97   C 732.83 631.13 737.40 607.16 734.36 584.20   C 730.19 552.65 696.17 549.39 671.44 550.14   C 596.42 552.41 518.32 591.08 480.41 657.57   Q 467.17 680.78 461.99 706.76   Q 459.52 719.18 461.76 731.37   C 466.67 758.10 491.08 773.64 514.76 782.16   C 538.09 790.55 563.04 794.26 588.20 796.21   A 1.92 1.92 0.0 0 1 589.86 798.79   L 524.97 975.63   Q 524.51 976.88 525.79 977.27   Q 526.12 977.37 526.46 977.37   Q 567.39 977.29 606.82 977.34   A 3.66 3.65 9.7 0 0 610.27 974.91   Q 641.35 887.19 672.26 800.00   C 672.91 798.17 673.98 796.46 676.14 796.35   C 723.07 793.90 766.78 788.32 809.91 775.55   Q 827.95 770.21 846.14 762.03   C 847.05 761.62 848.02 761.73 848.75 761.37   Q 863.77 754.10 878.00 745.38   Z   M 425.98 655.78   A 1.56 1.56 0.0 0 0 424.50 653.69   L 345.33 654.01   A 1.56 1.56 0.0 0 0 343.87 655.04   L 227.96 977.34   A 1.56 1.56 0.0 0 0 229.44 979.43   L 308.60 979.11   A 1.56 1.56 0.0 0 0 310.06 978.08   L 425.98 655.78   Z   M 1437.5212 829.3554   A 62.01 43.96 -35.2 0 0 1361.5100 829.1783   A 62.01 43.96 -35.2 0 0 1336.1788 900.8446   A 62.01 43.96 -35.2 0 0 1412.1900 901.0217   A 62.01 43.96 -35.2 0 0 1437.5212 829.3554   Z   M 1529.1088 851.1072   A 51.21 36.44 -35.0 0 0 1466.2589 850.6301   A 51.21 36.44 -35.0 0 0 1445.2112 909.8528   A 51.21 36.44 -35.0 0 0 1508.0611 910.3299   A 51.21 36.44 -35.0 0 0 1529.1088 851.1072   Z   M 1446.8936 924.9397   A 56.40 40.10 -35.1 0 0 1377.6923 924.5622   A 56.40 40.10 -35.1 0 0 1354.6064 989.8003   A 56.40 40.10 -35.1 0 0 1423.8077 990.1778   A 56.40 40.10 -35.1 0 0 1446.8936 924.9397   Z"></path>
  <ellipse fill="#e91e26" cx="0.00" cy="0.00" transform="translate(736.92,461.96) rotate(-34.9)" rx="62.00" ry="43.88"></ellipse>
  <ellipse fill="#e91e26" cx="0.00" cy="0.00" transform="translate(837.13,477.36) rotate(-34.5)" rx="51.24" ry="36.32"></ellipse>
  <ellipse fill="#e91e26" cx="0.00" cy="0.00" transform="translate(417.14,559.99) rotate(-35.1)" rx="56.48" ry="39.94"></ellipse>
  <path fill="#e91e26" d="   M 1260.61 794.50   Q 1260.67 795.17 1261.31 795.44   C 1282.58 804.68 1305.10 813.39 1317.06 834.39   C 1336.50 868.53 1305.63 905.35 1279.66 924.39   Q 1263.36 936.35 1249.66 943.79   Q 1240.86 948.57 1229.41 954.10   Q 1220.40 958.46 1211.02 962.02   Q 1185.41 971.73 1163.02 977.26   Q 1112.69 989.69 1059.57 991.56   Q 1019.63 992.97 983.42 991.19   Q 938.96 989.01 895.71 978.82   C 850.38 968.14 801.65 943.54 804.72 889.05   C 809.89 797.68 911.47 755.90 987.28 742.30   C 994.87 740.94 1002.66 740.29 1010.50 740.06   A 2.73 2.72 66.0 0 1 1012.45 740.81   Q 1013.50 741.81 1013.04 743.16   Q 1000.18 780.63 986.66 820.08   Q 985.64 823.06 982.57 822.94   Q 964.60 822.26 946.78 824.05   C 927.38 826.01 906.93 831.20 893.79 844.94   C 885.98 853.11 880.03 865.58 884.53 876.73   C 889.03 887.87 900.55 895.77 911.32 900.90   Q 929.47 909.55 949.73 914.08   C 1029.57 931.92 1114.29 928.80 1191.12 900.68   C 1206.13 895.19 1222.18 887.31 1234.05 876.01   Q 1240.03 870.33 1235.31 863.39   Q 1232.78 859.66 1229.53 856.97   Q 1218.69 847.99 1206.73 843.01   Q 1167.79 826.76 1125.29 824.47   A 1.59 1.59 0.0 0 1 1123.84 823.31   Q 1123.46 822.01 1123.92 820.70   Q 1138.96 778.32 1153.60 737.05   A 3.37 3.35 9.7 0 1 1156.77 734.82   Q 1194.04 734.81 1231.50 734.87   Q 1233.66 734.87 1236.00 734.87   Q 1313.00 735.05 1390.00 735.13   Q 1391.03 735.13 1392.05 734.91   A 1.11 1.10 -21.3 0 0 1392.77 733.28   Q 1367.73 689.69 1352.91 643.60   Q 1349.30 632.36 1346.74 628.09   C 1340.06 616.93 1325.68 602.56 1314.22 618.99   Q 1307.15 629.12 1302.77 641.04   Q 1292.62 668.68 1282.74 703.96   C 1282.12 706.16 1280.32 706.90 1278.05 706.90   Q 1247.79 706.96 1217.06 706.91   Q 1215.73 706.90 1215.37 705.62   C 1214.92 703.99 1215.62 702.47 1216.14 700.89   Q 1232.24 651.74 1249.90 611.60   Q 1253.85 602.63 1260.50 591.34   Q 1268.95 577.00 1280.84 564.28   C 1294.74 549.40 1312.22 537.97 1332.12 534.04   C 1401.53 520.35 1425.63 597.63 1439.93 648.31   C 1446.73 672.40 1457.73 694.19 1474.62 712.08   Q 1502.94 742.08 1543.79 749.09   Q 1546.23 749.51 1545.40 751.83   Q 1538.72 770.51 1531.51 790.87   C 1530.73 793.08 1528.86 794.49 1526.53 794.50   Q 1405.00 794.56 1279.34 794.47   Q 1271.16 794.47 1261.43 793.66   A 0.77 0.76 89.7 0 0 1260.61 794.50   Z"></path>
  <path fill="#e91e26" d="   M 878.00 745.38   Q 863.77 754.10 848.75 761.37   C 848.02 761.73 847.05 761.62 846.14 762.03   Q 827.95 770.21 809.91 775.55   C 766.78 788.32 723.07 793.90 676.14 796.35   C 673.98 796.46 672.91 798.17 672.26 800.00   Q 641.35 887.19 610.27 974.91   A 3.66 3.65 9.7 0 1 606.82 977.34   Q 567.39 977.29 526.46 977.37   Q 526.12 977.37 525.79 977.27   Q 524.51 976.88 524.97 975.63   L 589.86 798.79   A 1.92 1.92 0.0 0 0 588.20 796.21   C 563.04 794.26 538.09 790.55 514.76 782.16   C 491.08 773.64 466.67 758.10 461.76 731.37   Q 459.52 719.18 461.99 706.76   Q 467.17 680.78 480.41 657.57   C 518.32 591.08 596.42 552.41 671.44 550.14   C 696.17 549.39 730.19 552.65 734.36 584.20   C 737.40 607.16 732.83 631.13 725.12 652.97   Q 712.47 688.82 698.73 726.31   A 1.19 1.19 0.0 0 0 699.91 727.91   Q 744.69 725.48 788.30 714.67   Q 813.72 708.37 835.02 698.13   Q 847.45 692.15 858.46 682.67   C 866.90 675.40 875.29 663.04 873.85 651.40   C 872.00 636.42 850.60 631.13 837.89 629.33   Q 818.96 626.67 800.43 628.44   Q 799.32 628.55 798.86 627.53   Q 798.26 626.19 798.78 624.81   Q 813.67 584.67 827.93 546.30   C 828.72 544.19 831.32 544.02 833.22 544.25   Q 877.16 549.57 911.73 568.67   C 941.66 585.20 958.15 613.11 951.45 648.14   Q 948.65 662.77 941.66 676.77   Q 925.15 709.82 894.25 733.99   Q 885.77 740.61 878.00 745.38   Z   M 647.14 609.69   C 636.39 606.45 622.10 610.60 612.18 615.41   Q 586.15 628.01 570.15 650.01   Q 560.28 663.59 553.92 678.30   C 551.99 682.77 549.76 687.32 549.40 692.27   C 547.42 719.52 596.16 726.73 614.69 727.64   A 1.42 1.42 0.0 0 0 616.08 726.74   Q 629.15 693.46 642.76 659.47   Q 648.44 645.30 650.69 629.71   C 651.51 624.01 651.73 615.33 648.16 610.42   Q 647.77 609.89 647.14 609.69   Z"></path>
  <path fill="#ffffff" d="   M 647.14 609.69   Q 647.77 609.89 648.16 610.42   C 651.73 615.33 651.51 624.01 650.69 629.71   Q 648.44 645.30 642.76 659.47   Q 629.15 693.46 616.08 726.74   A 1.42 1.42 0.0 0 1 614.69 727.64   C 596.16 726.73 547.42 719.52 549.40 692.27   C 549.76 687.32 551.99 682.77 553.92 678.30   Q 560.28 663.59 570.15 650.01   Q 586.15 628.01 612.18 615.41   C 622.10 610.60 636.39 606.45 647.14 609.69   Z"></path>
  <path fill="#e91e26" d="   M 425.98 655.78   L 310.06 978.08   A 1.56 1.56 0.0 0 1 308.60 979.11   L 229.44 979.43   A 1.56 1.56 0.0 0 1 227.96 977.34   L 343.87 655.04   A 1.56 1.56 0.0 0 1 345.33 654.01   L 424.50 653.69   A 1.56 1.56 0.0 0 1 425.98 655.78   Z"></path>
  <path fill="#e91e26" d="   M 1551.59 688.14   Q 1550.40 688.82 1548.95 688.06   Q 1550.16 687.63 1551.59 688.14   Z"></path>
  <ellipse fill="#e91e26" cx="0.00" cy="0.00" transform="translate(1386.85,865.10) rotate(-35.2)" rx="62.01" ry="43.96"></ellipse>
  <ellipse fill="#e91e26" cx="0.00" cy="0.00" transform="translate(1487.16,880.48) rotate(-35.0)" rx="51.21" ry="36.44"></ellipse>
  <path fill="#ffffff" d="   M 750.06 850.30   L 744.84 850.08   Q 748.49 848.91 749.74 849.39   Q 751.44 850.04 750.06 850.30   Z"></path>
  <ellipse fill="#e91e26" cx="0.00" cy="0.00" transform="translate(1400.75,957.37) rotate(-35.1)" rx="56.40" ry="40.10"></ellipse>
  <path fill="#ffffff" d="   M 599.29 1037.69   L 509.70 1037.72   Q 510.62 1037.20 513.50 1037.20   Q 577.55 1037.15 598.26 1037.21   Q 598.92 1037.21 599.29 1037.69   Z"></path>
  <path fill="#c7282e" d="   M 420.48 1100.75   Q 420.31 1100.52 419.83 1100.88   Q 419.43 1101.17 418.93 1101.16   L 399.33 1100.79   Q 409.89 1099.46 420.48 1100.75   Z"></path>
  <path fill="#c7282e" d="   M 1142.18 1104.04   Q 1142.23 1102.36 1141.44 1101.49   Q 1141.10 1101.11 1140.59 1101.10   L 1095.72 1100.74   Q 1117.83 1099.84 1139.92 1100.21   Q 1141.70 1100.24 1142.19 1101.09   Q 1142.79 1102.14 1142.18 1104.04   Z"></path>
  <path fill="#e91e26" d="   M 399.33 1100.79   L 418.93 1101.16   Q 419.43 1101.17 419.83 1100.88   Q 420.31 1100.52 420.48 1100.75   L 425.97 1101.24   Q 428.00 1102.66 429.96 1101.45   Q 432.25 1102.25 434.68 1102.15   Q 435.15 1103.44 437.38 1102.57   L 439.20 1103.16   Q 439.66 1103.31 439.68 1103.80   Q 439.96 1114.23 439.36 1124.64   C 439.22 1127.12 438.66 1129.51 438.28 1131.99   Q 436.37 1144.83 432.99 1154.00   C 431.92 1156.90 429.27 1158.80 426.05 1158.78   C 412.85 1158.68 400.08 1158.11 386.71 1159.58   C 366.98 1161.75 351.46 1171.54 338.34 1185.75   Q 335.06 1189.31 332.32 1192.88   Q 321.77 1206.65 314.26 1222.01   Q 304.79 1241.38 302.70 1262.00   C 300.73 1281.36 305.04 1300.45 314.15 1317.76   Q 318.56 1326.14 323.96 1332.87   Q 329.10 1339.30 337.03 1343.98   Q 346.61 1349.63 360.19 1349.60   Q 371.81 1349.58 383.10 1349.65   C 384.29 1349.66 385.09 1350.21 386.27 1350.23   Q 391.96 1350.33 398.17 1350.26   Q 398.74 1350.26 399.13 1350.67   L 400.70 1352.31   Q 399.47 1356.82 400.64 1361.61   C 400.18 1367.56 399.92 1373.74 399.02 1379.43   Q 397.62 1388.31 395.57 1397.08   Q 394.64 1401.07 393.24 1404.71   A 3.23 3.23 0.0 0 1 391.33 1406.58   Q 389.04 1407.41 386.65 1407.62   C 382.20 1408.02 377.67 1408.74 373.24 1408.76   Q 362.19 1408.81 350.39 1408.80   C 347.02 1408.80 344.06 1407.82 340.72 1407.80   Q 338.85 1407.78 336.83 1407.50   Q 297.31 1401.95 270.86 1372.47   Q 269.87 1371.36 269.12 1370.09   C 268.46 1368.96 267.38 1368.19 266.58 1367.11   Q 258.67 1356.37 253.59 1344.93   C 252.92 1343.43 252.57 1341.91 251.72 1340.47   C 250.98 1339.20 251.13 1338.12 250.43 1336.94   Q 250.01 1336.21 249.75 1335.39   Q 244.16 1317.83 242.96 1301.49   Q 241.91 1287.19 243.00 1271.48   Q 242.73 1271.43 242.95 1270.77   Q 243.90 1260.47 244.70 1254.99   Q 249.04 1225.58 260.91 1200.14   Q 272.76 1174.74 292.87 1152.67   Q 293.12 1152.40 293.58 1151.84   Q 301.14 1142.81 313.71 1132.77   Q 343.55 1108.98 380.65 1102.71   Q 382.72 1102.36 384.97 1102.15   Q 387.05 1101.97 388.84 1101.39   Q 390.28 1102.63 391.65 1101.27   L 396.08 1101.12   Q 396.57 1101.10 397.00 1100.86   Q 398.40 1100.09 399.33 1100.79   Z"></path>
  <path fill="#e91e26" d="   M 1095.72 1100.74   L 1140.59 1101.10   Q 1141.10 1101.11 1141.44 1101.49   Q 1142.23 1102.36 1142.18 1104.04   Q 1141.43 1107.69 1141.66 1112.00   Q 1141.73 1113.32 1141.40 1114.56   Q 1140.95 1116.20 1140.91 1117.03   Q 1140.52 1124.45 1139.20 1131.77   Q 1138.14 1133.35 1138.15 1136.01   Q 1138.16 1137.78 1137.21 1140.52   Q 1137.00 1141.13 1137.55 1141.75   Q 1137.48 1143.23 1136.85 1144.23   Q 1136.15 1145.81 1136.39 1147.71   L 1136.03 1148.80   C 1134.72 1151.13 1136.88 1152.66 1139.02 1152.78   Q 1144.30 1153.09 1149.62 1152.70   Q 1158.99 1153.30 1168.65 1153.09   Q 1169.82 1153.06 1170.71 1153.53   C 1171.57 1153.99 1172.39 1153.97 1173.15 1154.61   Q 1174.65 1155.89 1175.26 1157.99   Q 1175.63 1159.23 1175.12 1160.42   C 1174.43 1162.05 1175.06 1163.73 1174.40 1165.42   C 1173.60 1167.46 1174.02 1169.34 1173.20 1171.42   C 1172.70 1172.70 1172.93 1174.12 1172.66 1175.52   Q 1171.85 1179.74 1171.26 1183.92   Q 1170.60 1188.52 1169.14 1190.46   C 1167.26 1192.94 1164.46 1192.88 1161.30 1193.01   Q 1147.18 1193.57 1131.80 1194.65   Q 1129.08 1194.84 1128.60 1197.88   Q 1120.48 1249.42 1111.25 1300.31   Q 1107.91 1318.76 1107.54 1341.02   C 1107.49 1344.32 1105.69 1346.19 1108.40 1349.38   C 1111.25 1352.76 1114.00 1353.43 1117.51 1355.14   Q 1118.62 1356.06 1120.26 1355.47   Q 1121.28 1356.02 1122.73 1356.07   Q 1127.97 1357.50 1133.40 1356.23   L 1136.93 1356.99   A 3.70 3.69 5.5 0 1 1139.84 1360.51   C 1139.92 1363.92 1139.94 1367.42 1139.54 1370.89   Q 1138.06 1383.53 1134.30 1396.78   C 1133.60 1399.24 1132.18 1400.43 1129.63 1400.73   Q 1126.21 1401.13 1123.25 1401.39   Q 1107.41 1402.77 1092.82 1402.09   Q 1087.47 1401.84 1080.13 1400.40   C 1067.64 1397.94 1059.14 1391.39 1055.33 1378.68   Q 1053.63 1373.03 1053.23 1367.94   Q 1052.69 1361.24 1053.28 1352.93   Q 1053.70 1347.04 1055.13 1338.53   Q 1065.99 1273.58 1075.70 1211.53   Q 1076.68 1205.26 1077.35 1199.18   Q 1077.51 1197.78 1077.28 1196.37   A 1.92 1.90 -2.2 0 0 1075.52 1194.76   C 1067.41 1194.19 1059.52 1193.74 1051.34 1193.66   Q 1046.07 1193.61 1041.00 1193.36   Q 1040.48 1193.33 1040.04 1193.06   Q 1039.73 1192.88 1039.37 1192.84   A 2.64 2.24 3.4 0 1 1037.01 1190.58   Q 1036.97 1185.12 1038.24 1179.39   Q 1038.93 1176.28 1038.94 1174.49   A 2.30 2.23 58.9 0 1 1039.15 1173.58   Q 1040.08 1171.58 1039.84 1169.09   A 1.31 1.31 0.0 0 1 1039.89 1168.56   L 1040.94 1165.09   Q 1041.80 1163.89 1041.41 1161.72   L 1042.35 1155.51   Q 1043.75 1153.72 1045.75 1153.77   Q 1063.41 1154.19 1080.97 1153.33   Q 1083.53 1152.20 1084.60 1150.36   Q 1085.74 1148.42 1086.00 1146.26   Q 1086.24 1144.29 1086.25 1144.25   Q 1089.24 1126.87 1092.26 1109.50   Q 1092.64 1107.34 1092.77 1105.36   Q 1092.80 1104.85 1093.18 1104.51   Q 1093.83 1103.91 1093.62 1103.01   A 0.80 0.79 -26.4 0 1 1093.90 1102.20   L 1095.72 1100.74   Z"></path>
  <path fill="#c7282e" d="   M 391.65 1101.27   Q 390.28 1102.63 388.84 1101.39   Q 390.19 1100.96 391.65 1101.27   Z"></path>
  <path fill="#c7282e" d="   M 429.96 1101.45   Q 428.00 1102.66 425.97 1101.24   Q 427.90 1100.99 429.96 1101.45   Z"></path>
  <path fill="#c7282e" d="   M 517.47 1101.80   Q 496.27 1102.09 475.09 1101.87   C 473.99 1101.86 472.93 1102.24 471.81 1102.50   L 473.02 1101.50   Q 473.41 1101.17 473.92 1101.17   Q 494.34 1101.15 514.75 1101.11   Q 516.25 1101.11 517.47 1101.80   Z"></path>
  <path fill="#e91e26" d="   M 519.99 1102.05   Q 519.71 1103.86 520.34 1105.75   L 519.18 1113.01   Q 517.65 1115.73 518.60 1117.39   Q 518.59 1118.52 518.22 1119.50   Q 516.74 1121.26 517.56 1123.33   Q 517.80 1124.50 517.38 1125.69   Q 516.11 1126.92 516.66 1128.75   Q 516.77 1129.77 516.58 1131.02   Q 511.67 1164.00 506.13 1200.53   Q 505.84 1202.40 506.56 1203.97   A 1.04 1.04 0.0 0 0 508.12 1204.37   C 516.71 1197.91 525.60 1192.73 536.07 1190.13   Q 537.57 1189.76 539.12 1189.78   C 540.57 1189.80 541.47 1188.99 543.02 1188.93   Q 550.70 1188.66 555.66 1189.16   C 568.95 1190.51 582.37 1196.78 591.19 1206.92   Q 596.16 1212.63 599.12 1219.43   Q 601.56 1225.02 602.52 1232.07   Q 601.60 1240.60 602.53 1249.16   L 601.92 1255.31   Q 600.88 1258.81 601.71 1261.45   Q 600.94 1272.01 599.64 1279.73   Q 590.01 1336.97 581.30 1390.30   Q 579.93 1398.72 578.62 1405.83   Q 577.93 1409.57 574.40 1409.36   Q 562.95 1408.69 551.63 1408.75   C 549.25 1408.76 546.93 1408.42 544.52 1408.51   A 1.65 1.61 -28.4 0 1 543.54 1408.23   L 543.23 1408.02   Q 542.97 1407.84 542.66 1407.84   L 532.24 1407.83   Q 531.73 1407.83 531.33 1407.51   C 530.04 1406.49 529.49 1405.43 529.74 1403.68   Q 539.61 1333.30 544.93 1303.38   Q 547.68 1287.94 548.93 1280.12   C 549.65 1275.66 551.13 1269.90 549.51 1265.47   C 549.07 1264.27 549.10 1263.02 548.67 1261.77   C 544.65 1250.23 532.88 1243.34 521.00 1246.09   C 513.36 1247.85 506.40 1251.71 501.83 1258.05   C 495.86 1266.34 493.42 1274.91 491.74 1284.75   Q 489.94 1295.25 487.89 1308.53   Q 485.57 1323.51 483.15 1338.43   Q 478.04 1369.94 471.97 1405.79   A 2.47 2.46 4.8 0 1 469.54 1407.84   L 423.49 1407.83   Q 422.96 1407.83 422.88 1407.31   Q 422.47 1404.55 422.84 1402.24   Q 440.63 1290.93 457.36 1188.03   Q 457.83 1185.09 458.27 1182.26   Q 463.65 1147.67 469.52 1112.64   Q 469.75 1111.26 470.07 1109.91   Q 470.74 1108.46 470.42 1106.78   Q 470.73 1103.31 471.81 1102.50   C 472.93 1102.24 473.99 1101.86 475.09 1101.87   Q 496.27 1102.09 517.47 1101.80   Q 518.29 1100.91 519.99 1102.05   Z"></path>
  <path fill="#c7282e" d="   M 437.38 1102.57   Q 435.15 1103.44 434.68 1102.15   Q 436.25 1101.91 437.38 1102.57   Z"></path>
  <path fill="#c7282e" d="   M 520.34 1105.75   Q 519.71 1103.86 519.99 1102.05   Q 521.65 1102.76 520.34 1105.75   Z"></path>
  <path fill="#c7282e" d="   M 470.42 1106.78   Q 470.74 1108.46 470.07 1109.91   Q 469.56 1107.92 470.42 1106.78   Z"></path>
  <path fill="#c7282e" d="   M 519.18 1113.01   L 518.60 1117.39   Q 517.65 1115.73 519.18 1113.01   Z"></path>
  <path fill="#c7282e" d="   M 518.22 1119.50   Q 518.31 1121.45 517.56 1123.33   Q 516.74 1121.26 518.22 1119.50   Z"></path>
  <path fill="#c7282e" d="   M 517.38 1125.69   Q 517.48 1127.29 516.66 1128.75   Q 516.11 1126.92 517.38 1125.69   Z"></path>
  <path fill="#c7282e" d="   M 1139.20 1131.77   L 1137.55 1141.75   Q 1137.00 1141.13 1137.21 1140.52   Q 1138.16 1137.78 1138.15 1136.01   Q 1138.14 1133.35 1139.20 1131.77   Z"></path>
  <path fill="#c7282e" d="   M 1136.85 1144.23   Q 1137.38 1146.16 1136.39 1147.71   Q 1136.15 1145.81 1136.85 1144.23   Z"></path>
  <path fill="#c7282e" d="   M 1136.03 1148.80   Q 1135.66 1150.57 1136.92 1151.75   Q 1137.28 1152.09 1137.78 1152.11   L 1149.62 1152.70   Q 1144.30 1153.09 1139.02 1152.78   C 1136.88 1152.66 1134.72 1151.13 1136.03 1148.80   Z"></path>
  <path fill="#c7282e" d="   M 1080.97 1153.33   Q 1063.41 1154.19 1045.75 1153.77   Q 1043.75 1153.72 1042.35 1155.51   Q 1042.95 1153.12 1045.75 1153.08   Q 1063.37 1152.87 1080.97 1153.33   Z"></path>
  <path fill="#c7282e" d="   M 1041.41 1161.72   Q 1041.80 1163.89 1040.94 1165.09   Q 1040.40 1162.94 1041.41 1161.72   Z"></path>
  <path fill="#e91e26" d="   M 1353.71 1268.46   Q 1352.90 1280.18 1353.61 1291.88   A 117.84 93.00 -63.7 0 1 1345.39 1327.46   A 117.89 92.90 -63.6 0 1 1322.80 1367.82   A 31.57 5.61 -51.0 0 1 1319.98 1371.28   A 117.77 93.03 -63.3 0 1 1305.16 1386.40   A 117.72 92.82 -63.5 0 1 1261.26 1410.74   A 117.60 92.81 -63.6 0 1 1231.56 1413.90   A 117.72 92.81 -63.4 0 1 1191.98 1399.28   A 117.81 92.95 -63.4 0 1 1167.07 1367.96   A 117.71 92.64 -63.6 0 1 1157.95 1332.73   A 117.78 92.91 -63.5 0 1 1158.04 1310.39   A 54.63 21.61 -81.4 0 1 1158.96 1302.74   A 117.84 92.89 -63.5 0 1 1192.62 1229.34   A 117.85 92.99 -63.3 0 1 1207.47 1214.48   A 117.83 92.84 -63.5 0 1 1250.27 1190.98   A 118.00 92.97 -63.4 0 1 1271.49 1187.61   A 117.83 92.88 -63.4 0 1 1314.00 1198.50   A 117.95 92.97 -63.6 0 1 1341.03 1226.74   A 117.86 92.83 -63.5 0 1 1353.71 1268.46   Z   M 1204.14 1305.53   Q 1201.89 1312.09 1204.11 1318.65   Q 1205.20 1331.68 1211.75 1342.80   Q 1213.72 1346.14 1216.55 1349.18   Q 1219.96 1352.84 1222.59 1354.73   Q 1232.94 1362.17 1245.21 1362.36   Q 1258.62 1362.56 1271.42 1355.01   C 1290.39 1343.83 1302.87 1323.70 1306.95 1302.24   Q 1306.81 1302.03 1306.89 1301.52   L 1307.93 1296.61   Q 1310.07 1288.93 1307.84 1281.71   Q 1306.41 1269.27 1300.19 1258.68   Q 1298.35 1255.55 1295.58 1252.52   Q 1292.26 1248.89 1289.36 1246.80   Q 1278.27 1238.79 1264.89 1239.22   Q 1249.08 1239.74 1234.67 1250.46   Q 1225.45 1257.33 1218.87 1266.69   Q 1206.53 1284.26 1204.14 1305.53   Z"></path>
  <path fill="#c7282e" d="   M 744.60 1188.30   Q 739.50 1189.18 734.35 1188.31   Q 739.49 1187.52 744.60 1188.30   Z"></path>
  <path fill="#e91e26" d="   M 734.35 1188.31   Q 739.50 1189.18 744.60 1188.30   Q 766.21 1189.48 783.94 1201.08   Q 792.99 1207.00 800.93 1216.53   C 802.19 1218.04 802.97 1219.76 804.43 1221.07   Q 804.85 1221.44 805.00 1221.98   C 805.26 1222.95 806.10 1223.55 806.63 1224.45   Q 814.16 1237.08 816.90 1246.86   Q 818.52 1252.65 813.18 1256.66   Q 769.41 1289.46 722.95 1324.47   Q 718.76 1327.62 714.14 1330.93   Q 710.16 1333.78 707.83 1329.37   Q 701.72 1317.77 695.55 1306.29   Q 693.75 1302.95 692.92 1299.48   Q 692.80 1298.99 693.01 1298.53   Q 694.12 1296.11 696.12 1294.53   Q 717.24 1277.98 739.02 1260.97   Q 741.97 1258.66 744.09 1255.91   A 2.60 2.60 0.0 0 0 743.45 1252.14   Q 740.85 1250.46 737.73 1249.80   Q 727.57 1247.64 718.36 1247.52   Q 708.26 1247.38 700.75 1254.05   C 691.13 1262.61 682.57 1273.51 678.32 1285.29   C 671.86 1303.23 671.60 1325.83 683.02 1341.63   Q 689.52 1350.63 700.85 1354.66   C 701.95 1355.05 703.17 1354.81 704.01 1355.50   A 1.59 1.57 -24.7 0 0 705.03 1355.87   C 706.91 1355.90 708.67 1355.88 710.49 1356.52   C 713.38 1357.54 716.63 1356.25 719.62 1355.94   Q 722.21 1355.67 724.89 1354.80   Q 733.88 1351.90 741.79 1345.77   Q 744.79 1343.46 747.51 1341.39   Q 751.68 1338.75 754.07 1334.77   Q 762.32 1325.16 769.15 1312.91   Q 770.05 1311.30 771.96 1311.51   Q 790.63 1313.57 807.82 1315.48   Q 810.94 1315.83 813.33 1317.35   C 815.16 1318.52 815.40 1320.12 814.91 1322.13   Q 809.69 1343.54 796.15 1362.64   Q 792.26 1368.11 788.30 1372.32   C 786.40 1374.32 784.97 1376.53 782.83 1378.43   Q 776.29 1384.23 770.76 1388.53   Q 748.25 1406.02 721.29 1411.33   Q 710.62 1413.43 698.26 1413.18   Q 677.41 1412.76 660.39 1403.11   C 639.52 1391.29 629.36 1371.49 623.60 1347.54   Q 622.96 1344.87 622.79 1342.43   C 622.63 1340.14 621.83 1338.56 621.89 1336.12   Q 621.95 1332.93 621.22 1329.98   Q 622.18 1322.61 621.35 1315.25   Q 621.61 1309.48 621.96 1306.99   Q 627.22 1269.48 649.44 1238.93   Q 650.62 1237.31 651.79 1235.60   Q 652.99 1233.86 654.31 1232.45   C 656.22 1230.41 657.61 1228.18 659.57 1226.18   C 664.60 1221.07 669.91 1215.36 675.33 1211.19   Q 696.72 1194.75 720.98 1189.87   Q 723.70 1189.33 734.35 1188.31   Z"></path>
  <path fill="#e91e26" d="   M 923.30 1356.01   Q 928.94 1357.59 934.54 1356.00   Q 946.87 1353.69 956.93 1345.93   Q 974.44 1332.44 985.84 1312.63   C 987.29 1310.09 990.00 1310.83 992.50 1311.17   Q 1011.79 1313.79 1030.80 1316.48   A 1.87 1.86 11.7 0 1 1032.34 1318.82   Q 1027.21 1337.45 1018.20 1353.04   Q 1017.75 1353.80 1017.33 1354.30   Q 1016.84 1354.88 1016.47 1355.54   Q 1013.68 1360.38 1010.28 1364.72   C 1008.47 1367.03 1006.85 1369.47 1004.79 1371.61   Q 998.69 1377.94 993.43 1382.84   Q 988.34 1387.58 979.37 1393.61   Q 959.75 1406.83 936.78 1411.18   Q 934.06 1411.69 931.46 1411.88   C 927.31 1412.17 923.49 1413.03 919.28 1412.87   C 916.14 1412.75 913.04 1413.06 909.92 1412.70   C 904.47 1412.06 899.15 1411.66 893.82 1410.22   Q 868.73 1403.40 853.87 1381.66   Q 843.51 1366.51 839.24 1346.11   Q 838.93 1344.65 838.83 1343.13   C 838.73 1341.69 837.88 1340.44 837.93 1339.16   Q 838.05 1335.95 837.45 1333.12   L 837.47 1312.96   C 838.02 1310.27 837.65 1307.58 838.31 1304.89   Q 838.67 1303.42 838.95 1301.73   Q 845.30 1264.00 868.47 1233.80   Q 882.60 1215.39 901.92 1203.58   C 911.33 1197.82 921.61 1193.83 932.39 1191.14   Q 934.06 1190.73 935.78 1190.66   Q 936.32 1190.64 936.71 1190.27   Q 936.88 1190.11 937.09 1190.02   Q 937.57 1189.82 938.08 1189.87   C 941.04 1190.15 943.20 1188.91 946.00 1188.92   C 954.15 1188.93 963.25 1188.35 971.24 1189.69   Q 989.41 1192.74 1002.98 1201.78   Q 1004.54 1202.82 1009.34 1206.75   Q 1012.71 1209.51 1015.23 1212.31   Q 1029.21 1227.82 1032.73 1249.10   Q 1033.43 1253.31 1029.86 1255.98   Q 981.86 1291.90 934.57 1327.37   C 932.66 1328.81 930.13 1330.84 927.75 1331.35   A 1.09 1.08 -32.8 0 1 926.86 1331.16   Q 924.71 1329.59 923.04 1327.05   Q 915.47 1315.51 910.90 1303.46   C 909.91 1300.84 908.34 1296.65 911.01 1294.61   Q 933.06 1277.74 955.95 1259.91   Q 958.33 1258.06 959.49 1255.35   C 961.38 1250.96 948.00 1247.87 945.50 1247.13   Q 932.04 1243.13 921.02 1250.83   Q 910.86 1257.94 903.15 1268.18   Q 894.38 1279.85 891.44 1294.13   Q 889.06 1305.67 889.94 1317.02   Q 891.37 1335.53 904.02 1346.98   Q 911.61 1353.85 923.30 1356.01   Z"></path>
  <path fill="#e91e26" d="   M 1455.37 1322.45   Q 1450.40 1326.01 1447.76 1330.46   L 1430.07 1348.79   Q 1427.32 1350.01 1426.26 1352.65   A 0.99 0.99 0.0 0 0 1427.20 1354.01   L 1451.76 1353.30   L 1481.93 1353.23   Q 1484.87 1353.82 1487.87 1353.76   Q 1490.88 1353.70 1493.78 1353.75   Q 1498.84 1353.83 1503.52 1353.91   A 3.00 3.00 0.0 0 1 1506.47 1356.90   L 1506.51 1369.20   L 1505.82 1373.81   Q 1504.92 1375.94 1505.41 1378.22   Q 1505.60 1378.73 1505.49 1379.50   Q 1504.15 1388.98 1502.08 1398.32   Q 1501.28 1401.97 1500.33 1404.60   A 3.47 3.45 9.8 0 1 1497.07 1406.89   L 1407.30 1406.70   Q 1407.38 1406.63 1407.35 1406.43   A 0.37 0.36 -2.9 0 0 1407.01 1406.13   Q 1398.98 1405.44 1390.83 1406.31   Q 1388.70 1406.87 1386.37 1406.48   Q 1383.19 1405.96 1382.05 1405.96   Q 1377.00 1405.96 1372.11 1405.87   Q 1370.29 1404.43 1367.73 1405.59   Q 1366.80 1405.08 1365.60 1404.96   Q 1364.43 1404.84 1363.39 1404.41   Q 1358.18 1402.25 1355.85 1399.57   Q 1346.89 1389.27 1349.17 1374.81   Q 1350.89 1363.91 1357.43 1353.91   C 1360.49 1349.24 1363.80 1344.58 1367.80 1340.65   Q 1397.33 1311.66 1420.29 1287.55   Q 1421.22 1286.58 1422.13 1285.64   C 1429.77 1277.76 1437.27 1270.48 1444.83 1262.25   Q 1449.16 1257.54 1454.44 1252.19   Q 1455.36 1251.26 1454.63 1250.29   Q 1455.19 1249.62 1454.37 1249.09   C 1453.60 1248.59 1452.77 1248.18 1451.80 1248.18   Q 1431.02 1248.09 1410.25 1248.20   Q 1405.41 1248.23 1401.94 1249.01   Q 1393.94 1249.28 1387.62 1248.90   C 1383.27 1248.64 1383.10 1245.27 1383.37 1241.89   Q 1385.16 1219.39 1390.07 1196.53   C 1390.35 1195.20 1391.81 1194.00 1393.05 1193.93   Q 1396.24 1193.77 1399.13 1193.75   Q 1452.23 1193.49 1500.33 1193.67   C 1511.05 1193.71 1522.00 1195.67 1527.19 1205.36   Q 1531.52 1213.43 1530.31 1223.67   C 1528.70 1237.34 1522.88 1248.76 1514.75 1260.06   Q 1510.02 1266.65 1504.34 1272.21   Q 1496.05 1280.33 1486.21 1290.62   Q 1485.13 1291.74 1484.22 1292.91   Q 1483.04 1294.42 1481.80 1295.64   Q 1468.32 1308.99 1455.37 1322.45   Z"></path>
  <path fill="#ffffff" d="   M 602.52 1232.07   Q 603.52 1240.50 602.53 1249.16   Q 601.60 1240.60 602.52 1232.07   Z"></path>
  <path fill="#c7282e" d="   M 1454.63 1250.29   L 1454.08 1249.69   Q 1453.74 1249.31 1453.23 1249.31   L 1401.94 1249.01   Q 1405.41 1248.23 1410.25 1248.20   Q 1431.02 1248.09 1451.80 1248.18   C 1452.77 1248.18 1453.60 1248.59 1454.37 1249.09   Q 1455.19 1249.62 1454.63 1250.29   Z"></path>
  <path fill="#c7282e" d="   M 601.92 1255.31   L 601.71 1261.45   Q 600.88 1258.81 601.92 1255.31   Z"></path>
  <path fill="#c7282e" d="   M 1353.71 1268.46   A 117.24 92.66 -63.4 0 1 1353.61 1291.88   Q 1352.90 1280.18 1353.71 1268.46   Z"></path>
  <path fill="#c7282e" d="   M 242.95 1270.77   Q 242.73 1271.43 243.00 1271.48   Q 242.70 1271.37 242.95 1270.77   Z"></path>
  <path fill="#c7282e" d="   M 1307.93 1296.61   L 1307.84 1281.71   Q 1310.07 1288.93 1307.93 1296.61   Z"></path>
  <path fill="#c7282e" d="   M 1306.89 1301.52   Q 1306.81 1302.03 1306.95 1302.24   L 1306.89 1301.52   Z"></path>
  <path fill="#c7282e" d="   M 1204.14 1305.53   L 1204.11 1318.65   Q 1201.89 1312.09 1204.14 1305.53   Z"></path>
  <path fill="#c7282e" d="   M 837.47 1312.96   L 837.45 1333.12   Q 836.22 1323.00 837.47 1312.96   Z"></path>
  <path fill="#c7282e" d="   M 621.22 1329.98   Q 620.42 1322.61 621.35 1315.25   Q 622.18 1322.61 621.22 1329.98   Z"></path>
  <path fill="#c7282e" d="   M 1455.37 1322.45   L 1447.76 1330.46   Q 1450.40 1326.01 1455.37 1322.45   Z"></path>
  <path fill="#c7282e" d="   M 754.07 1334.77   Q 751.68 1338.75 747.51 1341.39   L 754.07 1334.77   Z"></path>
  <path fill="#c7282e" d="   M 1430.07 1348.79   Q 1428.66 1350.97 1427.40 1352.02   Q 1425.78 1353.37 1427.89 1353.37   L 1451.76 1353.30   L 1427.20 1354.01   A 0.99 0.99 0.0 0 1 1426.26 1352.65   Q 1427.32 1350.01 1430.07 1348.79   Z"></path>
  <path fill="#c7282e" d="   M 400.64 1361.61   Q 399.47 1356.82 400.70 1352.31   Q 401.46 1356.89 400.64 1361.61   Z"></path>
  <path fill="#c7282e" d="   M 1506.51 1369.20   L 1506.47 1356.90   A 3.00 3.00 0.0 0 0 1503.52 1353.91   Q 1498.84 1353.83 1493.78 1353.75   Q 1490.88 1353.70 1487.87 1353.76   Q 1484.87 1353.82 1481.93 1353.23   Q 1492.01 1353.03 1501.81 1353.12   Q 1504.72 1353.15 1506.60 1355.16   Q 1506.95 1355.53 1506.93 1356.04   L 1506.51 1369.20   Z"></path>
  <path fill="#c7282e" d="   M 1120.26 1355.47   Q 1118.62 1356.06 1117.51 1355.14   Q 1119.11 1354.63 1120.26 1355.47   Z"></path>
  <path fill="#c7282e" d="   M 934.54 1356.00   Q 928.94 1357.59 923.30 1356.01   L 934.54 1356.00   Z"></path>
  <path fill="#c7282e" d="   M 1133.40 1356.23   Q 1127.97 1357.50 1122.73 1356.07   L 1133.40 1356.23   Z"></path>
  <path fill="#c7282e" d="   M 1505.82 1373.81   Q 1506.28 1376.05 1505.41 1378.22   Q 1504.92 1375.94 1505.82 1373.81   Z"></path>
  <path fill="#c7282e" d="   M 1372.11 1405.87   Q 1369.71 1406.22 1367.73 1405.59   Q 1370.29 1404.43 1372.11 1405.87   Z"></path>
  <path fill="#c7282e" d="   M 1407.30 1406.70   Q 1399.10 1407.37 1390.83 1406.31   Q 1398.98 1405.44 1407.01 1406.13   A 0.37 0.36 -2.9 0 1 1407.35 1406.43   Q 1407.38 1406.63 1407.30 1406.70   Z"></path>
</svg>
