<?xml version="1.0" encoding="UTF-8" standalone="no"?>
<!DOCTYPE svg PUBLIC "-//W3C//DTD SVG 1.1//EN" "http://www.w3.org/Graphics/SVG/1.1/DTD/svg11.dtd">
<svg xmlns="http://www.w3.org/2000/svg" version="1.1" viewBox="0.00 0.00 209.00 138.00">
<g stroke-width="2.00" fill="none" stroke-linecap="butt">
<path stroke="#f6cb34" vector-effect="non-scaling-stroke" d="
  M 42.95 5.41
  Q 42.86 4.73 43.49 4.26
  Q 44.06 3.84 43.47 3.45
  C 41.42 2.08 38.41 2.12 35.99 2.80
  Q 35.58 2.92 35.47 3.33
  Q 35.39 3.62 35.17 3.83
  Q 33.25 5.55 30.80 6.73
  A 2.58 2.55 -86.1 0 0 29.77 7.64
  Q 28.99 8.85 27.78 9.57
  Q 27.15 9.95 26.80 10.59
  L 25.46 13.03
  Q 25.00 13.87 24.20 13.35
  L 23.84 13.11
  A 0.57 0.57 0.0 0 1 23.65 12.35
  Q 24.37 11.11 23.67 10.06"
/>
<path stroke="#f2bb1f" vector-effect="non-scaling-stroke" d="
  M 38.35 11.53
  Q 37.69 11.10 37.92 10.53
  Q 38.04 10.24 38.12 9.92
  Q 38.73 7.58 40.13 6.09
  Q 40.52 5.68 39.98 5.53
  Q 38.28 5.07 36.43 6.02
  Q 36.10 6.19 36.05 6.56
  Q 35.95 7.37 35.20 7.70
  Q 34.93 7.82 34.88 8.12
  C 34.55 10.25 32.66 11.15 30.91 11.94
  A 1.80 1.78 -16.0 0 0 29.88 13.78
  Q 30.05 15.04 29.50 16.12
  Q 28.70 17.70 29.14 19.40
  Q 29.29 19.98 29.87 20.11
  Q 30.53 20.25 30.40 20.90
  Q 30.28 21.53 30.69 22.00
  L 32.05 23.56
  Q 32.40 23.96 32.07 24.37
  Q 31.82 24.68 31.28 25.02"
/>
<path stroke="#7e6415" vector-effect="non-scaling-stroke" d="
  M 31.28 25.02
  C 28.12 20.81 24.63 23.43 22.54 26.79"
/>
<path stroke="#f2b31f" vector-effect="non-scaling-stroke" d="
  M 22.54 26.79
  Q 21.45 27.56 20.69 26.18
  A 1.01 1.00 85.7 0 0 20.16 25.72
  L 18.28 25.00
  Q 17.82 24.82 17.40 25.10
  Q 16.59 25.64 15.57 25.17"
/>
<path stroke="#7e6415" vector-effect="non-scaling-stroke" d="
  M 15.57 25.17
  Q 14.35 23.07 13.33 21.91
  Q 12.33 20.76 10.88 21.77"
/>
<path stroke="#f9da55" vector-effect="non-scaling-stroke" d="
  M 12.41 17.32
  Q 13.72 16.86 14.59 15.05
  Q 15.47 13.20 16.14 12.46
  Q 18.52 9.80 21.31 7.86
  Q 22.58 6.97 22.30 8.50
  Q 22.23 8.86 22.61 9.16"
/>
<path stroke="#f08d93" vector-effect="non-scaling-stroke" d="
  M 14.36 97.62
  L 26.44 88.66"
/>
<path stroke="#ea631f" vector-effect="non-scaling-stroke" d="
  M 26.44 88.66
  Q 28.11 87.48 30.21 86.18
  Q 31.66 85.28 30.96 82.98"
/>
<path stroke="#f08d93" vector-effect="non-scaling-stroke" d="
  M 30.96 82.98
  C 32.56 84.69 34.78 82.82 36.52 82.14
  Q 38.18 81.49 37.60 79.23
  A 0.41 0.41 0.0 0 1 38.04 78.72
  Q 39.77 78.89 40.27 77.80"
/>
<path stroke="#e2571d" vector-effect="non-scaling-stroke" d="
  M 40.54 75.71
  Q 40.50 75.61 40.46 75.51"
/>
<path stroke="#ee721b" vector-effect="non-scaling-stroke" d="
  M 40.46 75.51
  C 41.90 73.27 40.03 68.78 38.80 67.06"
/>
<path stroke="#e2571d" vector-effect="non-scaling-stroke" d="
  M 38.80 67.06
  C 37.53 64.53 36.04 62.81 36.60 59.55
  C 36.78 58.54 37.46 57.64 37.45 56.43"
/>
<path stroke="#ec7637" vector-effect="non-scaling-stroke" d="
  M 37.45 56.43
  L 43.90 44.82"
/>
<path stroke="#d94f22" vector-effect="non-scaling-stroke" d="
  M 43.90 44.82
  L 46.27 43.25"
/>
<path stroke="#ef8557" vector-effect="non-scaling-stroke" d="
  M 46.27 43.25
  Q 49.25 42.78 50.28 39.88"
/>
<path stroke="#e0101a" vector-effect="non-scaling-stroke" d="
  M 88.09 98.38
  Q 88.23 97.83 88.68 98.17
  C 93.83 102.04 99.24 105.88 105.99 103.87
  Q 119.25 99.91 123.88 86.24
  Q 125.23 82.26 126.07 78.30
  Q 126.25 77.45 126.66 78.22
  C 130.77 85.96 136.23 91.77 144.91 94.11
  C 151.40 95.86 159.51 93.70 165.73 90.86
  Q 167.06 90.26 166.18 91.43
  Q 161.25 97.95 168.01 103.05
  C 171.27 105.51 175.69 105.58 178.86 102.67
  Q 179.82 101.79 180.47 102.93
  Q 183.99 109.17 189.41 109.00
  C 193.40 108.88 197.19 105.57 198.25 101.78
  C 199.05 98.95 196.86 95.15 194.35 93.82
  Q 193.26 93.25 192.23 92.65
  A 0.64 0.64 0.0 0 1 192.12 91.63
  C 195.31 88.70 197.32 84.66 194.48 80.70
  Q 190.95 75.78 184.45 76.18
  Q 183.23 76.26 184.08 75.38
  Q 189.57 69.68 193.88 62.12
  Q 195.15 59.88 195.84 57.25
  Q 195.97 56.75 195.79 56.26
  Q 194.76 53.48 192.48 52.52
  Q 179.72 47.10 163.91 45.39
  Q 158.91 44.85 154.23 45.46
  C 146.84 46.42 143.75 55.57 143.86 61.90
  Q 143.93 66.10 147.81 67.59
  Q 148.46 67.84 149.09 67.52
  Q 158.42 62.67 168.99 62.88
  Q 172.46 62.95 176.11 62.90
  A 0.57 0.57 0.0 0 1 176.57 63.82
  Q 175.62 65.06 174.38 65.99
  C 169.35 69.79 163.35 71.93 157.27 72.90
  Q 151.84 73.78 147.19 70.21
  Q 143.84 67.64 142.69 62.79
  Q 141.12 56.20 142.17 49.69
  Q 143.67 40.43 146.41 32.74
  C 147.15 30.65 147.17 28.62 146.83 26.46
  Q 146.73 25.80 146.09 25.64
  A 0.61 0.60 -4.8 0 1 145.67 25.29
  Q 144.94 23.53 142.75 24.17
  Q 140.34 24.88 138.55 26.81
  Q 135.89 29.66 133.43 32.51
  Q 132.84 33.20 133.09 32.33
  C 134.83 26.49 134.14 20.07 131.31 15.01
  C 128.11 9.32 122.23 9.55 120.31 16.15
  C 118.82 21.30 117.55 26.45 114.00 30.53
  Q 109.19 36.07 103.76 40.33
  Q 95.23 47.02 91.72 57.40
  Q 91.09 59.26 90.98 57.30
  Q 90.67 51.66 91.35 45.54
  Q 92.31 36.78 85.64 31.58
  C 82.16 28.87 77.29 29.04 74.26 32.42
  C 72.43 34.47 72.19 36.92 71.57 39.48
  Q 71.10 41.41 70.99 43.28
  C 70.69 48.24 70.48 54.02 71.48 58.98
  Q 71.88 61.01 72.29 63.06
  Q 73.75 70.39 77.03 80.01
  Q 77.74 82.08 77.94 84.26
  Q 78.12 86.18 76.70 84.88
  Q 66.15 75.26 52.49 81.39
  Q 44.63 84.91 37.34 90.58
  Q 29.88 96.38 21.97 102.47
  Q 19.78 104.16 17.77 106.02
  Q 15.85 107.81 14.01 109.55
  Q 10.23 113.11 9.37 115.43
  Q 7.29 120.98 11.50 125.69
  Q 15.19 129.81 20.32 129.30
  Q 23.50 128.99 26.42 126.62
  Q 28.76 124.72 31.00 121.20
  Q 34.85 115.15 38.20 109.45
  Q 43.92 99.73 54.37 97.31
  Q 63.88 95.11 69.44 101.47
  C 72.01 104.40 73.25 107.90 76.01 110.70
  C 79.48 114.22 83.31 110.85 84.88 107.49
  Q 86.90 103.14 88.09 98.38"
/>
<path stroke="#e0101a" vector-effect="non-scaling-stroke" d="
  M 60.8195 72.1871
  A 13.46 10.40 56.6 0 0 62.0924 55.2250
  A 13.46 10.40 56.6 0 0 46.0005 49.7129
  A 13.46 10.40 56.6 0 0 44.7276 66.6750
  A 13.46 10.40 56.6 0 0 60.8195 72.1871"
/>
<path stroke="#f08d93" vector-effect="non-scaling-stroke" d="
  M 127.24 100.97
  Q 127.90 99.62 127.95 98.36
  Q 127.98 97.60 127.49 97.36
  Q 127.01 97.12 126.19 97.21"
/>
<path stroke="#e0101a" vector-effect="non-scaling-stroke" d="
  M 126.19 97.21
  Q 126.35 96.89 126.88 96.88
  Q 127.29 96.88 127.36 96.48
  Q 127.52 95.61 125.29 96.21
  A 2.63 2.58 -72.1 0 0 124.30 96.73
  Q 119.79 100.51 115.80 104.09
  Q 113.06 106.55 109.31 109.44
  Q 105.97 112.01 102.81 114.79
  C 101.37 116.05 100.29 118.16 101.51 120.03
  C 104.32 124.33 108.69 122.18 111.86 119.98
  Q 121.52 113.25 128.37 101.60
  A 0.55 0.54 -58.9 0 0 128.19 100.85
  Q 127.87 100.66 127.24 100.97"
/>
<path stroke="#ef8286" vector-effect="non-scaling-stroke" d="
  M 126.19 97.21
  C 125.24 97.66 124.20 98.18 123.43 98.94
  Q 114.92 107.32 104.65 114.79
  Q 103.06 115.94 102.43 117.92
  A 2.16 2.16 0.0 0 0 103.80 120.63
  C 111.47 123.19 123.86 106.58 127.24 100.97"
/>
<path stroke="#f5cb3c" vector-effect="non-scaling-stroke" d="
  M 39.00 12.73
  Q 39.12 13.78 39.75 13.46
  C 40.84 12.92 41.20 12.57 42.50 12.74
  Q 45.75 13.19 49.08 12.19
  Q 49.53 12.06 49.91 12.33
  Q 50.22 12.55 50.33 12.92
  Q 50.46 13.42 50.05 13.73
  Q 46.82 16.13 45.83 19.79"
/>
<path stroke="#e09b1c" vector-effect="non-scaling-stroke" d="
  M 44.58 23.80
  Q 43.68 21.70 45.07 19.22
  A 1.06 1.05 31.1 0 0 44.72 17.82
  Q 43.78 17.22 43.45 18.30
  A 1.40 1.34 -9.5 0 1 42.92 19.01
  Q 40.04 20.97 39.04 23.84
  A 3.35 2.48 3.7 0 1 36.32 25.59
  Q 36.02 25.61 35.86 25.91
  A 0.55 0.52 5.7 0 1 35.51 26.18
  Q 30.11 27.51 24.88 27.86
  Q 24.58 27.88 24.53 27.59
  Q 24.49 27.35 24.66 27.32"
/>
<path stroke="#7a5b12" vector-effect="non-scaling-stroke" d="
  M 24.66 27.32
  Q 26.54 23.61 31.28 25.02"
/>
<path stroke="#ef8286" vector-effect="non-scaling-stroke" d="
  M 87.22 95.90
  A 0.46 0.46 0.0 0 1 88.01 95.64
  C 92.96 100.75 98.99 104.32 106.31 102.27
  Q 115.73 99.64 120.45 90.94
  C 125.09 82.40 127.12 69.12 120.30 61.39
  Q 115.04 55.42 107.37 56.28
  Q 105.10 56.54 107.05 55.35
  C 120.39 47.22 138.23 35.90 131.11 17.31
  C 129.79 13.85 125.17 9.23 122.49 14.80
  Q 121.64 16.58 121.01 19.12
  Q 118.32 30.01 109.70 37.08
  Q 101.25 44.02 99.14 46.68
  Q 91.92 55.77 91.58 67.45
  Q 91.51 69.75 93.79 69.77
  Q 94.42 69.77 94.87 69.33
  C 100.03 64.34 108.22 65.25 110.99 72.07
  C 113.98 79.43 107.33 87.42 99.59 86.45
  Q 93.92 85.75 91.49 80.24
  C 88.74 74.03 88.29 66.15 88.92 59.51
  Q 89.76 50.80 89.95 42.72
  Q 90.10 36.22 85.42 32.85
  Q 80.29 29.17 75.98 32.67
  Q 73.82 34.43 73.21 38.95
  Q 71.15 54.11 74.86 67.99
  C 76.62 74.58 80.11 81.64 79.37 88.44
  Q 79.24 89.60 78.50 88.70
  C 67.04 74.56 52.30 81.21 40.45 90.01
  Q 26.08 100.67 15.65 109.54
  C 10.80 113.67 7.27 121.23 13.71 126.11
  C 20.13 130.97 26.43 125.92 29.88 120.40
  Q 32.99 115.44 35.71 110.64
  C 40.43 102.34 48.11 95.84 57.68 95.28
  C 64.63 94.88 69.98 98.59 73.20 104.58
  C 75.27 108.43 79.40 114.99 83.40 107.49
  Q 86.38 101.90 87.22 95.90"
/>
<path stroke="#ef8286" vector-effect="non-scaling-stroke" d="
  M 178.90 62.30
  A 0.53 0.53 0.0 0 1 179.20 63.17
  Q 171.07 72.34 157.70 74.27
  C 147.68 75.72 141.14 68.23 140.55 58.64
  C 140.00 49.55 142.28 40.89 145.15 32.24
  C 145.59 30.89 146.24 27.19 145.13 25.86
  A 1.96 1.94 56.0 0 0 142.71 25.38
  C 135.34 29.33 130.30 40.08 128.08 47.98
  C 124.27 61.54 123.75 78.76 136.00 88.29
  C 146.47 96.43 160.40 93.51 170.48 86.25
  Q 181.06 78.63 190.96 64.44
  C 192.62 62.07 196.51 55.80 192.35 54.05
  Q 177.77 47.89 161.92 46.78
  Q 156.84 46.43 152.76 47.29
  Q 150.37 47.80 148.66 50.31
  Q 144.42 56.52 145.37 63.51
  C 145.63 65.50 147.58 66.76 149.48 65.80
  Q 162.77 59.05 178.90 62.30"
/>
<path stroke="#e0101a" vector-effect="non-scaling-stroke" d="
  M 115.23 51.91
  C 114.00 52.81 112.65 53.42 111.41 54.28
  Q 110.91 54.63 111.41 54.96
  Q 112.47 55.67 113.69 55.65
  Q 114.01 55.65 114.27 55.84
  Q 114.47 55.98 114.34 56.20
  A 0.28 0.28 0.0 0 0 114.58 56.63
  L 116.19 56.63
  Q 116.55 56.63 116.64 56.97
  Q 116.82 57.60 117.45 57.66
  Q 117.98 57.70 118.38 58.06
  Q 119.20 58.79 119.86 59.60
  Q 120.44 60.32 121.20 60.78
  Q 122.30 61.44 122.81 62.61
  Q 123.02 63.10 123.52 62.91
  Q 124.03 62.73 124.07 62.27
  Q 125.16 50.63 128.92 41.08
  Q 130.10 38.07 128.17 40.67
  C 124.87 45.12 119.91 48.50 115.23 51.91"
/>
<path stroke="#e0101a" vector-effect="non-scaling-stroke" d="
  M 91.17 75.07
  C 92.27 79.57 93.57 83.98 98.79 85.01
  C 105.48 86.34 110.53 81.12 110.05 74.54
  Q 109.71 69.79 105.89 68.21
  Q 103.34 67.15 99.60 68.08
  C 97.06 68.71 94.16 72.84 91.49 70.24
  A 0.38 0.38 0.0 0 0 90.85 70.48
  Q 90.62 72.82 91.17 75.07"
/>
<path stroke="#ef8286" vector-effect="non-scaling-stroke" d="
  M 194.2505 83.9082
  A 8.38 7.47 -7.9 0 0 184.9233 77.6609
  A 8.38 7.47 -7.9 0 0 177.6495 86.2118
  A 8.38 7.47 -7.9 0 0 186.9767 92.4591
  A 8.38 7.47 -7.9 0 0 194.2505 83.9082"
/>
<path stroke="#ef8286" vector-effect="non-scaling-stroke" d="
  M 181.0406 95.2747
  A 7.77 6.94 -8.7 0 0 172.3102 89.5899
  A 7.77 6.94 -8.7 0 0 165.6794 97.6253
  A 7.77 6.94 -8.7 0 0 174.4098 103.3101
  A 7.77 6.94 -8.7 0 0 181.0406 95.2747"
/>
<path stroke="#ef8286" vector-effect="non-scaling-stroke" d="
  M 196.9905 99.4432
  A 7.78 6.91 -8.7 0 0 188.2548 93.7895
  A 7.78 6.91 -8.7 0 0 181.6095 101.7968
  A 7.78 6.91 -8.7 0 0 190.3452 107.4505
  A 7.78 6.91 -8.7 0 0 196.9905 99.4432"
/>
<path stroke="#e4ab31" vector-effect="non-scaling-stroke" d="
  M 47.57 28.35
  Q 45.88 30.93 46.26 32.80"
/>
<path stroke="#e7ba52" vector-effect="non-scaling-stroke" d="
  M 50.49 33.62
  Q 51.57 38.18 46.27 43.25"
/>
<path stroke="#e4ab31" vector-effect="non-scaling-stroke" d="
  M 43.90 44.82
  Q 43.08 43.87 41.29 46.69"
/>
<path stroke="#ba6214" vector-effect="non-scaling-stroke" d="
  M 41.29 46.69
  Q 41.21 46.33 41.32 45.94
  Q 41.45 45.48 40.99 45.61
  Q 40.26 45.82 39.59 46.37"
/>
<path stroke="#e8c28e" vector-effect="non-scaling-stroke" d="
  M 39.59 46.37
  Q 39.40 45.79 39.16 45.59"
/>
<path stroke="#e0941c" vector-effect="non-scaling-stroke" d="
  M 39.16 45.59
  Q 41.63 42.80 44.66 41.38"
/>
<path stroke="#e4ab31" vector-effect="non-scaling-stroke" d="
  M 44.66 41.38
  Q 47.54 41.40 47.49 39.82"
/>
<path stroke="#ba6214" vector-effect="non-scaling-stroke" d="
  M 47.49 39.82
  Q 48.45 38.87 48.41 37.56
  Q 48.40 36.98 47.83 37.10
  Q 47.24 37.21 46.87 38.01"
/>
<path stroke="#e4ab31" vector-effect="non-scaling-stroke" d="
  M 46.87 38.01
  Q 46.56 37.07 45.40 37.06"
/>
<path stroke="#6b4412" vector-effect="non-scaling-stroke" d="
  M 45.40 37.06
  Q 46.03 36.30 46.07 35.75
  Q 46.11 35.23 45.62 35.05
  L 39.79 32.93"
/>
<path stroke="#7f5925" vector-effect="non-scaling-stroke" d="
  M 39.79 32.93
  Q 37.09 30.21 33.79 29.64
  Q 31.13 29.18 22.75 28.51
  Q 22.25 28.47 22.03 28.21"
/>
<path stroke="#e0941c" vector-effect="non-scaling-stroke" d="
  M 22.03 28.21
  L 22.47 28.12
  Q 22.80 28.05 22.87 27.71
  L 22.95 27.30"
/>
<path stroke="#6b4412" vector-effect="non-scaling-stroke" d="
  M 22.95 27.30
  L 24.66 27.32"
/>
<path stroke="#7a5411" vector-effect="non-scaling-stroke" d="
  M 15.57 25.17
  Q 15.37 25.86 14.90 25.96
  Q 14.41 26.06 14.08 25.68
  L 10.88 21.96"
/>
<path stroke="#7a5411" vector-effect="non-scaling-stroke" d="
  M 22.54 26.79
  Q 22.78 27.36 22.95 27.30"
/>
<path stroke="#8e6825" vector-effect="non-scaling-stroke" d="
  M 22.03 28.21
  Q 18.96 28.90 17.75 28.32
  Q 15.83 27.41 13.82 27.20"
/>
<path stroke="#c97213" vector-effect="non-scaling-stroke" d="
  M 13.82 27.20
  Q 12.52 26.18 11.33 26.43"
/>
<path stroke="#68371d" vector-effect="non-scaling-stroke" d="
  M 13.82 27.20
  Q 12.52 27.58 11.31 26.97"
/>
<path stroke="#363536" vector-effect="non-scaling-stroke" d="
  M 9.95 27.35
  Q 9.90 27.48 10.44 27.72"
/>
<path stroke="#6e6f71" vector-effect="non-scaling-stroke" d="
  M 10.44 27.72
  L 8.46 27.79"
/>
<path stroke="#7e7f7f" vector-effect="non-scaling-stroke" d="
  M 8.46 27.79
  Q 7.18 27.80 6.47 27.16"
/>
<path stroke="#19191b" vector-effect="non-scaling-stroke" d="
  M 39.79 32.93
  L 36.77 33.94"
/>
<path stroke="#3c3d3f" vector-effect="non-scaling-stroke" d="
  M 36.77 33.94
  L 36.82 33.25
  Q 36.87 32.65 36.27 32.60
  Q 35.96 32.56 35.68 32.71
  Q 35.41 32.86 35.27 33.17
  Q 34.29 35.44 33.32 37.71"
/>
<path stroke="#19191b" vector-effect="non-scaling-stroke" d="
  M 33.32 37.71
  Q 33.37 35.80 31.80 38.17"
/>
<path stroke="#3c3d3f" vector-effect="non-scaling-stroke" d="
  M 31.80 38.17
  Q 28.85 41.10 25.64 39.89
  Q 24.95 39.63 25.52 39.17
  Q 27.41 37.62 28.80 35.58
  Q 30.19 33.54 32.12 34.42
  Q 32.68 34.67 33.09 34.21
  Q 33.87 33.30 34.01 31.92
  Q 34.15 30.62 32.86 30.40
  Q 25.19 29.09 17.60 29.81"
/>
<path stroke="#656769" vector-effect="non-scaling-stroke" d="
  M 17.60 29.81
  Q 14.32 28.04 10.44 27.72"
/>
<path stroke="#aeb1b3" vector-effect="non-scaling-stroke" d="
  M 8.46 27.79
  L 9.86 28.05
  Q 10.50 28.17 10.38 28.82
  Q 10.06 30.53 11.04 31.85
  Q 12.38 33.65 13.45 35.52
  Q 13.72 35.98 14.23 36.15
  L 15.01 36.41
  Q 15.68 36.64 15.19 37.15
  L 14.68 37.69"
/>
<path stroke="#d6b26e" vector-effect="non-scaling-stroke" d="
  M 14.68 37.69
  L 13.02 38.86"
/>
<path stroke="#7e7f7f" vector-effect="non-scaling-stroke" d="
  M 13.02 38.86
  Q 12.94 38.94 12.86 39.03"
/>
<path stroke="#c8a26f" vector-effect="non-scaling-stroke" d="
  M 12.86 39.03
  L 10.32 39.56"
/>
<path stroke="#dfe0e0" vector-effect="non-scaling-stroke" d="
  M 9.25 39.08
  Q 10.69 39.23 11.97 38.97
  Q 12.66 38.83 12.78 38.34
  Q 12.91 37.78 12.37 37.99
  Q 9.21 39.22 6.07 35.12"
/>
<path stroke="#74777a" vector-effect="non-scaling-stroke" d="
  M 17.60 29.81
  Q 20.47 30.03 21.75 29.88
  Q 23.33 29.69 23.74 31.18"
/>
<path stroke="#8d9093" vector-effect="non-scaling-stroke" d="
  M 23.74 31.18
  Q 22.00 32.23 19.22 31.94
  Q 18.71 31.89 18.31 31.56
  Q 17.08 30.51 15.43 30.65
  A 1.00 0.99 70.8 0 0 14.69 32.19
  Q 15.96 34.11 16.52 36.80
  Q 16.65 37.46 15.41 37.69"
/>
<path stroke="#c6a260" vector-effect="non-scaling-stroke" d="
  M 15.41 37.69
  Q 15.23 38.10 14.68 37.69"
/>
<path stroke="#28292b" vector-effect="non-scaling-stroke" d="
  M 31.80 38.17
  Q 30.60 41.53 24.60 42.35"
/>
<path stroke="#9d7835" vector-effect="non-scaling-stroke" d="
  M 24.60 42.35
  Q 22.05 41.65 18.68 38.28"
/>
<path stroke="#646668" vector-effect="non-scaling-stroke" d="
  M 18.68 38.28
  Q 21.80 35.69 26.15 34.77
  Q 26.64 34.66 26.42 34.21
  Q 25.41 32.09 23.74 31.18"
/>
<path stroke="#b6914e" vector-effect="non-scaling-stroke" d="
  M 18.68 38.28
  L 15.41 37.69"
/>
<path stroke="#28292b" vector-effect="non-scaling-stroke" d="
  M 36.77 33.94
  Q 35.64 35.24 35.12 36.78
  C 34.75 37.86 34.09 38.84 33.40 39.74
  Q 32.19 41.33 32.39 39.34
  Q 32.44 38.83 33.32 37.71"
/>
<path stroke="#7e6b27" vector-effect="non-scaling-stroke" d="
  M 45.40 37.06
  Q 45.70 36.97 45.32 37.40"
/>
<path stroke="#7a5411" vector-effect="non-scaling-stroke" d="
  M 45.32 37.40
  L 39.16 35.82
  Q 38.64 35.69 38.39 36.16
  Q 37.97 36.96 36.94 37.12
  Q 36.37 37.20 36.01 37.64
  L 33.75 40.39"
/>
<path stroke="#542209" vector-effect="non-scaling-stroke" d="
  M 33.75 40.39
  Q 31.97 41.00 30.56 42.41"
/>
<path stroke="#7a5411" vector-effect="non-scaling-stroke" d="
  M 30.56 42.41
  Q 27.68 43.59 24.60 42.35"
/>
<path stroke="#f2bb31" vector-effect="non-scaling-stroke" d="
  M 45.32 37.40
  Q 45.51 39.27 44.66 41.38"
/>
<path stroke="#f7d18d" vector-effect="non-scaling-stroke" d="
  M 39.16 45.59
  C 36.73 43.86 34.67 44.11 31.97 45.02
  Q 30.26 45.59 28.96 45.39
  Q 25.94 44.93 22.44 43.03"
/>
<path stroke="#7a5411" vector-effect="non-scaling-stroke" d="
  M 22.44 43.03
  Q 20.41 39.75 16.46 39.58"
/>
<path stroke="#96702c" vector-effect="non-scaling-stroke" d="
  M 16.46 39.58
  L 13.02 38.86"
/>
<path stroke="#c97213" vector-effect="non-scaling-stroke" d="
  M 30.56 42.41
  Q 32.98 42.78 33.75 40.39"
/>
<path stroke="#cd8929" vector-effect="non-scaling-stroke" d="
  M 46.87 38.01
  Q 46.31 39.70 47.49 39.82"
/>
<path stroke="#88612d" vector-effect="non-scaling-stroke" d="
  M 12.86 39.03
  Q 11.91 40.03 11.93 40.67"
/>
<path stroke="#c8a26f" vector-effect="non-scaling-stroke" d="
  M 11.93 40.67
  Q 11.10 41.73 10.05 40.77"
/>
<path stroke="#222122" vector-effect="non-scaling-stroke" d="
  M 16.46 39.58
  Q 16.25 40.56 19.11 41.71
  A 1.70 1.70 0.0 0 1 19.60 44.56
  Q 18.31 45.69 15.69 46.72"
/>
<path stroke="#5e5e5f" vector-effect="non-scaling-stroke" d="
  M 15.69 46.72
  Q 15.95 46.12 15.88 45.47
  A 1.04 1.03 -76.3 0 0 15.42 44.71
  Q 13.26 43.25 13.60 41.03
  Q 13.69 40.46 13.11 40.44
  Q 12.79 40.42 12.63 40.71"
/>
<path stroke="#7e7f7f" vector-effect="non-scaling-stroke" d="
  M 12.63 40.71
  Q 12.57 40.94 11.93 40.67"
/>
<path stroke="#828283" vector-effect="non-scaling-stroke" d="
  M 22.44 43.03
  Q 22.65 45.39 20.46 45.97
  Q 18.61 46.46 17.08 47.39
  A 1.50 1.49 -46.9 0 0 17.16 50.00
  L 21.38 52.18"
/>
<path stroke="#170304" vector-effect="non-scaling-stroke" d="
  M 21.38 52.18
  Q 20.82 52.69 21.10 52.75"
/>
<path stroke="#828283" vector-effect="non-scaling-stroke" d="
  M 21.10 52.75
  Q 18.45 51.65 15.95 50.87
  Q 15.70 50.79 15.54 50.85
  Q 15.27 50.94 15.24 51.23"
/>
<path stroke="#515356" vector-effect="non-scaling-stroke" d="
  M 13.00 50.55
  L 14.42 50.44"
/>
<path stroke="#828283" vector-effect="non-scaling-stroke" d="
  M 14.42 50.44
  Q 16.03 49.81 15.05 48.02"
/>
<path stroke="#414244" vector-effect="non-scaling-stroke" d="
  M 15.05 48.02
  Q 15.36 46.93 15.69 46.72"
/>
<path stroke="#bebfc0" vector-effect="non-scaling-stroke" d="
  M 15.05 48.02
  Q 14.92 48.00 14.80 47.99"
/>
<path stroke="#9ea0a1" vector-effect="non-scaling-stroke" d="
  M 14.80 47.99
  Q 13.80 47.46 14.37 46.87
  A 1.03 1.03 0.0 0 0 14.31 45.36
  Q 12.52 43.84 12.95 41.65
  A 0.82 0.82 0.0 0 0 12.81 41.01
  Q 12.69 40.85 12.63 40.71"
/>
<path stroke="#dfe0e0" vector-effect="non-scaling-stroke" d="
  M 14.80 47.99
  Q 9.12 46.19 9.91 40.94"
/>
<path stroke="#ced0d2" vector-effect="non-scaling-stroke" d="
  M 14.42 50.44
  L 10.17 48.24"
/>
<path stroke="#d1a085" vector-effect="non-scaling-stroke" d="
  M 39.59 46.37
  L 39.02 47.54"
/>
<path stroke="#f1c989" vector-effect="non-scaling-stroke" d="
  M 39.02 47.54
  Q 37.06 48.03 35.78 49.12
  Q 34.62 50.11 34.34 51.70
  Q 33.45 56.71 31.85 60.57
  Q 31.68 60.99 31.89 61.40
  Q 32.50 62.54 31.91 63.72
  Q 31.66 64.22 31.64 64.77
  L 31.43 71.49
  Q 31.38 73.11 32.56 72.01
  C 35.58 69.23 38.76 74.18 40.03 76.50"
/>
<path stroke="#f9d58b" vector-effect="non-scaling-stroke" d="
  M 30.96 82.98
  L 28.83 79.57
  Q 28.54 79.11 28.01 79.25
  L 27.02 79.53
  Q 26.43 79.69 26.37 79.09
  Q 26.27 78.01 25.28 78.12
  Q 23.35 78.35 22.39 77.31"
/>
<path stroke="#f7d18d" vector-effect="non-scaling-stroke" d="
  M 22.39 77.31
  L 23.10 72.55
  Q 23.18 72.04 23.47 71.60
  Q 24.35 70.27 24.79 68.75
  Q 24.94 68.24 25.36 67.93
  Q 26.94 66.76 26.41 64.81"
/>
<path stroke="#948080" vector-effect="non-scaling-stroke" d="
  M 21.10 52.75
  Q 21.37 56.14 22.16 59.57
  Q 22.70 61.88 23.93 62.41
  C 28.62 64.42 31.10 58.03 31.67 54.33
  Q 32.32 50.12 35.25 47.37
  A 0.28 0.27 14.9 0 0 34.98 46.91
  Q 29.59 48.49 25.76 52.02
  A 1.79 1.70 18.3 0 1 24.83 52.46
  Q 22.93 52.75 21.38 52.18"
/>
<path stroke="#edb32c" vector-effect="non-scaling-stroke" d="
  M 37.45 56.43
  Q 36.76 56.63 36.71 55.77"
/>
<path stroke="#cd8929" vector-effect="non-scaling-stroke" d="
  M 36.71 55.77
  L 41.29 46.69"
/>
<path stroke="#c36a0f" vector-effect="non-scaling-stroke" d="
  M 36.71 55.77
  L 35.79 58.51
  Q 35.70 58.79 35.42 58.86
  Q 35.28 58.90 35.14 58.88
  Q 34.70 58.85 34.74 58.41
  Q 35.31 53.24 38.60 49.30
  Q 39.11 48.69 39.02 47.54"
/>
<path stroke="#935a53" vector-effect="non-scaling-stroke" d="
  M 27.15 61.20
  Q 29.34 60.00 29.49 56.76"
/>
<path stroke="#912020" vector-effect="non-scaling-stroke" d="
  M 29.49 56.76
  Q 30.15 55.94 30.16 54.88
  Q 30.17 54.36 29.66 54.47
  Q 25.63 55.34 23.76 58.98
  A 1.55 1.55 0.0 0 0 24.64 61.16
  Q 26.12 61.66 27.15 61.20"
/>
<path stroke="#fc7873" vector-effect="non-scaling-stroke" d="
  M 29.49 56.76
  Q 29.46 56.47 29.28 56.35
  Q 28.88 56.08 28.64 56.50
  Q 27.41 58.63 27.15 61.20"
/>
<path stroke="#efae10" vector-effect="non-scaling-stroke" d="
  M 38.80 67.06
  Q 37.68 66.69 37.07 65.32
  Q 36.80 64.72 36.30 65.13
  Q 36.17 65.24 35.99 65.25
  Q 34.02 65.34 35.35 66.82
  Q 36.17 67.74 36.90 68.71
  A 2.55 2.50 -67.9 0 1 37.38 69.88
  C 37.63 71.73 39.35 74.01 40.46 75.51"
/>
<path stroke="#ef8286" vector-effect="non-scaling-stroke" d="
  M 59.9793 71.1725
  A 12.09 9.08 57.2 0 0 61.0623 56.0913
  A 12.09 9.08 57.2 0 0 46.8807 50.8475
  A 12.09 9.08 57.2 0 0 45.7977 65.9287
  A 12.09 9.08 57.2 0 0 59.9793 71.1725"
/>
<path stroke="#f1a719" vector-effect="non-scaling-stroke" d="
  M 22.39 77.31
  Q 22.12 76.15 21.35 75.82"
/>
<path stroke="#7a5411" vector-effect="non-scaling-stroke" d="
  M 21.35 75.82
  Q 21.32 74.95 21.09 74.58"
/>
<path stroke="#f7d18d" vector-effect="non-scaling-stroke" d="
  M 21.09 74.58
  Q 21.39 73.08 19.71 71.96"
/>
<path stroke="#d6b26e" vector-effect="non-scaling-stroke" d="
  M 19.71 71.96
  L 18.99 71.08"
/>
<path stroke="#fbe9a3" vector-effect="non-scaling-stroke" d="
  M 15.21 70.85
  Q 15.34 71.22 15.10 71.23"
/>
<path stroke="#7e6b27" vector-effect="non-scaling-stroke" d="
  M 15.10 71.23
  Q 15.12 70.73 14.50 70.88
  Q 13.66 71.08 13.90 72.16
  A 0.06 0.05 67.5 0 0 13.98 72.20
  Q 14.24 72.04 14.44 72.24
  Q 14.63 72.44 14.54 72.70
  L 13.74 75.19"
/>
<path stroke="#fbe9a3" vector-effect="non-scaling-stroke" d="
  M 13.74 75.19
  C 13.02 74.32 12.64 73.44 12.84 72.32
  Q 12.98 71.59 12.55 71.44"
/>
<path stroke="#dfe0e0" vector-effect="non-scaling-stroke" d="
  M 17.19 70.97
  Q 17.56 71.38 17.73 71.99
  Q 17.87 72.48 18.38 72.41
  Q 18.98 72.34 19.71 71.96"
/>
<path stroke="#828283" vector-effect="non-scaling-stroke" d="
  M 21.09 74.58
  Q 16.85 75.34 15.10 71.23"
/>
<path stroke="#7c580f" vector-effect="non-scaling-stroke" d="
  M 21.35 75.82
  Q 21.45 76.20 21.05 76.38"
/>
<path stroke="#414244" vector-effect="non-scaling-stroke" d="
  M 21.05 76.38
  L 18.03 76.16
  Q 17.57 76.12 17.44 75.67
  Q 17.08 74.39 15.65 73.78
  Q 15.06 73.53 14.98 74.16
  Q 14.87 75.10 15.70 75.64
  Q 16.12 75.91 16.31 76.37
  Q 16.68 77.26 16.64 78.17"
/>
<path stroke="#7c580f" vector-effect="non-scaling-stroke" d="
  M 16.64 78.17
  Q 15.77 79.77 14.78 77.82"
/>
<path stroke="#828283" vector-effect="non-scaling-stroke" d="
  M 14.78 77.82
  L 13.74 75.19"
/>
<path stroke="#f9d58b" vector-effect="non-scaling-stroke" d="
  M 14.78 77.82
  Q 14.74 78.18 13.55 78.35"
/>
<path stroke="#d1a085" vector-effect="non-scaling-stroke" d="
  M 13.55 78.35
  Q 10.07 77.72 9.21 79.10"
/>
<path stroke="#f9d58b" vector-effect="non-scaling-stroke" d="
  M 9.21 79.10
  Q 8.00 80.61 7.52 81.94"
/>
<path stroke="#bebfc0" vector-effect="non-scaling-stroke" d="
  M 7.52 81.94
  Q 6.85 83.41 7.29 85.23
  A 0.76 0.75 -9.9 0 1 6.64 86.15
  Q 5.00 86.34 2.94 85.52"
/>
<path stroke="#b8954c" vector-effect="non-scaling-stroke" d="
  M 21.05 76.38
  Q 15.88 75.94 16.64 78.17"
/>
<path stroke="#f9d58b" vector-effect="non-scaling-stroke" d="
  M 26.44 88.66
  L 24.52 88.03
  Q 24.06 87.88 23.70 87.56
  L 19.98 84.31"
/>
<path stroke="#cb7611" vector-effect="non-scaling-stroke" d="
  M 19.98 84.31
  Q 20.19 83.93 19.90 83.57
  Q 19.55 83.14 19.10 83.47
  L 17.68 84.48"
/>
<path stroke="#b8954c" vector-effect="non-scaling-stroke" d="
  M 7.72 86.59
  L 7.52 81.94"
/>
<path stroke="#cb7611" vector-effect="non-scaling-stroke" d="
  M 9.21 79.10
  Q 9.10 79.41 9.13 79.58
  Q 9.17 79.78 9.38 79.77
  Q 11.99 79.63 14.66 79.45
  A 0.05 0.04 -16.8 0 0 14.70 79.38
  Q 14.57 79.21 14.65 79.00
  Q 14.78 78.66 14.43 78.57
  L 13.55 78.35"
/>
<path stroke="#d1a085" vector-effect="non-scaling-stroke" d="
  M 19.98 84.31
  Q 18.90 84.25 18.54 84.71"
/>
</g>
<path fill="#f6d246" d="
  M 42.95 5.41
  Q 42.86 4.73 43.49 4.26
  Q 44.06 3.84 43.47 3.45
  C 41.42 2.08 38.41 2.12 35.99 2.80
  Q 35.58 2.92 35.47 3.33
  Q 35.39 3.62 35.17 3.83
  Q 33.25 5.55 30.80 6.73
  A 2.58 2.55 -86.1 0 0 29.77 7.64
  Q 28.99 8.85 27.78 9.57
  Q 27.15 9.95 26.80 10.59
  L 25.46 13.03
  Q 25.00 13.87 24.20 13.35
  L 23.84 13.11
  A 0.57 0.57 0.0 0 1 23.65 12.35
  Q 24.37 11.11 23.67 10.06
  Q 27.83 2.61 36.58 1.04
  C 39.26 0.56 41.57 1.25 44.17 1.69
  Q 47.26 2.21 49.46 3.70
  Q 50.88 4.65 49.19 4.36
  Q 46.37 3.88 42.95 5.41
  Z"
/>
<path fill="#f6c322" d="
  M 42.95 5.41
  Q 40.04 7.73 38.35 11.53
  Q 37.69 11.10 37.92 10.53
  Q 38.04 10.24 38.12 9.92
  Q 38.73 7.58 40.13 6.09
  Q 40.52 5.68 39.98 5.53
  Q 38.28 5.07 36.43 6.02
  Q 36.10 6.19 36.05 6.56
  Q 35.95 7.37 35.20 7.70
  Q 34.93 7.82 34.88 8.12
  C 34.55 10.25 32.66 11.15 30.91 11.94
  A 1.80 1.78 -16.0 0 0 29.88 13.78
  Q 30.05 15.04 29.50 16.12
  Q 28.70 17.70 29.14 19.40
  Q 29.29 19.98 29.87 20.11
  Q 30.53 20.25 30.40 20.90
  Q 30.28 21.53 30.69 22.00
  L 32.05 23.56
  Q 32.40 23.96 32.07 24.37
  Q 31.82 24.68 31.28 25.02
  C 28.12 20.81 24.63 23.43 22.54 26.79
  Q 21.45 27.56 20.69 26.18
  A 1.01 1.00 85.7 0 0 20.16 25.72
  L 18.28 25.00
  Q 17.82 24.82 17.40 25.10
  Q 16.59 25.64 15.57 25.17
  Q 14.35 23.07 13.33 21.91
  Q 12.33 20.76 10.88 21.77
  L 12.41 17.32
  Q 13.72 16.86 14.59 15.05
  Q 15.47 13.20 16.14 12.46
  Q 18.52 9.80 21.31 7.86
  Q 22.58 6.97 22.30 8.50
  Q 22.23 8.86 22.61 9.16
  Q 22.39 9.87 22.46 10.37
  Q 22.54 10.97 23.11 10.80
  Q 23.47 10.68 23.67 10.06
  Q 24.37 11.11 23.65 12.35
  A 0.57 0.57 0.0 0 0 23.84 13.11
  L 24.20 13.35
  Q 25.00 13.87 25.46 13.03
  L 26.80 10.59
  Q 27.15 9.95 27.78 9.57
  Q 28.99 8.85 29.77 7.64
  A 2.58 2.55 -86.1 0 1 30.80 6.73
  Q 33.25 5.55 35.17 3.83
  Q 35.39 3.62 35.47 3.33
  Q 35.58 2.92 35.99 2.80
  C 38.41 2.12 41.42 2.08 43.47 3.45
  Q 44.06 3.84 43.49 4.26
  Q 42.86 4.73 42.95 5.41
  Z"
/>
<path fill="#e11a27" d="
  M 20.12 138.00
  L 17.29 138.00
  Q 15.60 137.62 13.96 137.18
  Q 12.17 136.70 10.79 135.95
  C -2.27 128.90 -2.64 112.99 7.87 103.38
  Q 11.14 100.39 14.36 97.62
  L 26.44 88.66
  Q 28.11 87.48 30.21 86.18
  Q 31.66 85.28 30.96 82.98
  C 32.56 84.69 34.78 82.82 36.52 82.14
  Q 38.18 81.49 37.60 79.23
  A 0.41 0.41 0.0 0 1 38.04 78.72
  Q 39.77 78.89 40.27 77.80
  Q 41.36 77.96 41.86 77.58
  Q 42.44 77.13 42.08 76.31
  Q 41.71 75.46 40.54 75.71
  Q 40.50 75.61 40.46 75.51
  C 41.90 73.27 40.03 68.78 38.80 67.06
  C 37.53 64.53 36.04 62.81 36.60 59.55
  C 36.78 58.54 37.46 57.64 37.45 56.43
  L 43.90 44.82
  L 46.27 43.25
  Q 49.25 42.78 50.28 39.88
  Q 56.88 39.99 62.01 43.72
  A 0.59 0.59 0.0 0 0 62.94 43.23
  Q 62.79 37.99 64.51 32.57
  C 67.21 24.05 75.22 19.55 83.76 21.71
  Q 92.84 24.00 97.85 33.33
  Q 98.19 33.97 98.72 33.48
  Q 100.42 31.90 102.19 30.52
  Q 109.66 24.67 111.46 16.41
  C 115.44 -1.82 135.16 -1.86 140.61 15.21
  Q 140.79 15.77 141.36 15.67
  Q 146.83 14.75 150.88 17.97
  C 156.53 22.46 156.18 30.33 153.88 36.52
  Q 153.59 37.31 154.43 37.26
  Q 172.22 36.04 194.27 44.26
  Q 198.19 45.72 200.58 48.18
  C 207.20 54.99 202.71 64.77 198.00 71.30
  Q 197.62 71.83 198.11 72.27
  Q 206.16 79.30 203.26 89.80
  A 0.99 0.99 0.0 0 0 203.41 90.63
  C 210.11 100.00 206.10 112.05 195.58 116.03
  Q 185.86 119.69 177.23 113.06
  Q 176.87 112.78 176.41 112.84
  Q 162.73 114.54 156.81 102.70
  Q 156.60 102.28 156.14 102.37
  Q 146.93 104.06 138.05 100.73
  A 0.37 0.36 -75.2 0 0 137.56 101.02
  C 137.09 104.04 135.03 107.20 133.18 109.80
  C 127.95 117.18 121.81 124.03 114.28 128.28
  C 106.82 132.48 97.24 131.51 93.37 123.20
  Q 91.69 119.58 92.91 115.55
  Q 93.01 115.21 92.81 114.92
  Q 92.12 113.91 91.02 114.00
  A 0.85 0.84 -74.2 0 0 90.40 114.35
  C 84.72 122.71 74.33 122.62 68.17 114.90
  Q 66.06 112.26 64.34 108.96
  C 59.88 100.39 48.96 107.70 46.05 112.56
  Q 38.82 124.65 36.65 127.90
  Q 30.95 136.44 20.12 138.00
  Z
  M 88.09 98.38
  Q 88.23 97.83 88.68 98.17
  C 93.83 102.04 99.24 105.88 105.99 103.87
  Q 119.25 99.91 123.88 86.24
  Q 125.23 82.26 126.07 78.30
  Q 126.25 77.45 126.66 78.22
  C 130.77 85.96 136.23 91.77 144.91 94.11
  C 151.40 95.86 159.51 93.70 165.73 90.86
  Q 167.06 90.26 166.18 91.43
  Q 161.25 97.95 168.01 103.05
  C 171.27 105.51 175.69 105.58 178.86 102.67
  Q 179.82 101.79 180.47 102.93
  Q 183.99 109.17 189.41 109.00
  C 193.40 108.88 197.19 105.57 198.25 101.78
  C 199.05 98.95 196.86 95.15 194.35 93.82
  Q 193.26 93.25 192.23 92.65
  A 0.64 0.64 0.0 0 1 192.12 91.63
  C 195.31 88.70 197.32 84.66 194.48 80.70
  Q 190.95 75.78 184.45 76.18
  Q 183.23 76.26 184.08 75.38
  Q 189.57 69.68 193.88 62.12
  Q 195.15 59.88 195.84 57.25
  Q 195.97 56.75 195.79 56.26
  Q 194.76 53.48 192.48 52.52
  Q 179.72 47.10 163.91 45.39
  Q 158.91 44.85 154.23 45.46
  C 146.84 46.42 143.75 55.57 143.86 61.90
  Q 143.93 66.10 147.81 67.59
  Q 148.46 67.84 149.09 67.52
  Q 158.42 62.67 168.99 62.88
  Q 172.46 62.95 176.11 62.90
  A 0.57 0.57 0.0 0 1 176.57 63.82
  Q 175.62 65.06 174.38 65.99
  C 169.35 69.79 163.35 71.93 157.27 72.90
  Q 151.84 73.78 147.19 70.21
  Q 143.84 67.64 142.69 62.79
  Q 141.12 56.20 142.17 49.69
  Q 143.67 40.43 146.41 32.74
  C 147.15 30.65 147.17 28.62 146.83 26.46
  Q 146.73 25.80 146.09 25.64
  A 0.61 0.60 -4.8 0 1 145.67 25.29
  Q 144.94 23.53 142.75 24.17
  Q 140.34 24.88 138.55 26.81
  Q 135.89 29.66 133.43 32.51
  Q 132.84 33.20 133.09 32.33
  C 134.83 26.49 134.14 20.07 131.31 15.01
  C 128.11 9.32 122.23 9.55 120.31 16.15
  C 118.82 21.30 117.55 26.45 114.00 30.53
  Q 109.19 36.07 103.76 40.33
  Q 95.23 47.02 91.72 57.40
  Q 91.09 59.26 90.98 57.30
  Q 90.67 51.66 91.35 45.54
  Q 92.31 36.78 85.64 31.58
  C 82.16 28.87 77.29 29.04 74.26 32.42
  C 72.43 34.47 72.19 36.92 71.57 39.48
  Q 71.10 41.41 70.99 43.28
  C 70.69 48.24 70.48 54.02 71.48 58.98
  Q 71.88 61.01 72.29 63.06
  Q 73.75 70.39 77.03 80.01
  Q 77.74 82.08 77.94 84.26
  Q 78.12 86.18 76.70 84.88
  Q 66.15 75.26 52.49 81.39
  Q 44.63 84.91 37.34 90.58
  Q 29.88 96.38 21.97 102.47
  Q 19.78 104.16 17.77 106.02
  Q 15.85 107.81 14.01 109.55
  Q 10.23 113.11 9.37 115.43
  Q 7.29 120.98 11.50 125.69
  Q 15.19 129.81 20.32 129.30
  Q 23.50 128.99 26.42 126.62
  Q 28.76 124.72 31.00 121.20
  Q 34.85 115.15 38.20 109.45
  Q 43.92 99.73 54.37 97.31
  Q 63.88 95.11 69.44 101.47
  C 72.01 104.40 73.25 107.90 76.01 110.70
  C 79.48 114.22 83.31 110.85 84.88 107.49
  Q 86.90 103.14 88.09 98.38
  Z
  M 60.8195 72.1871
  A 13.46 10.40 56.6 0 0 62.0924 55.2250
  A 13.46 10.40 56.6 0 0 46.0005 49.7129
  A 13.46 10.40 56.6 0 0 44.7276 66.6750
  A 13.46 10.40 56.6 0 0 60.8195 72.1871
  Z
  M 127.24 100.97
  Q 127.90 99.62 127.95 98.36
  Q 127.98 97.60 127.49 97.36
  Q 127.01 97.12 126.19 97.21
  Q 126.35 96.89 126.88 96.88
  Q 127.29 96.88 127.36 96.48
  Q 127.52 95.61 125.29 96.21
  A 2.63 2.58 -72.1 0 0 124.30 96.73
  Q 119.79 100.51 115.80 104.09
  Q 113.06 106.55 109.31 109.44
  Q 105.97 112.01 102.81 114.79
  C 101.37 116.05 100.29 118.16 101.51 120.03
  C 104.32 124.33 108.69 122.18 111.86 119.98
  Q 121.52 113.25 128.37 101.60
  A 0.55 0.54 -58.9 0 0 128.19 100.85
  Q 127.87 100.66 127.24 100.97
  Z"
/>
<path fill="#fcf087" d="
  M 22.61 9.16
  Q 22.23 8.86 22.30 8.50
  Q 22.58 6.97 21.31 7.86
  Q 18.52 9.80 16.14 12.46
  Q 15.47 13.20 14.59 15.05
  Q 13.72 16.86 12.41 17.32
  Q 15.60 8.88 24.48 5.46
  Q 24.99 5.27 24.70 5.73
  L 22.61 9.16
  Z"
/>
<path fill="#eeb21c" d="
  M 38.35 11.53
  Q 37.98 11.98 37.98 12.49
  Q 37.97 13.16 38.59 12.90
  L 39.00 12.73
  Q 39.12 13.78 39.75 13.46
  C 40.84 12.92 41.20 12.57 42.50 12.74
  Q 45.75 13.19 49.08 12.19
  Q 49.53 12.06 49.91 12.33
  Q 50.22 12.55 50.33 12.92
  Q 50.46 13.42 50.05 13.73
  Q 46.82 16.13 45.83 19.79
  L 44.58 23.80
  Q 43.68 21.70 45.07 19.22
  A 1.06 1.05 31.1 0 0 44.72 17.82
  Q 43.78 17.22 43.45 18.30
  A 1.40 1.34 -9.5 0 1 42.92 19.01
  Q 40.04 20.97 39.04 23.84
  A 3.35 2.48 3.7 0 1 36.32 25.59
  Q 36.02 25.61 35.86 25.91
  A 0.55 0.52 5.7 0 1 35.51 26.18
  Q 30.11 27.51 24.88 27.86
  Q 24.58 27.88 24.53 27.59
  Q 24.49 27.35 24.66 27.32
  Q 26.54 23.61 31.28 25.02
  Q 31.82 24.68 32.07 24.37
  Q 32.40 23.96 32.05 23.56
  L 30.69 22.00
  Q 30.28 21.53 30.40 20.90
  Q 30.53 20.25 29.87 20.11
  Q 29.29 19.98 29.14 19.40
  Q 28.70 17.70 29.50 16.12
  Q 30.05 15.04 29.88 13.78
  A 1.80 1.78 -16.0 0 1 30.91 11.94
  C 32.66 11.15 34.55 10.25 34.88 8.12
  Q 34.93 7.82 35.20 7.70
  Q 35.95 7.37 36.05 6.56
  Q 36.10 6.19 36.43 6.02
  Q 38.28 5.07 39.98 5.53
  Q 40.52 5.68 40.13 6.09
  Q 38.73 7.58 38.12 9.92
  Q 38.04 10.24 37.92 10.53
  Q 37.69 11.10 38.35 11.53
  Z"
/>
<path fill="#de050c" d="
  M 88.09 98.38
  Q 86.90 103.14 84.88 107.49
  C 83.31 110.85 79.48 114.22 76.01 110.70
  C 73.25 107.90 72.01 104.40 69.44 101.47
  Q 63.88 95.11 54.37 97.31
  Q 43.92 99.73 38.20 109.45
  Q 34.85 115.15 31.00 121.20
  Q 28.76 124.72 26.42 126.62
  Q 23.50 128.99 20.32 129.30
  Q 15.19 129.81 11.50 125.69
  Q 7.29 120.98 9.37 115.43
  Q 10.23 113.11 14.01 109.55
  Q 15.85 107.81 17.77 106.02
  Q 19.78 104.16 21.97 102.47
  Q 29.88 96.38 37.34 90.58
  Q 44.63 84.91 52.49 81.39
  Q 66.15 75.26 76.70 84.88
  Q 78.12 86.18 77.94 84.26
  Q 77.74 82.08 77.03 80.01
  Q 73.75 70.39 72.29 63.06
  Q 71.88 61.01 71.48 58.98
  C 70.48 54.02 70.69 48.24 70.99 43.28
  Q 71.10 41.41 71.57 39.48
  C 72.19 36.92 72.43 34.47 74.26 32.42
  C 77.29 29.04 82.16 28.87 85.64 31.58
  Q 92.31 36.78 91.35 45.54
  Q 90.67 51.66 90.98 57.30
  Q 91.09 59.26 91.72 57.40
  Q 95.23 47.02 103.76 40.33
  Q 109.19 36.07 114.00 30.53
  C 117.55 26.45 118.82 21.30 120.31 16.15
  C 122.23 9.55 128.11 9.32 131.31 15.01
  C 134.14 20.07 134.83 26.49 133.09 32.33
  Q 132.84 33.20 133.43 32.51
  Q 135.89 29.66 138.55 26.81
  Q 140.34 24.88 142.75 24.17
  Q 144.94 23.53 145.67 25.29
  A 0.61 0.60 -4.8 0 0 146.09 25.64
  Q 146.73 25.80 146.83 26.46
  C 147.17 28.62 147.15 30.65 146.41 32.74
  Q 143.67 40.43 142.17 49.69
  Q 141.12 56.20 142.69 62.79
  Q 143.84 67.64 147.19 70.21
  Q 151.84 73.78 157.27 72.90
  C 163.35 71.93 169.35 69.79 174.38 65.99
  Q 175.62 65.06 176.57 63.82
  A 0.57 0.57 0.0 0 0 176.11 62.90
  Q 172.46 62.95 168.99 62.88
  Q 158.42 62.67 149.09 67.52
  Q 148.46 67.84 147.81 67.59
  Q 143.93 66.10 143.86 61.90
  C 143.75 55.57 146.84 46.42 154.23 45.46
  Q 158.91 44.85 163.91 45.39
  Q 179.72 47.10 192.48 52.52
  Q 194.76 53.48 195.79 56.26
  Q 195.97 56.75 195.84 57.25
  Q 195.15 59.88 193.88 62.12
  Q 189.57 69.68 184.08 75.38
  Q 183.23 76.26 184.45 76.18
  Q 190.95 75.78 194.48 80.70
  C 197.32 84.66 195.31 88.70 192.12 91.63
  A 0.64 0.64 0.0 0 0 192.23 92.65
  Q 193.26 93.25 194.35 93.82
  C 196.86 95.15 199.05 98.95 198.25 101.78
  C 197.19 105.57 193.40 108.88 189.41 109.00
  Q 183.99 109.17 180.47 102.93
  Q 179.82 101.79 178.86 102.67
  C 175.69 105.58 171.27 105.51 168.01 103.05
  Q 161.25 97.95 166.18 91.43
  Q 167.06 90.26 165.73 90.86
  C 159.51 93.70 151.40 95.86 144.91 94.11
  C 136.23 91.77 130.77 85.96 126.66 78.22
  Q 126.25 77.45 126.07 78.30
  Q 125.23 82.26 123.88 86.24
  Q 119.25 99.91 105.99 103.87
  C 99.24 105.88 93.83 102.04 88.68 98.17
  Q 88.23 97.83 88.09 98.38
  Z
  M 87.22 95.90
  A 0.46 0.46 0.0 0 1 88.01 95.64
  C 92.96 100.75 98.99 104.32 106.31 102.27
  Q 115.73 99.64 120.45 90.94
  C 125.09 82.40 127.12 69.12 120.30 61.39
  Q 115.04 55.42 107.37 56.28
  Q 105.10 56.54 107.05 55.35
  C 120.39 47.22 138.23 35.90 131.11 17.31
  C 129.79 13.85 125.17 9.23 122.49 14.80
  Q 121.64 16.58 121.01 19.12
  Q 118.32 30.01 109.70 37.08
  Q 101.25 44.02 99.14 46.68
  Q 91.92 55.77 91.58 67.45
  Q 91.51 69.75 93.79 69.77
  Q 94.42 69.77 94.87 69.33
  C 100.03 64.34 108.22 65.25 110.99 72.07
  C 113.98 79.43 107.33 87.42 99.59 86.45
  Q 93.92 85.75 91.49 80.24
  C 88.74 74.03 88.29 66.15 88.92 59.51
  Q 89.76 50.80 89.95 42.72
  Q 90.10 36.22 85.42 32.85
  Q 80.29 29.17 75.98 32.67
  Q 73.82 34.43 73.21 38.95
  Q 71.15 54.11 74.86 67.99
  C 76.62 74.58 80.11 81.64 79.37 88.44
  Q 79.24 89.60 78.50 88.70
  C 67.04 74.56 52.30 81.21 40.45 90.01
  Q 26.08 100.67 15.65 109.54
  C 10.80 113.67 7.27 121.23 13.71 126.11
  C 20.13 130.97 26.43 125.92 29.88 120.40
  Q 32.99 115.44 35.71 110.64
  C 40.43 102.34 48.11 95.84 57.68 95.28
  C 64.63 94.88 69.98 98.59 73.20 104.58
  C 75.27 108.43 79.40 114.99 83.40 107.49
  Q 86.38 101.90 87.22 95.90
  Z
  M 178.90 62.30
  A 0.53 0.53 0.0 0 1 179.20 63.17
  Q 171.07 72.34 157.70 74.27
  C 147.68 75.72 141.14 68.23 140.55 58.64
  C 140.00 49.55 142.28 40.89 145.15 32.24
  C 145.59 30.89 146.24 27.19 145.13 25.86
  A 1.96 1.94 56.0 0 0 142.71 25.38
  C 135.34 29.33 130.30 40.08 128.08 47.98
  C 124.27 61.54 123.75 78.76 136.00 88.29
  C 146.47 96.43 160.40 93.51 170.48 86.25
  Q 181.06 78.63 190.96 64.44
  C 192.62 62.07 196.51 55.80 192.35 54.05
  Q 177.77 47.89 161.92 46.78
  Q 156.84 46.43 152.76 47.29
  Q 150.37 47.80 148.66 50.31
  Q 144.42 56.52 145.37 63.51
  C 145.63 65.50 147.58 66.76 149.48 65.80
  Q 162.77 59.05 178.90 62.30
  Z
  M 115.23 51.91
  C 114.00 52.81 112.65 53.42 111.41 54.28
  Q 110.91 54.63 111.41 54.96
  Q 112.47 55.67 113.69 55.65
  Q 114.01 55.65 114.27 55.84
  Q 114.47 55.98 114.34 56.20
  A 0.28 0.28 0.0 0 0 114.58 56.63
  L 116.19 56.63
  Q 116.55 56.63 116.64 56.97
  Q 116.82 57.60 117.45 57.66
  Q 117.98 57.70 118.38 58.06
  Q 119.20 58.79 119.86 59.60
  Q 120.44 60.32 121.20 60.78
  Q 122.30 61.44 122.81 62.61
  Q 123.02 63.10 123.52 62.91
  Q 124.03 62.73 124.07 62.27
  Q 125.16 50.63 128.92 41.08
  Q 130.10 38.07 128.17 40.67
  C 124.87 45.12 119.91 48.50 115.23 51.91
  Z
  M 91.17 75.07
  C 92.27 79.57 93.57 83.98 98.79 85.01
  C 105.48 86.34 110.53 81.12 110.05 74.54
  Q 109.71 69.79 105.89 68.21
  Q 103.34 67.15 99.60 68.08
  C 97.06 68.71 94.16 72.84 91.49 70.24
  A 0.38 0.38 0.0 0 0 90.85 70.48
  Q 90.62 72.82 91.17 75.07
  Z
  M 194.2505 83.9082
  A 8.38 7.47 -7.9 0 0 184.9233 77.6609
  A 8.38 7.47 -7.9 0 0 177.6495 86.2118
  A 8.38 7.47 -7.9 0 0 186.9767 92.4591
  A 8.38 7.47 -7.9 0 0 194.2505 83.9082
  Z
  M 181.0406 95.2747
  A 7.77 6.94 -8.7 0 0 172.3102 89.5899
  A 7.77 6.94 -8.7 0 0 165.6794 97.6253
  A 7.77 6.94 -8.7 0 0 174.4098 103.3101
  A 7.77 6.94 -8.7 0 0 181.0406 95.2747
  Z
  M 196.9905 99.4432
  A 7.78 6.91 -8.7 0 0 188.2548 93.7895
  A 7.78 6.91 -8.7 0 0 181.6095 101.7968
  A 7.78 6.91 -8.7 0 0 190.3452 107.4505
  A 7.78 6.91 -8.7 0 0 196.9905 99.4432
  Z"
/>
<path fill="#fbe35c" d="
  M 45.83 19.79
  Q 46.82 16.13 50.05 13.73
  Q 50.46 13.42 50.33 12.92
  Q 50.22 12.55 49.91 12.33
  Q 49.53 12.06 49.08 12.19
  Q 45.75 13.19 42.50 12.74
  C 41.20 12.57 40.84 12.92 39.75 13.46
  Q 39.12 13.78 39.00 12.73
  Q 41.52 11.22 43.30 11.11
  Q 47.13 10.87 50.53 11.61
  Q 52.73 12.08 54.89 13.91
  Q 55.48 14.41 54.72 14.27
  C 53.23 14.01 51.89 13.74 50.58 14.84
  Q 48.11 16.93 45.83 19.79
  Z"
/>
<path fill="#ffffff" d="
  M 87.22 95.90
  Q 86.38 101.90 83.40 107.49
  C 79.40 114.99 75.27 108.43 73.20 104.58
  C 69.98 98.59 64.63 94.88 57.68 95.28
  C 48.11 95.84 40.43 102.34 35.71 110.64
  Q 32.99 115.44 29.88 120.40
  C 26.43 125.92 20.13 130.97 13.71 126.11
  C 7.27 121.23 10.80 113.67 15.65 109.54
  Q 26.08 100.67 40.45 90.01
  C 52.30 81.21 67.04 74.56 78.50 88.70
  Q 79.24 89.60 79.37 88.44
  C 80.11 81.64 76.62 74.58 74.86 67.99
  Q 71.15 54.11 73.21 38.95
  Q 73.82 34.43 75.98 32.67
  Q 80.29 29.17 85.42 32.85
  Q 90.10 36.22 89.95 42.72
  Q 89.76 50.80 88.92 59.51
  C 88.29 66.15 88.74 74.03 91.49 80.24
  Q 93.92 85.75 99.59 86.45
  C 107.33 87.42 113.98 79.43 110.99 72.07
  C 108.22 65.25 100.03 64.34 94.87 69.33
  Q 94.42 69.77 93.79 69.77
  Q 91.51 69.75 91.58 67.45
  Q 91.92 55.77 99.14 46.68
  Q 101.25 44.02 109.70 37.08
  Q 118.32 30.01 121.01 19.12
  Q 121.64 16.58 122.49 14.80
  C 125.17 9.23 129.79 13.85 131.11 17.31
  C 138.23 35.90 120.39 47.22 107.05 55.35
  Q 105.10 56.54 107.37 56.28
  Q 115.04 55.42 120.30 61.39
  C 127.12 69.12 125.09 82.40 120.45 90.94
  Q 115.73 99.64 106.31 102.27
  C 98.99 104.32 92.96 100.75 88.01 95.64
  A 0.46 0.46 0.0 0 0 87.22 95.90
  Z"
/>
<path fill="#d1841c" d="
  M 44.58 23.80
  Q 44.29 25.28 44.73 26.30
  Q 45.02 26.97 45.54 26.46
  Q 46.46 25.59 47.59 25.32
  Q 48.64 25.07 48.08 25.99
  Q 46.73 28.21 47.57 28.35
  Q 45.88 30.93 46.26 32.80
  Q 45.98 33.53 46.04 34.03
  Q 46.10 34.53 46.59 34.43
  L 50.49 33.62
  Q 51.57 38.18 46.27 43.25
  L 43.90 44.82
  Q 43.08 43.87 41.29 46.69
  Q 41.21 46.33 41.32 45.94
  Q 41.45 45.48 40.99 45.61
  Q 40.26 45.82 39.59 46.37
  Q 39.40 45.79 39.16 45.59
  Q 41.63 42.80 44.66 41.38
  Q 47.54 41.40 47.49 39.82
  Q 48.45 38.87 48.41 37.56
  Q 48.40 36.98 47.83 37.10
  Q 47.24 37.21 46.87 38.01
  Q 46.56 37.07 45.40 37.06
  Q 46.03 36.30 46.07 35.75
  Q 46.11 35.23 45.62 35.05
  L 39.79 32.93
  Q 37.09 30.21 33.79 29.64
  Q 31.13 29.18 22.75 28.51
  Q 22.25 28.47 22.03 28.21
  L 22.47 28.12
  Q 22.80 28.05 22.87 27.71
  L 22.95 27.30
  L 24.66 27.32
  Q 24.49 27.35 24.53 27.59
  Q 24.58 27.88 24.88 27.86
  Q 30.11 27.51 35.51 26.18
  A 0.55 0.52 5.7 0 0 35.86 25.91
  Q 36.02 25.61 36.32 25.59
  A 3.35 2.48 3.7 0 0 39.04 23.84
  Q 40.04 20.97 42.92 19.01
  A 1.40 1.34 -9.5 0 0 43.45 18.30
  Q 43.78 17.22 44.72 17.82
  A 1.06 1.05 31.1 0 1 45.07 19.22
  Q 43.68 21.70 44.58 23.80
  Z"
/>
<path fill="#050407" d="
  M 15.57 25.17
  Q 15.37 25.86 14.90 25.96
  Q 14.41 26.06 14.08 25.68
  L 10.88 21.96
  Q 10.82 21.86 10.88 21.77
  Q 12.33 20.76 13.33 21.91
  Q 14.35 23.07 15.57 25.17
  Z"
/>
<path fill="#eea31b" d="
  M 10.88 21.96
  L 14.08 25.68
  Q 14.41 26.06 14.90 25.96
  Q 15.37 25.86 15.57 25.17
  Q 16.59 25.64 17.40 25.10
  Q 17.82 24.82 18.28 25.00
  L 20.16 25.72
  A 1.01 1.00 85.7 0 1 20.69 26.18
  Q 21.45 27.56 22.54 26.79
  Q 22.78 27.36 22.95 27.30
  L 22.87 27.71
  Q 22.80 28.05 22.47 28.12
  L 22.03 28.21
  Q 18.96 28.90 17.75 28.32
  Q 15.83 27.41 13.82 27.20
  Q 12.52 26.18 11.33 26.43
  L 10.88 21.96
  Z"
/>
<path fill="#050407" d="
  M 31.28 25.02
  Q 26.54 23.61 24.66 27.32
  L 22.95 27.30
  Q 22.78 27.36 22.54 26.79
  C 24.63 23.43 28.12 20.81 31.28 25.02
  Z"
/>
<path fill="#ffffff" d="
  M 178.90 62.30
  Q 162.77 59.05 149.48 65.80
  C 147.58 66.76 145.63 65.50 145.37 63.51
  Q 144.42 56.52 148.66 50.31
  Q 150.37 47.80 152.76 47.29
  Q 156.84 46.43 161.92 46.78
  Q 177.77 47.89 192.35 54.05
  C 196.51 55.80 192.62 62.07 190.96 64.44
  Q 181.06 78.63 170.48 86.25
  C 160.40 93.51 146.47 96.43 136.00 88.29
  C 123.75 78.76 124.27 61.54 128.08 47.98
  C 130.30 40.08 135.34 29.33 142.71 25.38
  A 1.96 1.94 56.0 0 1 145.13 25.86
  C 146.24 27.19 145.59 30.89 145.15 32.24
  C 142.28 40.89 140.00 49.55 140.55 58.64
  C 141.14 68.23 147.68 75.72 157.70 74.27
  Q 171.07 72.34 179.20 63.17
  A 0.53 0.53 0.0 0 0 178.90 62.30
  Z"
/>
<path fill="#a3400b" d="
  M 11.33 26.43
  Q 12.52 26.18 13.82 27.20
  Q 12.52 27.58 11.31 26.97
  Q 11.17 26.76 11.33 26.43
  Z"
/>
<path fill="#3e3d3d" d="
  M 9.95 27.35
  Q 9.90 27.48 10.44 27.72
  L 8.46 27.79
  Q 7.18 27.80 6.47 27.16
  Q 7.99 26.88 9.95 27.35
  Z"
/>
<path fill="#2d2d2e" d="
  M 11.31 26.97
  Q 12.52 27.58 13.82 27.20
  Q 15.83 27.41 17.75 28.32
  Q 18.96 28.90 22.03 28.21
  Q 22.25 28.47 22.75 28.51
  Q 31.13 29.18 33.79 29.64
  Q 37.09 30.21 39.79 32.93
  L 36.77 33.94
  L 36.82 33.25
  Q 36.87 32.65 36.27 32.60
  Q 35.96 32.56 35.68 32.71
  Q 35.41 32.86 35.27 33.17
  Q 34.29 35.44 33.32 37.71
  Q 33.37 35.80 31.80 38.17
  Q 28.85 41.10 25.64 39.89
  Q 24.95 39.63 25.52 39.17
  Q 27.41 37.62 28.80 35.58
  Q 30.19 33.54 32.12 34.42
  Q 32.68 34.67 33.09 34.21
  Q 33.87 33.30 34.01 31.92
  Q 34.15 30.62 32.86 30.40
  Q 25.19 29.09 17.60 29.81
  Q 14.32 28.04 10.44 27.72
  Q 9.90 27.48 9.95 27.35
  Q 11.03 27.44 11.31 26.97
  Z"
/>
<path fill="#bec0c1" d="
  M 6.47 27.16
  Q 7.18 27.80 8.46 27.79
  L 9.86 28.05
  Q 10.50 28.17 10.38 28.82
  Q 10.06 30.53 11.04 31.85
  Q 12.38 33.65 13.45 35.52
  Q 13.72 35.98 14.23 36.15
  L 15.01 36.41
  Q 15.68 36.64 15.19 37.15
  L 14.68 37.69
  L 13.02 38.86
  Q 12.94 38.94 12.86 39.03
  L 10.32 39.56
  Q 10.10 39.22 9.25 39.08
  Q 10.69 39.23 11.97 38.97
  Q 12.66 38.83 12.78 38.34
  Q 12.91 37.78 12.37 37.99
  Q 9.21 39.22 6.07 35.12
  Q 4.94 31.92 6.47 27.16
  Z"
/>
<path fill="#9da1a4" d="
  M 8.46 27.79
  L 10.44 27.72
  Q 14.32 28.04 17.60 29.81
  Q 20.47 30.03 21.75 29.88
  Q 23.33 29.69 23.74 31.18
  Q 22.00 32.23 19.22 31.94
  Q 18.71 31.89 18.31 31.56
  Q 17.08 30.51 15.43 30.65
  A 1.00 0.99 70.8 0 0 14.69 32.19
  Q 15.96 34.11 16.52 36.80
  Q 16.65 37.46 15.41 37.69
  Q 15.23 38.10 14.68 37.69
  L 15.19 37.15
  Q 15.68 36.64 15.01 36.41
  L 14.23 36.15
  Q 13.72 35.98 13.45 35.52
  Q 12.38 33.65 11.04 31.85
  Q 10.06 30.53 10.38 28.82
  Q 10.50 28.17 9.86 28.05
  L 8.46 27.79
  Z"
/>
<path fill="#f6d246" d="
  M 47.57 28.35
  Q 47.70 30.44 46.26 32.80
  Q 45.88 30.93 47.57 28.35
  Z"
/>
<path fill="#4b4d4f" d="
  M 31.80 38.17
  Q 30.60 41.53 24.60 42.35
  Q 22.05 41.65 18.68 38.28
  Q 21.80 35.69 26.15 34.77
  Q 26.64 34.66 26.42 34.21
  Q 25.41 32.09 23.74 31.18
  Q 23.33 29.69 21.75 29.88
  Q 20.47 30.03 17.60 29.81
  Q 25.19 29.09 32.86 30.40
  Q 34.15 30.62 34.01 31.92
  Q 33.87 33.30 33.09 34.21
  Q 32.68 34.67 32.12 34.42
  Q 30.19 33.54 28.80 35.58
  Q 27.41 37.62 25.52 39.17
  Q 24.95 39.63 25.64 39.89
  Q 28.85 41.10 31.80 38.17
  Z"
/>
<path fill="#7d7f81" d="
  M 23.74 31.18
  Q 25.41 32.09 26.42 34.21
  Q 26.64 34.66 26.15 34.77
  Q 21.80 35.69 18.68 38.28
  L 15.41 37.69
  Q 16.65 37.46 16.52 36.80
  Q 15.96 34.11 14.69 32.19
  A 1.00 0.99 70.8 0 1 15.43 30.65
  Q 17.08 30.51 18.31 31.56
  Q 18.71 31.89 19.22 31.94
  Q 22.00 32.23 23.74 31.18
  Z"
/>
<path fill="#4b4d4f" d="
  M 36.77 33.94
  Q 35.64 35.24 35.12 36.78
  C 34.75 37.86 34.09 38.84 33.40 39.74
  Q 32.19 41.33 32.39 39.34
  Q 32.44 38.83 33.32 37.71
  Q 34.29 35.44 35.27 33.17
  Q 35.41 32.86 35.68 32.71
  Q 35.96 32.56 36.27 32.60
  Q 36.87 32.65 36.82 33.25
  L 36.77 33.94
  Z"
/>
<path fill="#050407" d="
  M 39.79 32.93
  L 45.62 35.05
  Q 46.11 35.23 46.07 35.75
  Q 46.03 36.30 45.40 37.06
  Q 45.70 36.97 45.32 37.40
  L 39.16 35.82
  Q 38.64 35.69 38.39 36.16
  Q 37.97 36.96 36.94 37.12
  Q 36.37 37.20 36.01 37.64
  L 33.75 40.39
  Q 31.97 41.00 30.56 42.41
  Q 27.68 43.59 24.60 42.35
  Q 30.60 41.53 31.80 38.17
  Q 33.37 35.80 33.32 37.71
  Q 32.44 38.83 32.39 39.34
  Q 32.19 41.33 33.40 39.74
  C 34.09 38.84 34.75 37.86 35.12 36.78
  Q 35.64 35.24 36.77 33.94
  L 39.79 32.93
  Z"
/>
<path fill="#fcf087" d="
  M 50.49 33.62
  Q 50.64 33.37 51.58 33.55
  A 0.73 0.73 0.0 0 1 52.14 34.51
  L 50.28 39.88
  Q 49.25 42.78 46.27 43.25
  Q 51.57 38.18 50.49 33.62
  Z"
/>
<path fill="#ffffff" d="
  M 6.07 35.12
  Q 9.21 39.22 12.37 37.99
  Q 12.91 37.78 12.78 38.34
  Q 12.66 38.83 11.97 38.97
  Q 10.69 39.23 9.25 39.08
  Q 6.75 38.32 6.07 35.12
  Z"
/>
<path fill="#eea31b" d="
  M 45.32 37.40
  Q 45.51 39.27 44.66 41.38
  Q 41.63 42.80 39.16 45.59
  C 36.73 43.86 34.67 44.11 31.97 45.02
  Q 30.26 45.59 28.96 45.39
  Q 25.94 44.93 22.44 43.03
  Q 20.41 39.75 16.46 39.58
  L 13.02 38.86
  L 14.68 37.69
  Q 15.23 38.10 15.41 37.69
  L 18.68 38.28
  Q 22.05 41.65 24.60 42.35
  Q 27.68 43.59 30.56 42.41
  Q 32.98 42.78 33.75 40.39
  L 36.01 37.64
  Q 36.37 37.20 36.94 37.12
  Q 37.97 36.96 38.39 36.16
  Q 38.64 35.69 39.16 35.82
  L 45.32 37.40
  Z"
/>
<path fill="#f6d246" d="
  M 45.40 37.06
  Q 46.56 37.07 46.87 38.01
  Q 46.31 39.70 47.49 39.82
  Q 47.54 41.40 44.66 41.38
  Q 45.51 39.27 45.32 37.40
  Q 45.70 36.97 45.40 37.06
  Z"
/>
<path fill="#a3400b" d="
  M 47.49 39.82
  Q 46.31 39.70 46.87 38.01
  Q 47.24 37.21 47.83 37.10
  Q 48.40 36.98 48.41 37.56
  Q 48.45 38.87 47.49 39.82
  Z"
/>
<path fill="#d1841c" d="
  M 12.86 39.03
  Q 11.91 40.03 11.93 40.67
  Q 11.10 41.73 10.05 40.77
  Q 10.55 39.95 10.32 39.56
  L 12.86 39.03
  Z"
/>
<path fill="#3e3d3d" d="
  M 12.86 39.03
  Q 12.94 38.94 13.02 38.86
  L 16.46 39.58
  Q 16.25 40.56 19.11 41.71
  A 1.70 1.70 0.0 0 1 19.60 44.56
  Q 18.31 45.69 15.69 46.72
  Q 15.95 46.12 15.88 45.47
  A 1.04 1.03 -76.3 0 0 15.42 44.71
  Q 13.26 43.25 13.60 41.03
  Q 13.69 40.46 13.11 40.44
  Q 12.79 40.42 12.63 40.71
  Q 12.57 40.94 11.93 40.67
  Q 11.91 40.03 12.86 39.03
  Z"
/>
<path fill="#050407" d="
  M 16.46 39.58
  Q 20.41 39.75 22.44 43.03
  Q 22.65 45.39 20.46 45.97
  Q 18.61 46.46 17.08 47.39
  A 1.50 1.49 -46.9 0 0 17.16 50.00
  L 21.38 52.18
  Q 20.82 52.69 21.10 52.75
  Q 18.45 51.65 15.95 50.87
  Q 15.70 50.79 15.54 50.85
  Q 15.27 50.94 15.24 51.23
  L 13.00 50.55
  L 14.42 50.44
  Q 16.03 49.81 15.05 48.02
  Q 15.36 46.93 15.69 46.72
  Q 18.31 45.69 19.60 44.56
  A 1.70 1.70 0.0 0 0 19.11 41.71
  Q 16.25 40.56 16.46 39.58
  Z"
/>
<path fill="#e11a27" d="
  M 115.23 51.91
  C 119.91 48.50 124.87 45.12 128.17 40.67
  Q 130.10 38.07 128.92 41.08
  Q 125.16 50.63 124.07 62.27
  Q 124.03 62.73 123.52 62.91
  Q 123.02 63.10 122.81 62.61
  Q 122.30 61.44 121.20 60.78
  Q 120.44 60.32 119.86 59.60
  Q 119.20 58.79 118.38 58.06
  Q 117.98 57.70 117.45 57.66
  Q 116.82 57.60 116.64 56.97
  Q 116.55 56.63 116.19 56.63
  L 114.58 56.63
  A 0.28 0.28 0.0 0 1 114.34 56.20
  Q 114.47 55.98 114.27 55.84
  Q 114.01 55.65 113.69 55.65
  Q 112.47 55.67 111.41 54.96
  Q 110.91 54.63 111.41 54.28
  C 112.65 53.42 114.00 52.81 115.23 51.91
  Z"
/>
<path fill="#7d7f81" d="
  M 15.69 46.72
  Q 15.36 46.93 15.05 48.02
  Q 14.92 48.00 14.80 47.99
  Q 13.80 47.46 14.37 46.87
  A 1.03 1.03 0.0 0 0 14.31 45.36
  Q 12.52 43.84 12.95 41.65
  A 0.82 0.82 0.0 0 0 12.81 41.01
  Q 12.69 40.85 12.63 40.71
  Q 12.79 40.42 13.11 40.44
  Q 13.69 40.46 13.60 41.03
  Q 13.26 43.25 15.42 44.71
  A 1.04 1.03 -76.3 0 1 15.88 45.47
  Q 15.95 46.12 15.69 46.72
  Z"
/>
<path fill="#a3400b" d="
  M 33.75 40.39
  Q 32.98 42.78 30.56 42.41
  Q 31.97 41.00 33.75 40.39
  Z"
/>
<path fill="#bec0c1" d="
  M 10.05 40.77
  Q 11.10 41.73 11.93 40.67
  Q 12.57 40.94 12.63 40.71
  Q 12.69 40.85 12.81 41.01
  A 0.82 0.82 0.0 0 1 12.95 41.65
  Q 12.52 43.84 14.31 45.36
  A 1.03 1.03 0.0 0 1 14.37 46.87
  Q 13.80 47.46 14.80 47.99
  Q 9.12 46.19 9.91 40.94
  Q 9.98 40.85 10.05 40.77
  Z"
/>
<path fill="#ffffff" d="
  M 9.91 40.94
  Q 9.12 46.19 14.80 47.99
  Q 14.92 48.00 15.05 48.02
  Q 16.03 49.81 14.42 50.44
  L 10.17 48.24
  Q 6.73 44.15 9.91 40.94
  Z"
/>
<path fill="#e11a27" d="
  M 208.99 44.89
  A 3.45 3.45 0.0 0 1 205.54 48.34
  A 3.45 3.45 0.0 0 1 202.09 44.89
  A 3.45 3.45 0.0 0 1 205.54 41.44
  A 3.45 3.45 0.0 0 1 208.99 44.89
  Z
  M 202.62 45.44
  C 203.11 46.54 204.75 47.84 206.02 47.67
  A 1.12 1.12 0.0 0 0 206.65 47.34
  L 207.89 46.04
  Q 208.30 45.61 208.31 45.02
  Q 208.32 42.67 206.19 42.39
  Q 203.69 42.05 202.61 44.49
  Q 202.40 44.96 202.62 45.44
  Z"
/>
<path fill="#ffffff" d="
  M 39.16 45.59
  Q 39.40 45.79 39.59 46.37
  L 39.02 47.54
  Q 37.06 48.03 35.78 49.12
  Q 34.62 50.11 34.34 51.70
  Q 33.45 56.71 31.85 60.57
  Q 31.68 60.99 31.89 61.40
  Q 32.50 62.54 31.91 63.72
  Q 31.66 64.22 31.64 64.77
  L 31.43 71.49
  Q 31.38 73.11 32.56 72.01
  C 35.58 69.23 38.76 74.18 40.03 76.50
  Q 39.91 77.08 40.27 77.80
  Q 39.77 78.89 38.04 78.72
  A 0.41 0.41 0.0 0 0 37.60 79.23
  Q 38.18 81.49 36.52 82.14
  C 34.78 82.82 32.56 84.69 30.96 82.98
  L 28.83 79.57
  Q 28.54 79.11 28.01 79.25
  L 27.02 79.53
  Q 26.43 79.69 26.37 79.09
  Q 26.27 78.01 25.28 78.12
  Q 23.35 78.35 22.39 77.31
  L 23.10 72.55
  Q 23.18 72.04 23.47 71.60
  Q 24.35 70.27 24.79 68.75
  Q 24.94 68.24 25.36 67.93
  Q 26.94 66.76 26.41 64.81
  Q 23.85 64.23 22.44 63.13
  C 20.36 61.51 21.37 56.52 18.17 56.50
  A 2.03 2.02 76.7 0 1 16.38 55.39
  Q 15.47 53.56 15.24 51.23
  Q 15.27 50.94 15.54 50.85
  Q 15.70 50.79 15.95 50.87
  Q 18.45 51.65 21.10 52.75
  Q 21.37 56.14 22.16 59.57
  Q 22.70 61.88 23.93 62.41
  C 28.62 64.42 31.10 58.03 31.67 54.33
  Q 32.32 50.12 35.25 47.37
  A 0.28 0.27 14.9 0 0 34.98 46.91
  Q 29.59 48.49 25.76 52.02
  A 1.79 1.70 18.3 0 1 24.83 52.46
  Q 22.93 52.75 21.38 52.18
  L 17.16 50.00
  A 1.50 1.49 -46.9 0 1 17.08 47.39
  Q 18.61 46.46 20.46 45.97
  Q 22.65 45.39 22.44 43.03
  Q 25.94 44.93 28.96 45.39
  Q 30.26 45.59 31.97 45.02
  C 34.67 44.11 36.73 43.86 39.16 45.59
  Z"
/>
<path fill="#e11a27" d="
  M 205.82 44.64
  Q 206.03 44.49 206.02 44.25
  Q 205.99 43.75 206.31 44.13
  Q 206.83 44.76 206.65 45.12
  A 1.27 1.27 0.0 0 1 204.44 45.25
  Q 204.28 45.00 204.50 44.53
  Q 204.88 43.68 205.10 44.58
  Q 205.12 44.65 205.18 44.68
  Q 205.51 44.87 205.82 44.64
  Z"
/>
<path fill="#f6d246" d="
  M 43.90 44.82
  L 37.45 56.43
  Q 36.76 56.63 36.71 55.77
  L 41.29 46.69
  Q 43.08 43.87 43.90 44.82
  Z"
/>
<path fill="#a3400b" d="
  M 41.29 46.69
  L 36.71 55.77
  L 35.79 58.51
  Q 35.70 58.79 35.42 58.86
  Q 35.28 58.90 35.14 58.88
  Q 34.70 58.85 34.74 58.41
  Q 35.31 53.24 38.60 49.30
  Q 39.11 48.69 39.02 47.54
  L 39.59 46.37
  Q 40.26 45.82 40.99 45.61
  Q 41.45 45.48 41.32 45.94
  Q 41.21 46.33 41.29 46.69
  Z"
/>
<path fill="#280100" d="
  M 21.10 52.75
  Q 20.82 52.69 21.38 52.18
  Q 22.93 52.75 24.83 52.46
  A 1.79 1.70 18.3 0 0 25.76 52.02
  Q 29.59 48.49 34.98 46.91
  A 0.28 0.27 14.9 0 1 35.25 47.37
  Q 32.32 50.12 31.67 54.33
  C 31.10 58.03 28.62 64.42 23.93 62.41
  Q 22.70 61.88 22.16 59.57
  Q 21.37 56.14 21.10 52.75
  Z
  M 27.15 61.20
  Q 29.34 60.00 29.49 56.76
  Q 30.15 55.94 30.16 54.88
  Q 30.17 54.36 29.66 54.47
  Q 25.63 55.34 23.76 58.98
  A 1.55 1.55 0.0 0 0 24.64 61.16
  Q 26.12 61.66 27.15 61.20
  Z"
/>
<path fill="#e39312" d="
  M 39.02 47.54
  Q 39.11 48.69 38.60 49.30
  Q 35.31 53.24 34.74 58.41
  Q 34.70 58.85 35.14 58.88
  Q 35.28 58.90 35.42 58.86
  Q 35.70 58.79 35.79 58.51
  L 36.71 55.77
  Q 36.76 56.63 37.45 56.43
  C 37.46 57.64 36.78 58.54 36.60 59.55
  C 36.04 62.81 37.53 64.53 38.80 67.06
  Q 37.68 66.69 37.07 65.32
  Q 36.80 64.72 36.30 65.13
  Q 36.17 65.24 35.99 65.25
  Q 34.02 65.34 35.35 66.82
  Q 36.17 67.74 36.90 68.71
  A 2.55 2.50 -67.9 0 1 37.38 69.88
  C 37.63 71.73 39.35 74.01 40.46 75.51
  Q 40.50 75.61 40.54 75.71
  Q 40.26 75.98 40.03 76.50
  C 38.76 74.18 35.58 69.23 32.56 72.01
  Q 31.38 73.11 31.43 71.49
  L 31.64 64.77
  Q 31.66 64.22 31.91 63.72
  Q 32.50 62.54 31.89 61.40
  Q 31.68 60.99 31.85 60.57
  Q 33.45 56.71 34.34 51.70
  Q 34.62 50.11 35.78 49.12
  Q 37.06 48.03 39.02 47.54
  Z"
/>
<path fill="#9da1a4" d="
  M 10.17 48.24
  L 14.42 50.44
  L 13.00 50.55
  Q 11.03 49.78 10.17 48.24
  Z"
/>
<path fill="#de050c" d="
  M 60.8195 72.1871
  A 13.46 10.40 56.6 0 1 44.7276 66.6750
  A 13.46 10.40 56.6 0 1 46.0005 49.7129
  A 13.46 10.40 56.6 0 1 62.0924 55.2250
  A 13.46 10.40 56.6 0 1 60.8195 72.1871
  Z
  M 59.9793 71.1725
  A 12.09 9.08 57.2 0 0 61.0623 56.0913
  A 12.09 9.08 57.2 0 0 46.8807 50.8475
  A 12.09 9.08 57.2 0 0 45.7977 65.9287
  A 12.09 9.08 57.2 0 0 59.9793 71.1725
  Z"
/>
<ellipse fill="#ffffff" cx="0.00" cy="0.00" transform="translate(53.43,61.01) rotate(57.2)" rx="12.09" ry="9.08"/>
<path fill="#f93e40" d="
  M 29.49 56.76
  Q 29.46 56.47 29.28 56.35
  Q 28.88 56.08 28.64 56.50
  Q 27.41 58.63 27.15 61.20
  Q 26.12 61.66 24.64 61.16
  A 1.55 1.55 0.0 0 1 23.76 58.98
  Q 25.63 55.34 29.66 54.47
  Q 30.17 54.36 30.16 54.88
  Q 30.15 55.94 29.49 56.76
  Z"
/>
<path fill="#feb2a5" d="
  M 29.49 56.76
  Q 29.34 60.00 27.15 61.20
  Q 27.41 58.63 28.64 56.50
  Q 28.88 56.08 29.28 56.35
  Q 29.46 56.47 29.49 56.76
  Z"
/>
<path fill="#eea31b" d="
  M 26.41 64.81
  Q 26.94 66.76 25.36 67.93
  Q 24.94 68.24 24.79 68.75
  Q 24.35 70.27 23.47 71.60
  Q 23.18 72.04 23.10 72.55
  L 22.39 77.31
  Q 22.12 76.15 21.35 75.82
  Q 21.32 74.95 21.09 74.58
  Q 21.39 73.08 19.71 71.96
  L 18.99 71.08
  Q 21.57 67.21 26.41 64.81
  Z"
/>
<path fill="#fac90e" d="
  M 38.80 67.06
  C 40.03 68.78 41.90 73.27 40.46 75.51
  C 39.35 74.01 37.63 71.73 37.38 69.88
  A 2.55 2.50 -67.9 0 0 36.90 68.71
  Q 36.17 67.74 35.35 66.82
  Q 34.02 65.34 35.99 65.25
  Q 36.17 65.24 36.30 65.13
  Q 36.80 64.72 37.07 65.32
  Q 37.68 66.69 38.80 67.06
  Z"
/>
<path fill="#e11a27" d="
  M 91.17 75.07
  Q 90.62 72.82 90.85 70.48
  A 0.38 0.38 0.0 0 1 91.49 70.24
  C 94.16 72.84 97.06 68.71 99.60 68.08
  Q 103.34 67.15 105.89 68.21
  Q 109.71 69.79 110.05 74.54
  C 110.53 81.12 105.48 86.34 98.79 85.01
  C 93.57 83.98 92.27 79.57 91.17 75.07
  Z"
/>
<path fill="#f6d246" d="
  M 15.21 70.85
  Q 15.34 71.22 15.10 71.23
  Q 15.12 70.73 14.50 70.88
  Q 13.66 71.08 13.90 72.16
  A 0.06 0.05 67.5 0 0 13.98 72.20
  Q 14.24 72.04 14.44 72.24
  Q 14.63 72.44 14.54 72.70
  L 13.74 75.19
  C 13.02 74.32 12.64 73.44 12.84 72.32
  Q 12.98 71.59 12.55 71.44
  Q 13.33 70.45 15.21 70.85
  Z"
/>
<path fill="#ffffff" d="
  M 15.21 70.85
  Q 16.14 70.47 17.19 70.97
  Q 17.56 71.38 17.73 71.99
  Q 17.87 72.48 18.38 72.41
  Q 18.98 72.34 19.71 71.96
  Q 21.39 73.08 21.09 74.58
  Q 16.85 75.34 15.10 71.23
  Q 15.34 71.22 15.21 70.85
  Z"
/>
<path fill="#050407" d="
  M 15.10 71.23
  Q 16.85 75.34 21.09 74.58
  Q 21.32 74.95 21.35 75.82
  Q 21.45 76.20 21.05 76.38
  L 18.03 76.16
  Q 17.57 76.12 17.44 75.67
  Q 17.08 74.39 15.65 73.78
  Q 15.06 73.53 14.98 74.16
  Q 14.87 75.10 15.70 75.64
  Q 16.12 75.91 16.31 76.37
  Q 16.68 77.26 16.64 78.17
  Q 15.77 79.77 14.78 77.82
  L 13.74 75.19
  L 14.54 72.70
  Q 14.63 72.44 14.44 72.24
  Q 14.24 72.04 13.98 72.20
  A 0.06 0.05 67.5 0 1 13.90 72.16
  Q 13.66 71.08 14.50 70.88
  Q 15.12 70.73 15.10 71.23
  Z"
/>
<path fill="#bec0c1" d="
  M 17.19 70.97
  L 18.99 71.08
  L 19.71 71.96
  Q 18.98 72.34 18.38 72.41
  Q 17.87 72.48 17.73 71.99
  Q 17.56 71.38 17.19 70.97
  Z"
/>
<path fill="#ffffff" d="
  M 12.55 71.44
  Q 12.98 71.59 12.84 72.32
  C 12.64 73.44 13.02 74.32 13.74 75.19
  L 14.78 77.82
  Q 14.74 78.18 13.55 78.35
  Q 10.07 77.72 9.21 79.10
  Q 8.00 80.61 7.52 81.94
  Q 6.85 83.41 7.29 85.23
  A 0.76 0.75 -9.9 0 1 6.64 86.15
  Q 5.00 86.34 2.94 85.52
  Q 2.53 84.23 2.71 83.72
  Q 3.31 82.05 1.87 81.41
  A 1.26 1.26 0.0 0 1 1.20 80.63
  Q 0.43 77.96 1.50 75.54
  A 1.55 1.53 -86.7 0 1 2.42 74.71
  L 12.55 71.44
  Z"
/>
<path fill="#7d7f81" d="
  M 21.05 76.38
  Q 15.88 75.94 16.64 78.17
  Q 16.68 77.26 16.31 76.37
  Q 16.12 75.91 15.70 75.64
  Q 14.87 75.10 14.98 74.16
  Q 15.06 73.53 15.65 73.78
  Q 17.08 74.39 17.44 75.67
  Q 17.57 76.12 18.03 76.16
  L 21.05 76.38
  Z"
/>
<path fill="#f3ab16" d="
  M 21.35 75.82
  Q 22.12 76.15 22.39 77.31
  Q 23.35 78.35 25.28 78.12
  Q 26.27 78.01 26.37 79.09
  Q 26.43 79.69 27.02 79.53
  L 28.01 79.25
  Q 28.54 79.11 28.83 79.57
  L 30.96 82.98
  Q 31.66 85.28 30.21 86.18
  Q 28.11 87.48 26.44 88.66
  L 24.52 88.03
  Q 24.06 87.88 23.70 87.56
  L 19.98 84.31
  Q 20.19 83.93 19.90 83.57
  Q 19.55 83.14 19.10 83.47
  L 17.68 84.48
  L 7.72 86.59
  L 7.52 81.94
  Q 8.00 80.61 9.21 79.10
  Q 9.10 79.41 9.13 79.58
  Q 9.17 79.78 9.38 79.77
  Q 11.99 79.63 14.66 79.45
  A 0.05 0.04 -16.8 0 0 14.70 79.38
  Q 14.57 79.21 14.65 79.00
  Q 14.78 78.66 14.43 78.57
  L 13.55 78.35
  Q 14.74 78.18 14.78 77.82
  Q 15.77 79.77 16.64 78.17
  Q 15.88 75.94 21.05 76.38
  Q 21.45 76.20 21.35 75.82
  Z"
/>
<ellipse fill="#ffffff" cx="0.00" cy="0.00" transform="translate(185.95,85.06) rotate(-7.9)" rx="8.38" ry="7.47"/>
<path fill="#a3400b" d="
  M 13.55 78.35
  L 14.43 78.57
  Q 14.78 78.66 14.65 79.00
  Q 14.57 79.21 14.70 79.38
  A 0.05 0.04 -16.8 0 1 14.66 79.45
  Q 11.99 79.63 9.38 79.77
  Q 9.17 79.78 9.13 79.58
  Q 9.10 79.41 9.21 79.10
  Q 10.07 77.72 13.55 78.35
  Z"
/>
<path fill="#7d7f81" d="
  M 7.52 81.94
  L 7.72 86.59
  Q 4.93 87.73 2.94 85.52
  Q 5.00 86.34 6.64 86.15
  A 0.76 0.75 -9.9 0 0 7.29 85.23
  Q 6.85 83.41 7.52 81.94
  Z"
/>
<path fill="#a3400b" d="
  M 19.98 84.31
  Q 18.90 84.25 18.54 84.71
  Q 18.40 84.29 17.68 84.48
  L 19.10 83.47
  Q 19.55 83.14 19.90 83.57
  Q 20.19 83.93 19.98 84.31
  Z"
/>
<path fill="#ffffff" d="
  M 19.98 84.31
  L 23.70 87.56
  Q 24.06 87.88 24.52 88.03
  L 26.44 88.66
  L 14.36 97.62
  Q 15.23 90.64 18.54 84.71
  Q 18.90 84.25 19.98 84.31
  Z"
/>
<ellipse fill="#ffffff" cx="0.00" cy="0.00" transform="translate(173.36,96.45) rotate(-8.7)" rx="7.77" ry="6.94"/>
<ellipse fill="#ffffff" cx="0.00" cy="0.00" transform="translate(189.30,100.62) rotate(-8.7)" rx="7.78" ry="6.91"/>
<path fill="#de050c" d="
  M 126.19 97.21
  C 125.24 97.66 124.20 98.18 123.43 98.94
  Q 114.92 107.32 104.65 114.79
  Q 103.06 115.94 102.43 117.92
  A 2.16 2.16 0.0 0 0 103.80 120.63
  C 111.47 123.19 123.86 106.58 127.24 100.97
  Q 127.87 100.66 128.19 100.85
  A 0.55 0.54 -58.9 0 1 128.37 101.60
  Q 121.52 113.25 111.86 119.98
  C 108.69 122.18 104.32 124.33 101.51 120.03
  C 100.29 118.16 101.37 116.05 102.81 114.79
  Q 105.97 112.01 109.31 109.44
  Q 113.06 106.55 115.80 104.09
  Q 119.79 100.51 124.30 96.73
  A 2.63 2.58 -72.1 0 1 125.29 96.21
  Q 127.52 95.61 127.36 96.48
  Q 127.29 96.88 126.88 96.88
  Q 126.35 96.89 126.19 97.21
  Z"
/>
<path fill="#ffffff" d="
  M 126.19 97.21
  Q 127.01 97.12 127.49 97.36
  Q 127.98 97.60 127.95 98.36
  Q 127.90 99.62 127.24 100.97
  C 123.86 106.58 111.47 123.19 103.80 120.63
  A 2.16 2.16 0.0 0 1 102.43 117.92
  Q 103.06 115.94 104.65 114.79
  Q 114.92 107.32 123.43 98.94
  C 124.20 98.18 125.24 97.66 126.19 97.21
  Z"
/>
</svg>
