<?xml version="1.0" encoding="UTF-8" standalone="no"?>
<svg xmlns="http://www.w3.org/2000/svg" version="1.1" viewBox="0.00 0.00 512.00 338.00">
  <g stroke-width="2.00" fill="none" stroke-linecap="butt">
    <path stroke="#939cbf" vector-effect="non-scaling-stroke" d="   M 138.21 216.19   C 141.35 223.28 136.97 230.40 130.59 233.50   C 123.67 236.85 116.46 239.47 110.67 244.87   Q 101.25 253.67 104.85 267.05   C 112.63 295.92 148.83 293.91 169.09 281.59   C 181.50 274.04 193.09 264.55 204.91 255.83   Q 212.48 250.25 220.71 251.74   C 232.35 253.86 236.54 263.83 235.00 274.60   C 232.54 291.80 239.62 309.54 255.77 316.96   C 272.91 324.82 293.76 322.06 308.96 311.15   C 324.05 300.31 331.83 283.16 332.96 264.35   Q 333.54 254.72 333.40 244.07   C 333.34 239.52 333.62 234.57 334.62 230.12   C 336.79 220.50 346.22 213.32 356.08 214.52   Q 362.51 215.30 368.48 218.86   C 372.19 221.08 375.59 223.78 379.61 225.46   Q 395.80 232.23 413.29 228.83   C 430.30 225.52 442.10 214.14 440.92 195.72   C 439.84 179.10 424.22 174.28 410.18 171.55   C 400.79 169.72 393.46 163.81 391.69 154.23   C 390.53 147.93 392.93 140.44 397.27 135.81   C 403.78 128.89 413.32 125.87 419.90 121.93   Q 432.57 114.36 436.87 100.07   C 440.84 86.91 436.17 72.34 427.97 61.35   C 409.58 36.72 375.17 45.73 353.81 60.17   C 341.91 68.20 332.23 77.77 316.54 76.79   Q 311.00 76.44 308.54 71.53   C 305.55 65.57 308.55 58.29 313.77 54.49   C 319.40 50.40 324.64 46.03 328.30 40.13   C 333.70 31.41 329.24 23.79 320.35 20.31   Q 306.51 14.90 290.47 17.20   Q 266.21 20.68 255.53 41.42   C 251.34 49.57 245.76 57.07 239.81 62.19   Q 229.48 71.07 216.67 67.12   Q 210.16 65.12 204.58 61.42   Q 196.98 56.39 189.85 51.69   C 174.51 41.58 152.31 36.68 134.63 41.81   Q 114.04 47.78 103.43 66.94   Q 98.59 75.69 99.76 85.17   C 101.13 96.18 109.12 101.26 118.60 105.82   C 123.24 108.06 126.70 112.78 124.00 118.12   C 121.60 122.87 112.00 120.79 107.98 119.70   Q 91.92 115.34 79.56 115.16   Q 59.80 114.89 43.68 125.73   Q 34.72 131.76 30.16 138.88   C 15.91 161.09 25.32 196.73 51.81 205.01   C 70.01 210.69 89.89 210.95 108.53 207.59   C 118.45 205.80 133.16 204.75 138.21 216.19"></path>
    <path stroke="#939cbf" vector-effect="non-scaling-stroke" d="   M 320.02 89.92   A 2.67 2.65 86.7 0 1 322.24 91.91   Q 323.34 96.25 323.15 101.10   Q 322.14 127.12 316.41 151.35   Q 316.27 151.92 316.85 151.95   C 320.88 152.21 327.24 152.64 328.59 147.78   Q 329.81 143.40 330.49 139.51   Q 333.51 122.40 334.55 102.75   Q 334.80 98.14 334.07 92.72   C 333.07 85.15 324.91 86.84 319.60 88.37   Q 318.73 88.62 319.06 89.41   Q 319.23 89.81 319.66 89.87   L 320.02 89.92"></path>
    <path stroke="#939cbf" vector-effect="non-scaling-stroke" d="   M 233.62 102.67   Q 234.70 106.52 234.61 110.54   Q 234.02 136.67 227.93 162.29   A 0.87 0.87 0.0 0 0 228.79 163.36   C 231.92 163.30 238.50 163.28 239.72 159.72   Q 241.16 155.55 242.28 149.01   Q 245.66 129.22 246.04 108.92   Q 246.13 104.33 244.89 101.39   C 242.82 96.45 234.87 98.32 230.74 99.47   A 0.71 0.69 84.7 0 0 230.24 100.09   Q 230.19 100.80 230.93 100.86   C 232.11 100.94 233.28 101.45 233.62 102.67"></path>
    <path stroke="#939cbf" vector-effect="non-scaling-stroke" d="   M 190.93 106.75   Q 192.51 108.57 192.60 111.73   C 193.16 130.48 190.27 149.64 186.06 167.99   Q 185.93 168.54 186.50 168.56   Q 189.85 168.70 193.86 167.95   C 198.32 167.11 198.86 162.83 199.54 159.24   Q 203.62 137.50 204.22 116.44   C 204.29 113.87 204.00 111.30 203.73 108.74   C 202.93 101.30 193.88 103.43 189.31 104.60   Q 188.92 104.69 188.73 105.04   Q 188.56 105.36 188.63 105.72   Q 188.73 106.30 189.33 106.33   L 190.14 106.37   Q 190.61 106.39 190.93 106.75"></path>
    <path stroke="#939cbf" vector-effect="non-scaling-stroke" d="   M 346.05 116.46   C 348.44 117.49 349.10 120.41 349.17 122.82   Q 349.42 131.69 348.09 140.84   C 346.70 150.36 342.13 155.87 331.81 155.41   Q 331.21 155.38 331.13 155.98   L 330.64 159.88   Q 330.56 160.52 331.18 160.71   C 345.06 164.90 354.69 159.58 358.20 145.53   Q 361.00 134.28 360.56 121.99   C 360.39 117.41 359.31 111.54 354.61 109.71   C 348.96 107.50 341.20 111.43 336.49 114.91   Q 335.97 115.29 336.38 115.79   L 337.79 117.49   A 0.85 0.84 56.5 0 0 338.84 117.71   C 340.92 116.64 343.78 115.49 346.05 116.46"></path>
    <path stroke="#939cbf" vector-effect="non-scaling-stroke" d="   M 267.43 164.00   Q 282.16 166.10 287.69 152.44   C 290.00 146.75 290.57 140.73 291.25 134.82   C 291.68 131.05 292.79 126.32 295.70 123.77   C 298.58 121.25 302.04 122.70 302.40 126.33   Q 303.36 136.10 300.91 146.86   Q 298.45 157.69 287.41 159.74   C 285.37 160.12 284.49 162.44 284.63 164.30   Q 284.68 165.02 285.40 165.09   C 296.71 166.18 306.60 161.03 310.72 150.18   Q 314.19 141.03 314.03 128.54   C 313.96 122.77 312.75 115.58 305.39 115.03   C 291.87 114.02 283.45 120.94 281.09 134.02   C 280.12 139.36 280.15 144.61 277.57 149.51   C 276.39 151.74 273.34 154.35 270.92 152.02   Q 270.55 151.67 270.63 151.16   Q 272.11 142.69 271.80 133.26   C 271.22 115.78 257.53 118.69 247.71 126.19   Q 247.24 126.55 247.62 127.01   L 249.05 128.73   A 0.74 0.74 0.0 0 0 249.92 128.93   C 256.46 126.00 260.23 127.06 260.40 134.75   Q 260.62 144.83 259.09 153.52   C 257.52 162.44 252.37 167.57 242.91 167.35   Q 242.29 167.34 242.24 167.95   L 241.96 171.20   Q 241.92 171.77 242.46 171.95   C 250.63 174.56 259.64 173.80 265.05 166.76   C 265.62 166.02 265.99 165.14 266.52 164.39   Q 266.86 163.92 267.43 164.00"></path>
    <path stroke="#939cbf" vector-effect="non-scaling-stroke" d="   M 167.67 131.45   Q 169.01 127.81 168.74 124.00   A 2.00 1.99 -89.5 0 0 166.93 122.15   Q 162.37 121.74 157.22 123.29   Q 156.76 123.43 156.88 123.90   C 157.79 127.30 156.28 131.53 155.25 134.76   A 0.83 0.83 0.0 0 0 156.14 135.83   C 160.23 135.31 164.63 134.34 168.66 135.00   Q 169.21 135.09 169.31 135.63   C 169.57 137.07 169.94 138.24 169.86 139.74   Q 169.37 149.71 167.47 161.70   Q 166.51 167.78 164.67 171.92   C 160.85 180.47 148.33 182.69 144.23 172.93   C 140.70 164.55 144.35 154.84 149.74 147.76   C 150.53 146.73 150.66 145.26 149.74 144.31   A 0.81 0.79 -33.6 0 0 148.85 144.14   C 135.34 150.16 124.73 166.15 135.95 179.29   C 140.38 184.48 147.74 186.87 154.59 186.30   C 173.09 184.74 177.29 172.69 179.90 156.41   Q 181.30 147.72 181.36 138.53   Q 181.41 129.92 172.58 131.32   Q 170.43 131.67 168.25 132.12   Q 167.36 132.31 167.67 131.45"></path>
    <path stroke="#939cbf" vector-effect="non-scaling-stroke" d="   M 211.38 129.65   Q 212.32 132.17 212.21 134.66   Q 211.54 150.66 208.04 164.76   Q 204.92 177.33 192.38 177.12   Q 191.77 177.11 191.70 177.71   L 191.30 181.09   A 0.68 0.68 0.0 0 0 191.80 181.83   Q 196.27 182.99 200.81 182.72   C 213.96 181.95 218.33 171.22 220.55 160.09   Q 222.90 148.26 223.28 135.46   C 223.42 131.00 223.10 125.98 217.41 125.99   Q 212.76 126.00 209.51 127.00   Q 208.90 127.19 208.61 127.76   Q 208.35 128.25 208.89 128.40   L 210.51 128.85   Q 211.15 129.03 211.38 129.65"></path>
    <path stroke="#f59195" vector-effect="non-scaling-stroke" d="   M 345.92 190.59   Q 342.84 178.96 340.57 171.90   Q 339.18 167.58 334.70 168.35   Q 334.18 168.44 333.93 168.90   Q 333.23 170.18 333.14 171.59   Q 332.08 189.07 331.05 207.93   A 2.43 2.38 31.3 0 0 331.40 209.31   Q 332.91 211.77 334.30 211.29   Q 336.34 210.58 336.45 209.23   Q 337.49 197.25 337.91 184.27   Q 338.00 181.27 338.90 184.13   Q 341.96 193.91 344.60 204.49   C 345.16 206.73 347.02 209.95 349.78 209.45   C 351.97 209.06 352.32 205.77 352.39 203.99   Q 352.88 190.89 353.49 178.35   Q 353.73 173.39 353.38 168.96   Q 353.23 167.08 351.41 166.56   Q 351.00 166.44 350.57 166.49   Q 348.19 166.77 347.99 169.15   L 346.24 190.56   Q 346.17 191.53 345.92 190.59"></path>
    <path stroke="#f59195" vector-effect="non-scaling-stroke" d="   M 320.84 200.42   A 0.17 0.17 0.0 0 1 321.11 200.52   L 323.14 210.37   Q 323.60 212.63 325.91 212.58   Q 326.39 212.57 326.85 212.43   Q 329.48 211.66 328.92 208.97   Q 325.48 192.30 322.10 174.49   Q 321.33 170.44 317.49 170.34   Q 316.97 170.33 316.57 170.64   Q 314.55 172.19 313.89 174.66   Q 311.21 184.71 308.56 194.79   Q 308.43 195.29 308.04 195.63   Q 304.09 199.03 306.71 203.52   Q 307.01 204.04 306.89 204.63   Q 306.15 208.14 305.62 212.06   Q 305.25 214.74 307.96 214.75   L 308.54 214.75   Q 310.38 214.75 310.74 212.95   L 312.75 202.96   Q 312.84 202.51 313.29 202.42   C 315.74 201.95 318.84 201.97 320.84 200.42"></path>
    <path stroke="#f59195" vector-effect="non-scaling-stroke" d="   M 283.72 186.00   L 283.23 216.15   Q 283.19 218.23 285.21 218.74   Q 286.48 219.06 287.97 217.40   A 2.46 2.44 67.1 0 0 288.59 215.85   L 288.99 205.48   Q 289.03 204.49 289.66 205.25   Q 294.39 210.89 299.87 216.85   Q 302.05 219.21 304.62 218.14   Q 305.00 217.99 305.21 217.60   Q 306.30 215.60 304.86 213.84   L 295.16 202.04   Q 294.82 201.62 295.28 201.34   Q 301.70 197.33 303.13 189.50   C 304.53 181.78 300.13 175.06 291.92 175.20   C 285.53 175.32 279.50 177.54 279.77 185.32   Q 279.80 186.19 280.66 186.29   Q 282.00 186.44 283.01 185.65   Q 283.74 185.08 283.72 186.00"></path>
    <path stroke="#f59195" vector-effect="non-scaling-stroke" d="   M 272.32 208.75   L 274.14 217.92   Q 274.60 220.27 276.99 220.32   Q 277.40 220.33 277.78 220.22   Q 280.55 219.39 279.96 216.55   Q 276.59 200.28 273.41 183.39   C 273.05 181.47 272.28 178.81 270.13 178.27   C 267.19 177.52 265.62 180.00 264.97 182.43   Q 262.27 192.51 259.61 202.55   Q 259.50 202.97 259.17 203.25   Q 255.18 206.79 257.73 210.98   Q 258.09 211.57 257.96 212.24   L 256.60 219.55   A 2.51 2.50 -84.9 0 0 259.07 222.51   L 259.57 222.51   Q 261.43 222.51 261.80 220.69   L 263.80 210.71   Q 263.92 210.09 264.55 210.05   Q 268.51 209.80 271.75 208.44   Q 272.22 208.25 272.32 208.75"></path>
    <path stroke="#f59195" vector-effect="non-scaling-stroke" d="   M 234.30 192.85   Q 233.31 206.53 233.49 219.13   C 233.55 223.80 236.26 227.84 241.52 225.02   C 254.01 218.31 256.56 205.11 253.63 192.27   C 251.35 182.25 243.63 181.30 235.14 183.42   Q 228.40 185.11 229.91 191.54   Q 230.02 191.99 230.40 192.26   Q 231.76 193.22 233.55 192.35   Q 234.37 191.95 234.30 192.85"></path>
    <path stroke="#f59195" vector-effect="non-scaling-stroke" d="   M 212.27 214.41   Q 211.24 207.05 210.54 198.02   C 210.25 194.21 209.11 186.13 203.27 188.36   Q 201.61 188.99 201.41 190.69   Q 199.53 206.52 197.43 223.37   C 197.05 226.44 196.77 231.53 201.17 231.24   Q 201.78 231.20 202.17 230.72   Q 203.45 229.14 203.52 227.50   Q 204.06 215.17 205.40 203.02   Q 205.46 202.52 205.52 203.02   Q 207.09 214.19 208.36 225.70   Q 208.74 229.16 211.73 229.55   C 214.65 229.94 215.85 227.13 216.35 224.79   Q 218.10 216.55 220.14 207.93   Q 220.98 204.35 221.38 200.68   Q 221.46 199.94 221.60 200.67   Q 222.15 203.45 222.00 206.47   Q 221.56 215.79 221.50 224.65   Q 221.47 227.85 224.67 227.70   L 225.16 227.68   Q 227.59 227.57 227.58 225.13   Q 227.55 207.91 227.11 193.26   C 227.04 190.68 226.85 186.36 223.59 185.62   C 220.12 184.83 219.18 186.51 218.46 189.59   Q 215.66 201.65 212.61 214.43   A 0.17 0.17 0.0 0 1 212.27 214.41"></path>
    <path stroke="#f59195" vector-effect="non-scaling-stroke" d="   M 188.22 220.75   L 190.26 230.76   Q 190.69 232.84 192.81 232.76   L 193.59 232.73   Q 196.65 232.61 196.05 229.61   Q 192.28 210.85 189.04 194.18   Q 188.73 192.62 187.50 191.65   C 184.16 189.02 181.72 192.29 180.94 195.21   Q 178.35 205.03 175.69 215.02   Q 175.56 215.50 175.19 215.84   Q 171.38 219.23 173.86 223.88   Q 174.09 224.31 174.01 224.79   L 172.70 231.91   Q 172.22 234.55 174.85 235.06   Q 175.20 235.13 175.56 235.14   Q 177.43 235.19 177.81 233.36   L 179.85 223.43   Q 179.99 222.78 180.64 222.69   C 182.82 222.39 186.36 222.24 188.05 220.70   A 0.10 0.10 0.0 0 1 188.22 220.75"></path>
    <path stroke="#f59195" vector-effect="non-scaling-stroke" d="   M 150.53 205.15   Q 149.58 218.93 149.68 231.75   C 149.71 235.42 152.11 239.86 156.45 238.09   C 164.70 234.73 169.93 226.73 170.61 218.04   C 171.07 212.24 171.02 205.00 167.87 199.90   C 164.23 194.01 157.48 194.42 151.53 195.82   Q 144.80 197.39 146.13 203.98   C 146.47 205.64 148.66 205.47 149.77 204.72   Q 150.59 204.16 150.53 205.15"></path>
    <path stroke="#939cbf" vector-effect="non-scaling-stroke" d="   M 481.43 192.79   Q 487.06 192.35 488.07 187.02   C 489.07 181.69 485.20 176.78 481.28 173.27   C 472.14 165.10 460.40 163.55 448.58 165.36   Q 446.05 165.74 448.46 166.59   Q 450.43 167.29 452.35 167.96   C 458.16 169.99 463.57 174.07 465.95 179.82   C 468.68 186.43 473.25 193.42 481.43 192.79"></path>
    <path stroke="#f59195" vector-effect="non-scaling-stroke" d="   M 317.46 184.54   Q 316.20 189.61 314.76 194.84   A 0.38 0.37 2.4 0 0 315.19 195.30   L 319.77 194.52   Q 320.29 194.44 320.18 193.92   Q 319.13 189.02 318.23 184.29   Q 318.14 183.83 317.75 183.55   Q 317.48 183.37 317.49 183.70   C 317.51 184.04 317.55 184.20 317.46 184.54"></path>
    <path stroke="#f59195" vector-effect="non-scaling-stroke" d="   M 289.94 184.32   Q 289.89 189.79 289.33 194.76   Q 289.03 197.43 291.42 196.20   L 292.88 195.45   Q 295.95 193.86 296.52 190.44   Q 297.08 187.02 296.12 183.70   Q 295.94 183.07 295.38 182.73   Q 292.51 180.98 288.64 182.19   Q 288.03 182.38 288.57 182.72   L 289.34 183.22   Q 289.94 183.61 289.94 184.32"></path>
    <path stroke="#f59195" vector-effect="non-scaling-stroke" d="   M 269.23 191.78   Q 268.97 190.56 268.66 191.77   L 265.93 202.33   Q 265.75 202.99 266.43 202.90   L 270.77 202.33   Q 271.37 202.25 271.25 201.66   L 269.23 191.78"></path>
    <path stroke="#f59195" vector-effect="non-scaling-stroke" d="   M 239.34 190.01   Q 239.76 190.18 240.08 190.52   A 1.24 1.21 -65.6 0 1 240.40 191.40   L 239.43 217.52   A 0.30 0.29 -18.2 0 0 239.91 217.76   Q 250.81 209.03 248.13 196.37   Q 246.55 188.89 239.44 189.41   Q 238.13 189.51 239.34 190.01"></path>
    <path stroke="#f59195" vector-effect="non-scaling-stroke" d="   M 181.79 215.52   A 0.11 0.10 3.5 0 0 181.91 215.65   L 187.03 214.93   A 0.37 0.36 80.5 0 0 187.34 214.49   L 185.16 204.01   Q 185.01 203.28 184.82 204.00   L 181.79 215.52"></path>
    <path stroke="#f59195" vector-effect="non-scaling-stroke" d="   M 156.05 202.92   A 0.92 0.89 -80.1 0 1 156.66 203.81   L 155.66 229.92   Q 155.63 230.66 156.22 230.20   C 163.76 224.24 167.20 215.14 163.29 205.98   Q 161.22 201.12 155.54 202.06   Q 154.89 202.17 155.40 202.58   Q 155.69 202.80 156.05 202.92"></path>
    <path stroke="#939cbf" vector-effect="non-scaling-stroke" d="   M 53.81 246.26   C 59.95 240.05 68.53 235.95 77.21 233.45   A 0.97 0.96 -39.7 0 0 77.38 231.66   Q 76.47 231.21 75.48 231.00   C 60.74 227.96 44.88 229.44 32.13 237.36   Q 27.35 240.33 25.09 245.10   C 22.56 250.46 25.30 256.51 31.13 257.90   C 39.20 259.82 48.58 251.55 53.81 246.26"></path>
    <path stroke="#939cbf" vector-effect="non-scaling-stroke" d="   M 55.60 293.60   C 58.86 284.96 65.50 277.71 72.60 271.90   Q 72.78 271.75 72.88 271.55   Q 73.09 271.09 72.42 270.85   A 0.77 0.71 -36.3 0 0 72.04 270.81   Q 52.21 274.21 40.27 287.50   Q 35.57 292.73 34.13 298.62   C 32.96 303.44 35.50 308.59 40.94 308.61   C 50.50 308.64 52.84 300.94 55.60 293.60"></path>
    <path stroke="#939cbf" vector-effect="non-scaling-stroke" d="   M 367.1799 278.0647   A 10.16 7.41 -30.1 0 0 354.6738 276.7492   A 10.16 7.41 -30.1 0 0 349.6001 288.2553   A 10.16 7.41 -30.1 0 0 362.1062 289.5708   A 10.16 7.41 -30.1 0 0 367.1799 278.0647"></path>
    <path stroke="#939cbf" vector-effect="non-scaling-stroke" d="   M 198.12 299.16   C 198.44 293.35 199.67 287.56 202.46 282.42   Q 203.74 280.06 201.21 280.96   Q 184.80 286.75 178.93 303.30   C 177.46 307.47 178.27 312.87 182.65 315.05   C 188.16 317.81 194.32 313.93 196.22 308.66   Q 197.86 304.10 198.12 299.16"></path>
  </g>
  <path fill="#27387f" d="   M 119.49 117.77   C 121.50 117.37 122.64 114.36 121.52 112.69   C 118.11 107.62 111.38 106.41 106.70 102.71   C 90.89 90.18 95.12 69.91 107.03 56.07   Q 125.14 35.02 154.33 36.87   Q 167.60 37.72 179.73 42.77   C 188.60 46.45 196.95 52.49 205.01 57.99   Q 211.53 62.43 218.63 64.43   C 228.50 67.22 236.45 62.26 242.52 55.08   Q 248.51 47.98 252.94 39.59   Q 255.89 34.03 259.19 30.15   C 271.21 16.03 290.64 11.67 308.93 14.08   C 318.93 15.40 334.48 20.29 333.73 33.32   C 333.17 43.17 324.01 50.71 316.73 56.15   C 312.88 59.03 310.02 62.79 310.56 67.47   C 311.04 71.73 314.09 73.86 318.17 73.85   C 326.74 73.83 333.64 70.70 340.20 65.85   C 355.47 54.58 371.13 44.82 390.73 43.16   C 409.23 41.58 424.41 48.17 434.07 64.81   C 440.14 75.27 443.14 87.49 440.37 99.09   Q 436.93 113.45 424.71 122.56   C 414.88 129.89 399.46 131.88 395.38 145.34   C 392.22 155.77 398.41 165.50 408.83 167.95   Q 413.47 169.04 418.45 170.24   C 430.67 173.17 442.43 180.09 443.84 193.95   C 445.81 213.35 434.60 227.24 415.98 231.43   Q 395.95 235.94 377.55 228.00   C 373.08 226.07 369.48 222.83 365.17 220.60   C 356.83 216.29 348.40 216.00 341.59 223.30   Q 337.57 227.61 337.00 234.58   C 336.80 237.08 336.41 239.68 336.47 242.17   Q 336.88 256.59 335.51 269.37   C 331.99 302.37 306.03 326.88 272.26 324.36   C 243.87 322.24 228.00 300.53 232.08 272.55   C 232.92 266.77 230.88 260.17 225.82 257.07   C 217.29 251.85 210.65 255.21 203.41 260.84   Q 185.79 274.53 173.65 282.52   C 152.40 296.50 111.36 300.98 102.11 268.85   C 99.15 258.57 100.98 249.52 108.96 242.17   C 114.57 237.00 121.55 234.24 128.51 231.05   C 141.41 225.15 136.41 211.44 124.26 209.96   C 115.76 208.92 107.46 211.12 99.16 212.06   C 83.09 213.88 65.76 212.78 50.23 207.74   C 32.93 202.12 22.53 185.64 20.69 167.82   C 18.55 147.03 27.61 131.60 45.05 121.15   Q 61.31 111.40 81.23 112.14   C 92.43 112.55 102.53 115.07 113.58 117.71   Q 116.41 118.39 119.49 117.77   Z   M 138.21 216.19   C 141.35 223.28 136.97 230.40 130.59 233.50   C 123.67 236.85 116.46 239.47 110.67 244.87   Q 101.25 253.67 104.85 267.05   C 112.63 295.92 148.83 293.91 169.09 281.59   C 181.50 274.04 193.09 264.55 204.91 255.83   Q 212.48 250.25 220.71 251.74   C 232.35 253.86 236.54 263.83 235.00 274.60   C 232.54 291.80 239.62 309.54 255.77 316.96   C 272.91 324.82 293.76 322.06 308.96 311.15   C 324.05 300.31 331.83 283.16 332.96 264.35   Q 333.54 254.72 333.40 244.07   C 333.34 239.52 333.62 234.57 334.62 230.12   C 336.79 220.50 346.22 213.32 356.08 214.52   Q 362.51 215.30 368.48 218.86   C 372.19 221.08 375.59 223.78 379.61 225.46   Q 395.80 232.23 413.29 228.83   C 430.30 225.52 442.10 214.14 440.92 195.72   C 439.84 179.10 424.22 174.28 410.18 171.55   C 400.79 169.72 393.46 163.81 391.69 154.23   C 390.53 147.93 392.93 140.44 397.27 135.81   C 403.78 128.89 413.32 125.87 419.90 121.93   Q 432.57 114.36 436.87 100.07   C 440.84 86.91 436.17 72.34 427.97 61.35   C 409.58 36.72 375.17 45.73 353.81 60.17   C 341.91 68.20 332.23 77.77 316.54 76.79   Q 311.00 76.44 308.54 71.53   C 305.55 65.57 308.55 58.29 313.77 54.49   C 319.40 50.40 324.64 46.03 328.30 40.13   C 333.70 31.41 329.24 23.79 320.35 20.31   Q 306.51 14.90 290.47 17.20   Q 266.21 20.68 255.53 41.42   C 251.34 49.57 245.76 57.07 239.81 62.19   Q 229.48 71.07 216.67 67.12   Q 210.16 65.12 204.58 61.42   Q 196.98 56.39 189.85 51.69   C 174.51 41.58 152.31 36.68 134.63 41.81   Q 114.04 47.78 103.43 66.94   Q 98.59 75.69 99.76 85.17   C 101.13 96.18 109.12 101.26 118.60 105.82   C 123.24 108.06 126.70 112.78 124.00 118.12   C 121.60 122.87 112.00 120.79 107.98 119.70   Q 91.92 115.34 79.56 115.16   Q 59.80 114.89 43.68 125.73   Q 34.72 131.76 30.16 138.88   C 15.91 161.09 25.32 196.73 51.81 205.01   C 70.01 210.69 89.89 210.95 108.53 207.59   C 118.45 205.80 133.16 204.75 138.21 216.19   Z"></path>
  <path fill="#ffffff" d="   M 138.21 216.19   C 133.16 204.75 118.45 205.80 108.53 207.59   C 89.89 210.95 70.01 210.69 51.81 205.01   C 25.32 196.73 15.91 161.09 30.16 138.88   Q 34.72 131.76 43.68 125.73   Q 59.80 114.89 79.56 115.16   Q 91.92 115.34 107.98 119.70   C 112.00 120.79 121.60 122.87 124.00 118.12   C 126.70 112.78 123.24 108.06 118.60 105.82   C 109.12 101.26 101.13 96.18 99.76 85.17   Q 98.59 75.69 103.43 66.94   Q 114.04 47.78 134.63 41.81   C 152.31 36.68 174.51 41.58 189.85 51.69   Q 196.98 56.39 204.58 61.42   Q 210.16 65.12 216.67 67.12   Q 229.48 71.07 239.81 62.19   C 245.76 57.07 251.34 49.57 255.53 41.42   Q 266.21 20.68 290.47 17.20   Q 306.51 14.90 320.35 20.31   C 329.24 23.79 333.70 31.41 328.30 40.13   C 324.64 46.03 319.40 50.40 313.77 54.49   C 308.55 58.29 305.55 65.57 308.54 71.53   Q 311.00 76.44 316.54 76.79   C 332.23 77.77 341.91 68.20 353.81 60.17   C 375.17 45.73 409.58 36.72 427.97 61.35   C 436.17 72.34 440.84 86.91 436.87 100.07   Q 432.57 114.36 419.90 121.93   C 413.32 125.87 403.78 128.89 397.27 135.81   C 392.93 140.44 390.53 147.93 391.69 154.23   C 393.46 163.81 400.79 169.72 410.18 171.55   C 424.22 174.28 439.84 179.10 440.92 195.72   C 442.10 214.14 430.30 225.52 413.29 228.83   Q 395.80 232.23 379.61 225.46   C 375.59 223.78 372.19 221.08 368.48 218.86   Q 362.51 215.30 356.08 214.52   C 346.22 213.32 336.79 220.50 334.62 230.12   C 333.62 234.57 333.34 239.52 333.40 244.07   Q 333.54 254.72 332.96 264.35   C 331.83 283.16 324.05 300.31 308.96 311.15   C 293.76 322.06 272.91 324.82 255.77 316.96   C 239.62 309.54 232.54 291.80 235.00 274.60   C 236.54 263.83 232.35 253.86 220.71 251.74   Q 212.48 250.25 204.91 255.83   C 193.09 264.55 181.50 274.04 169.09 281.59   C 148.83 293.91 112.63 295.92 104.85 267.05   Q 101.25 253.67 110.67 244.87   C 116.46 239.47 123.67 236.85 130.59 233.50   C 136.97 230.40 141.35 223.28 138.21 216.19   Z   M 320.02 89.92   A 2.67 2.65 86.7 0 1 322.24 91.91   Q 323.34 96.25 323.15 101.10   Q 322.14 127.12 316.41 151.35   Q 316.27 151.92 316.85 151.95   C 320.88 152.21 327.24 152.64 328.59 147.78   Q 329.81 143.40 330.49 139.51   Q 333.51 122.40 334.55 102.75   Q 334.80 98.14 334.07 92.72   C 333.07 85.15 324.91 86.84 319.60 88.37   Q 318.73 88.62 319.06 89.41   Q 319.23 89.81 319.66 89.87   L 320.02 89.92   Z   M 233.62 102.67   Q 234.70 106.52 234.61 110.54   Q 234.02 136.67 227.93 162.29   A 0.87 0.87 0.0 0 0 228.79 163.36   C 231.92 163.30 238.50 163.28 239.72 159.72   Q 241.16 155.55 242.28 149.01   Q 245.66 129.22 246.04 108.92   Q 246.13 104.33 244.89 101.39   C 242.82 96.45 234.87 98.32 230.74 99.47   A 0.71 0.69 84.7 0 0 230.24 100.09   Q 230.19 100.80 230.93 100.86   C 232.11 100.94 233.28 101.45 233.62 102.67   Z   M 190.93 106.75   Q 192.51 108.57 192.60 111.73   C 193.16 130.48 190.27 149.64 186.06 167.99   Q 185.93 168.54 186.50 168.56   Q 189.85 168.70 193.86 167.95   C 198.32 167.11 198.86 162.83 199.54 159.24   Q 203.62 137.50 204.22 116.44   C 204.29 113.87 204.00 111.30 203.73 108.74   C 202.93 101.30 193.88 103.43 189.31 104.60   Q 188.92 104.69 188.73 105.04   Q 188.56 105.36 188.63 105.72   Q 188.73 106.30 189.33 106.33   L 190.14 106.37   Q 190.61 106.39 190.93 106.75   Z   M 346.05 116.46   C 348.44 117.49 349.10 120.41 349.17 122.82   Q 349.42 131.69 348.09 140.84   C 346.70 150.36 342.13 155.87 331.81 155.41   Q 331.21 155.38 331.13 155.98   L 330.64 159.88   Q 330.56 160.52 331.18 160.71   C 345.06 164.90 354.69 159.58 358.20 145.53   Q 361.00 134.28 360.56 121.99   C 360.39 117.41 359.31 111.54 354.61 109.71   C 348.96 107.50 341.20 111.43 336.49 114.91   Q 335.97 115.29 336.38 115.79   L 337.79 117.49   A 0.85 0.84 56.5 0 0 338.84 117.71   C 340.92 116.64 343.78 115.49 346.05 116.46   Z   M 267.43 164.00   Q 282.16 166.10 287.69 152.44   C 290.00 146.75 290.57 140.73 291.25 134.82   C 291.68 131.05 292.79 126.32 295.70 123.77   C 298.58 121.25 302.04 122.70 302.40 126.33   Q 303.36 136.10 300.91 146.86   Q 298.45 157.69 287.41 159.74   C 285.37 160.12 284.49 162.44 284.63 164.30   Q 284.68 165.02 285.40 165.09   C 296.71 166.18 306.60 161.03 310.72 150.18   Q 314.19 141.03 314.03 128.54   C 313.96 122.77 312.75 115.58 305.39 115.03   C 291.87 114.02 283.45 120.94 281.09 134.02   C 280.12 139.36 280.15 144.61 277.57 149.51   C 276.39 151.74 273.34 154.35 270.92 152.02   Q 270.55 151.67 270.63 151.16   Q 272.11 142.69 271.80 133.26   C 271.22 115.78 257.53 118.69 247.71 126.19   Q 247.24 126.55 247.62 127.01   L 249.05 128.73   A 0.74 0.74 0.0 0 0 249.92 128.93   C 256.46 126.00 260.23 127.06 260.40 134.75   Q 260.62 144.83 259.09 153.52   C 257.52 162.44 252.37 167.57 242.91 167.35   Q 242.29 167.34 242.24 167.95   L 241.96 171.20   Q 241.92 171.77 242.46 171.95   C 250.63 174.56 259.64 173.80 265.05 166.76   C 265.62 166.02 265.99 165.14 266.52 164.39   Q 266.86 163.92 267.43 164.00   Z   M 167.67 131.45   Q 169.01 127.81 168.74 124.00   A 2.00 1.99 -89.5 0 0 166.93 122.15   Q 162.37 121.74 157.22 123.29   Q 156.76 123.43 156.88 123.90   C 157.79 127.30 156.28 131.53 155.25 134.76   A 0.83 0.83 0.0 0 0 156.14 135.83   C 160.23 135.31 164.63 134.34 168.66 135.00   Q 169.21 135.09 169.31 135.63   C 169.57 137.07 169.94 138.24 169.86 139.74   Q 169.37 149.71 167.47 161.70   Q 166.51 167.78 164.67 171.92   C 160.85 180.47 148.33 182.69 144.23 172.93   C 140.70 164.55 144.35 154.84 149.74 147.76   C 150.53 146.73 150.66 145.26 149.74 144.31   A 0.81 0.79 -33.6 0 0 148.85 144.14   C 135.34 150.16 124.73 166.15 135.95 179.29   C 140.38 184.48 147.74 186.87 154.59 186.30   C 173.09 184.74 177.29 172.69 179.90 156.41   Q 181.30 147.72 181.36 138.53   Q 181.41 129.92 172.58 131.32   Q 170.43 131.67 168.25 132.12   Q 167.36 132.31 167.67 131.45   Z   M 211.38 129.65   Q 212.32 132.17 212.21 134.66   Q 211.54 150.66 208.04 164.76   Q 204.92 177.33 192.38 177.12   Q 191.77 177.11 191.70 177.71   L 191.30 181.09   A 0.68 0.68 0.0 0 0 191.80 181.83   Q 196.27 182.99 200.81 182.72   C 213.96 181.95 218.33 171.22 220.55 160.09   Q 222.90 148.26 223.28 135.46   C 223.42 131.00 223.10 125.98 217.41 125.99   Q 212.76 126.00 209.51 127.00   Q 208.90 127.19 208.61 127.76   Q 208.35 128.25 208.89 128.40   L 210.51 128.85   Q 211.15 129.03 211.38 129.65   Z   M 345.92 190.59   Q 342.84 178.96 340.57 171.90   Q 339.18 167.58 334.70 168.35   Q 334.18 168.44 333.93 168.90   Q 333.23 170.18 333.14 171.59   Q 332.08 189.07 331.05 207.93   A 2.43 2.38 31.3 0 0 331.40 209.31   Q 332.91 211.77 334.30 211.29   Q 336.34 210.58 336.45 209.23   Q 337.49 197.25 337.91 184.27   Q 338.00 181.27 338.90 184.13   Q 341.96 193.91 344.60 204.49   C 345.16 206.73 347.02 209.95 349.78 209.45   C 351.97 209.06 352.32 205.77 352.39 203.99   Q 352.88 190.89 353.49 178.35   Q 353.73 173.39 353.38 168.96   Q 353.23 167.08 351.41 166.56   Q 351.00 166.44 350.57 166.49   Q 348.19 166.77 347.99 169.15   L 346.24 190.56   Q 346.17 191.53 345.92 190.59   Z   M 320.84 200.42   A 0.17 0.17 0.0 0 1 321.11 200.52   L 323.14 210.37   Q 323.60 212.63 325.91 212.58   Q 326.39 212.57 326.85 212.43   Q 329.48 211.66 328.92 208.97   Q 325.48 192.30 322.10 174.49   Q 321.33 170.44 317.49 170.34   Q 316.97 170.33 316.57 170.64   Q 314.55 172.19 313.89 174.66   Q 311.21 184.71 308.56 194.79   Q 308.43 195.29 308.04 195.63   Q 304.09 199.03 306.71 203.52   Q 307.01 204.04 306.89 204.63   Q 306.15 208.14 305.62 212.06   Q 305.25 214.74 307.96 214.75   L 308.54 214.75   Q 310.38 214.75 310.74 212.95   L 312.75 202.96   Q 312.84 202.51 313.29 202.42   C 315.74 201.95 318.84 201.97 320.84 200.42   Z   M 283.72 186.00   L 283.23 216.15   Q 283.19 218.23 285.21 218.74   Q 286.48 219.06 287.97 217.40   A 2.46 2.44 67.1 0 0 288.59 215.85   L 288.99 205.48   Q 289.03 204.49 289.66 205.25   Q 294.39 210.89 299.87 216.85   Q 302.05 219.21 304.62 218.14   Q 305.00 217.99 305.21 217.60   Q 306.30 215.60 304.86 213.84   L 295.16 202.04   Q 294.82 201.62 295.28 201.34   Q 301.70 197.33 303.13 189.50   C 304.53 181.78 300.13 175.06 291.92 175.20   C 285.53 175.32 279.50 177.54 279.77 185.32   Q 279.80 186.19 280.66 186.29   Q 282.00 186.44 283.01 185.65   Q 283.74 185.08 283.72 186.00   Z   M 272.32 208.75   L 274.14 217.92   Q 274.60 220.27 276.99 220.32   Q 277.40 220.33 277.78 220.22   Q 280.55 219.39 279.96 216.55   Q 276.59 200.28 273.41 183.39   C 273.05 181.47 272.28 178.81 270.13 178.27   C 267.19 177.52 265.62 180.00 264.97 182.43   Q 262.27 192.51 259.61 202.55   Q 259.50 202.97 259.17 203.25   Q 255.18 206.79 257.73 210.98   Q 258.09 211.57 257.96 212.24   L 256.60 219.55   A 2.51 2.50 -84.9 0 0 259.07 222.51   L 259.57 222.51   Q 261.43 222.51 261.80 220.69   L 263.80 210.71   Q 263.92 210.09 264.55 210.05   Q 268.51 209.80 271.75 208.44   Q 272.22 208.25 272.32 208.75   Z   M 234.30 192.85   Q 233.31 206.53 233.49 219.13   C 233.55 223.80 236.26 227.84 241.52 225.02   C 254.01 218.31 256.56 205.11 253.63 192.27   C 251.35 182.25 243.63 181.30 235.14 183.42   Q 228.40 185.11 229.91 191.54   Q 230.02 191.99 230.40 192.26   Q 231.76 193.22 233.55 192.35   Q 234.37 191.95 234.30 192.85   Z   M 212.27 214.41   Q 211.24 207.05 210.54 198.02   C 210.25 194.21 209.11 186.13 203.27 188.36   Q 201.61 188.99 201.41 190.69   Q 199.53 206.52 197.43 223.37   C 197.05 226.44 196.77 231.53 201.17 231.24   Q 201.78 231.20 202.17 230.72   Q 203.45 229.14 203.52 227.50   Q 204.06 215.17 205.40 203.02   Q 205.46 202.52 205.52 203.02   Q 207.09 214.19 208.36 225.70   Q 208.74 229.16 211.73 229.55   C 214.65 229.94 215.85 227.13 216.35 224.79   Q 218.10 216.55 220.14 207.93   Q 220.98 204.35 221.38 200.68   Q 221.46 199.94 221.60 200.67   Q 222.15 203.45 222.00 206.47   Q 221.56 215.79 221.50 224.65   Q 221.47 227.85 224.67 227.70   L 225.16 227.68   Q 227.59 227.57 227.58 225.13   Q 227.55 207.91 227.11 193.26   C 227.04 190.68 226.85 186.36 223.59 185.62   C 220.12 184.83 219.18 186.51 218.46 189.59   Q 215.66 201.65 212.61 214.43   A 0.17 0.17 0.0 0 1 212.27 214.41   Z   M 188.22 220.75   L 190.26 230.76   Q 190.69 232.84 192.81 232.76   L 193.59 232.73   Q 196.65 232.61 196.05 229.61   Q 192.28 210.85 189.04 194.18   Q 188.73 192.62 187.50 191.65   C 184.16 189.02 181.72 192.29 180.94 195.21   Q 178.35 205.03 175.69 215.02   Q 175.56 215.50 175.19 215.84   Q 171.38 219.23 173.86 223.88   Q 174.09 224.31 174.01 224.79   L 172.70 231.91   Q 172.22 234.55 174.85 235.06   Q 175.20 235.13 175.56 235.14   Q 177.43 235.19 177.81 233.36   L 179.85 223.43   Q 179.99 222.78 180.64 222.69   C 182.82 222.39 186.36 222.24 188.05 220.70   A 0.10 0.10 0.0 0 1 188.22 220.75   Z   M 150.53 205.15   Q 149.58 218.93 149.68 231.75   C 149.71 235.42 152.11 239.86 156.45 238.09   C 164.70 234.73 169.93 226.73 170.61 218.04   C 171.07 212.24 171.02 205.00 167.87 199.90   C 164.23 194.01 157.48 194.42 151.53 195.82   Q 144.80 197.39 146.13 203.98   C 146.47 205.64 148.66 205.47 149.77 204.72   Q 150.59 204.16 150.53 205.15   Z"></path>
  <path fill="#27387f" d="   M 320.02 89.92   L 319.66 89.87   Q 319.23 89.81 319.06 89.41   Q 318.73 88.62 319.60 88.37   C 324.91 86.84 333.07 85.15 334.07 92.72   Q 334.80 98.14 334.55 102.75   Q 333.51 122.40 330.49 139.51   Q 329.81 143.40 328.59 147.78   C 327.24 152.64 320.88 152.21 316.85 151.95   Q 316.27 151.92 316.41 151.35   Q 322.14 127.12 323.15 101.10   Q 323.34 96.25 322.24 91.91   A 2.67 2.65 86.7 0 0 320.02 89.92   Z"></path>
  <path fill="#27387f" d="   M 233.62 102.67   C 233.28 101.45 232.11 100.94 230.93 100.86   Q 230.19 100.80 230.24 100.09   A 0.71 0.69 84.7 0 1 230.74 99.47   C 234.87 98.32 242.82 96.45 244.89 101.39   Q 246.13 104.33 246.04 108.92   Q 245.66 129.22 242.28 149.01   Q 241.16 155.55 239.72 159.72   C 238.50 163.28 231.92 163.30 228.79 163.36   A 0.87 0.87 0.0 0 1 227.93 162.29   Q 234.02 136.67 234.61 110.54   Q 234.70 106.52 233.62 102.67   Z"></path>
  <path fill="#27387f" d="   M 190.14 106.37   L 189.33 106.33   Q 188.73 106.30 188.63 105.72   Q 188.56 105.36 188.73 105.04   Q 188.92 104.69 189.31 104.60   C 193.88 103.43 202.93 101.30 203.73 108.74   C 204.00 111.30 204.29 113.87 204.22 116.44   Q 203.62 137.50 199.54 159.24   C 198.86 162.83 198.32 167.11 193.86 167.95   Q 189.85 168.70 186.50 168.56   Q 185.93 168.54 186.06 167.99   C 190.27 149.64 193.16 130.48 192.60 111.73   Q 192.51 108.57 190.93 106.75   Q 190.61 106.39 190.14 106.37   Z"></path>
  <path fill="#27387f" d="   M 346.05 116.46   C 343.78 115.49 340.92 116.64 338.84 117.71   A 0.85 0.84 56.5 0 1 337.79 117.49   L 336.38 115.79   Q 335.97 115.29 336.49 114.91   C 341.20 111.43 348.96 107.50 354.61 109.71   C 359.31 111.54 360.39 117.41 360.56 121.99   Q 361.00 134.28 358.20 145.53   C 354.69 159.58 345.06 164.90 331.18 160.71   Q 330.56 160.52 330.64 159.88   L 331.13 155.98   Q 331.21 155.38 331.81 155.41   C 342.13 155.87 346.70 150.36 348.09 140.84   Q 349.42 131.69 349.17 122.82   C 349.10 120.41 348.44 117.49 346.05 116.46   Z"></path>
  <path fill="#27387f" d="   M 266.52 164.39   C 265.99 165.14 265.62 166.02 265.05 166.76   C 259.64 173.80 250.63 174.56 242.46 171.95   Q 241.92 171.77 241.96 171.20   L 242.24 167.95   Q 242.29 167.34 242.91 167.35   C 252.37 167.57 257.52 162.44 259.09 153.52   Q 260.62 144.83 260.40 134.75   C 260.23 127.06 256.46 126.00 249.92 128.93   A 0.74 0.74 0.0 0 1 249.05 128.73   L 247.62 127.01   Q 247.24 126.55 247.71 126.19   C 257.53 118.69 271.22 115.78 271.80 133.26   Q 272.11 142.69 270.63 151.16   Q 270.55 151.67 270.92 152.02   C 273.34 154.35 276.39 151.74 277.57 149.51   C 280.15 144.61 280.12 139.36 281.09 134.02   C 283.45 120.94 291.87 114.02 305.39 115.03   C 312.75 115.58 313.96 122.77 314.03 128.54   Q 314.19 141.03 310.72 150.18   C 306.60 161.03 296.71 166.18 285.40 165.09   Q 284.68 165.02 284.63 164.30   C 284.49 162.44 285.37 160.12 287.41 159.74   Q 298.45 157.69 300.91 146.86   Q 303.36 136.10 302.40 126.33   C 302.04 122.70 298.58 121.25 295.70 123.77   C 292.79 126.32 291.68 131.05 291.25 134.82   C 290.57 140.73 290.00 146.75 287.69 152.44   Q 282.16 166.10 267.43 164.00   Q 266.86 163.92 266.52 164.39   Z"></path>
  <path fill="#27387f" d="   M 168.25 132.12   Q 170.43 131.67 172.58 131.32   Q 181.41 129.92 181.36 138.53   Q 181.30 147.72 179.90 156.41   C 177.29 172.69 173.09 184.74 154.59 186.30   C 147.74 186.87 140.38 184.48 135.95 179.29   C 124.73 166.15 135.34 150.16 148.85 144.14   A 0.81 0.79 -33.6 0 1 149.74 144.31   C 150.66 145.26 150.53 146.73 149.74 147.76   C 144.35 154.84 140.70 164.55 144.23 172.93   C 148.33 182.69 160.85 180.47 164.67 171.92   Q 166.51 167.78 167.47 161.70   Q 169.37 149.71 169.86 139.74   C 169.94 138.24 169.57 137.07 169.31 135.63   Q 169.21 135.09 168.66 135.00   C 164.63 134.34 160.23 135.31 156.14 135.83   A 0.83 0.83 0.0 0 1 155.25 134.76   C 156.28 131.53 157.79 127.30 156.88 123.90   Q 156.76 123.43 157.22 123.29   Q 162.37 121.74 166.93 122.15   A 2.00 1.99 -89.5 0 1 168.74 124.00   Q 169.01 127.81 167.67 131.45   Q 167.36 132.31 168.25 132.12   Z"></path>
  <path fill="#27387f" d="   M 210.51 128.85   L 208.89 128.40   Q 208.35 128.25 208.61 127.76   Q 208.90 127.19 209.51 127.00   Q 212.76 126.00 217.41 125.99   C 223.10 125.98 223.42 131.00 223.28 135.46   Q 222.90 148.26 220.55 160.09   C 218.33 171.22 213.96 181.95 200.81 182.72   Q 196.27 182.99 191.80 181.83   A 0.68 0.68 0.0 0 1 191.30 181.09   L 191.70 177.71   Q 191.77 177.11 192.38 177.12   Q 204.92 177.33 208.04 164.76   Q 211.54 150.66 212.21 134.66   Q 212.32 132.17 211.38 129.65   Q 211.15 129.03 210.51 128.85   Z"></path>
  <path fill="#27387f" d="   M 462.93 180.89   C 460.24 174.44 453.22 170.94 446.78 169.44   C 442.86 168.53 443.17 162.93 447.12 162.39   C 463.06 160.20 477.47 162.55 487.77 175.63   C 493.50 182.91 492.74 195.91 480.79 195.93   C 471.50 195.94 466.40 189.19 462.93 180.89   Z   M 481.43 192.79   Q 487.06 192.35 488.07 187.02   C 489.07 181.69 485.20 176.78 481.28 173.27   C 472.14 165.10 460.40 163.55 448.58 165.36   Q 446.05 165.74 448.46 166.59   Q 450.43 167.29 452.35 167.96   C 458.16 169.99 463.57 174.07 465.95 179.82   C 468.68 186.43 473.25 193.42 481.43 192.79   Z"></path>
  <path fill="#ffffff" d="   M 481.43 192.79   C 473.25 193.42 468.68 186.43 465.95 179.82   C 463.57 174.07 458.16 169.99 452.35 167.96   Q 450.43 167.29 448.46 166.59   Q 446.05 165.74 448.58 165.36   C 460.40 163.55 472.14 165.10 481.28 173.27   C 485.20 176.78 489.07 181.69 488.07 187.02   Q 487.06 192.35 481.43 192.79   Z"></path>
  <path fill="#ea232a" d="   M 346.24 190.56   L 347.99 169.15   Q 348.19 166.77 350.57 166.49   Q 351.00 166.44 351.41 166.56   Q 353.23 167.08 353.38 168.96   Q 353.73 173.39 353.49 178.35   Q 352.88 190.89 352.39 203.99   C 352.32 205.77 351.97 209.06 349.78 209.45   C 347.02 209.95 345.16 206.73 344.60 204.49   Q 341.96 193.91 338.90 184.13   Q 338.00 181.27 337.91 184.27   Q 337.49 197.25 336.45 209.23   Q 336.34 210.58 334.30 211.29   Q 332.91 211.77 331.40 209.31   A 2.43 2.38 31.3 0 1 331.05 207.93   Q 332.08 189.07 333.14 171.59   Q 333.23 170.18 333.93 168.90   Q 334.18 168.44 334.70 168.35   Q 339.18 167.58 340.57 171.90   Q 342.84 178.96 345.92 190.59   Q 346.17 191.53 346.24 190.56   Z"></path>
  <path fill="#ea232a" d="   M 320.84 200.42   C 318.84 201.97 315.74 201.95 313.29 202.42   Q 312.84 202.51 312.75 202.96   L 310.74 212.95   Q 310.38 214.75 308.54 214.75   L 307.96 214.75   Q 305.25 214.74 305.62 212.06   Q 306.15 208.14 306.89 204.63   Q 307.01 204.04 306.71 203.52   Q 304.09 199.03 308.04 195.63   Q 308.43 195.29 308.56 194.79   Q 311.21 184.71 313.89 174.66   Q 314.55 172.19 316.57 170.64   Q 316.97 170.33 317.49 170.34   Q 321.33 170.44 322.10 174.49   Q 325.48 192.30 328.92 208.97   Q 329.48 211.66 326.85 212.43   Q 326.39 212.57 325.91 212.58   Q 323.60 212.63 323.14 210.37   L 321.11 200.52   A 0.17 0.17 0.0 0 0 320.84 200.42   Z   M 317.46 184.54   Q 316.20 189.61 314.76 194.84   A 0.38 0.37 2.4 0 0 315.19 195.30   L 319.77 194.52   Q 320.29 194.44 320.18 193.92   Q 319.13 189.02 318.23 184.29   Q 318.14 183.83 317.75 183.55   Q 317.48 183.37 317.49 183.70   C 317.51 184.04 317.55 184.20 317.46 184.54   Z"></path>
  <path fill="#ea232a" d="   M 283.01 185.65   Q 282.00 186.44 280.66 186.29   Q 279.80 186.19 279.77 185.32   C 279.50 177.54 285.53 175.32 291.92 175.20   C 300.13 175.06 304.53 181.78 303.13 189.50   Q 301.70 197.33 295.28 201.34   Q 294.82 201.62 295.16 202.04   L 304.86 213.84   Q 306.30 215.60 305.21 217.60   Q 305.00 217.99 304.62 218.14   Q 302.05 219.21 299.87 216.85   Q 294.39 210.89 289.66 205.25   Q 289.03 204.49 288.99 205.48   L 288.59 215.85   A 2.46 2.44 67.1 0 1 287.97 217.40   Q 286.48 219.06 285.21 218.74   Q 283.19 218.23 283.23 216.15   L 283.72 186.00   Q 283.74 185.08 283.01 185.65   Z   M 289.94 184.32   Q 289.89 189.79 289.33 194.76   Q 289.03 197.43 291.42 196.20   L 292.88 195.45   Q 295.95 193.86 296.52 190.44   Q 297.08 187.02 296.12 183.70   Q 295.94 183.07 295.38 182.73   Q 292.51 180.98 288.64 182.19   Q 288.03 182.38 288.57 182.72   L 289.34 183.22   Q 289.94 183.61 289.94 184.32   Z"></path>
  <path fill="#ea232a" d="   M 271.75 208.44   Q 268.51 209.80 264.55 210.05   Q 263.92 210.09 263.80 210.71   L 261.80 220.69   Q 261.43 222.51 259.57 222.51   L 259.07 222.51   A 2.51 2.50 -84.9 0 1 256.60 219.55   L 257.96 212.24   Q 258.09 211.57 257.73 210.98   Q 255.18 206.79 259.17 203.25   Q 259.50 202.97 259.61 202.55   Q 262.27 192.51 264.97 182.43   C 265.62 180.00 267.19 177.52 270.13 178.27   C 272.28 178.81 273.05 181.47 273.41 183.39   Q 276.59 200.28 279.96 216.55   Q 280.55 219.39 277.78 220.22   Q 277.40 220.33 276.99 220.32   Q 274.60 220.27 274.14 217.92   L 272.32 208.75   Q 272.22 208.25 271.75 208.44   Z   M 269.23 191.78   Q 268.97 190.56 268.66 191.77   L 265.93 202.33   Q 265.75 202.99 266.43 202.90   L 270.77 202.33   Q 271.37 202.25 271.25 201.66   L 269.23 191.78   Z"></path>
  <path fill="#ffffff" d="   M 289.34 183.22   L 288.57 182.72   Q 288.03 182.38 288.64 182.19   Q 292.51 180.98 295.38 182.73   Q 295.94 183.07 296.12 183.70   Q 297.08 187.02 296.52 190.44   Q 295.95 193.86 292.88 195.45   L 291.42 196.20   Q 289.03 197.43 289.33 194.76   Q 289.89 189.79 289.94 184.32   Q 289.94 183.61 289.34 183.22   Z"></path>
  <path fill="#ea232a" d="   M 234.30 192.85   Q 234.37 191.95 233.55 192.35   Q 231.76 193.22 230.40 192.26   Q 230.02 191.99 229.91 191.54   Q 228.40 185.11 235.14 183.42   C 243.63 181.30 251.35 182.25 253.63 192.27   C 256.56 205.11 254.01 218.31 241.52 225.02   C 236.26 227.84 233.55 223.80 233.49 219.13   Q 233.31 206.53 234.30 192.85   Z   M 239.34 190.01   Q 239.76 190.18 240.08 190.52   A 1.24 1.21 -65.6 0 1 240.40 191.40   L 239.43 217.52   A 0.30 0.29 -18.2 0 0 239.91 217.76   Q 250.81 209.03 248.13 196.37   Q 246.55 188.89 239.44 189.41   Q 238.13 189.51 239.34 190.01   Z"></path>
  <path fill="#ffffff" d="   M 317.46 184.54   C 317.55 184.20 317.51 184.04 317.49 183.70   Q 317.48 183.37 317.75 183.55   Q 318.14 183.83 318.23 184.29   Q 319.13 189.02 320.18 193.92   Q 320.29 194.44 319.77 194.52   L 315.19 195.30   A 0.38 0.37 2.4 0 1 314.76 194.84   Q 316.20 189.61 317.46 184.54   Z"></path>
  <path fill="#ea232a" d="   M 212.27 214.41   A 0.17 0.17 0.0 0 0 212.61 214.43   Q 215.66 201.65 218.46 189.59   C 219.18 186.51 220.12 184.83 223.59 185.62   C 226.85 186.36 227.04 190.68 227.11 193.26   Q 227.55 207.91 227.58 225.13   Q 227.59 227.57 225.16 227.68   L 224.67 227.70   Q 221.47 227.85 221.50 224.65   Q 221.56 215.79 222.00 206.47   Q 222.15 203.45 221.60 200.67   Q 221.46 199.94 221.38 200.68   Q 220.98 204.35 220.14 207.93   Q 218.10 216.55 216.35 224.79   C 215.85 227.13 214.65 229.94 211.73 229.55   Q 208.74 229.16 208.36 225.70   Q 207.09 214.19 205.52 203.02   Q 205.46 202.52 205.40 203.02   Q 204.06 215.17 203.52 227.50   Q 203.45 229.14 202.17 230.72   Q 201.78 231.20 201.17 231.24   C 196.77 231.53 197.05 226.44 197.43 223.37   Q 199.53 206.52 201.41 190.69   Q 201.61 188.99 203.27 188.36   C 209.11 186.13 210.25 194.21 210.54 198.02   Q 211.24 207.05 212.27 214.41   Z"></path>
  <path fill="#ffffff" d="   M 239.44 189.41   Q 246.55 188.89 248.13 196.37   Q 250.81 209.03 239.91 217.76   A 0.30 0.29 -18.2 0 1 239.43 217.52   L 240.40 191.40   A 1.24 1.21 -65.6 0 0 240.08 190.52   Q 239.76 190.18 239.34 190.01   Q 238.13 189.51 239.44 189.41   Z"></path>
  <path fill="#ea232a" d="   M 188.22 220.75   A 0.10 0.10 0.0 0 0 188.05 220.70   C 186.36 222.24 182.82 222.39 180.64 222.69   Q 179.99 222.78 179.85 223.43   L 177.81 233.36   Q 177.43 235.19 175.56 235.14   Q 175.20 235.13 174.85 235.06   Q 172.22 234.55 172.70 231.91   L 174.01 224.79   Q 174.09 224.31 173.86 223.88   Q 171.38 219.23 175.19 215.84   Q 175.56 215.50 175.69 215.02   Q 178.35 205.03 180.94 195.21   C 181.72 192.29 184.16 189.02 187.50 191.65   Q 188.73 192.62 189.04 194.18   Q 192.28 210.85 196.05 229.61   Q 196.65 232.61 193.59 232.73   L 192.81 232.76   Q 190.69 232.84 190.26 230.76   L 188.22 220.75   Z   M 181.79 215.52   A 0.11 0.10 3.5 0 0 181.91 215.65   L 187.03 214.93   A 0.37 0.36 80.5 0 0 187.34 214.49   L 185.16 204.01   Q 185.01 203.28 184.82 204.00   L 181.79 215.52   Z"></path>
  <path fill="#ffffff" d="   M 269.23 191.78   L 271.25 201.66   Q 271.37 202.25 270.77 202.33   L 266.43 202.90   Q 265.75 202.99 265.93 202.33   L 268.66 191.77   Q 268.97 190.56 269.23 191.78   Z"></path>
  <path fill="#ea232a" d="   M 150.53 205.15   Q 150.59 204.16 149.77 204.72   C 148.66 205.47 146.47 205.64 146.13 203.98   Q 144.80 197.39 151.53 195.82   C 157.48 194.42 164.23 194.01 167.87 199.90   C 171.02 205.00 171.07 212.24 170.61 218.04   C 169.93 226.73 164.70 234.73 156.45 238.09   C 152.11 239.86 149.71 235.42 149.68 231.75   Q 149.58 218.93 150.53 205.15   Z   M 156.05 202.92   A 0.92 0.89 -80.1 0 1 156.66 203.81   L 155.66 229.92   Q 155.63 230.66 156.22 230.20   C 163.76 224.24 167.20 215.14 163.29 205.98   Q 161.22 201.12 155.54 202.06   Q 154.89 202.17 155.40 202.58   Q 155.69 202.80 156.05 202.92   Z"></path>
  <path fill="#ffffff" d="   M 156.05 202.92   Q 155.69 202.80 155.40 202.58   Q 154.89 202.17 155.54 202.06   Q 161.22 201.12 163.29 205.98   C 167.20 215.14 163.76 224.24 156.22 230.20   Q 155.63 230.66 155.66 229.92   L 156.66 203.81   A 0.92 0.89 -80.1 0 0 156.05 202.92   Z"></path>
  <path fill="#ffffff" d="   M 181.79 215.52   L 184.82 204.00   Q 185.01 203.28 185.16 204.01   L 187.34 214.49   A 0.37 0.36 80.5 0 1 187.03 214.93   L 181.91 215.65   A 0.11 0.10 3.5 0 1 181.79 215.52   Z"></path>
  <path fill="#27387f" d="   M 32.52 233.42   C 46.37 225.90 63.67 224.60 78.79 228.69   Q 80.41 229.13 81.02 231.14   C 81.81 233.73 80.36 235.93 77.88 236.59   C 69.12 238.93 61.54 243.04 55.17 249.37   C 49.84 254.65 42.94 260.10 35.68 261.11   C 28.13 262.16 21.29 257.44 21.05 249.61   C 20.84 242.53 26.48 236.71 32.52 233.42   Z   M 53.81 246.26   C 59.95 240.05 68.53 235.95 77.21 233.45   A 0.97 0.96 -39.7 0 0 77.38 231.66   Q 76.47 231.21 75.48 231.00   C 60.74 227.96 44.88 229.44 32.13 237.36   Q 27.35 240.33 25.09 245.10   C 22.56 250.46 25.30 256.51 31.13 257.90   C 39.20 259.82 48.58 251.55 53.81 246.26   Z"></path>
  <path fill="#ffffff" d="   M 53.81 246.26   C 48.58 251.55 39.20 259.82 31.13 257.90   C 25.30 256.51 22.56 250.46 25.09 245.10   Q 27.35 240.33 32.13 237.36   C 44.88 229.44 60.74 227.96 75.48 231.00   Q 76.47 231.21 77.38 231.66   A 0.97 0.96 -39.7 0 1 77.21 233.45   C 68.53 235.95 59.95 240.05 53.81 246.26   Z"></path>
  <path fill="#27387f" d="   M 70.23 278.24   Q 61.19 286.43 56.88 298.80   C 54.36 306.04 50.32 311.13 42.07 311.71   C 33.22 312.34 29.20 304.55 31.36 296.80   Q 32.44 292.93 34.52 289.83   C 42.76 277.50 56.48 270.36 71.32 267.78   Q 74.01 267.32 75.40 269.12   C 77.92 272.37 72.23 276.44 70.23 278.24   Z   M 55.60 293.60   C 58.86 284.96 65.50 277.71 72.60 271.90   Q 72.78 271.75 72.88 271.55   Q 73.09 271.09 72.42 270.85   A 0.77 0.71 -36.3 0 0 72.04 270.81   Q 52.21 274.21 40.27 287.50   Q 35.57 292.73 34.13 298.62   C 32.96 303.44 35.50 308.59 40.94 308.61   C 50.50 308.64 52.84 300.94 55.60 293.60   Z"></path>
  <path fill="#ffffff" d="   M 72.60 271.90   C 65.50 277.71 58.86 284.96 55.60 293.60   C 52.84 300.94 50.50 308.64 40.94 308.61   C 35.50 308.59 32.96 303.44 34.13 298.62   Q 35.57 292.73 40.27 287.50   Q 52.21 274.21 72.04 270.81   A 0.77 0.71 -36.3 0 1 72.42 270.85   Q 73.09 271.09 72.88 271.55   Q 72.78 271.75 72.60 271.90   Z"></path>
  <path fill="#27387f" d="   M 369.9413 276.5502   A 13.30 10.56 -29.8 0 1 363.6480 292.3236   A 13.30 10.56 -29.8 0 1 346.8587 289.7698   A 13.30 10.56 -29.8 0 1 353.1520 273.9964   A 13.30 10.56 -29.8 0 1 369.9413 276.5502   Z   M 367.1799 278.0647   A 10.16 7.41 -30.1 0 0 354.6738 276.7492   A 10.16 7.41 -30.1 0 0 349.6001 288.2553   A 10.16 7.41 -30.1 0 0 362.1062 289.5708   A 10.16 7.41 -30.1 0 0 367.1799 278.0647   Z"></path>
  <ellipse fill="#ffffff" cx="0.00" cy="0.00" transform="translate(358.39,283.16) rotate(-30.1)" rx="10.16" ry="7.41"></ellipse>
  <path fill="#27387f" d="   M 181.00 317.71   C 174.05 314.02 174.20 305.58 177.06 299.22   C 181.72 288.84 190.06 281.09 200.87 277.74   C 204.51 276.61 207.41 280.00 205.55 283.40   Q 201.72 290.37 201.35 298.09   C 200.93 306.93 198.69 316.71 188.83 318.78   Q 184.67 319.66 181.00 317.71   Z   M 198.12 299.16   C 198.44 293.35 199.67 287.56 202.46 282.42   Q 203.74 280.06 201.21 280.96   Q 184.80 286.75 178.93 303.30   C 177.46 307.47 178.27 312.87 182.65 315.05   C 188.16 317.81 194.32 313.93 196.22 308.66   Q 197.86 304.10 198.12 299.16   Z"></path>
  <path fill="#ffffff" d="   M 198.12 299.16   Q 197.86 304.10 196.22 308.66   C 194.32 313.93 188.16 317.81 182.65 315.05   C 178.27 312.87 177.46 307.47 178.93 303.30   Q 184.80 286.75 201.21 280.96   Q 203.74 280.06 202.46 282.42   C 199.67 287.56 198.44 293.35 198.12 299.16   Z"></path>
</svg>
