<?xml version="1.0" encoding="UTF-8" standalone="no"?>
<svg xmlns="http://www.w3.org/2000/svg" version="1.1" viewBox="0.00 0.00 288.00 169.00">
  <g stroke-width="2.00" fill="none" stroke-linecap="butt">
    <path stroke="#765b37" vector-effect="non-scaling-stroke" d="   M 10.54 91.32   Q 10.97 90.06 10.69 87.94"></path>
    <path stroke="#f58e92" vector-effect="non-scaling-stroke" d="   M 197.37 76.85   Q 197.71 76.35 198.25 76.05   Q 211.06 68.96 221.55 61.86   C 225.27 59.34 231.44 54.84 233.16 50.49   A 2.53 2.52 -66.6 0 0 231.89 47.27   L 229.74 46.25   A 1.37 1.37 0.0 0 1 229.53 43.89   Q 232.40 41.86 235.55 40.65   Q 236.86 40.14 235.91 39.11   C 232.92 35.86 237.74 33.83 239.56 32.10   Q 241.65 30.11 238.94 31.09   Q 229.03 34.66 219.37 39.08   C 216.86 40.23 217.55 41.44 216.56 43.40   Q 216.32 43.87 215.79 43.91   Q 213.13 44.14 210.99 45.29   C 200.82 50.73 189.34 57.77 180.79 65.79   Q 178.79 67.66 177.90 70.37   A 1.97 1.96 25.2 0 0 178.73 72.65   Q 183.91 75.86 189.49 78.59   C 192.99 80.29 197.71 84.08 194.64 88.50   Q 188.11 97.89 176.84 105.32   Q 175.52 106.19 174.05 106.47   Q 171.17 107.02 171.39 103.83   C 171.74 98.65 172.74 93.33 170.94 88.28   A 1.77 1.76 -33.0 0 1 171.33 86.46   Q 173.09 84.61 173.61 82.18   Q 176.23 69.88 178.89 58.12   C 179.82 54.00 180.31 49.75 180.66 45.57   A 0.41 0.41 0.0 0 0 179.98 45.22   Q 175.35 49.12 174.80 53.26   C 174.48 55.67 172.15 57.17 170.85 59.10   Q 170.40 59.77 169.61 59.61   C 167.46 59.17 164.99 58.91 163.58 60.99   Q 160.39 65.73 157.59 70.48   C 153.71 77.07 152.19 85.25 151.11 92.70   Q 150.56 96.50 149.41 100.16   C 148.24 103.85 142.91 114.38 146.90 117.50   C 148.52 118.77 150.99 118.73 152.99 118.88   C 164.17 119.71 175.39 116.73 184.14 109.61   Q 189.60 105.16 196.52 101.35   C 201.07 98.84 207.07 93.84 206.78 88.18   C 206.52 83.03 202.29 79.27 197.61 77.61   A 0.50 0.50 0.0 0 1 197.37 76.85"></path>
    <path stroke="#f58e92" vector-effect="non-scaling-stroke" d="   M 63.29 124.03   L 62.19 125.70   A 0.50 0.50 0.0 0 0 62.68 126.47   Q 63.73 126.30 64.56 125.58   Q 72.71 118.52 79.51 109.22   C 83.71 103.47 87.64 97.06 92.97 92.38   A 1.14 1.14 0.0 0 1 94.84 93.03   Q 95.29 95.45 94.69 97.89   Q 92.69 106.12 89.57 114.66   C 88.24 118.27 87.96 122.83 92.33 124.38   C 99.33 126.86 114.13 116.15 120.29 111.15   C 124.76 107.52 127.97 103.74 130.14 98.37   Q 139.61 74.96 149.23 51.14   C 150.53 47.93 156.18 31.43 146.38 34.25   C 143.34 35.12 142.81 38.09 139.91 38.77   C 127.21 41.72 124.02 52.37 125.01 63.96   Q 125.04 64.33 125.40 64.43   Q 125.55 64.48 125.68 64.39   Q 125.98 64.17 126.07 63.81   C 126.78 61.15 127.85 56.81 130.00 55.01   Q 131.56 53.70 130.91 55.63   Q 123.46 77.71 115.30 102.16   C 114.60 104.27 111.99 108.52 109.26 107.95   A 0.92 0.92 0.0 0 1 108.54 106.90   C 109.09 103.65 110.27 100.25 111.67 97.33   Q 115.72 88.82 117.93 79.79   C 119.88 71.78 113.60 67.31 106.34 69.46   Q 102.75 70.52 99.05 73.33   C 91.29 79.22 84.36 86.59 78.31 94.11   C 68.11 106.79 56.49 117.76 48.82 132.10   Q 48.24 133.19 49.07 134.10   L 51.48 136.73   Q 52.31 137.64 52.91 136.56   Q 57.04 129.17 62.16 123.37   A 0.60 0.60 0.0 0 1 62.93 123.26   L 63.16 123.41   A 0.44 0.44 0.0 0 1 63.29 124.03"></path>
  </g>
  <path fill="#009849" d="   M 54.63 37.40   Q 63.46 32.08 73.13 27.49   Q 127.48 1.67 189.30 1.19   C 212.16 1.02 237.73 5.93 258.17 16.61   C 281.52 28.80 292.56 51.73 280.74 76.75   Q 280.72 76.79 280.67 76.78   L 280.40 76.67   Q 280.23 76.61 280.27 76.43   C 287.29 50.03 265.19 32.20 243.81 23.15   Q 227.20 16.12 207.53 13.19   C 178.47 8.87 149.17 9.92 120.16 15.26   Q 85.75 21.61 54.88 37.74   Q 54.79 37.79 54.74 37.70   L 54.61 37.47   Q 54.58 37.43 54.63 37.40   Z"></path>
  <path fill="#eb1d25" d="   M 10.54 91.32   Q 10.97 90.06 10.69 87.94   Q 12.23 85.20 13.54 82.21   C 18.00 72.00 25.24 63.36 33.96 56.17   C 52.81 40.66 76.45 30.09 100.10 23.59   Q 142.67 11.89 185.26 14.31   Q 206.31 15.51 225.40 20.85   C 242.69 25.69 261.26 34.31 271.48 48.56   C 291.95 77.10 266.51 105.38 243.41 120.43   Q 227.95 130.50 210.01 137.34   Q 169.16 152.94 122.78 154.05   Q 101.04 154.57 79.68 150.77   C 55.39 146.45 22.56 135.22 12.57 110.41   Q 9.29 102.25 10.54 91.32   Z   M 197.37 76.85   Q 197.71 76.35 198.25 76.05   Q 211.06 68.96 221.55 61.86   C 225.27 59.34 231.44 54.84 233.16 50.49   A 2.53 2.52 -66.6 0 0 231.89 47.27   L 229.74 46.25   A 1.37 1.37 0.0 0 1 229.53 43.89   Q 232.40 41.86 235.55 40.65   Q 236.86 40.14 235.91 39.11   C 232.92 35.86 237.74 33.83 239.56 32.10   Q 241.65 30.11 238.94 31.09   Q 229.03 34.66 219.37 39.08   C 216.86 40.23 217.55 41.44 216.56 43.40   Q 216.32 43.87 215.79 43.91   Q 213.13 44.14 210.99 45.29   C 200.82 50.73 189.34 57.77 180.79 65.79   Q 178.79 67.66 177.90 70.37   A 1.97 1.96 25.2 0 0 178.73 72.65   Q 183.91 75.86 189.49 78.59   C 192.99 80.29 197.71 84.08 194.64 88.50   Q 188.11 97.89 176.84 105.32   Q 175.52 106.19 174.05 106.47   Q 171.17 107.02 171.39 103.83   C 171.74 98.65 172.74 93.33 170.94 88.28   A 1.77 1.76 -33.0 0 1 171.33 86.46   Q 173.09 84.61 173.61 82.18   Q 176.23 69.88 178.89 58.12   C 179.82 54.00 180.31 49.75 180.66 45.57   A 0.41 0.41 0.0 0 0 179.98 45.22   Q 175.35 49.12 174.80 53.26   C 174.48 55.67 172.15 57.17 170.85 59.10   Q 170.40 59.77 169.61 59.61   C 167.46 59.17 164.99 58.91 163.58 60.99   Q 160.39 65.73 157.59 70.48   C 153.71 77.07 152.19 85.25 151.11 92.70   Q 150.56 96.50 149.41 100.16   C 148.24 103.85 142.91 114.38 146.90 117.50   C 148.52 118.77 150.99 118.73 152.99 118.88   C 164.17 119.71 175.39 116.73 184.14 109.61   Q 189.60 105.16 196.52 101.35   C 201.07 98.84 207.07 93.84 206.78 88.18   C 206.52 83.03 202.29 79.27 197.61 77.61   A 0.50 0.50 0.0 0 1 197.37 76.85   Z   M 63.29 124.03   L 62.19 125.70   A 0.50 0.50 0.0 0 0 62.68 126.47   Q 63.73 126.30 64.56 125.58   Q 72.71 118.52 79.51 109.22   C 83.71 103.47 87.64 97.06 92.97 92.38   A 1.14 1.14 0.0 0 1 94.84 93.03   Q 95.29 95.45 94.69 97.89   Q 92.69 106.12 89.57 114.66   C 88.24 118.27 87.96 122.83 92.33 124.38   C 99.33 126.86 114.13 116.15 120.29 111.15   C 124.76 107.52 127.97 103.74 130.14 98.37   Q 139.61 74.96 149.23 51.14   C 150.53 47.93 156.18 31.43 146.38 34.25   C 143.34 35.12 142.81 38.09 139.91 38.77   C 127.21 41.72 124.02 52.37 125.01 63.96   Q 125.04 64.33 125.40 64.43   Q 125.55 64.48 125.68 64.39   Q 125.98 64.17 126.07 63.81   C 126.78 61.15 127.85 56.81 130.00 55.01   Q 131.56 53.70 130.91 55.63   Q 123.46 77.71 115.30 102.16   C 114.60 104.27 111.99 108.52 109.26 107.95   A 0.92 0.92 0.0 0 1 108.54 106.90   C 109.09 103.65 110.27 100.25 111.67 97.33   Q 115.72 88.82 117.93 79.79   C 119.88 71.78 113.60 67.31 106.34 69.46   Q 102.75 70.52 99.05 73.33   C 91.29 79.22 84.36 86.59 78.31 94.11   C 68.11 106.79 56.49 117.76 48.82 132.10   Q 48.24 133.19 49.07 134.10   L 51.48 136.73   Q 52.31 137.64 52.91 136.56   Q 57.04 129.17 62.16 123.37   A 0.60 0.60 0.0 0 1 62.93 123.26   L 63.16 123.41   A 0.44 0.44 0.0 0 1 63.29 124.03   Z"></path>
  <path fill="#ffffff" d="   M 197.37 76.85   A 0.50 0.50 0.0 0 0 197.61 77.61   C 202.29 79.27 206.52 83.03 206.78 88.18   C 207.07 93.84 201.07 98.84 196.52 101.35   Q 189.60 105.16 184.14 109.61   C 175.39 116.73 164.17 119.71 152.99 118.88   C 150.99 118.73 148.52 118.77 146.90 117.50   C 142.91 114.38 148.24 103.85 149.41 100.16   Q 150.56 96.50 151.11 92.70   C 152.19 85.25 153.71 77.07 157.59 70.48   Q 160.39 65.73 163.58 60.99   C 164.99 58.91 167.46 59.17 169.61 59.61   Q 170.40 59.77 170.85 59.10   C 172.15 57.17 174.48 55.67 174.80 53.26   Q 175.35 49.12 179.98 45.22   A 0.41 0.41 0.0 0 1 180.66 45.57   C 180.31 49.75 179.82 54.00 178.89 58.12   Q 176.23 69.88 173.61 82.18   Q 173.09 84.61 171.33 86.46   A 1.77 1.76 -33.0 0 0 170.94 88.28   C 172.74 93.33 171.74 98.65 171.39 103.83   Q 171.17 107.02 174.05 106.47   Q 175.52 106.19 176.84 105.32   Q 188.11 97.89 194.64 88.50   C 197.71 84.08 192.99 80.29 189.49 78.59   Q 183.91 75.86 178.73 72.65   A 1.97 1.96 25.2 0 1 177.90 70.37   Q 178.79 67.66 180.79 65.79   C 189.34 57.77 200.82 50.73 210.99 45.29   Q 213.13 44.14 215.79 43.91   Q 216.32 43.87 216.56 43.40   C 217.55 41.44 216.86 40.23 219.37 39.08   Q 229.03 34.66 238.94 31.09   Q 241.65 30.11 239.56 32.10   C 237.74 33.83 232.92 35.86 235.91 39.11   Q 236.86 40.14 235.55 40.65   Q 232.40 41.86 229.53 43.89   A 1.37 1.37 0.0 0 0 229.74 46.25   L 231.89 47.27   A 2.53 2.52 -66.6 0 1 233.16 50.49   C 231.44 54.84 225.27 59.34 221.55 61.86   Q 211.06 68.96 198.25 76.05   Q 197.71 76.35 197.37 76.85   Z"></path>
  <path fill="#ffffff" d="   M 63.29 124.03   A 0.44 0.44 0.0 0 0 63.16 123.41   L 62.93 123.26   A 0.60 0.60 0.0 0 0 62.16 123.37   Q 57.04 129.17 52.91 136.56   Q 52.31 137.64 51.48 136.73   L 49.07 134.10   Q 48.24 133.19 48.82 132.10   C 56.49 117.76 68.11 106.79 78.31 94.11   C 84.36 86.59 91.29 79.22 99.05 73.33   Q 102.75 70.52 106.34 69.46   C 113.60 67.31 119.88 71.78 117.93 79.79   Q 115.72 88.82 111.67 97.33   C 110.27 100.25 109.09 103.65 108.54 106.90   A 0.92 0.92 0.0 0 0 109.26 107.95   C 111.99 108.52 114.60 104.27 115.30 102.16   Q 123.46 77.71 130.91 55.63   Q 131.56 53.70 130.00 55.01   C 127.85 56.81 126.78 61.15 126.07 63.81   Q 125.98 64.17 125.68 64.39   Q 125.55 64.48 125.40 64.43   Q 125.04 64.33 125.01 63.96   C 124.02 52.37 127.21 41.72 139.91 38.77   C 142.81 38.09 143.34 35.12 146.38 34.25   C 156.18 31.43 150.53 47.93 149.23 51.14   Q 139.61 74.96 130.14 98.37   C 127.97 103.74 124.76 107.52 120.29 111.15   C 114.13 116.15 99.33 126.86 92.33 124.38   C 87.96 122.83 88.24 118.27 89.57 114.66   Q 92.69 106.12 94.69 97.89   Q 95.29 95.45 94.84 93.03   A 1.14 1.14 0.0 0 0 92.97 92.38   C 87.64 97.06 83.71 103.47 79.51 109.22   Q 72.71 118.52 64.56 125.58   Q 63.73 126.30 62.68 126.47   A 0.50 0.50 0.0 0 1 62.19 125.70   L 63.29 124.03   Z"></path>
  <path fill="#009849" d="   M 10.69 87.94   Q 10.97 90.06 10.54 91.32   Q 7.95 96.00 7.97 101.51   C 8.02 117.67 17.94 130.08 31.24 138.02   C 50.27 149.37 72.23 154.48 94.28 156.43   Q 153.40 161.66 209.10 142.03   C 214.10 140.27 219.11 138.12 224.11 136.18   Q 226.22 135.36 224.22 136.43   Q 216.86 140.36 208.92 143.69   Q 191.74 150.91 180.05 154.56   Q 131.30 169.78 82.31 165.85   Q 60.93 164.14 40.67 156.59   C 20.91 149.24 1.72 132.43 3.60 109.27   Q 4.53 97.75 10.69 87.94   Z"></path>
</svg>
