<?xml version="1.0" encoding="UTF-8" standalone="no"?>
<!DOCTYPE svg PUBLIC "-//W3C//DTD SVG 1.1//EN" "http://www.w3.org/Graphics/SVG/1.1/DTD/svg11.dtd">
<svg xmlns="http://www.w3.org/2000/svg" version="1.1" viewBox="0.00 0.00 709.00 496.00">
<g stroke-width="2.00" fill="none" stroke-linecap="butt">
<path stroke="#d4f0fc" vector-effect="non-scaling-stroke" d="
  M 468.76 89.47
  Q 464.69 89.68 460.50 88.81
  Q 450.02 86.63 436.83 85.24
  Q 434.31 84.97 431.85 84.68
  Q 394.85 80.36 353.97 81.94
  C 348.52 82.15 343.08 81.89 337.66 82.72
  Q 337.50 82.75 337.32 82.72
  Q 337.21 82.70 337.15 82.59
  Q 336.73 81.84 336.73 82.70
  Q 336.73 83.91 336.97 85.03
  A 1.79 1.79 0.0 0 0 338.73 86.44
  Q 354.64 86.30 370.22 87.06
  Q 424.60 89.72 475.70 104.00
  Q 499.28 110.59 522.72 120.52
  C 560.02 136.30 595.88 158.77 621.80 190.16
  Q 637.64 209.33 646.03 232.24
  Q 651.29 246.58 651.83 259.70
  Q 651.92 261.98 652.06 264.35
  C 653.03 281.33 650.27 297.26 643.44 312.89
  Q 634.54 333.30 620.94 348.54
  Q 608.03 363.00 597.00 372.14
  Q 587.01 380.41 573.86 388.70
  Q 573.70 388.80 573.80 388.95
  L 573.80 388.96
  Q 573.88 389.09 574.02 389.01
  Q 586.23 381.95 597.48 373.96
  Q 598.27 373.40 598.98 372.62
  Q 599.69 371.85 600.57 371.34
  Q 602.80 370.07 602.86 370.03
  Q 612.55 363.06 618.47 357.72
  Q 628.77 348.45 639.93 335.37
  Q 651.05 322.32 659.32 306.24
  Q 670.07 285.35 672.14 262.51
  Q 672.25 261.30 672.33 255.98
  Q 672.38 252.66 672.90 249.45"
/>
<path stroke="#d4f0fc" vector-effect="non-scaling-stroke" d="
  M 226.29 436.87
  Q 228.83 436.21 231.12 436.88
  Q 234.22 437.79 235.05 437.90
  C 238.58 438.36 242.17 439.62 245.36 440.12
  Q 254.21 441.48 263.26 442.97
  Q 267.54 443.67 271.79 444.07
  C 278.92 444.75 285.87 445.59 293.19 446.11
  Q 312.20 447.48 321.79 447.72
  Q 366.16 448.82 406.67 442.98
  Q 427.49 439.97 442.09 437.11
  Q 455.70 434.45 469.04 431.09
  Q 472.34 430.26 475.69 429.23
  Q 475.71 429.22 475.70 429.20
  L 475.63 428.96
  Q 475.57 428.76 475.37 428.81
  Q 453.46 434.38 430.92 437.76
  Q 421.77 439.14 411.04 439.95
  Q 391.54 441.42 371.50 441.98
  Q 357.42 442.37 344.45 441.66
  Q 334.54 441.12 324.47 440.44
  Q 312.60 439.65 298.50 437.79
  Q 246.79 430.99 201.91 414.38
  Q 175.60 404.64 152.87 391.84
  C 112.41 369.05 74.00 335.33 60.38 289.23
  C 50.90 257.20 57.50 223.66 75.84 195.71
  Q 88.44 176.50 104.19 162.68
  Q 110.60 157.05 117.02 152.13
  Q 117.12 152.05 117.09 151.93
  Q 117.05 151.75 116.91 151.75
  Q 116.74 151.74 116.60 151.83
  Q 114.35 153.29 111.84 155.19
  Q 103.47 161.50 95.08 168.39
  C 87.61 174.53 80.59 180.77 74.35 187.91
  Q 71.34 191.35 68.17 195.17
  Q 53.31 213.02 44.65 234.25
  Q 39.21 247.58 37.83 259.75
  Q 37.11 266.15 36.35 284.30"
/>
<path stroke="#81a6d0" vector-effect="non-scaling-stroke" d="
  M 276.07 72.76
  C 279.91 73.34 283.43 75.49 285.57 78.62
  C 287.25 81.09 286.87 83.62 284.99 85.94
  Q 283.41 87.89 281.08 88.04
  C 276.52 88.34 272.04 85.85 268.24 83.68
  C 260.53 79.29 250.40 79.14 242.33 82.08
  Q 232.86 85.53 228.26 95.62
  Q 225.44 101.81 226.82 108.57
  Q 228.24 115.57 231.97 120.74
  C 244.58 138.22 263.16 148.05 284.46 154.91
  Q 291.89 157.30 299.61 159.13
  Q 300.47 159.34 300.91 158.58
  Q 313.52 136.85 320.91 112.01
  Q 323.50 103.34 324.61 93.43
  C 325.92 81.76 324.41 67.92 314.36 60.20
  C 300.22 49.32 285.15 60.34 275.74 71.92
  A 0.52 0.51 24.0 0 0 276.07 72.76"
/>
<path stroke="#81a6d0" vector-effect="non-scaling-stroke" d="
  M 325.71 135.11
  Q 315.99 155.52 303.53 172.50
  Q 303.04 173.16 302.26 172.92
  Q 273.57 164.18 250.95 151.63
  C 236.17 143.43 220.47 131.96 215.06 115.26
  Q 214.84 114.55 214.13 114.77
  Q 187.95 122.74 163.95 134.54
  C 137.39 147.59 112.68 164.73 93.90 187.18
  Q 82.23 201.13 75.85 214.89
  Q 54.38 261.19 77.77 307.46
  C 89.00 329.68 108.02 349.53 128.07 364.40
  C 158.94 387.30 194.07 403.33 231.11 414.14
  Q 290.30 431.41 355.77 432.48
  Q 412.56 433.41 466.47 421.20
  C 502.92 412.93 538.42 399.58 570.00 379.71
  C 600.90 360.27 630.30 331.05 639.72 294.75
  C 648.32 261.61 639.26 228.99 618.89 201.85
  C 593.59 168.15 554.87 143.76 514.98 127.49
  Q 470.29 109.27 419.20 101.53
  Q 377.72 95.25 337.35 96.02
  Q 336.89 96.03 336.79 96.47
  Q 336.30 98.56 336.08 100.75
  Q 335.21 109.39 330.53 122.70
  Q 329.49 125.68 328.29 128.99
  Q 327.17 132.06 325.71 135.11"
/>
<path stroke="#81a6d0" vector-effect="non-scaling-stroke" d="
  M 256.08 225.41
  Q 257.12 208.45 246.10 196.33
  C 233.98 182.98 214.70 180.79 199.46 190.04
  Q 198.95 190.34 198.50 189.96
  L 163.05 159.71
  Q 162.71 159.42 162.39 159.73
  C 155.35 166.75 148.39 173.88 142.72 182.11
  Q 123.81 209.52 118.46 243.50
  C 111.62 286.93 124.32 332.94 164.23 355.71
  Q 185.60 367.91 210.75 368.81
  Q 248.63 370.18 279.73 349.42
  Q 293.36 340.32 301.60 326.99
  A 0.53 0.53 0.0 0 1 302.53 327.05
  C 308.70 340.46 320.58 348.20 335.02 350.19
  C 352.77 352.63 371.95 346.02 385.68 334.32
  A 0.48 0.48 0.0 0 1 386.47 334.63
  C 390.08 363.13 422.14 378.37 445.35 359.63
  A 0.82 0.81 -46.0 0 1 446.34 359.61
  C 460.53 370.23 478.71 370.27 492.08 358.64
  Q 504.31 348.00 505.20 330.82
  A 0.54 0.54 0.0 0 1 506.02 330.39
  C 531.17 345.81 562.09 323.64 578.75 305.58
  Q 596.17 286.71 602.22 261.33
  C 608.18 236.33 599.48 210.50 576.04 198.85
  C 564.96 193.35 550.61 192.91 538.64 196.11
  Q 526.78 199.29 513.83 207.70
  Q 498.48 217.68 485.07 230.82
  A 0.75 0.75 0.0 0 1 483.85 230.57
  L 467.66 190.79
  A 0.48 0.48 0.0 0 0 467.01 190.54
  L 442.25 202.57
  A 0.42 0.42 0.0 0 1 441.65 202.24
  C 440.44 191.41 434.30 180.76 427.27 173.12
  C 418.48 163.59 406.85 157.80 394.04 158.12
  C 368.59 158.75 352.28 175.84 345.77 199.24
  Q 342.10 212.41 342.71 225.32
  Q 342.74 226.00 342.09 226.18
  C 322.85 231.44 299.95 227.42 284.66 215.14
  Q 279.51 211.00 273.88 206.49
  Q 273.39 206.09 272.98 206.58
  L 257.03 225.78
  Q 255.98 227.04 256.08 225.41"
/>
<path stroke="#f68e93" vector-effect="non-scaling-stroke" d="
  M 448.80 255.41
  C 441.04 269.10 422.63 267.61 409.54 263.21
  Q 390.03 256.66 382.23 238.53
  C 378.27 229.31 377.67 217.89 380.51 208.18
  C 382.56 201.17 388.25 193.12 396.81 196.88
  Q 402.99 199.60 404.13 206.08
  Q 405.71 215.06 402.42 226.07
  Q 399.68 235.23 396.00 243.88
  Q 395.54 244.96 396.42 245.73
  Q 404.83 253.11 414.41 257.24
  Q 415.53 257.72 416.03 256.62
  Q 419.68 248.70 422.71 241.12
  Q 428.29 227.17 429.22 211.98
  C 429.93 200.42 426.39 191.22 418.63 182.49
  Q 405.05 167.19 385.71 172.04
  C 360.25 178.42 353.57 208.68 355.68 231.22
  C 357.28 248.30 367.16 265.16 381.69 275.90
  C 404.07 292.44 434.01 297.12 457.82 280.63
  C 460.58 278.73 463.04 276.57 465.56 274.40
  A 1.76 1.75 53.0 0 1 468.18 274.77
  C 470.90 278.95 473.82 283.65 477.75 286.73
  C 479.92 288.43 482.43 287.19 484.17 285.65
  Q 488.32 281.99 491.99 278.33
  Q 504.57 265.80 518.08 251.90
  C 527.36 242.34 537.19 234.90 550.29 233.53
  C 563.90 232.11 570.00 246.87 565.88 258.05
  Q 559.80 274.53 545.36 288.39
  C 540.04 293.49 531.13 298.49 524.23 293.04
  C 519.22 289.08 528.13 281.32 524.91 275.41
  C 523.06 272.02 516.18 266.25 511.61 268.65
  C 499.96 274.77 497.66 287.40 498.91 299.99
  Q 499.48 305.71 502.82 310.36
  C 521.30 336.06 549.46 316.37 565.58 300.90
  Q 582.39 284.76 588.82 262.51
  Q 592.91 248.35 590.31 236.35
  C 586.67 219.59 573.66 207.63 556.42 207.01
  C 545.81 206.62 536.57 209.33 527.49 214.37
  C 510.84 223.63 495.57 237.01 483.19 250.98
  C 482.06 252.26 480.42 252.30 479.56 250.71
  Q 475.62 243.47 471.69 234.20
  Q 466.35 221.60 461.31 208.82
  A 1.17 1.17 0.0 0 0 459.71 208.19
  L 439.49 217.99
  Q 438.11 218.66 438.76 220.05
  Q 441.88 226.78 444.89 233.23
  C 446.75 237.20 451.58 250.51 448.80 255.41"
/>
<path stroke="#f68e93" vector-effect="non-scaling-stroke" d="
  M 320.99 269.00
  C 314.51 279.83 310.99 293.12 310.89 305.09
  Q 310.80 315.27 314.35 322.46
  C 319.85 333.59 331.67 338.45 343.79 337.94
  C 361.65 337.19 377.25 328.33 386.94 313.30
  Q 393.09 303.76 397.10 295.11
  Q 397.50 294.24 396.59 293.95
  Q 385.13 290.20 376.76 283.00
  A 0.80 0.80 0.0 0 0 375.51 283.29
  Q 371.98 291.50 366.65 299.53
  Q 359.72 309.98 348.37 312.00
  C 344.53 312.68 339.62 312.54 337.29 308.85
  C 328.07 294.26 349.25 273.16 359.43 263.97
  A 0.95 0.95 0.0 0 0 359.56 262.69
  Q 351.36 251.70 348.82 238.74
  A 0.79 0.78 -13.5 0 0 347.83 238.14
  C 333.23 242.40 317.63 242.17 302.54 238.15
  Q 287.72 234.20 275.63 224.23
  A 0.56 0.55 39.5 0 0 274.85 224.30
  L 259.03 243.00
  A 1.44 1.43 47.4 0 0 258.96 244.76
  Q 268.77 258.54 273.39 272.04
  C 277.57 284.22 276.51 298.07 268.05 308.13
  C 255.32 323.26 233.03 328.57 213.90 327.05
  C 188.60 325.04 168.13 314.51 159.23 289.56
  C 147.60 257.00 160.68 219.44 182.39 193.76
  A 0.70 0.69 -50.5 0 0 182.30 192.78
  L 163.86 177.29
  Q 163.45 176.94 163.07 177.34
  C 138.65 203.17 127.35 240.46 129.74 275.29
  C 132.11 309.74 151.06 339.51 184.63 351.04
  Q 191.98 353.57 197.61 354.61
  Q 226.22 359.93 254.29 348.67
  C 278.84 338.83 297.19 321.40 299.22 293.67
  Q 300.07 281.93 298.32 266.36
  Q 298.25 265.79 298.80 265.93
  Q 309.90 268.68 320.64 268.41
  Q 321.35 268.39 320.99 269.00"
/>
<path stroke="#f68e93" vector-effect="non-scaling-stroke" d="
  M 219.2220 247.0594
  A 24.64 23.75 89.6 0 0 242.7994 222.2542
  A 24.64 23.75 89.6 0 0 218.8780 197.7806
  A 24.64 23.75 89.6 0 0 195.3006 222.5858
  A 24.64 23.75 89.6 0 0 219.2220 247.0594"
/>
<path stroke="#81a6d0" vector-effect="non-scaling-stroke" d="
  M 215.37 260.27
  C 204.81 259.36 194.74 253.13 188.87 244.42
  Q 180.02 231.28 182.60 216.08
  A 0.35 0.35 0.0 0 0 182.19 215.68
  Q 181.89 215.74 181.74 216.00
  C 168.91 237.85 162.47 265.25 172.54 288.73
  C 176.31 297.53 182.62 304.57 191.09 308.44
  Q 216.16 319.88 243.10 310.40
  C 250.47 307.81 258.57 302.18 261.60 294.50
  C 264.23 287.84 263.21 279.15 260.29 272.51
  Q 254.96 260.37 246.57 248.93
  A 0.53 0.52 -40.4 0 0 245.77 248.87
  Q 232.99 261.78 215.37 260.27"
/>
<path stroke="#81a6d0" vector-effect="non-scaling-stroke" d="
  M 539.35 276.98
  C 544.68 270.79 549.46 263.95 552.93 256.70
  C 554.85 252.68 555.90 244.76 548.60 246.14
  C 541.62 247.46 533.02 254.82 528.17 259.81
  A 0.66 0.66 0.0 0 0 528.24 260.79
  C 533.30 264.63 537.75 270.37 538.42 276.75
  Q 538.45 277.10 538.79 277.17
  Q 539.13 277.25 539.35 276.98"
/>
<path stroke="#f68e93" vector-effect="non-scaling-stroke" d="
  M 446.10 337.07
  Q 448.47 346.01 456.63 351.21
  C 469.85 359.63 486.46 352.38 491.15 338.15
  C 496.10 323.15 486.13 305.82 469.43 305.48
  C 458.54 305.27 448.76 312.62 446.18 323.00
  Q 445.77 324.63 445.29 323.02
  C 440.21 306.21 419.51 299.68 406.46 312.45
  C 396.38 322.31 396.60 338.57 406.43 348.31
  C 419.46 361.23 440.75 354.67 445.43 337.07
  Q 445.77 335.81 446.10 337.07"
/>
</g>
<path fill="#ffffff" d="
  M 468.76 89.47
  Q 464.69 89.68 460.50 88.81
  Q 450.02 86.63 436.83 85.24
  Q 434.31 84.97 431.85 84.68
  Q 394.85 80.36 353.97 81.94
  C 348.52 82.15 343.08 81.89 337.66 82.72
  Q 337.50 82.75 337.32 82.72
  Q 337.21 82.70 337.15 82.59
  Q 336.73 81.84 336.73 82.70
  Q 336.73 83.91 336.97 85.03
  A 1.79 1.79 0.0 0 0 338.73 86.44
  Q 354.64 86.30 370.22 87.06
  Q 424.60 89.72 475.70 104.00
  Q 499.28 110.59 522.72 120.52
  C 560.02 136.30 595.88 158.77 621.80 190.16
  Q 637.64 209.33 646.03 232.24
  Q 651.29 246.58 651.83 259.70
  Q 651.92 261.98 652.06 264.35
  C 653.03 281.33 650.27 297.26 643.44 312.89
  Q 634.54 333.30 620.94 348.54
  Q 608.03 363.00 597.00 372.14
  Q 587.01 380.41 573.86 388.70
  Q 573.70 388.80 573.80 388.95
  L 573.80 388.96
  Q 573.88 389.09 574.02 389.01
  Q 586.23 381.95 597.48 373.96
  Q 598.27 373.40 598.98 372.62
  Q 599.69 371.85 600.57 371.34
  Q 602.80 370.07 602.86 370.03
  Q 612.55 363.06 618.47 357.72
  Q 628.77 348.45 639.93 335.37
  Q 651.05 322.32 659.32 306.24
  Q 670.07 285.35 672.14 262.51
  Q 672.25 261.30 672.33 255.98
  Q 672.38 252.66 672.90 249.45
  Q 676.99 280.28 665.11 308.83
  C 655.15 332.77 638.54 353.30 618.93 370.21
  C 594.69 391.11 566.22 407.15 536.17 419.28
  Q 485.60 439.68 427.96 447.54
  C 393.79 452.20 358.06 454.51 323.53 451.88
  Q 314.87 451.22 304.50 450.31
  Q 264.84 446.79 226.29 436.87
  Q 228.83 436.21 231.12 436.88
  Q 234.22 437.79 235.05 437.90
  C 238.58 438.36 242.17 439.62 245.36 440.12
  Q 254.21 441.48 263.26 442.97
  Q 267.54 443.67 271.79 444.07
  C 278.92 444.75 285.87 445.59 293.19 446.11
  Q 312.20 447.48 321.79 447.72
  Q 366.16 448.82 406.67 442.98
  Q 427.49 439.97 442.09 437.11
  Q 455.70 434.45 469.04 431.09
  Q 472.34 430.26 475.69 429.23
  Q 475.71 429.22 475.70 429.20
  L 475.63 428.96
  Q 475.57 428.76 475.37 428.81
  Q 453.46 434.38 430.92 437.76
  Q 421.77 439.14 411.04 439.95
  Q 391.54 441.42 371.50 441.98
  Q 357.42 442.37 344.45 441.66
  Q 334.54 441.12 324.47 440.44
  Q 312.60 439.65 298.50 437.79
  Q 246.79 430.99 201.91 414.38
  Q 175.60 404.64 152.87 391.84
  C 112.41 369.05 74.00 335.33 60.38 289.23
  C 50.90 257.20 57.50 223.66 75.84 195.71
  Q 88.44 176.50 104.19 162.68
  Q 110.60 157.05 117.02 152.13
  Q 117.12 152.05 117.09 151.93
  Q 117.05 151.75 116.91 151.75
  Q 116.74 151.74 116.60 151.83
  Q 114.35 153.29 111.84 155.19
  Q 103.47 161.50 95.08 168.39
  C 87.61 174.53 80.59 180.77 74.35 187.91
  Q 71.34 191.35 68.17 195.17
  Q 53.31 213.02 44.65 234.25
  Q 39.21 247.58 37.83 259.75
  Q 37.11 266.15 36.35 284.30
  Q 33.63 265.42 35.85 248.75
  Q 37.64 235.32 43.91 220.10
  C 57.64 186.80 85.15 159.99 115.34 140.11
  C 145.64 120.17 179.44 105.90 214.57 95.95
  A 1.89 1.88 -85.9 0 0 215.79 94.89
  Q 221.22 82.74 230.30 76.17
  C 234.04 73.47 238.40 72.01 242.87 71.22
  Q 253.71 69.29 265.45 70.03
  Q 266.00 70.07 266.34 69.64
  C 274.29 59.67 289.86 43.70 303.71 43.94
  C 313.22 44.10 322.43 51.97 328.53 59.24
  Q 330.04 61.04 330.70 63.41
  Q 332.72 70.65 334.65 76.81
  Q 334.84 77.45 335.51 77.42
  Q 403.04 74.86 468.76 89.47
  Z
  M 276.07 72.76
  C 279.91 73.34 283.43 75.49 285.57 78.62
  C 287.25 81.09 286.87 83.62 284.99 85.94
  Q 283.41 87.89 281.08 88.04
  C 276.52 88.34 272.04 85.85 268.24 83.68
  C 260.53 79.29 250.40 79.14 242.33 82.08
  Q 232.86 85.53 228.26 95.62
  Q 225.44 101.81 226.82 108.57
  Q 228.24 115.57 231.97 120.74
  C 244.58 138.22 263.16 148.05 284.46 154.91
  Q 291.89 157.30 299.61 159.13
  Q 300.47 159.34 300.91 158.58
  Q 313.52 136.85 320.91 112.01
  Q 323.50 103.34 324.61 93.43
  C 325.92 81.76 324.41 67.92 314.36 60.20
  C 300.22 49.32 285.15 60.34 275.74 71.92
  A 0.52 0.51 24.0 0 0 276.07 72.76
  Z
  M 325.71 135.11
  Q 315.99 155.52 303.53 172.50
  Q 303.04 173.16 302.26 172.92
  Q 273.57 164.18 250.95 151.63
  C 236.17 143.43 220.47 131.96 215.06 115.26
  Q 214.84 114.55 214.13 114.77
  Q 187.95 122.74 163.95 134.54
  C 137.39 147.59 112.68 164.73 93.90 187.18
  Q 82.23 201.13 75.85 214.89
  Q 54.38 261.19 77.77 307.46
  C 89.00 329.68 108.02 349.53 128.07 364.40
  C 158.94 387.30 194.07 403.33 231.11 414.14
  Q 290.30 431.41 355.77 432.48
  Q 412.56 433.41 466.47 421.20
  C 502.92 412.93 538.42 399.58 570.00 379.71
  C 600.90 360.27 630.30 331.05 639.72 294.75
  C 648.32 261.61 639.26 228.99 618.89 201.85
  C 593.59 168.15 554.87 143.76 514.98 127.49
  Q 470.29 109.27 419.20 101.53
  Q 377.72 95.25 337.35 96.02
  Q 336.89 96.03 336.79 96.47
  Q 336.30 98.56 336.08 100.75
  Q 335.21 109.39 330.53 122.70
  Q 329.49 125.68 328.29 128.99
  Q 327.17 132.06 325.71 135.11
  Z"
/>
<path fill="#024da1" d="
  M 285.57 78.62
  C 283.43 75.49 279.91 73.34 276.07 72.76
  A 0.52 0.51 24.0 0 1 275.74 71.92
  C 285.15 60.34 300.22 49.32 314.36 60.20
  C 324.41 67.92 325.92 81.76 324.61 93.43
  Q 323.50 103.34 320.91 112.01
  Q 313.52 136.85 300.91 158.58
  Q 300.47 159.34 299.61 159.13
  Q 291.89 157.30 284.46 154.91
  C 263.16 148.05 244.58 138.22 231.97 120.74
  Q 228.24 115.57 226.82 108.57
  Q 225.44 101.81 228.26 95.62
  Q 232.86 85.53 242.33 82.08
  C 250.40 79.14 260.53 79.29 268.24 83.68
  C 272.04 85.85 276.52 88.34 281.08 88.04
  Q 283.41 87.89 284.99 85.94
  C 286.87 83.62 287.25 81.09 285.57 78.62
  Z"
/>
<path fill="#a9e0f8" d="
  M 468.76 89.47
  C 506.97 97.89 544.33 111.39 578.54 130.96
  C 622.58 156.16 665.36 196.54 672.90 249.45
  Q 672.38 252.66 672.33 255.98
  Q 672.25 261.30 672.14 262.51
  Q 670.07 285.35 659.32 306.24
  Q 651.05 322.32 639.93 335.37
  Q 628.77 348.45 618.47 357.72
  Q 612.55 363.06 602.86 370.03
  Q 602.80 370.07 600.57 371.34
  Q 599.69 371.85 598.98 372.62
  Q 598.27 373.40 597.48 373.96
  Q 586.23 381.95 574.02 389.01
  Q 573.88 389.09 573.80 388.96
  L 573.80 388.95
  Q 573.70 388.80 573.86 388.70
  Q 587.01 380.41 597.00 372.14
  Q 608.03 363.00 620.94 348.54
  Q 634.54 333.30 643.44 312.89
  C 650.27 297.26 653.03 281.33 652.06 264.35
  Q 651.92 261.98 651.83 259.70
  Q 651.29 246.58 646.03 232.24
  Q 637.64 209.33 621.80 190.16
  C 595.88 158.77 560.02 136.30 522.72 120.52
  Q 499.28 110.59 475.70 104.00
  Q 424.60 89.72 370.22 87.06
  Q 354.64 86.30 338.73 86.44
  A 1.79 1.79 0.0 0 1 336.97 85.03
  Q 336.73 83.91 336.73 82.70
  Q 336.73 81.84 337.15 82.59
  Q 337.21 82.70 337.32 82.72
  Q 337.50 82.75 337.66 82.72
  C 343.08 81.89 348.52 82.15 353.97 81.94
  Q 394.85 80.36 431.85 84.68
  Q 434.31 84.97 436.83 85.24
  Q 450.02 86.63 460.50 88.81
  Q 464.69 89.68 468.76 89.47
  Z"
/>
<path fill="#024da1" d="
  M 328.29 128.99
  Q 329.49 125.68 330.53 122.70
  Q 335.21 109.39 336.08 100.75
  Q 336.30 98.56 336.79 96.47
  Q 336.89 96.03 337.35 96.02
  Q 377.72 95.25 419.20 101.53
  Q 470.29 109.27 514.98 127.49
  C 554.87 143.76 593.59 168.15 618.89 201.85
  C 639.26 228.99 648.32 261.61 639.72 294.75
  C 630.30 331.05 600.90 360.27 570.00 379.71
  C 538.42 399.58 502.92 412.93 466.47 421.20
  Q 412.56 433.41 355.77 432.48
  Q 290.30 431.41 231.11 414.14
  C 194.07 403.33 158.94 387.30 128.07 364.40
  C 108.02 349.53 89.00 329.68 77.77 307.46
  Q 54.38 261.19 75.85 214.89
  Q 82.23 201.13 93.90 187.18
  C 112.68 164.73 137.39 147.59 163.95 134.54
  Q 187.95 122.74 214.13 114.77
  Q 214.84 114.55 215.06 115.26
  C 220.47 131.96 236.17 143.43 250.95 151.63
  Q 273.57 164.18 302.26 172.92
  Q 303.04 173.16 303.53 172.50
  Q 315.99 155.52 325.71 135.11
  Q 327.17 132.06 328.29 128.99
  Z
  M 256.08 225.41
  Q 257.12 208.45 246.10 196.33
  C 233.98 182.98 214.70 180.79 199.46 190.04
  Q 198.95 190.34 198.50 189.96
  L 163.05 159.71
  Q 162.71 159.42 162.39 159.73
  C 155.35 166.75 148.39 173.88 142.72 182.11
  Q 123.81 209.52 118.46 243.50
  C 111.62 286.93 124.32 332.94 164.23 355.71
  Q 185.60 367.91 210.75 368.81
  Q 248.63 370.18 279.73 349.42
  Q 293.36 340.32 301.60 326.99
  A 0.53 0.53 0.0 0 1 302.53 327.05
  C 308.70 340.46 320.58 348.20 335.02 350.19
  C 352.77 352.63 371.95 346.02 385.68 334.32
  A 0.48 0.48 0.0 0 1 386.47 334.63
  C 390.08 363.13 422.14 378.37 445.35 359.63
  A 0.82 0.81 -46.0 0 1 446.34 359.61
  C 460.53 370.23 478.71 370.27 492.08 358.64
  Q 504.31 348.00 505.20 330.82
  A 0.54 0.54 0.0 0 1 506.02 330.39
  C 531.17 345.81 562.09 323.64 578.75 305.58
  Q 596.17 286.71 602.22 261.33
  C 608.18 236.33 599.48 210.50 576.04 198.85
  C 564.96 193.35 550.61 192.91 538.64 196.11
  Q 526.78 199.29 513.83 207.70
  Q 498.48 217.68 485.07 230.82
  A 0.75 0.75 0.0 0 1 483.85 230.57
  L 467.66 190.79
  A 0.48 0.48 0.0 0 0 467.01 190.54
  L 442.25 202.57
  A 0.42 0.42 0.0 0 1 441.65 202.24
  C 440.44 191.41 434.30 180.76 427.27 173.12
  C 418.48 163.59 406.85 157.80 394.04 158.12
  C 368.59 158.75 352.28 175.84 345.77 199.24
  Q 342.10 212.41 342.71 225.32
  Q 342.74 226.00 342.09 226.18
  C 322.85 231.44 299.95 227.42 284.66 215.14
  Q 279.51 211.00 273.88 206.49
  Q 273.39 206.09 272.98 206.58
  L 257.03 225.78
  Q 255.98 227.04 256.08 225.41
  Z"
/>
<path fill="#a9e0f8" d="
  M 226.29 436.87
  C 184.52 426.39 143.39 409.41 108.09 384.56
  C 73.90 360.50 44.16 326.49 36.35 284.30
  Q 37.11 266.15 37.83 259.75
  Q 39.21 247.58 44.65 234.25
  Q 53.31 213.02 68.17 195.17
  Q 71.34 191.35 74.35 187.91
  C 80.59 180.77 87.61 174.53 95.08 168.39
  Q 103.47 161.50 111.84 155.19
  Q 114.35 153.29 116.60 151.83
  Q 116.74 151.74 116.91 151.75
  Q 117.05 151.75 117.09 151.93
  Q 117.12 152.05 117.02 152.13
  Q 110.60 157.05 104.19 162.68
  Q 88.44 176.50 75.84 195.71
  C 57.50 223.66 50.90 257.20 60.38 289.23
  C 74.00 335.33 112.41 369.05 152.87 391.84
  Q 175.60 404.64 201.91 414.38
  Q 246.79 430.99 298.50 437.79
  Q 312.60 439.65 324.47 440.44
  Q 334.54 441.12 344.45 441.66
  Q 357.42 442.37 371.50 441.98
  Q 391.54 441.42 411.04 439.95
  Q 421.77 439.14 430.92 437.76
  Q 453.46 434.38 475.37 428.81
  Q 475.57 428.76 475.63 428.96
  L 475.70 429.20
  Q 475.71 429.22 475.69 429.23
  Q 472.34 430.26 469.04 431.09
  Q 455.70 434.45 442.09 437.11
  Q 427.49 439.97 406.67 442.98
  Q 366.16 448.82 321.79 447.72
  Q 312.20 447.48 293.19 446.11
  C 285.87 445.59 278.92 444.75 271.79 444.07
  Q 267.54 443.67 263.26 442.97
  Q 254.21 441.48 245.36 440.12
  C 242.17 439.62 238.58 438.36 235.05 437.90
  Q 234.22 437.79 231.12 436.88
  Q 228.83 436.21 226.29 436.87
  Z"
/>
<path fill="#ffffff" d="
  M 256.08 225.41
  Q 255.98 227.04 257.03 225.78
  L 272.98 206.58
  Q 273.39 206.09 273.88 206.49
  Q 279.51 211.00 284.66 215.14
  C 299.95 227.42 322.85 231.44 342.09 226.18
  Q 342.74 226.00 342.71 225.32
  Q 342.10 212.41 345.77 199.24
  C 352.28 175.84 368.59 158.75 394.04 158.12
  C 406.85 157.80 418.48 163.59 427.27 173.12
  C 434.30 180.76 440.44 191.41 441.65 202.24
  A 0.42 0.42 0.0 0 0 442.25 202.57
  L 467.01 190.54
  A 0.48 0.48 0.0 0 1 467.66 190.79
  L 483.85 230.57
  A 0.75 0.75 0.0 0 0 485.07 230.82
  Q 498.48 217.68 513.83 207.70
  Q 526.78 199.29 538.64 196.11
  C 550.61 192.91 564.96 193.35 576.04 198.85
  C 599.48 210.50 608.18 236.33 602.22 261.33
  Q 596.17 286.71 578.75 305.58
  C 562.09 323.64 531.17 345.81 506.02 330.39
  A 0.54 0.54 0.0 0 0 505.20 330.82
  Q 504.31 348.00 492.08 358.64
  C 478.71 370.27 460.53 370.23 446.34 359.61
  A 0.82 0.81 -46.0 0 0 445.35 359.63
  C 422.14 378.37 390.08 363.13 386.47 334.63
  A 0.48 0.48 0.0 0 0 385.68 334.32
  C 371.95 346.02 352.77 352.63 335.02 350.19
  C 320.58 348.20 308.70 340.46 302.53 327.05
  A 0.53 0.53 0.0 0 0 301.60 326.99
  Q 293.36 340.32 279.73 349.42
  Q 248.63 370.18 210.75 368.81
  Q 185.60 367.91 164.23 355.71
  C 124.32 332.94 111.62 286.93 118.46 243.50
  Q 123.81 209.52 142.72 182.11
  C 148.39 173.88 155.35 166.75 162.39 159.73
  Q 162.71 159.42 163.05 159.71
  L 198.50 189.96
  Q 198.95 190.34 199.46 190.04
  C 214.70 180.79 233.98 182.98 246.10 196.33
  Q 257.12 208.45 256.08 225.41
  Z
  M 448.80 255.41
  C 441.04 269.10 422.63 267.61 409.54 263.21
  Q 390.03 256.66 382.23 238.53
  C 378.27 229.31 377.67 217.89 380.51 208.18
  C 382.56 201.17 388.25 193.12 396.81 196.88
  Q 402.99 199.60 404.13 206.08
  Q 405.71 215.06 402.42 226.07
  Q 399.68 235.23 396.00 243.88
  Q 395.54 244.96 396.42 245.73
  Q 404.83 253.11 414.41 257.24
  Q 415.53 257.72 416.03 256.62
  Q 419.68 248.70 422.71 241.12
  Q 428.29 227.17 429.22 211.98
  C 429.93 200.42 426.39 191.22 418.63 182.49
  Q 405.05 167.19 385.71 172.04
  C 360.25 178.42 353.57 208.68 355.68 231.22
  C 357.28 248.30 367.16 265.16 381.69 275.90
  C 404.07 292.44 434.01 297.12 457.82 280.63
  C 460.58 278.73 463.04 276.57 465.56 274.40
  A 1.76 1.75 53.0 0 1 468.18 274.77
  C 470.90 278.95 473.82 283.65 477.75 286.73
  C 479.92 288.43 482.43 287.19 484.17 285.65
  Q 488.32 281.99 491.99 278.33
  Q 504.57 265.80 518.08 251.90
  C 527.36 242.34 537.19 234.90 550.29 233.53
  C 563.90 232.11 570.00 246.87 565.88 258.05
  Q 559.80 274.53 545.36 288.39
  C 540.04 293.49 531.13 298.49 524.23 293.04
  C 519.22 289.08 528.13 281.32 524.91 275.41
  C 523.06 272.02 516.18 266.25 511.61 268.65
  C 499.96 274.77 497.66 287.40 498.91 299.99
  Q 499.48 305.71 502.82 310.36
  C 521.30 336.06 549.46 316.37 565.58 300.90
  Q 582.39 284.76 588.82 262.51
  Q 592.91 248.35 590.31 236.35
  C 586.67 219.59 573.66 207.63 556.42 207.01
  C 545.81 206.62 536.57 209.33 527.49 214.37
  C 510.84 223.63 495.57 237.01 483.19 250.98
  C 482.06 252.26 480.42 252.30 479.56 250.71
  Q 475.62 243.47 471.69 234.20
  Q 466.35 221.60 461.31 208.82
  A 1.17 1.17 0.0 0 0 459.71 208.19
  L 439.49 217.99
  Q 438.11 218.66 438.76 220.05
  Q 441.88 226.78 444.89 233.23
  C 446.75 237.20 451.58 250.51 448.80 255.41
  Z
  M 320.99 269.00
  C 314.51 279.83 310.99 293.12 310.89 305.09
  Q 310.80 315.27 314.35 322.46
  C 319.85 333.59 331.67 338.45 343.79 337.94
  C 361.65 337.19 377.25 328.33 386.94 313.30
  Q 393.09 303.76 397.10 295.11
  Q 397.50 294.24 396.59 293.95
  Q 385.13 290.20 376.76 283.00
  A 0.80 0.80 0.0 0 0 375.51 283.29
  Q 371.98 291.50 366.65 299.53
  Q 359.72 309.98 348.37 312.00
  C 344.53 312.68 339.62 312.54 337.29 308.85
  C 328.07 294.26 349.25 273.16 359.43 263.97
  A 0.95 0.95 0.0 0 0 359.56 262.69
  Q 351.36 251.70 348.82 238.74
  A 0.79 0.78 -13.5 0 0 347.83 238.14
  C 333.23 242.40 317.63 242.17 302.54 238.15
  Q 287.72 234.20 275.63 224.23
  A 0.56 0.55 39.5 0 0 274.85 224.30
  L 259.03 243.00
  A 1.44 1.43 47.4 0 0 258.96 244.76
  Q 268.77 258.54 273.39 272.04
  C 277.57 284.22 276.51 298.07 268.05 308.13
  C 255.32 323.26 233.03 328.57 213.90 327.05
  C 188.60 325.04 168.13 314.51 159.23 289.56
  C 147.60 257.00 160.68 219.44 182.39 193.76
  A 0.70 0.69 -50.5 0 0 182.30 192.78
  L 163.86 177.29
  Q 163.45 176.94 163.07 177.34
  C 138.65 203.17 127.35 240.46 129.74 275.29
  C 132.11 309.74 151.06 339.51 184.63 351.04
  Q 191.98 353.57 197.61 354.61
  Q 226.22 359.93 254.29 348.67
  C 278.84 338.83 297.19 321.40 299.22 293.67
  Q 300.07 281.93 298.32 266.36
  Q 298.25 265.79 298.80 265.93
  Q 309.90 268.68 320.64 268.41
  Q 321.35 268.39 320.99 269.00
  Z
  M 219.2220 247.0594
  A 24.64 23.75 89.6 0 0 242.7994 222.2542
  A 24.64 23.75 89.6 0 0 218.8780 197.7806
  A 24.64 23.75 89.6 0 0 195.3006 222.5858
  A 24.64 23.75 89.6 0 0 219.2220 247.0594
  Z
  M 215.37 260.27
  C 204.81 259.36 194.74 253.13 188.87 244.42
  Q 180.02 231.28 182.60 216.08
  A 0.35 0.35 0.0 0 0 182.19 215.68
  Q 181.89 215.74 181.74 216.00
  C 168.91 237.85 162.47 265.25 172.54 288.73
  C 176.31 297.53 182.62 304.57 191.09 308.44
  Q 216.16 319.88 243.10 310.40
  C 250.47 307.81 258.57 302.18 261.60 294.50
  C 264.23 287.84 263.21 279.15 260.29 272.51
  Q 254.96 260.37 246.57 248.93
  A 0.53 0.52 -40.4 0 0 245.77 248.87
  Q 232.99 261.78 215.37 260.27
  Z
  M 539.35 276.98
  C 544.68 270.79 549.46 263.95 552.93 256.70
  C 554.85 252.68 555.90 244.76 548.60 246.14
  C 541.62 247.46 533.02 254.82 528.17 259.81
  A 0.66 0.66 0.0 0 0 528.24 260.79
  C 533.30 264.63 537.75 270.37 538.42 276.75
  Q 538.45 277.10 538.79 277.17
  Q 539.13 277.25 539.35 276.98
  Z
  M 446.10 337.07
  Q 448.47 346.01 456.63 351.21
  C 469.85 359.63 486.46 352.38 491.15 338.15
  C 496.10 323.15 486.13 305.82 469.43 305.48
  C 458.54 305.27 448.76 312.62 446.18 323.00
  Q 445.77 324.63 445.29 323.02
  C 440.21 306.21 419.51 299.68 406.46 312.45
  C 396.38 322.31 396.60 338.57 406.43 348.31
  C 419.46 361.23 440.75 354.67 445.43 337.07
  Q 445.77 335.81 446.10 337.07
  Z"
/>
<path fill="#ec1d26" d="
  M 409.54 263.21
  C 422.63 267.61 441.04 269.10 448.80 255.41
  C 451.58 250.51 446.75 237.20 444.89 233.23
  Q 441.88 226.78 438.76 220.05
  Q 438.11 218.66 439.49 217.99
  L 459.71 208.19
  A 1.17 1.17 0.0 0 1 461.31 208.82
  Q 466.35 221.60 471.69 234.20
  Q 475.62 243.47 479.56 250.71
  C 480.42 252.30 482.06 252.26 483.19 250.98
  C 495.57 237.01 510.84 223.63 527.49 214.37
  C 536.57 209.33 545.81 206.62 556.42 207.01
  C 573.66 207.63 586.67 219.59 590.31 236.35
  Q 592.91 248.35 588.82 262.51
  Q 582.39 284.76 565.58 300.90
  C 549.46 316.37 521.30 336.06 502.82 310.36
  Q 499.48 305.71 498.91 299.99
  C 497.66 287.40 499.96 274.77 511.61 268.65
  C 516.18 266.25 523.06 272.02 524.91 275.41
  C 528.13 281.32 519.22 289.08 524.23 293.04
  C 531.13 298.49 540.04 293.49 545.36 288.39
  Q 559.80 274.53 565.88 258.05
  C 570.00 246.87 563.90 232.11 550.29 233.53
  C 537.19 234.90 527.36 242.34 518.08 251.90
  Q 504.57 265.80 491.99 278.33
  Q 488.32 281.99 484.17 285.65
  C 482.43 287.19 479.92 288.43 477.75 286.73
  C 473.82 283.65 470.90 278.95 468.18 274.77
  A 1.76 1.75 53.0 0 0 465.56 274.40
  C 463.04 276.57 460.58 278.73 457.82 280.63
  C 434.01 297.12 404.07 292.44 381.69 275.90
  C 367.16 265.16 357.28 248.30 355.68 231.22
  C 353.57 208.68 360.25 178.42 385.71 172.04
  Q 405.05 167.19 418.63 182.49
  C 426.39 191.22 429.93 200.42 429.22 211.98
  Q 428.29 227.17 422.71 241.12
  Q 419.68 248.70 416.03 256.62
  Q 415.53 257.72 414.41 257.24
  Q 404.83 253.11 396.42 245.73
  Q 395.54 244.96 396.00 243.88
  Q 399.68 235.23 402.42 226.07
  Q 405.71 215.06 404.13 206.08
  Q 402.99 199.60 396.81 196.88
  C 388.25 193.12 382.56 201.17 380.51 208.18
  C 377.67 217.89 378.27 229.31 382.23 238.53
  Q 390.03 256.66 409.54 263.21
  Z"
/>
<path fill="#ec1d26" d="
  M 320.64 268.41
  Q 309.90 268.68 298.80 265.93
  Q 298.25 265.79 298.32 266.36
  Q 300.07 281.93 299.22 293.67
  C 297.19 321.40 278.84 338.83 254.29 348.67
  Q 226.22 359.93 197.61 354.61
  Q 191.98 353.57 184.63 351.04
  C 151.06 339.51 132.11 309.74 129.74 275.29
  C 127.35 240.46 138.65 203.17 163.07 177.34
  Q 163.45 176.94 163.86 177.29
  L 182.30 192.78
  A 0.70 0.69 -50.5 0 1 182.39 193.76
  C 160.68 219.44 147.60 257.00 159.23 289.56
  C 168.13 314.51 188.60 325.04 213.90 327.05
  C 233.03 328.57 255.32 323.26 268.05 308.13
  C 276.51 298.07 277.57 284.22 273.39 272.04
  Q 268.77 258.54 258.96 244.76
  A 1.44 1.43 47.4 0 1 259.03 243.00
  L 274.85 224.30
  A 0.56 0.55 39.5 0 1 275.63 224.23
  Q 287.72 234.20 302.54 238.15
  C 317.63 242.17 333.23 242.40 347.83 238.14
  A 0.79 0.78 -13.5 0 1 348.82 238.74
  Q 351.36 251.70 359.56 262.69
  A 0.95 0.95 0.0 0 1 359.43 263.97
  C 349.25 273.16 328.07 294.26 337.29 308.85
  C 339.62 312.54 344.53 312.68 348.37 312.00
  Q 359.72 309.98 366.65 299.53
  Q 371.98 291.50 375.51 283.29
  A 0.80 0.80 0.0 0 1 376.76 283.00
  Q 385.13 290.20 396.59 293.95
  Q 397.50 294.24 397.10 295.11
  Q 393.09 303.76 386.94 313.30
  C 377.25 328.33 361.65 337.19 343.79 337.94
  C 331.67 338.45 319.85 333.59 314.35 322.46
  Q 310.80 315.27 310.89 305.09
  C 310.99 293.12 314.51 279.83 320.99 269.00
  Q 321.35 268.39 320.64 268.41
  Z"
/>
<ellipse fill="#ec1d26" cx="0.00" cy="0.00" transform="translate(219.05,222.42) rotate(89.6)" rx="24.64" ry="23.75"/>
<path fill="#024da1" d="
  M 188.87 244.42
  C 194.74 253.13 204.81 259.36 215.37 260.27
  Q 232.99 261.78 245.77 248.87
  A 0.53 0.52 -40.4 0 1 246.57 248.93
  Q 254.96 260.37 260.29 272.51
  C 263.21 279.15 264.23 287.84 261.60 294.50
  C 258.57 302.18 250.47 307.81 243.10 310.40
  Q 216.16 319.88 191.09 308.44
  C 182.62 304.57 176.31 297.53 172.54 288.73
  C 162.47 265.25 168.91 237.85 181.74 216.00
  Q 181.89 215.74 182.19 215.68
  A 0.35 0.35 0.0 0 1 182.60 216.08
  Q 180.02 231.28 188.87 244.42
  Z"
/>
<path fill="#024da1" d="
  M 552.93 256.70
  C 549.46 263.95 544.68 270.79 539.35 276.98
  Q 539.13 277.25 538.79 277.17
  Q 538.45 277.10 538.42 276.75
  C 537.75 270.37 533.30 264.63 528.24 260.79
  A 0.66 0.66 0.0 0 1 528.17 259.81
  C 533.02 254.82 541.62 247.46 548.60 246.14
  C 555.90 244.76 554.85 252.68 552.93 256.70
  Z"
/>
<path fill="#ec1d26" d="
  M 446.10 337.07
  Q 445.77 335.81 445.43 337.07
  C 440.75 354.67 419.46 361.23 406.43 348.31
  C 396.60 338.57 396.38 322.31 406.46 312.45
  C 419.51 299.68 440.21 306.21 445.29 323.02
  Q 445.77 324.63 446.18 323.00
  C 448.76 312.62 458.54 305.27 469.43 305.48
  C 486.13 305.82 496.10 323.15 491.15 338.15
  C 486.46 352.38 469.85 359.63 456.63 351.21
  Q 448.47 346.01 446.10 337.07
  Z"
/>
</svg>
