<?xml version="1.0" encoding="UTF-8"?>
<svg xmlns="http://www.w3.org/2000/svg" width="1080" height="764" viewBox="0 0 1080 764">
  <g id="logofa" transform="translate(-407 -599)">
    <rect id="Rectangle_1" data-name="Rectangle 1" width="1080" height="764" transform="translate(407 599)" fill="none"></rect>
    <g id="Group_13" data-name="Group 13" transform="translate(313.708 511.786)">
      <path id="Path_24" data-name="Path 24" d="M1161.3,421.571c-7.932-18.386-22.294-30.372-39.519-34.15a76.506,76.506,0,0,0,14.026-19.1c15.615-30.2,14.218-62.816-3.937-91.854-17.151-27.436-42.79-45.387-76.2-53.356-42.2-10.059-79.46-3.885-110.732,18.364a140.887,140.887,0,0,0-15.689,12.99,250.721,250.721,0,0,0,.211-28.791c-1.347-23.894-12.488-38.077-21.6-45.768-9.279-7.83-25.537-16.579-50.3-13.79-34.786,3.927-65.3,19.781-90.705,47.125-.167.179-.311.375-.477.554-.756-2.871-1.534-5.732-2.364-8.578-7.251-24.9-26.723-40.493-52.121-41.768l-.246-.012a84.134,84.134,0,0,0-27.058,3.147c-25.865,7.524-48,22.776-67.678,46.63-15.239,18.478-21.6,40.414-18.443,63.555a63.076,63.076,0,0,0-24.506-5.747c-16.964-.649-32.042,3.269-44.816,11.64a233.106,233.106,0,0,0-28.771,21.871c-.631-4.41-1.4-8.841-2.346-13.325-5.876-27.891-29.057-46.841-57.684-47.1-24.911-.244-44.383,10.216-60.147,20.477a104.408,104.408,0,0,0-14.238,11.081,65.177,65.177,0,0,0-38.239-15.5c-26.718-2.013-52.909,9.428-70.892,28.97-1.511-1.531-3.035-3.055-4.593-4.536-17.1-16.256-35.025-27.26-54.783-33.643-39.278-12.677-76.507,5.158-90.544,43.381-2.858,7.787-4.864,15.319-6.8,22.6-.8,3-1.623,6.107-2.548,9.346l-1.012,3.547-.341,3.671c-.43,4.616-.848,9.381-1.273,14.245-.935,10.676-1.9,21.714-3.124,32.547-4.984,44.085-4.765,90.946.671,143.264,3.2,30.812,9.594,55.524,20.119,77.768,9.831,20.772,22.893,35.544,39.924,45.156a65.651,65.651,0,0,0,29.01,8.628c17.486.875,34.58-5.816,47.679-19.564a114.293,114.293,0,0,0,18.374-25.754q1.417-2.729,2.719-5.426.884.082,1.78.149c18.431,1.375,44.207-1.489,70.562-19.895a118.365,118.365,0,0,0,57.674,11,88.449,88.449,0,0,0,8.15,37.5c18.582,40.717,65.951,60.766,110.182,46.623a110.358,110.358,0,0,0,16.758-6.855l7.9-4.057,9.518,7.377a90.827,90.827,0,0,0,41.366,8.436c36.872-1.156,65.752-19.055,81.319-50.4,7.484-15.07,9.44-32.348,5.8-49.556,33.538-.465,64.9-16.234,84.146-42.628,13.03,21.553,32.84,38.48,58.966,50.055,22.418,9.933,45.087,13.31,65.817,14.352,6.5.323,12.806.42,18.853.415,37.021-.025,72.284-5.784,105.226-11.68,32.084-5.739,66.152-12.52,98.965-26.579a158.386,158.386,0,0,0,35.972-21.1c24.444-19.343,37.513-47.187,38.848-82.756C1168.546,453.026,1168.171,437.5,1161.3,421.571Z" transform="translate(5.06 49.537)" fill="#fff"></path>
      <g id="Group_5" data-name="Group 5" transform="translate(133.061 252.656)">
        <g id="Group_4" data-name="Group 4">
          <path id="Path_25" data-name="Path 25" d="M112.039,313.418c3.075-10.785,5.145-20.188,8.434-29.144,6.865-18.7,21.988-25.376,40.988-19.239,15.3,4.941,28.1,13.693,39.608,24.623,3.249,3.09,6.279,6.415,9.572,9.455,7.173,6.619,9,14.737,7.521,24.108q-9.172,58.085-18.1,116.208c-1.936,12.659-1.066,25.035,5.148,36.636,5.384,10.049,13.887,14.583,25.05,14.016,9.01-.457,15.272-4.9,18.866-13.462,6.684-15.925,7.382-32.524,6.207-49.369-1.911-27.4-4.173-54.778-5.836-82.192-.738-12.184-1.486-24.483,2.819-36.4,7.283-20.153,27.991-34.123,48.721-32.6,12.142.892,20.663,8.227,23.079,20.235,2.374,11.8.472,23.511-1.153,35.224-4.231,30.516-9.363,60.99-8.933,91.906a193.012,193.012,0,0,0,4.049,37.249c2.873,13.5,14.382,17.874,26.78,11.648,6.072-3.047,11.2-7.425,13.594-13.741A108.654,108.654,0,0,0,364.18,437.5c2.622-16.3-.1-32.44-2.391-48.589-2.913-20.544-5.687-41.115-8.048-61.725-2.57-22.448,4.976-40.406,24.384-53.041,11.692-7.611,23.556-14.178,38.06-14.036,9.811.094,17.109,5.8,19.157,15.525,3.9,18.533,4.238,37.359,4.414,56.185.251,26.889.276,53.784.684,80.671.172,11.3,2.24,22.4,7.556,32.472a61,61,0,0,0,9.562,12.878c4.275,4.566,10.057,4.73,14.986.8,8.638-6.883,13.932-15.692,13.39-27.051-1.1-23.121-2.314-46.242-3.8-69.344-1.317-20.491,5.555-37.732,20.526-51.422a192.515,192.515,0,0,1,24.516-18.669c6.3-4.126,13.825-5.453,21.5-5.16,10.121.385,16.326,4.81,17.728,14.929,1.675,12.085,2.938,24.376,2.689,36.546-.535,26.3-2.332,52.563-3.239,78.856-.425,12.391-.137,24.734,5.55,36.387,8.128,16.651,25.279,19.892,38.592,6.91,9.167-8.941,12.93-20.5,16.189-32.45,9.363-34.334,7.111-68.581.572-103.056-4.81-25.366-8.476-50.95-12.5-76.46-2-12.694,1.466-24.086,9.567-33.906,12.9-15.644,28.3-27.986,48.1-33.745a44,44,0,0,1,14.108-1.608c8.742.405,13.569,4.73,16.027,13.174a333.873,333.873,0,0,1,12.3,72.707c2.461,39.141,2.836,78.255-.38,117.354-1.643,19.974-2.657,40.083-5.913,59.809a168.465,168.465,0,0,1-12.4,42c-12.652,27.8-45.514,42.1-76.231,34.781-23.8-5.672-43.458-18.632-60.848-35.408-.109-.1-.214-.209-.321-.316-6.062-6.005-6.038-5.99-10.221,1.181a106.319,106.319,0,0,1-22.316,27.28c-19.517,16.848-40.866,17.886-61.994,3.077-9.818-6.883-17.422-15.873-24.471-25.408-5.468-7.4-5.441-7.387-11.208-.485-11.623,13.917-24.891,25.836-41.336,33.876-29.87,14.611-58.407,11.66-85.828-6.453-6.684-4.414-6.691-4.31-12.49,1.4-15.851,15.612-34.5,24.792-57.159,23.119-7.489-.552-14.921-2.968-22.182-5.175-4.191-1.275-6.346-.529-8.024,3.5-3.96,9.513-7.763,19.137-12.508,28.262a73.791,73.791,0,0,1-11.876,16.666c-7.862,8.25-18.426,9.346-28.351,3.743-11.148-6.291-18.215-16.311-23.526-27.536-9.706-20.511-14.188-42.509-16.509-64.862-4.658-44.843-5.789-89.751-.711-134.686C109.407,344.657,110.657,328.255,112.039,313.418Z" transform="translate(-104.232 -179.347)" fill="#8ed90b"></path>
          <path id="Path_26" data-name="Path 26" d="M476.591,284.244c-2.438,12.485-5.091,24.933-7.275,37.461-5.642,32.338-11.605,64.639-16.343,97.113-1.949,13.355-1.519,27.133-1.263,40.7.09,4.658,2.274,9.644,4.658,13.823,6.264,10.977,18.893,11.991,27.439,2.6,5.779-6.351,8.18-14.228,9.314-22.448,4.062-29.489,8.111-58.981,11.8-88.52,3.341-26.77,8.973-52.775,22.925-76.318,9.15-15.441,20.061-29.373,34.838-39.884,24.113-17.153,50.607-18.724,78.451-12.085,21.933,5.23,39.673,16.5,51.706,35.753,10.574,16.915,11.494,34.784,2.332,52.5-7.974,15.421-26.368,23.4-43.4,20.081a23.435,23.435,0,0,1-16.857-12.147c-3.189-5.757-6.055-11.7-9.448-17.335a46.337,46.337,0,0,0-7.385-9.5c-6.567-6.308-14.675-7.335-22.748-3.144-12.12,6.289-18.679,17.307-24.063,29.159-5.824,12.821-8.2,26.522-9.781,40.4-1.966,17.273-3.241,34.528.408,51.763,3.219,15.2,11.523,21.851,27.143,21.675a86.79,86.79,0,0,0,39.551-10.261c17.509-9.127,34.826-18.632,52.429-27.573a83.788,83.788,0,0,1,18.026-6.56c9.863-2.4,16.388,1.35,20.432,10.723,3.589,8.317,3.915,17.069,3.582,25.957-.783,20.922-6.925,39.718-23.782,53.056a119.555,119.555,0,0,1-26.952,15.731c-28.875,12.371-59.55,18.483-90.31,23.989-32.5,5.816-65.1,11.036-98.249,11.059-23.457.015-46.71-1.69-68.533-11.359-33.282-14.75-51.094-40.11-53.391-76.783-1.9-30.287-.139-60.341,3.144-90.394,3.346-30.628,6.619-61.263,10.029-91.883,1.173-10.551,2.585-21.081,4.019-31.6a44.742,44.742,0,0,1,11.66-24.789c17.9-19.266,39.576-31.687,66.023-34.669,16.467-1.857,26.8,5.782,27.73,22.276.785,13.937-.318,28.065-1.623,42.009-1.238,13.231-3.82,26.338-5.811,39.5Z" transform="translate(277.307 -178.005)" fill="#8ed90b"></path>
          <path id="Path_27" data-name="Path 27" d="M323.89,372.444c-1.158,1.954-1.894,2.744-2.13,3.666-4.549,17.675-17.315,27.168-33.548,32.358-25.323,8.1-51.733-3-61.889-25.251-12.791-28.03,2.17-56.441,32.447-61.633,15.264-2.62,29.8-.92,43.076,7.569a45.348,45.348,0,0,1,18.317,23.134c.7,1.877,1.683,3.646,3.013,6.483,1.581-4.28,2.766-7.437,3.917-10.606,4.089-11.257,11.943-18.863,23.044-22.932,16.589-6.085,33.069-5.9,49.171,1.9,20.544,9.955,31.751,36.909,22.254,56.028-9.438,19.005-26.087,27.685-46.946,28.339a50.711,50.711,0,0,1-30.886-9.06c-7.044-4.832-11.523-11.543-14.668-19.353C327.707,379.722,325.9,376.546,323.89,372.444Z" transform="translate(70.332 30.282)" fill="#8ed90b"></path>
        </g>
      </g>
    </g>
  </g>
</svg>
