<?xml version="1.0" encoding="UTF-8" standalone="no"?>
<svg xmlns="http://www.w3.org/2000/svg" version="1.1" viewBox="0.00 0.00 1773.00 1773.00">
  <g stroke-width="2.00" fill="none" stroke-linecap="butt">
    <path stroke="#2b502f" vector-effect="non-scaling-stroke" d="   M 665.06 1276.05   L 667.29 1276.22"></path>
    <path stroke="#2b502f" vector-effect="non-scaling-stroke" d="   M 1099.68 1276.99   Q 1100.10 1276.75 1100.82 1276.92"></path>
    <path stroke="#2b502f" vector-effect="non-scaling-stroke" d="   M 1124.23 1275.68   Q 1125.06 1275.95 1125.48 1275.55"></path>
    <path stroke="#2b502f" vector-effect="non-scaling-stroke" d="   M 1154.50 1273.86   Q 1155.12 1273.97 1155.48 1273.79"></path>
    <path stroke="#f78e91" vector-effect="non-scaling-stroke" d="   M 1192.79 522.13   Q 1184.40 519.84 1174.99 517.70   Q 1159.47 514.17 1148.84 512.58   Q 1147.30 512.35 1145.76 512.09   Q 1133.00 509.91 1119.25 508.08   Q 1062.46 500.52 1005.87 498.88   Q 995.52 498.58 985.84 498.59   Q 896.45 498.63 807.22 498.38   Q 797.28 498.36 787.24 498.61   Q 756.07 499.38 738.75 500.77   Q 724.57 501.90 710.27 502.92   Q 698.80 503.74 662.76 508.66   Q 649.23 510.51 635.23 512.96   Q 634.38 513.11 633.52 513.25   Q 621.23 515.22 610.34 517.87   Q 609.50 518.08 608.64 518.13   Q 607.84 518.18 607.03 518.37   Q 598.24 520.49 588.81 523.15   Q 575.66 526.86 562.16 532.44   Q 541.18 541.11 523.26 554.32   Q 522.89 554.60 522.67 555.00   Q 522.42 555.45 521.92 555.51   Q 521.42 555.57 521.04 555.91   C 482.39 590.09 450.22 631.00 423.00 675.31   Q 417.89 683.65 412.70 692.40   Q 391.96 727.42 376.32 765.00   Q 374.14 770.22 367.29 789.47   C 366.77 790.94 366.49 792.48 366.14 793.49   Q 362.66 803.57 360.07 814.01   C 353.54 840.37 353.49 868.50 358.99 895.03   Q 362.43 911.63 368.13 928.30   Q 374.02 945.52 381.75 962.30   Q 381.89 962.61 381.73 962.90   Q 381.59 963.13 381.89 963.26   Q 382.19 963.40 382.33 963.71   C 412.16 1030.32 451.77 1093.06 502.79 1144.06   Q 521.14 1162.40 539.59 1173.15   Q 549.18 1178.74 557.50 1181.61   Q 561.90 1183.13 565.82 1184.62   Q 570.10 1186.23 574.93 1187.64   Q 581.89 1189.66 588.53 1191.62   Q 589.94 1192.03 591.48 1192.39   Q 600.01 1194.39 608.75 1196.60   C 610.27 1196.98 611.93 1196.84 613.49 1197.21   Q 627.20 1200.48 635.07 1201.62   Q 711.54 1212.74 788.77 1214.29   Q 798.99 1214.50 809.24 1214.48   Q 904.09 1214.31 1000.60 1214.19   C 1029.40 1214.15 1063.22 1211.44 1097.32 1208.45   Q 1124.59 1206.07 1153.87 1200.79   Q 1163.19 1199.11 1171.88 1197.39   Q 1178.80 1196.02 1186.08 1194.32   Q 1193.61 1192.56 1200.21 1190.84   Q 1213.02 1187.52 1228.00 1181.75   Q 1244.56 1175.37 1258.91 1164.65   C 1277.89 1150.47 1294.71 1132.93 1309.62 1114.86   Q 1373.71 1037.18 1412.21 941.97   Q 1417.55 928.77 1421.94 912.94   Q 1426.97 894.77 1429.42 876.32   C 1431.80 858.33 1430.78 840.03 1427.11 822.30   Q 1422.11 798.09 1411.62 771.79   Q 1393.96 727.46 1368.35 685.27   C 1342.11 642.05 1313.13 602.60 1277.26 567.71   C 1261.50 552.38 1243.89 541.08 1222.93 532.43   Q 1208.16 526.34 1192.79 522.13"></path>
    <path stroke="#f78e91" vector-effect="non-scaling-stroke" d="   M 802.4258 529.4753   A 79.96 44.32 -24.3 0 0 711.3117 521.9866   A 79.96 44.32 -24.3 0 0 656.6742 595.2847   A 79.96 44.32 -24.3 0 0 747.7883 602.7734   A 79.96 44.32 -24.3 0 0 802.4258 529.4753"></path>
    <path stroke="#97bf9d" vector-effect="non-scaling-stroke" d="   M 935.55 603.21   Q 935.31 603.22 935.31 603.46"></path>
    <path stroke="#939091" vector-effect="non-scaling-stroke" d="   M 935.31 603.46   Q 930.30 604.20 924.83 608.44   Q 921.49 611.03 920.87 612.78   Q 920.70 613.23 920.34 613.56   Q 918.49 615.24 917.58 616.98   Q 916.57 618.92 915.46 620.58   C 912.97 624.31 911.54 628.24 908.89 631.84   C 905.43 636.53 902.55 641.48 898.59 645.91   Q 883.28 663.03 861.08 663.44   C 846.60 663.70 839.28 656.18 833.80 644.20   Q 825.02 625.00 817.59 605.24"></path>
    <path stroke="#97bf9d" vector-effect="non-scaling-stroke" d="   M 817.59 605.24   Q 817.84 605.08 817.74 604.88   Q 817.66 604.75 817.51 604.76   Q 817.33 604.77 817.40 604.99"></path>
    <path stroke="#939091" vector-effect="non-scaling-stroke" d="   M 817.40 604.99   C 814.24 596.37 806.52 586.82 796.26 589.10   Q 790.50 590.38 786.40 595.14   Q 784.94 596.84 782.01 598.43   Q 781.56 598.68 781.41 599.18   Q 781.08 600.29 780.09 600.90   Q 778.18 602.08 776.92 603.74   Q 775.95 605.01 774.70 605.90   Q 772.51 607.47 771.02 609.72   C 770.27 610.85 769.03 611.37 768.11 612.42   Q 764.70 616.27 761.48 619.92   Q 759.42 622.25 757.10 624.46   Q 754.79 626.67 752.98 629.28   Q 750.93 632.25 748.36 635.38   C 743.16 641.71 741.51 649.77 746.60 656.92   Q 757.72 672.55 766.11 686.93   C 780.33 711.30 750.30 725.88 732.45 732.02   C 714.43 738.23 694.75 742.23 675.35 744.43   C 652.77 746.98 627.25 744.55 607.43 734.01   C 591.69 725.64 580.00 713.33 587.20 694.04   Q 590.04 686.42 594.24 680.73   Q 594.71 680.09 594.67 679.79   Q 601.42 670.36 610.56 663.32   C 615.61 659.43 620.77 655.31 625.24 651.40   C 637.03 641.09 645.97 627.05 648.00 611.37   Q 649.36 600.87 639.40 597.74   Q 632.08 595.43 622.67 597.24   C 600.56 601.48 575.50 611.87 565.89 633.50"></path>
    <path stroke="#97bf9d" vector-effect="non-scaling-stroke" d="   M 565.89 633.50   Q 565.76 633.61 565.67 633.78"></path>
    <path stroke="#939091" vector-effect="non-scaling-stroke" d="   M 565.67 633.78   Q 563.44 642.12 561.59 646.63   Q 560.67 648.86 558.28 651.67   C 557.59 652.48 557.60 653.50 556.87 654.29   Q 553.13 658.35 550.32 662.74   Q 549.92 663.37 549.53 664.04   Q 547.66 667.27 545.55 670.42   C 545.18 670.97 545.34 671.60 544.90 672.19   Q 543.79 673.68 543.18 675.37   Q 542.70 676.71 541.99 677.89   C 540.23 680.81 538.68 683.56 537.40 686.69   Q 536.14 689.76 534.72 692.96   C 524.77 715.36 519.56 743.80 524.05 768.10   Q 531.75 809.77 570.04 827.81   Q 585.06 834.88 601.88 837.28   Q 646.88 843.71 690.93 834.42   Q 693.73 833.82 696.50 832.98   C 697.95 832.53 699.27 832.73 700.57 831.87   Q 701.01 831.58 701.53 831.64   Q 702.77 831.76 703.93 831.36   Q 709.39 829.48 714.77 827.40   C 716.49 826.74 718.18 826.92 719.86 826.11   C 723.06 824.55 726.43 822.72 729.80 821.82   Q 731.98 821.24 733.95 819.84   C 737.09 817.61 740.67 816.82 743.97 814.73   Q 745.77 813.59 747.69 812.47   Q 754.41 808.54 760.97 803.61   Q 767.98 798.35 773.16 793.41   Q 796.93 770.74 808.63 741.47   Q 810.71 736.27 811.57 734.48   Q 811.79 734.02 812.30 734.09   Q 814.22 734.37 815.78 735.16   Q 819.81 737.22 824.12 739.41   Q 826.47 740.61 829.33 741.43   Q 831.82 742.15 834.49 743.10   Q 840.41 745.22 847.24 746.60   Q 866.89 750.58 884.78 746.60   Q 885.94 746.34 886.99 745.85   C 887.93 745.41 889.21 745.62 890.31 745.28   Q 909.13 739.42 924.51 726.43   A 1.71 1.71 0.0 0 1 926.95 726.68   C 948.86 754.35 987.83 753.99 1019.53 747.09   Q 1039.44 742.76 1059.00 736.35   Q 1059.84 736.07 1060.72 735.98   Q 1061.71 735.87 1062.63 735.59   Q 1069.26 733.54 1075.89 731.36   C 1078.05 730.65 1080.12 730.70 1082.32 729.90   Q 1092.01 726.41 1095.73 725.57   Q 1103.46 723.81 1111.56 720.88   C 1112.54 720.52 1113.56 720.78 1114.51 720.46   Q 1122.63 717.75 1131.55 715.80   Q 1159.39 709.73 1186.20 714.16   Q 1192.71 715.24 1199.63 716.51   C 1214.43 719.24 1228.49 713.36 1238.60 702.34   C 1252.40 687.28 1259.72 665.79 1262.74 645.02   C 1263.84 637.49 1264.09 630.89 1260.22 624.13   C 1256.05 616.84 1248.34 612.63 1240.02 614.64   Q 1235.97 615.62 1231.57 618.34   C 1224.56 622.66 1215.64 626.90 1207.60 623.88   Q 1203.89 622.48 1196.92 616.40   Q 1182.53 603.84 1170.84 593.26   Q 1143.20 568.23 1111.83 553.32   C 1088.43 542.20 1064.88 540.74 1044.70 557.84   C 1034.02 566.89 1026.63 582.25 1010.96 582.97   Q 1007.60 583.13 1003.81 584.32   Q 998.48 585.99 994.47 589.66   Q 985.33 598.04 982.20 610.91   Q 979.52 621.90 981.49 631.42   C 981.87 633.25 982.67 634.91 983.26 636.68   C 984.13 639.33 988.39 643.37 990.98 644.39   Q 997.09 646.77 1003.59 645.27   Q 1011.26 643.50 1018.55 639.25   Q 1026.93 634.36 1034.78 628.64   Q 1034.86 628.58 1034.84 628.48   Q 1034.80 628.32 1034.91 628.24   Q 1038.05 626.05 1041.19 624.01   A 39.05 12.96 -24.9 0 0 1045.30 621.18   Q 1046.21 620.52 1047.81 620.03   Q 1049.26 619.59 1050.40 619.00   Q 1057.78 615.16 1060.29 614.78   Q 1064.24 614.18 1068.67 613.47   Q 1085.79 610.73 1099.77 620.71   Q 1115.15 631.70 1128.99 646.76   Q 1129.68 647.51 1129.87 648.45   Q 1130.08 649.49 1129.02 649.53   C 1089.20 650.82 1055.90 658.91 1012.54 669.17   Q 999.37 672.29 985.55 671.19   Q 975.41 670.38 968.62 664.24   Q 958.41 654.99 960.48 640.73   C 961.63 632.77 962.92 624.41 961.03 616.45   C 959.66 610.65 956.29 606.98 950.51 604.83   Q 943.36 602.18 935.55 603.21"></path>
    <path stroke="#2b502f" vector-effect="non-scaling-stroke" d="   M 565.67 633.78   Q 565.63 634.03 565.65 634.24   Q 565.74 635.16 566.00 634.28   Q 566.09 633.94 565.89 633.50"></path>
    <path stroke="#2b502f" vector-effect="non-scaling-stroke" d="   M 817.40 604.99   Q 817.41 605.25 817.59 605.24"></path>
    <path stroke="#2b502f" vector-effect="non-scaling-stroke" d="   M 935.31 603.46   Q 935.66 603.57 935.85 603.46   Q 936.13 603.32 935.82 603.27   Q 935.68 603.25 935.55 603.21"></path>
    <path stroke="#97bf9d" vector-effect="non-scaling-stroke" d="   M 1110.01 792.95   Q 1110.24 792.82 1110.47 792.69"></path>
    <path stroke="#939091" vector-effect="non-scaling-stroke" d="   M 1110.47 792.69   A 50.14 26.41 -21.7 0 0 1129.30 778.08   A 50.21 26.36 -21.8 0 0 1137.21 763.74   A 50.16 26.39 -21.8 0 0 1130.35 747.39   A 50.10 26.35 -21.7 0 0 1115.00 742.71   A 50.09 26.35 -21.8 0 0 1089.62 745.56   A 49.86 26.53 -22.4 0 0 1081.83 748.11   A 50.25 26.32 -21.8 0 0 1064.69 756.67   A 50.22 26.36 -21.8 0 0 1052.59 766.35   A 50.17 26.36 -21.7 0 0 1043.69 779.48   A 50.15 26.38 -21.7 0 0 1051.02 799.98   A 50.31 26.52 -21.8 0 0 1062.01 803.46   A 50.14 26.36 -21.7 0 0 1087.03 801.81   A 50.35 26.18 -21.7 0 0 1099.00 798.06   A 50.48 26.13 -21.7 0 0 1110.01 792.95"></path>
    <path stroke="#2b502f" vector-effect="non-scaling-stroke" d="   M 1110.47 792.69   Q 1110.15 792.51 1110.01 792.95"></path>
    <path stroke="#97bf9d" vector-effect="non-scaling-stroke" d="   M 1150.43 762.61   Q 1150.07 762.83 1149.93 763.08"></path>
    <path stroke="#939091" vector-effect="non-scaling-stroke" d="   M 1149.93 763.08   Q 1142.87 768.87 1138.79 776.98   C 1135.15 784.22 1135.58 792.69 1142.39 797.85   C 1148.25 802.28 1154.82 803.63 1162.04 803.85"></path>
    <path stroke="#97bf9d" vector-effect="non-scaling-stroke" d="   M 1162.04 803.85   Q 1166.41 804.26 1170.73 803.75   A 0.01 0.00 -48.6 0 0 1170.73 803.74   L 1169.82 803.65"></path>
    <path stroke="#939091" vector-effect="non-scaling-stroke" d="   M 1169.82 803.65   C 1177.55 802.98 1184.47 801.05 1191.84 798.67"></path>
    <path stroke="#97bf9d" vector-effect="non-scaling-stroke" d="   M 1191.84 798.67   Q 1192.53 798.78 1192.41 798.37"></path>
    <path stroke="#939091" vector-effect="non-scaling-stroke" d="   M 1192.41 798.37   Q 1207.47 792.78 1219.49 782.29   C 1229.18 773.82 1238.66 756.20 1223.25 747.11   Q 1218.67 744.41 1214.66 743.72   Q 1198.17 740.90 1182.25 745.98   Q 1163.34 752.01 1150.43 762.61"></path>
    <path stroke="#2b502f" vector-effect="non-scaling-stroke" d="   M 1192.41 798.37   Q 1191.50 798.53 1191.84 798.67"></path>
    <path stroke="#2b502f" vector-effect="non-scaling-stroke" d="   M 1169.82 803.65   L 1162.04 803.85"></path>
    <path stroke="#2b502f" vector-effect="non-scaling-stroke" d="   M 1149.93 763.08   Q 1150.44 763.42 1150.43 762.61"></path>
    <path stroke="#97bf9d" vector-effect="non-scaling-stroke" d="   M 896.32 814.00   A 3.96 0.82 -35.7 0 0 896.78 813.69"></path>
    <path stroke="#939091" vector-effect="non-scaling-stroke" d="   M 896.78 813.69   Q 896.91 813.60 897.04 813.51"></path>
    <path stroke="#97bf9d" vector-effect="non-scaling-stroke" d="   M 897.04 813.51   A 4.16 0.81 -36.1 0 0 897.52 813.18"></path>
    <path stroke="#939091" vector-effect="non-scaling-stroke" d="   M 897.52 813.18   A 49.83 26.15 -21.6 0 0 911.99 799.50   A 49.79 25.99 -22.0 0 0 916.25 791.49   A 49.91 26.23 -21.7 0 0 907.60 771.12   A 49.88 26.29 -21.8 0 0 897.50 768.21   A 49.95 26.24 -21.6 0 0 874.25 769.60   A 49.90 26.23 -21.7 0 0 837.72 786.97   A 49.82 26.20 -21.6 0 0 825.69 800.72   A 49.96 26.39 -21.4 0 0 822.82 808.77   A 49.91 26.23 -21.7 0 0 829.63 823.88   A 49.60 26.18 -22.0 0 0 837.25 827.28   A 49.94 26.35 -21.7 0 0 855.02 828.63   A 49.89 26.24 -21.7 0 0 896.32 814.00"></path>
    <path stroke="#2b502f" vector-effect="non-scaling-stroke" d="   M 897.52 813.18   Q 897.01 813.11 897.04 813.51"></path>
    <path stroke="#2b502f" vector-effect="non-scaling-stroke" d="   M 896.78 813.69   Q 896.22 813.53 896.32 814.00"></path>
    <path stroke="#939091" vector-effect="non-scaling-stroke" d="   M 1008.2758 779.9306   A 49.90 26.36 -21.6 0 0 952.1762 773.7911   A 49.90 26.36 -21.6 0 0 915.4842 816.6694   A 49.90 26.36 -21.6 0 0 971.5838 822.8089   A 49.90 26.36 -21.6 0 0 1008.2758 779.9306"></path>
    <path stroke="#939091" vector-effect="non-scaling-stroke" d="   M 1149.8797 811.8326   A 49.90 26.29 -21.4 0 0 1093.8274 805.5625   A 49.90 26.29 -21.4 0 0 1056.9603 848.2474   A 49.90 26.29 -21.4 0 0 1113.0126 854.5175   A 49.90 26.29 -21.4 0 0 1149.8797 811.8326"></path>
    <path stroke="#f78e91" vector-effect="non-scaling-stroke" d="   M 802.2955 861.7444   A 79.90 44.39 -24.1 0 0 711.2342 853.8493   A 79.90 44.39 -24.1 0 0 656.4245 926.9956   A 79.90 44.39 -24.1 0 0 747.4858 934.8907   A 79.90 44.39 -24.1 0 0 802.2955 861.7444"></path>
    <path stroke="#97bf9d" vector-effect="non-scaling-stroke" d="   M 988.98 928.02   Q 988.91 927.92 988.69 928.30"></path>
    <path stroke="#939091" vector-effect="non-scaling-stroke" d="   M 988.69 928.30   Q 980.11 940.78 980.94 957.15   Q 981.32 964.61 983.66 968.52   Q 983.92 968.97 983.86 969.49   Q 983.80 970.02 984.12 970.45   Q 991.01 979.69 1003.68 976.69   Q 1007.82 975.70 1010.75 974.29   C 1012.00 973.69 1013.18 973.96 1014.53 973.25   Q 1019.22 970.81 1023.34 968.20   Q 1024.40 967.53 1025.49 966.99"></path>
    <path stroke="#97bf9d" vector-effect="non-scaling-stroke" d="   M 1025.49 966.99   Q 1025.92 967.00 1026.00 966.66"></path>
    <path stroke="#939091" vector-effect="non-scaling-stroke" d="   M 1026.00 966.66   Q 1030.77 963.02 1035.54 959.32   Q 1036.70 958.42 1037.96 957.74   C 1040.09 956.58 1041.69 954.90 1043.93 953.80   Q 1047.36 952.11 1050.81 950.30   Q 1053.31 948.99 1056.62 947.95   Q 1059.82 946.94 1062.65 946.15   Q 1073.87 943.02 1084.56 945.38   Q 1092.07 947.04 1102.27 954.18   Q 1118.88 965.81 1129.11 979.52   Q 1129.51 980.06 1129.62 980.78   A 0.67 0.67 0.0 0 1 1128.98 981.55   C 1117.17 982.05 1105.57 982.39 1093.86 984.11   Q 1084.25 985.52 1074.33 987.69   Q 1037.41 995.79 1005.76 1002.38   Q 994.98 1004.63 983.13 1002.82   C 967.91 1000.48 958.19 987.73 960.38 972.46   C 962.80 955.61 965.03 935.60 941.25 934.61   Q 929.60 934.13 922.36 942.45   Q 920.64 944.43 918.86 947.28   C 917.39 949.63 914.98 952.13 913.96 954.65   Q 913.41 956.00 912.43 957.24   Q 911.19 958.80 910.05 960.62   Q 905.82 967.34 901.44 973.95"></path>
    <path stroke="#97bf9d" vector-effect="non-scaling-stroke" d="   M 901.44 973.95   Q 901.35 974.02 901.25 974.09"></path>
    <path stroke="#939091" vector-effect="non-scaling-stroke" d="   M 901.25 974.09   Q 896.29 981.73 888.08 987.05   C 871.57 997.76 846.11 1001.53 835.89 979.81   Q 832.03 971.60 828.37 963.43   Q 827.96 962.52 827.82 961.54"></path>
    <path stroke="#97bf9d" vector-effect="non-scaling-stroke" d="   M 827.82 961.54   Q 827.69 961.15 827.51 961.02"></path>
    <path stroke="#939091" vector-effect="non-scaling-stroke" d="   M 827.51 961.02   Q 824.88 955.84 822.84 950.50   Q 820.94 945.55 818.97 940.99   Q 817.69 938.02 816.56 934.95   Q 814.71 929.95 811.26 925.98   Q 803.72 917.32 792.59 922.67   Q 786.89 925.40 782.96 929.39   C 782.36 930.01 781.67 930.17 781.09 930.76   Q 770.45 941.56 760.66 952.96   C 758.97 954.93 756.95 956.51 755.30 958.51   Q 753.46 960.75 751.56 962.88   C 746.60 968.44 740.78 975.61 744.24 983.55   Q 744.75 984.71 745.15 985.89   Q 745.73 987.57 746.74 989.02   Q 755.31 1001.34 763.99 1015.55   C 766.52 1019.69 768.53 1024.32 769.23 1029.11   Q 769.87 1033.46 767.71 1038.66   C 763.75 1048.18 754.42 1053.95 744.98 1058.32   C 715.63 1071.89 681.73 1078.11 648.45 1076.44   C 629.47 1075.48 592.28 1065.77 585.73 1044.21   Q 583.95 1038.35 586.00 1030.95   Q 590.52 1014.66 604.21 1001.32   Q 609.19 996.48 613.78 992.51   Q 620.73 986.51 627.03 980.74   C 637.88 970.81 645.19 959.02 647.95 944.54   Q 648.56 941.35 647.93 938.53   Q 646.52 932.16 640.49 929.44   Q 636.38 927.59 631.33 928.05   C 608.28 930.13 587.65 938.61 571.91 955.32   C 568.92 958.50 567.43 961.54 566.05 965.59   Q 563.68 972.56 559.91 980.33   Q 558.54 983.15 556.63 985.41   Q 554.56 987.86 553.09 990.74   Q 551.97 992.93 550.46 994.98   C 549.22 996.66 547.16 998.89 546.60 1000.91   Q 546.31 1001.96 545.70 1002.78   Q 542.63 1006.93 541.21 1010.46   Q 540.44 1012.37 539.36 1014.21   Q 538.22 1016.16 537.55 1018.30   Q 537.51 1018.42 537.39 1018.37   Q 537.23 1018.31 537.17 1018.45   Q 532.01 1030.27 528.77 1040.51   C 516.49 1079.33 519.02 1124.73 554.91 1150.36   C 573.40 1163.56 596.23 1169.36 619.31 1171.25   C 642.53 1173.16 666.13 1171.22 689.24 1166.66   Q 697.36 1165.05 705.11 1162.41   C 706.22 1162.03 707.19 1162.20 708.32 1161.82   Q 713.05 1160.22 717.40 1158.49   Q 719.93 1157.48 722.89 1156.52   Q 726.23 1155.45 730.08 1153.14   C 731.12 1152.52 732.41 1152.40 733.51 1151.91   C 737.00 1150.38 740.27 1148.27 743.86 1146.58   Q 746.46 1145.35 748.62 1143.45   Q 748.98 1143.14 749.44 1143.02   Q 750.46 1142.77 751.34 1142.20   C 779.41 1124.25 800.40 1098.95 810.45 1067.33   A 1.48 1.48 0.0 0 1 812.47 1066.43   Q 819.41 1069.58 826.60 1072.39   C 846.01 1079.99 866.91 1082.91 887.14 1078.06   C 889.36 1077.53 891.50 1076.44 893.73 1076.12   Q 895.84 1075.83 898.15 1074.70   Q 901.74 1072.94 905.13 1071.32   Q 908.92 1069.50 912.07 1067.55   Q 918.71 1063.44 924.48 1058.78   A 1.91 1.91 0.0 0 1 927.15 1059.04   Q 932.05 1064.91 938.75 1069.65"></path>
    <path stroke="#97bf9d" vector-effect="non-scaling-stroke" d="   M 938.75 1069.65   Q 938.66 1069.96 939.31 1070.01"></path>
    <path stroke="#939091" vector-effect="non-scaling-stroke" d="   M 939.31 1070.01   Q 951.80 1078.33 966.85 1081.11   Q 991.46 1085.67 1015.76 1079.73   Q 1035.41 1074.92 1047.83 1071.37   Q 1051.95 1070.19 1056.22 1069.18   Q 1060.46 1068.18 1064.51 1066.56   C 1066.05 1065.94 1067.64 1066.21 1069.13 1065.72   Q 1077.38 1063.02 1085.25 1060.31   C 1086.23 1059.97 1087.32 1060.12 1088.31 1059.83   Q 1093.82 1058.20 1099.18 1056.07   C 1100.67 1055.48 1102.06 1055.77 1103.53 1055.24   Q 1110.27 1052.82 1117.07 1050.42   C 1118.29 1049.98 1119.43 1050.26 1120.62 1049.85   Q 1127.00 1047.69 1133.53 1046.88   Q 1133.70 1046.86 1133.54 1046.81   Q 1133.40 1046.78 1133.23 1046.79   A 0.06 0.05 35.9 0 1 1133.21 1046.68   Q 1149.18 1043.50 1166.35 1043.36   Q 1172.38 1043.31 1177.59 1044.19   C 1192.41 1046.70 1209.58 1052.51 1223.57 1045.29   Q 1228.02 1042.99 1232.80 1038.87   C 1253.88 1020.66 1263.60 992.33 1262.92 964.81   Q 1262.79 959.81 1259.44 954.25"></path>
    <path stroke="#97bf9d" vector-effect="non-scaling-stroke" d="   M 1259.44 954.25   Q 1259.47 954.08 1259.20 953.92"></path>
    <path stroke="#939091" vector-effect="non-scaling-stroke" d="   M 1259.20 953.92   Q 1256.24 950.47 1252.06 948.18   C 1244.13 943.85 1236.81 946.78 1229.74 951.05   Q 1225.81 953.43 1221.46 955.42   Q 1216.49 957.69 1212.51 957.33   Q 1206.38 956.78 1201.49 952.24   C 1179.26 931.59 1155.83 910.73 1130.13 895.08   Q 1113.89 885.19 1097.64 879.64   C 1067.88 869.46 1047.36 884.36 1029.36 905.73   C 1026.39 909.26 1022.94 912.07 1018.46 913.20   C 1013.29 914.49 1007.39 914.85 1002.24 916.70   C 996.87 918.63 992.64 923.15 988.98 928.02"></path>
    <path stroke="#2b502f" vector-effect="non-scaling-stroke" d="   M 1259.20 953.92   Q 1258.92 954.36 1259.26 954.62   Q 1259.45 954.77 1259.54 954.54   Q 1259.60 954.38 1259.44 954.25"></path>
    <path stroke="#2b502f" vector-effect="non-scaling-stroke" d="   M 939.31 1070.01   Q 939.00 1069.43 938.75 1069.65"></path>
    <path stroke="#2b502f" vector-effect="non-scaling-stroke" d="   M 827.51 961.02   Q 827.44 961.05 827.38 961.08   Q 827.24 961.15 827.26 961.31   Q 827.31 961.64 827.52 961.89   Q 827.70 962.10 827.85 961.86   Q 827.93 961.71 827.82 961.54"></path>
    <path stroke="#2b502f" vector-effect="non-scaling-stroke" d="   M 901.25 974.09   Q 901.19 974.37 901.22 974.51   Q 901.29 974.81 901.50 974.53   Q 901.64 974.36 901.44 973.95"></path>
    <path stroke="#2b502f" vector-effect="non-scaling-stroke" d="   M 1026.00 966.66   Q 1025.84 966.15 1025.49 966.99"></path>
    <path stroke="#2b502f" vector-effect="non-scaling-stroke" d="   M 988.69 928.30   Q 988.72 928.43 988.76 928.51   Q 988.90 928.73 988.99 928.43   Q 989.04 928.24 988.98 928.02"></path>
    <path stroke="#97bf9d" vector-effect="non-scaling-stroke" d="   M 489.87 908.15   Q 487.97 915.00 489.94 921.81"></path>
    <path stroke="#939091" vector-effect="non-scaling-stroke" d="   M 489.94 921.81   Q 490.44 923.93 491.33 926.18   Q 492.51 929.16 493.59 931.87   Q 494.75 934.75 496.78 937.17   Q 500.07 941.08 503.53 944.12   Q 506.50 946.73 510.21 948.48   Q 515.67 951.06 518.48 951.85   C 525.62 953.86 534.81 953.48 541.84 949.89   Q 544.32 948.62 547.00 947.53   C 549.20 946.64 550.73 944.53 552.84 943.22   Q 556.42 941.02 558.28 937.56   Q 560.92 932.64 560.99 932.52   Q 563.49 928.39 564.70 924.28   C 566.27 918.91 565.84 911.76 564.82 906.58   Q 563.78 901.31 560.27 895.82   Q 560.06 895.49 560.05 895.10   Q 560.03 894.73 559.82 894.41   Q 555.23 887.45 549.49 883.72   Q 545.30 880.99 540.26 878.81   Q 537.19 877.48 533.78 877.16   Q 530.54 876.87 527.33 876.75   Q 519.55 876.48 513.03 879.68   Q 508.14 882.08 503.80 884.85   Q 503.41 885.10 503.29 885.55   Q 503.19 885.91 502.90 886.13   C 501.55 887.13 499.05 888.88 498.44 890.48   Q 498.06 891.47 497.26 892.15   Q 496.15 893.10 495.41 894.42   Q 491.72 901.03 489.87 908.15"></path>
    <path stroke="#2b502f" vector-effect="non-scaling-stroke" d="   M 489.94 921.81   L 489.87 908.15"></path>
    <path stroke="#97bf9d" vector-effect="non-scaling-stroke" d="   M 1061.48 1093.23   A 4.55 0.81 -36.8 0 1 1060.96 1093.60"></path>
    <path stroke="#939091" vector-effect="non-scaling-stroke" d="   M 1060.96 1093.60   A 50.14 26.43 -21.4 0 0 1047.09 1107.30   A 49.53 26.35 -21.0 0 0 1043.91 1113.18   A 50.09 26.39 -21.4 0 0 1048.11 1132.37   A 49.84 26.20 -21.3 0 0 1055.71 1136.34   A 50.05 26.40 -21.5 0 0 1083.73 1136.95   A 49.94 26.54 -21.5 0 0 1094.21 1134.22   A 49.98 26.47 -21.7 0 0 1106.23 1129.39"></path>
    <path stroke="#97bf9d" vector-effect="non-scaling-stroke" d="   M 1106.23 1129.39   A 4.05 1.33 -23.7 0 0 1106.74 1129.14"></path>
    <path stroke="#939091" vector-effect="non-scaling-stroke" d="   M 1106.74 1129.14   A 50.05 26.41 -21.4 0 0 1126.28 1115.79   A 49.58 26.44 -21.1 0 0 1131.37 1110.15   A 50.03 26.42 -21.3 0 0 1136.14 1101.89   A 50.09 26.38 -21.5 0 0 1131.41 1082.83   A 50.03 26.32 -21.3 0 0 1115.43 1077.36   A 50.10 26.38 -21.4 0 0 1087.35 1080.73   A 11.57 0.95 -17.6 0 0 1085.79 1081.22   A 50.08 26.38 -21.4 0 0 1061.48 1093.23"></path>
    <path stroke="#2b502f" vector-effect="non-scaling-stroke" d="   M 1106.74 1129.14   Q 1106.66 1128.99 1106.36 1129.07   Q 1106.25 1129.10 1106.19 1129.20   Q 1106.09 1129.37 1106.23 1129.39"></path>
    <path stroke="#2b502f" vector-effect="non-scaling-stroke" d="   M 1060.96 1093.60   Q 1061.70 1093.71 1061.48 1093.23"></path>
    <path stroke="#97bf9d" vector-effect="non-scaling-stroke" d="   M 1154.28 1137.61   A 49.88 26.48 -21.5 0 0 1172.25 1137.93"></path>
    <path stroke="#939091" vector-effect="non-scaling-stroke" d="   M 1172.25 1137.93   A 49.80 26.47 -21.4 0 0 1190.70 1133.47"></path>
    <path stroke="#97bf9d" vector-effect="non-scaling-stroke" d="   M 1190.70 1133.47   Q 1191.09 1133.33 1191.48 1133.19"></path>
    <path stroke="#939091" vector-effect="non-scaling-stroke" d="   M 1191.48 1133.19   A 49.88 26.36 -21.5 0 0 1221.24 1114.75   A 49.26 26.24 -21.2 0 0 1226.14 1108.89   A 49.88 26.32 -21.6 0 0 1231.14 1096.50   A 49.84 26.35 -21.5 0 0 1226.51 1084.26   A 49.86 26.37 -21.5 0 0 1213.75 1078.26   A 49.83 26.36 -21.5 0 0 1185.50 1079.71   A 49.87 26.37 -21.5 0 0 1154.23 1094.25   A 49.94 26.47 -21.4 0 0 1140.37 1108.59   A 49.98 26.58 -21.2 0 0 1136.73 1117.51   A 49.80 26.33 -21.5 0 0 1141.16 1131.57   A 49.88 26.42 -21.5 0 0 1154.28 1137.61"></path>
    <path stroke="#2b502f" vector-effect="non-scaling-stroke" d="   M 1191.48 1133.19   Q 1190.97 1132.99 1190.70 1133.47"></path>
    <path stroke="#2b502f" vector-effect="non-scaling-stroke" d="   M 1172.25 1137.93   L 1154.28 1137.61"></path>
    <path stroke="#939091" vector-effect="non-scaling-stroke" d="   M 916.4300 1114.1813   A 49.92 26.37 -21.8 0 0 860.2870 1108.2358   A 49.92 26.37 -21.8 0 0 823.7300 1151.2587   A 49.92 26.37 -21.8 0 0 879.8730 1157.2042   A 49.92 26.37 -21.8 0 0 916.4300 1114.1813"></path>
    <path stroke="#939091" vector-effect="non-scaling-stroke" d="   M 1008.3223 1114.2322   A 49.92 26.37 -21.7 0 0 952.1898 1108.1888   A 49.92 26.37 -21.7 0 0 915.5577 1151.1478   A 49.92 26.37 -21.7 0 0 971.6902 1157.1912   A 49.92 26.37 -21.7 0 0 1008.3223 1114.2322"></path>
    <path stroke="#97bf9d" vector-effect="non-scaling-stroke" d="   M 1129.76 1180.47   A 4.19 1.38 -32.6 0 0 1130.25 1180.14"></path>
    <path stroke="#939091" vector-effect="non-scaling-stroke" d="   M 1130.25 1180.14   A 49.93 26.05 -21.4 0 0 1135.63 1176.14   A 49.87 26.35 -21.6 0 0 1147.63 1162.40   A 49.82 26.36 -21.5 0 0 1150.64 1150.00   A 49.83 26.36 -21.7 0 0 1145.80 1140.70   A 49.96 26.49 -21.7 0 0 1132.50 1134.77   A 49.90 26.42 -21.6 0 0 1110.25 1135.26   A 49.71 26.37 -22.0 0 0 1100.44 1137.70   A 49.88 26.41 -21.8 0 0 1086.27 1143.38   A 49.84 26.46 -21.6 0 0 1069.21 1154.68   A 49.85 26.32 -21.6 0 0 1057.54 1170.00   A 49.88 26.38 -21.6 0 0 1061.01 1188.67   A 49.83 26.37 -21.6 0 0 1076.24 1194.81   A 49.89 26.34 -21.6 0 0 1098.26 1193.63   A 49.86 26.39 -21.6 0 0 1129.76 1180.47"></path>
    <path stroke="#2b502f" vector-effect="non-scaling-stroke" d="   M 1130.25 1180.14   Q 1129.76 1180.00 1129.76 1180.47"></path>
    <path stroke="#939091" vector-effect="non-scaling-stroke" d="   M 518.42 883.05   Q 515.94 883.80 514.21 884.72   Q 509.70 887.12 505.29 890.56"></path>
    <path stroke="#2b502f" vector-effect="non-scaling-stroke" d="   M 505.29 890.56   C 504.60 890.86 504.08 890.97 503.55 891.52   Q 498.23 897.14 496.20 904.06"></path>
    <path stroke="#939091" vector-effect="non-scaling-stroke" d="   M 496.20 904.06   C 494.92 909.28 493.16 914.09 494.71 919.78   Q 495.82 923.87 497.03 928.44   Q 497.48 930.12 498.46 931.27   Q 500.18 933.27 501.41 935.60   Q 502.78 938.17 508.65 941.96"></path>
    <path stroke="#2b502f" vector-effect="non-scaling-stroke" d="   M 508.65 941.96   Q 512.71 946.10 518.09 946.57"></path>
    <path stroke="#939091" vector-effect="non-scaling-stroke" d="   M 518.09 946.57   Q 527.93 949.37 538.03 946.39"></path>
    <path stroke="#2b502f" vector-effect="non-scaling-stroke" d="   M 538.03 946.39   Q 552.89 941.73 558.28 927.58"></path>
    <path stroke="#939091" vector-effect="non-scaling-stroke" d="   M 558.28 927.58   Q 563.08 916.34 559.27 905.33   Q 558.19 902.22 556.39 899.37   Q 554.86 896.98 553.54 894.61   Q 551.58 891.08 548.01 888.97   Q 546.93 888.33 546.06 887.44   Q 544.55 885.91 542.26 885.10   Q 539.18 884.02 536.41 882.98"></path>
    <path stroke="#2b502f" vector-effect="non-scaling-stroke" d="   M 536.41 882.98   Q 527.37 879.96 518.42 883.05"></path>
    <path stroke="#97bf9d" vector-effect="non-scaling-stroke" d="   M 536.41 882.98   Q 527.42 881.79 518.42 883.05"></path>
    <path stroke="#97bf9d" vector-effect="non-scaling-stroke" d="   M 558.28 927.58   Q 556.59 929.78 555.17 932.14   Q 553.30 935.23 552.00 936.63   Q 549.78 939.03 547.18 941.03   Q 545.90 942.01 542.59 943.64   Q 540.22 944.81 538.03 946.39"></path>
    <path stroke="#97bf9d" vector-effect="non-scaling-stroke" d="   M 518.09 946.57   L 508.65 941.96"></path>
    <path stroke="#97bf9d" vector-effect="non-scaling-stroke" d="   M 496.20 904.06   Q 497.90 901.33 499.40 898.51   Q 500.56 896.33 502.17 894.43   Q 503.73 892.59 505.29 890.56"></path>
    <path stroke="#97bf9d" vector-effect="non-scaling-stroke" d="   M 517.53 896.07   C 515.08 895.70 513.21 897.48 513.24 899.86   Q 513.39 910.99 513.25 921.98   Q 513.25 922.26 513.00 922.40   Q 512.71 922.57 512.67 922.89   Q 511.93 927.97 513.44 932.43"></path>
    <path stroke="#939091" vector-effect="non-scaling-stroke" d="   M 513.44 932.43   Q 515.73 933.48 517.52 932.82   Q 518.87 932.33 518.86 930.89   Q 518.84 924.33 518.92 918.87   Q 518.97 916.19 521.65 916.32   Q 529.34 916.70 533.60 923.18   Q 534.87 925.12 536.33 926.72   Q 538.24 928.84 539.34 931.55   C 540.77 935.09 544.84 934.03 545.65 930.88   Q 545.79 930.33 545.40 929.91   Q 544.39 928.84 543.92 927.80"></path>
    <path stroke="#97bf9d" vector-effect="non-scaling-stroke" d="   M 543.92 927.80   Q 540.91 923.22 537.46 919.07   C 536.18 917.54 536.70 916.44 537.98 915.11   Q 538.71 914.35 539.13 913.45"></path>
    <path stroke="#939091" vector-effect="non-scaling-stroke" d="   M 539.13 913.45   L 541.63 912.41   Q 542.16 912.19 542.46 911.71   Q 543.47 910.11 543.67 908.00   Q 544.14 903.09 541.70 900.01   Q 539.90 897.76 535.30 896.64   Q 530.81 895.54 526.17 895.39   C 523.52 895.30 520.44 895.92 517.53 896.07"></path>
    <path stroke="#2b502f" vector-effect="non-scaling-stroke" d="   M 539.13 913.45   C 534.95 915.35 534.67 917.72 537.95 920.89   C 540.36 923.21 540.71 925.89 543.92 927.80"></path>
    <path stroke="#2b502f" vector-effect="non-scaling-stroke" d="   M 513.44 932.43   Q 513.82 917.97 513.58 904.00   Q 513.53 901.29 514.34 898.78   Q 514.68 897.70 515.59 897.10   Q 516.53 896.47 517.53 896.07"></path>
    <path stroke="#939091" vector-effect="non-scaling-stroke" d="   M 519.85 900.68   Q 515.70 906.87 519.59 910.60   Q 520.98 911.94 522.48 911.97   Q 527.49 912.05 532.57 912.31   Q 533.74 912.36 534.85 911.82   Q 536.60 910.95 537.21 909.23   Q 539.11 903.84 534.34 900.70"></path>
    <path stroke="#2b502f" vector-effect="non-scaling-stroke" d="   M 534.34 900.70   Q 526.50 898.71 519.85 900.68"></path>
    <path stroke="#97bf9d" vector-effect="non-scaling-stroke" d="   M 534.34 900.70   L 519.85 900.68"></path>
  </g>
  <path fill="#ee1c22" d="   M 401.96 1216.93   Q 400.50 1216.42 399.18 1215.81   Q 389.30 1211.21 379.80 1206.07   Q 368.93 1200.17 356.24 1191.25   C 341.55 1180.91 327.28 1169.15 313.77 1156.44   Q 306.24 1149.35 298.74 1142.02   C 293.41 1136.82 288.07 1130.99 282.67 1125.58   Q 279.39 1122.30 276.23 1118.85   Q 265.87 1107.52 256.66 1096.71   Q 231.59 1067.33 208.73 1034.72   Q 186.41 1002.89 171.93 975.55   Q 164.06 960.68 157.53 946.77   Q 152.90 936.92 147.21 923.02   Q 134.70 892.48 132.99 864.77   C 132.42 855.42 132.28 844.78 133.42 835.29   Q 135.85 814.88 142.21 797.02   Q 150.17 774.63 164.16 746.60   Q 164.99 744.93 165.88 743.38   Q 166.98 741.45 167.91 739.65   Q 175.08 725.68 186.98 706.60   Q 214.70 662.19 248.94 621.55   Q 249.92 620.39 250.96 619.35   C 252.27 618.04 252.93 616.38 254.31 615.17   Q 256.16 613.55 257.51 611.60   C 259.30 609.00 261.76 607.18 263.63 604.64   C 266.05 601.38 269.14 598.81 271.78 595.63   C 274.41 592.47 277.40 589.75 280.14 586.79   Q 291.04 574.99 302.63 564.05   Q 307.12 559.81 311.49 555.50   C 314.69 552.35 318.27 549.80 321.31 546.51   C 323.24 544.43 325.72 543.01 327.82 540.90   C 329.69 539.02 331.82 537.54 333.92 535.71   C 340.96 529.57 350.71 522.26 356.14 518.20   Q 381.21 499.47 411.00 487.89   Q 411.54 487.68 412.10 487.66   Q 412.52 487.64 412.82 487.35   Q 413.08 487.09 413.44 486.96   Q 429.99 480.74 447.14 476.42   Q 488.02 466.12 528.13 460.44   C 553.95 456.79 579.64 453.79 605.26 451.42   Q 607.82 451.18 609.77 451.15   C 611.86 451.12 613.69 450.59 615.76 450.43   Q 631.99 449.20 647.76 447.88   Q 650.80 447.63 654.61 447.85   C 655.65 447.91 656.21 447.23 657.26 447.17   Q 662.61 446.86 668.61 446.97   C 669.42 446.98 670.05 446.44 670.73 446.39   Q 677.18 445.97 683.91 446.19   Q 684.45 446.20 684.88 445.90   Q 685.48 445.47 686.16 445.47   Q 693.67 445.44 701.66 445.14   C 703.36 445.08 705.00 444.73 706.62 444.70   C 722.35 444.39 737.65 443.65 753.26 443.65   Q 894.63 443.68 1036.51 443.66   Q 1045.82 443.65 1056.47 444.08   Q 1069.36 444.59 1081.78 444.59   C 1083.17 444.59 1084.24 445.33 1085.60 445.31   Q 1093.27 445.24 1100.88 445.52   Q 1101.63 445.55 1102.31 445.92   Q 1102.78 446.18 1103.31 446.17   Q 1109.82 446.02 1116.04 446.38   Q 1116.52 446.40 1116.93 446.67   A 1.67 1.59 -26.7 0 0 1117.85 446.95   C 1121.78 446.94 1125.73 446.87 1129.70 447.35   C 1134.12 447.88 1138.62 447.91 1143.09 448.24   C 1155.94 449.20 1168.21 450.37 1180.66 451.41   Q 1236.13 456.05 1292.51 466.37   Q 1314.85 470.46 1334.48 475.27   Q 1348.68 478.75 1362.81 483.48   Q 1387.61 491.78 1407.82 503.97   Q 1429.05 516.77 1450.68 534.89   Q 1451.87 535.88 1452.93 536.96   C 1454.21 538.25 1455.85 538.98 1457.07 540.30   Q 1459.09 542.50 1461.44 544.30   C 1464.55 546.67 1466.94 549.61 1469.95 552.01   Q 1472.22 553.81 1474.22 555.80   Q 1481.28 562.80 1488.21 569.34   C 1490.65 571.64 1493.07 573.72 1495.25 576.18   Q 1499.45 580.95 1509.90 591.46   C 1513.28 594.85 1516.09 598.60 1519.47 601.88   C 1521.43 603.78 1522.80 606.03 1524.73 607.96   Q 1525.86 609.09 1526.94 610.33   Q 1567.42 657.06 1599.73 708.52   Q 1619.58 740.14 1633.87 773.46   Q 1642.15 792.77 1647.49 811.13   Q 1650.70 822.15 1652.16 835.54   C 1653.02 843.46 1652.74 851.34 1652.74 859.20   C 1652.74 865.05 1652.12 872.04 1651.21 877.50   Q 1647.44 900.19 1638.70 921.84   Q 1627.54 949.50 1613.15 976.12   C 1588.30 1022.06 1556.78 1064.44 1522.37 1103.91   C 1521.89 1104.46 1521.54 1105.31 1521.01 1105.78   Q 1518.20 1108.30 1515.99 1111.13   C 1513.21 1114.67 1509.82 1117.54 1506.94 1120.99   Q 1504.67 1123.73 1502.25 1126.18   Q 1489.20 1139.38 1476.06 1152.20   Q 1474.42 1153.79 1472.28 1155.51   C 1469.43 1157.80 1467.25 1160.54 1464.30 1162.80   C 1462.25 1164.37 1460.43 1166.27 1458.46 1167.97   Q 1443.02 1181.31 1429.15 1191.33   Q 1404.12 1209.41 1372.57 1221.05   Q 1358.89 1226.10 1344.72 1229.88   Q 1324.94 1235.16 1303.60 1239.00   Q 1251.45 1248.41 1201.00 1252.76   Q 1187.72 1253.90 1174.74 1254.84   Q 1171.24 1255.10 1167.78 1255.28   C 1164.54 1255.45 1161.71 1256.03 1158.54 1256.03   Q 1154.50 1256.03 1149.89 1256.54   Q 1142.91 1257.33 1134.43 1257.18   C 1132.42 1257.15 1130.76 1257.81 1128.81 1257.90   Q 1124.11 1258.10 1118.87 1258.02   C 1116.43 1257.98 1114.18 1258.70 1111.72 1258.77   Q 1105.01 1258.94 1098.34 1258.81   Q 1097.74 1258.80 1097.22 1259.10   Q 1096.71 1259.39 1096.11 1259.41   Q 1088.71 1259.75 1081.21 1259.67   C 1074.19 1259.59 1066.93 1260.50 1060.24 1260.50   Q 928.69 1260.43 819.50 1260.72   C 816.80 1260.72 813.88 1261.09 811.34 1261.09   Q 777.44 1261.13 751.00 1261.10   C 748.62 1261.10 746.18 1260.65 743.76 1260.63   Q 729.46 1260.53 715.26 1260.43   Q 711.36 1260.41 707.32 1260.06   C 699.45 1259.37 691.36 1259.77 683.76 1259.44   C 682.57 1259.39 681.67 1258.84 680.49 1258.84   Q 674.26 1258.86 667.97 1258.78   C 665.36 1258.75 662.89 1258.02 660.40 1258.02   C 656.39 1258.00 652.53 1258.15 648.57 1257.55   Q 645.29 1257.05 641.90 1257.13   Q 638.93 1257.20 635.19 1256.92   Q 619.08 1255.73 602.97 1254.41   Q 602.86 1254.40 599.59 1253.98   C 597.48 1253.71 595.31 1254.11 593.21 1253.63   C 589.71 1252.83 586.14 1253.07 582.53 1252.71   Q 541.69 1248.63 499.41 1242.20   Q 470.74 1237.84 445.74 1231.17   Q 444.34 1230.79 442.93 1230.64   Q 442.43 1230.58 442.06 1230.24   C 441.40 1229.61 440.48 1229.86 439.61 1229.59   Q 436.71 1228.67 433.78 1227.99   Q 433.36 1227.89 433.03 1227.61   Q 432.90 1227.51 432.75 1227.42   Q 432.55 1227.30 432.32 1227.34   Q 431.13 1227.52 430.24 1226.78   Q 429.87 1226.47 429.39 1226.48   L 428.49 1226.49   Q 427.92 1226.49 427.52 1226.08   Q 427.07 1225.62 426.38 1225.65   Q 425.77 1225.68 425.20 1225.49   Q 417.05 1222.80 408.65 1219.86   Q 408.25 1219.72 407.96 1219.43   Q 407.61 1219.09 407.14 1219.02   Q 405.81 1218.80 404.62 1218.18   Q 402.80 1217.22 401.96 1216.93   Z   M 1192.79 522.13   Q 1184.40 519.84 1174.99 517.70   Q 1159.47 514.17 1148.84 512.58   Q 1147.30 512.35 1145.76 512.09   Q 1133.00 509.91 1119.25 508.08   Q 1062.46 500.52 1005.87 498.88   Q 995.52 498.58 985.84 498.59   Q 896.45 498.63 807.22 498.38   Q 797.28 498.36 787.24 498.61   Q 756.07 499.38 738.75 500.77   Q 724.57 501.90 710.27 502.92   Q 698.80 503.74 662.76 508.66   Q 649.23 510.51 635.23 512.96   Q 634.38 513.11 633.52 513.25   Q 621.23 515.22 610.34 517.87   Q 609.50 518.08 608.64 518.13   Q 607.84 518.18 607.03 518.37   Q 598.24 520.49 588.81 523.15   Q 575.66 526.86 562.16 532.44   Q 541.18 541.11 523.26 554.32   Q 522.89 554.60 522.67 555.00   Q 522.42 555.45 521.92 555.51   Q 521.42 555.57 521.04 555.91   C 482.39 590.09 450.22 631.00 423.00 675.31   Q 417.89 683.65 412.70 692.40   Q 391.96 727.42 376.32 765.00   Q 374.14 770.22 367.29 789.47   C 366.77 790.94 366.49 792.48 366.14 793.49   Q 362.66 803.57 360.07 814.01   C 353.54 840.37 353.49 868.50 358.99 895.03   Q 362.43 911.63 368.13 928.30   Q 374.02 945.52 381.75 962.30   Q 381.89 962.61 381.73 962.90   Q 381.59 963.13 381.89 963.26   Q 382.19 963.40 382.33 963.71   C 412.16 1030.32 451.77 1093.06 502.79 1144.06   Q 521.14 1162.40 539.59 1173.15   Q 549.18 1178.74 557.50 1181.61   Q 561.90 1183.13 565.82 1184.62   Q 570.10 1186.23 574.93 1187.64   Q 581.89 1189.66 588.53 1191.62   Q 589.94 1192.03 591.48 1192.39   Q 600.01 1194.39 608.75 1196.60   C 610.27 1196.98 611.93 1196.84 613.49 1197.21   Q 627.20 1200.48 635.07 1201.62   Q 711.54 1212.74 788.77 1214.29   Q 798.99 1214.50 809.24 1214.48   Q 904.09 1214.31 1000.60 1214.19   C 1029.40 1214.15 1063.22 1211.44 1097.32 1208.45   Q 1124.59 1206.07 1153.87 1200.79   Q 1163.19 1199.11 1171.88 1197.39   Q 1178.80 1196.02 1186.08 1194.32   Q 1193.61 1192.56 1200.21 1190.84   Q 1213.02 1187.52 1228.00 1181.75   Q 1244.56 1175.37 1258.91 1164.65   C 1277.89 1150.47 1294.71 1132.93 1309.62 1114.86   Q 1373.71 1037.18 1412.21 941.97   Q 1417.55 928.77 1421.94 912.94   Q 1426.97 894.77 1429.42 876.32   C 1431.80 858.33 1430.78 840.03 1427.11 822.30   Q 1422.11 798.09 1411.62 771.79   Q 1393.96 727.46 1368.35 685.27   C 1342.11 642.05 1313.13 602.60 1277.26 567.71   C 1261.50 552.38 1243.89 541.08 1222.93 532.43   Q 1208.16 526.34 1192.79 522.13   Z"></path>
  <path fill="#ffffff" d="   M 1192.79 522.13   Q 1208.16 526.34 1222.93 532.43   C 1243.89 541.08 1261.50 552.38 1277.26 567.71   C 1313.13 602.60 1342.11 642.05 1368.35 685.27   Q 1393.96 727.46 1411.62 771.79   Q 1422.11 798.09 1427.11 822.30   C 1430.78 840.03 1431.80 858.33 1429.42 876.32   Q 1426.97 894.77 1421.94 912.94   Q 1417.55 928.77 1412.21 941.97   Q 1373.71 1037.18 1309.62 1114.86   C 1294.71 1132.93 1277.89 1150.47 1258.91 1164.65   Q 1244.56 1175.37 1228.00 1181.75   Q 1213.02 1187.52 1200.21 1190.84   Q 1193.61 1192.56 1186.08 1194.32   Q 1178.80 1196.02 1171.88 1197.39   Q 1163.19 1199.11 1153.87 1200.79   Q 1124.59 1206.07 1097.32 1208.45   C 1063.22 1211.44 1029.40 1214.15 1000.60 1214.19   Q 904.09 1214.31 809.24 1214.48   Q 798.99 1214.50 788.77 1214.29   Q 711.54 1212.74 635.07 1201.62   Q 627.20 1200.48 613.49 1197.21   C 611.93 1196.84 610.27 1196.98 608.75 1196.60   Q 600.01 1194.39 591.48 1192.39   Q 589.94 1192.03 588.53 1191.62   Q 581.89 1189.66 574.93 1187.64   Q 570.10 1186.23 565.82 1184.62   Q 561.90 1183.13 557.50 1181.61   Q 549.18 1178.74 539.59 1173.15   Q 521.14 1162.40 502.79 1144.06   C 451.77 1093.06 412.16 1030.32 382.33 963.71   Q 382.19 963.40 381.89 963.26   Q 381.59 963.13 381.73 962.90   Q 381.89 962.61 381.75 962.30   Q 374.02 945.52 368.13 928.30   Q 362.43 911.63 358.99 895.03   C 353.49 868.50 353.54 840.37 360.07 814.01   Q 362.66 803.57 366.14 793.49   C 366.49 792.48 366.77 790.94 367.29 789.47   Q 374.14 770.22 376.32 765.00   Q 391.96 727.42 412.70 692.40   Q 417.89 683.65 423.00 675.31   C 450.22 631.00 482.39 590.09 521.04 555.91   Q 521.42 555.57 521.92 555.51   Q 522.42 555.45 522.67 555.00   Q 522.89 554.60 523.26 554.32   Q 541.18 541.11 562.16 532.44   Q 575.66 526.86 588.81 523.15   Q 598.24 520.49 607.03 518.37   Q 607.84 518.18 608.64 518.13   Q 609.50 518.08 610.34 517.87   Q 621.23 515.22 633.52 513.25   Q 634.38 513.11 635.23 512.96   Q 649.23 510.51 662.76 508.66   Q 698.80 503.74 710.27 502.92   Q 724.57 501.90 738.75 500.77   Q 756.07 499.38 787.24 498.61   Q 797.28 498.36 807.22 498.38   Q 896.45 498.63 985.84 498.59   Q 995.52 498.58 1005.87 498.88   Q 1062.46 500.52 1119.25 508.08   Q 1133.00 509.91 1145.76 512.09   Q 1147.30 512.35 1148.84 512.58   Q 1159.47 514.17 1174.99 517.70   Q 1184.40 519.84 1192.79 522.13   Z   M 802.4258 529.4753   A 79.96 44.32 -24.3 0 0 711.3117 521.9866   A 79.96 44.32 -24.3 0 0 656.6742 595.2847   A 79.96 44.32 -24.3 0 0 747.7883 602.7734   A 79.96 44.32 -24.3 0 0 802.4258 529.4753   Z   M 935.55 603.21   Q 935.31 603.22 935.31 603.46   Q 930.30 604.20 924.83 608.44   Q 921.49 611.03 920.87 612.78   Q 920.70 613.23 920.34 613.56   Q 918.49 615.24 917.58 616.98   Q 916.57 618.92 915.46 620.58   C 912.97 624.31 911.54 628.24 908.89 631.84   C 905.43 636.53 902.55 641.48 898.59 645.91   Q 883.28 663.03 861.08 663.44   C 846.60 663.70 839.28 656.18 833.80 644.20   Q 825.02 625.00 817.59 605.24   Q 817.84 605.08 817.74 604.88   Q 817.66 604.75 817.51 604.76   Q 817.33 604.77 817.40 604.99   C 814.24 596.37 806.52 586.82 796.26 589.10   Q 790.50 590.38 786.40 595.14   Q 784.94 596.84 782.01 598.43   Q 781.56 598.68 781.41 599.18   Q 781.08 600.29 780.09 600.90   Q 778.18 602.08 776.92 603.74   Q 775.95 605.01 774.70 605.90   Q 772.51 607.47 771.02 609.72   C 770.27 610.85 769.03 611.37 768.11 612.42   Q 764.70 616.27 761.48 619.92   Q 759.42 622.25 757.10 624.46   Q 754.79 626.67 752.98 629.28   Q 750.93 632.25 748.36 635.38   C 743.16 641.71 741.51 649.77 746.60 656.92   Q 757.72 672.55 766.11 686.93   C 780.33 711.30 750.30 725.88 732.45 732.02   C 714.43 738.23 694.75 742.23 675.35 744.43   C 652.77 746.98 627.25 744.55 607.43 734.01   C 591.69 725.64 580.00 713.33 587.20 694.04   Q 590.04 686.42 594.24 680.73   Q 594.71 680.09 594.67 679.79   Q 601.42 670.36 610.56 663.32   C 615.61 659.43 620.77 655.31 625.24 651.40   C 637.03 641.09 645.97 627.05 648.00 611.37   Q 649.36 600.87 639.40 597.74   Q 632.08 595.43 622.67 597.24   C 600.56 601.48 575.50 611.87 565.89 633.50   Q 565.76 633.61 565.67 633.78   Q 563.44 642.12 561.59 646.63   Q 560.67 648.86 558.28 651.67   C 557.59 652.48 557.60 653.50 556.87 654.29   Q 553.13 658.35 550.32 662.74   Q 549.92 663.37 549.53 664.04   Q 547.66 667.27 545.55 670.42   C 545.18 670.97 545.34 671.60 544.90 672.19   Q 543.79 673.68 543.18 675.37   Q 542.70 676.71 541.99 677.89   C 540.23 680.81 538.68 683.56 537.40 686.69   Q 536.14 689.76 534.72 692.96   C 524.77 715.36 519.56 743.80 524.05 768.10   Q 531.75 809.77 570.04 827.81   Q 585.06 834.88 601.88 837.28   Q 646.88 843.71 690.93 834.42   Q 693.73 833.82 696.50 832.98   C 697.95 832.53 699.27 832.73 700.57 831.87   Q 701.01 831.58 701.53 831.64   Q 702.77 831.76 703.93 831.36   Q 709.39 829.48 714.77 827.40   C 716.49 826.74 718.18 826.92 719.86 826.11   C 723.06 824.55 726.43 822.72 729.80 821.82   Q 731.98 821.24 733.95 819.84   C 737.09 817.61 740.67 816.82 743.97 814.73   Q 745.77 813.59 747.69 812.47   Q 754.41 808.54 760.97 803.61   Q 767.98 798.35 773.16 793.41   Q 796.93 770.74 808.63 741.47   Q 810.71 736.27 811.57 734.48   Q 811.79 734.02 812.30 734.09   Q 814.22 734.37 815.78 735.16   Q 819.81 737.22 824.12 739.41   Q 826.47 740.61 829.33 741.43   Q 831.82 742.15 834.49 743.10   Q 840.41 745.22 847.24 746.60   Q 866.89 750.58 884.78 746.60   Q 885.94 746.34 886.99 745.85   C 887.93 745.41 889.21 745.62 890.31 745.28   Q 909.13 739.42 924.51 726.43   A 1.71 1.71 0.0 0 1 926.95 726.68   C 948.86 754.35 987.83 753.99 1019.53 747.09   Q 1039.44 742.76 1059.00 736.35   Q 1059.84 736.07 1060.72 735.98   Q 1061.71 735.87 1062.63 735.59   Q 1069.26 733.54 1075.89 731.36   C 1078.05 730.65 1080.12 730.70 1082.32 729.90   Q 1092.01 726.41 1095.73 725.57   Q 1103.46 723.81 1111.56 720.88   C 1112.54 720.52 1113.56 720.78 1114.51 720.46   Q 1122.63 717.75 1131.55 715.80   Q 1159.39 709.73 1186.20 714.16   Q 1192.71 715.24 1199.63 716.51   C 1214.43 719.24 1228.49 713.36 1238.60 702.34   C 1252.40 687.28 1259.72 665.79 1262.74 645.02   C 1263.84 637.49 1264.09 630.89 1260.22 624.13   C 1256.05 616.84 1248.34 612.63 1240.02 614.64   Q 1235.97 615.62 1231.57 618.34   C 1224.56 622.66 1215.64 626.90 1207.60 623.88   Q 1203.89 622.48 1196.92 616.40   Q 1182.53 603.84 1170.84 593.26   Q 1143.20 568.23 1111.83 553.32   C 1088.43 542.20 1064.88 540.74 1044.70 557.84   C 1034.02 566.89 1026.63 582.25 1010.96 582.97   Q 1007.60 583.13 1003.81 584.32   Q 998.48 585.99 994.47 589.66   Q 985.33 598.04 982.20 610.91   Q 979.52 621.90 981.49 631.42   C 981.87 633.25 982.67 634.91 983.26 636.68   C 984.13 639.33 988.39 643.37 990.98 644.39   Q 997.09 646.77 1003.59 645.27   Q 1011.26 643.50 1018.55 639.25   Q 1026.93 634.36 1034.78 628.64   Q 1034.86 628.58 1034.84 628.48   Q 1034.80 628.32 1034.91 628.24   Q 1038.05 626.05 1041.19 624.01   A 39.05 12.96 -24.9 0 0 1045.30 621.18   Q 1046.21 620.52 1047.81 620.03   Q 1049.26 619.59 1050.40 619.00   Q 1057.78 615.16 1060.29 614.78   Q 1064.24 614.18 1068.67 613.47   Q 1085.79 610.73 1099.77 620.71   Q 1115.15 631.70 1128.99 646.76   Q 1129.68 647.51 1129.87 648.45   Q 1130.08 649.49 1129.02 649.53   C 1089.20 650.82 1055.90 658.91 1012.54 669.17   Q 999.37 672.29 985.55 671.19   Q 975.41 670.38 968.62 664.24   Q 958.41 654.99 960.48 640.73   C 961.63 632.77 962.92 624.41 961.03 616.45   C 959.66 610.65 956.29 606.98 950.51 604.83   Q 943.36 602.18 935.55 603.21   Z   M 1110.01 792.95   Q 1110.24 792.82 1110.47 792.69   A 50.14 26.41 -21.7 0 0 1129.30 778.08   A 50.21 26.36 -21.8 0 0 1137.21 763.74   A 50.16 26.39 -21.8 0 0 1130.35 747.39   A 50.10 26.35 -21.7 0 0 1115.00 742.71   A 50.09 26.35 -21.8 0 0 1089.62 745.56   A 49.86 26.53 -22.4 0 0 1081.83 748.11   A 50.25 26.32 -21.8 0 0 1064.69 756.67   A 50.22 26.36 -21.8 0 0 1052.59 766.35   A 50.17 26.36 -21.7 0 0 1043.69 779.48   A 50.15 26.38 -21.7 0 0 1051.02 799.98   A 50.31 26.52 -21.8 0 0 1062.01 803.46   A 50.14 26.36 -21.7 0 0 1087.03 801.81   A 50.35 26.18 -21.7 0 0 1099.00 798.06   A 50.48 26.13 -21.7 0 0 1110.01 792.95   Z   M 1150.43 762.61   Q 1150.07 762.83 1149.93 763.08   Q 1142.87 768.87 1138.79 776.98   C 1135.15 784.22 1135.58 792.69 1142.39 797.85   C 1148.25 802.28 1154.82 803.63 1162.04 803.85   Q 1166.41 804.26 1170.73 803.75   A 0.01 0.00 -48.6 0 0 1170.73 803.74   L 1169.82 803.65   C 1177.55 802.98 1184.47 801.05 1191.84 798.67   Q 1192.53 798.78 1192.41 798.37   Q 1207.47 792.78 1219.49 782.29   C 1229.18 773.82 1238.66 756.20 1223.25 747.11   Q 1218.67 744.41 1214.66 743.72   Q 1198.17 740.90 1182.25 745.98   Q 1163.34 752.01 1150.43 762.61   Z   M 896.32 814.00   A 3.96 0.82 -35.7 0 0 896.78 813.69   Q 896.91 813.60 897.04 813.51   A 4.16 0.81 -36.1 0 0 897.52 813.18   A 49.83 26.15 -21.6 0 0 911.99 799.50   A 49.79 25.99 -22.0 0 0 916.25 791.49   A 49.91 26.23 -21.7 0 0 907.60 771.12   A 49.88 26.29 -21.8 0 0 897.50 768.21   A 49.95 26.24 -21.6 0 0 874.25 769.60   A 49.90 26.23 -21.7 0 0 837.72 786.97   A 49.82 26.20 -21.6 0 0 825.69 800.72   A 49.96 26.39 -21.4 0 0 822.82 808.77   A 49.91 26.23 -21.7 0 0 829.63 823.88   A 49.60 26.18 -22.0 0 0 837.25 827.28   A 49.94 26.35 -21.7 0 0 855.02 828.63   A 49.89 26.24 -21.7 0 0 896.32 814.00   Z   M 1008.2758 779.9306   A 49.90 26.36 -21.6 0 0 952.1762 773.7911   A 49.90 26.36 -21.6 0 0 915.4842 816.6694   A 49.90 26.36 -21.6 0 0 971.5838 822.8089   A 49.90 26.36 -21.6 0 0 1008.2758 779.9306   Z   M 1149.8797 811.8326   A 49.90 26.29 -21.4 0 0 1093.8274 805.5625   A 49.90 26.29 -21.4 0 0 1056.9603 848.2474   A 49.90 26.29 -21.4 0 0 1113.0126 854.5175   A 49.90 26.29 -21.4 0 0 1149.8797 811.8326   Z   M 802.2955 861.7444   A 79.90 44.39 -24.1 0 0 711.2342 853.8493   A 79.90 44.39 -24.1 0 0 656.4245 926.9956   A 79.90 44.39 -24.1 0 0 747.4858 934.8907   A 79.90 44.39 -24.1 0 0 802.2955 861.7444   Z   M 988.98 928.02   Q 988.91 927.92 988.69 928.30   Q 980.11 940.78 980.94 957.15   Q 981.32 964.61 983.66 968.52   Q 983.92 968.97 983.86 969.49   Q 983.80 970.02 984.12 970.45   Q 991.01 979.69 1003.68 976.69   Q 1007.82 975.70 1010.75 974.29   C 1012.00 973.69 1013.18 973.96 1014.53 973.25   Q 1019.22 970.81 1023.34 968.20   Q 1024.40 967.53 1025.49 966.99   Q 1025.92 967.00 1026.00 966.66   Q 1030.77 963.02 1035.54 959.32   Q 1036.70 958.42 1037.96 957.74   C 1040.09 956.58 1041.69 954.90 1043.93 953.80   Q 1047.36 952.11 1050.81 950.30   Q 1053.31 948.99 1056.62 947.95   Q 1059.82 946.94 1062.65 946.15   Q 1073.87 943.02 1084.56 945.38   Q 1092.07 947.04 1102.27 954.18   Q 1118.88 965.81 1129.11 979.52   Q 1129.51 980.06 1129.62 980.78   A 0.67 0.67 0.0 0 1 1128.98 981.55   C 1117.17 982.05 1105.57 982.39 1093.86 984.11   Q 1084.25 985.52 1074.33 987.69   Q 1037.41 995.79 1005.76 1002.38   Q 994.98 1004.63 983.13 1002.82   C 967.91 1000.48 958.19 987.73 960.38 972.46   C 962.80 955.61 965.03 935.60 941.25 934.61   Q 929.60 934.13 922.36 942.45   Q 920.64 944.43 918.86 947.28   C 917.39 949.63 914.98 952.13 913.96 954.65   Q 913.41 956.00 912.43 957.24   Q 911.19 958.80 910.05 960.62   Q 905.82 967.34 901.44 973.95   Q 901.35 974.02 901.25 974.09   Q 896.29 981.73 888.08 987.05   C 871.57 997.76 846.11 1001.53 835.89 979.81   Q 832.03 971.60 828.37 963.43   Q 827.96 962.52 827.82 961.54   Q 827.69 961.15 827.51 961.02   Q 824.88 955.84 822.84 950.50   Q 820.94 945.55 818.97 940.99   Q 817.69 938.02 816.56 934.95   Q 814.71 929.95 811.26 925.98   Q 803.72 917.32 792.59 922.67   Q 786.89 925.40 782.96 929.39   C 782.36 930.01 781.67 930.17 781.09 930.76   Q 770.45 941.56 760.66 952.96   C 758.97 954.93 756.95 956.51 755.30 958.51   Q 753.46 960.75 751.56 962.88   C 746.60 968.44 740.78 975.61 744.24 983.55   Q 744.75 984.71 745.15 985.89   Q 745.73 987.57 746.74 989.02   Q 755.31 1001.34 763.99 1015.55   C 766.52 1019.69 768.53 1024.32 769.23 1029.11   Q 769.87 1033.46 767.71 1038.66   C 763.75 1048.18 754.42 1053.95 744.98 1058.32   C 715.63 1071.89 681.73 1078.11 648.45 1076.44   C 629.47 1075.48 592.28 1065.77 585.73 1044.21   Q 583.95 1038.35 586.00 1030.95   Q 590.52 1014.66 604.21 1001.32   Q 609.19 996.48 613.78 992.51   Q 620.73 986.51 627.03 980.74   C 637.88 970.81 645.19 959.02 647.95 944.54   Q 648.56 941.35 647.93 938.53   Q 646.52 932.16 640.49 929.44   Q 636.38 927.59 631.33 928.05   C 608.28 930.13 587.65 938.61 571.91 955.32   C 568.92 958.50 567.43 961.54 566.05 965.59   Q 563.68 972.56 559.91 980.33   Q 558.54 983.15 556.63 985.41   Q 554.56 987.86 553.09 990.74   Q 551.97 992.93 550.46 994.98   C 549.22 996.66 547.16 998.89 546.60 1000.91   Q 546.31 1001.96 545.70 1002.78   Q 542.63 1006.93 541.21 1010.46   Q 540.44 1012.37 539.36 1014.21   Q 538.22 1016.16 537.55 1018.30   Q 537.51 1018.42 537.39 1018.37   Q 537.23 1018.31 537.17 1018.45   Q 532.01 1030.27 528.77 1040.51   C 516.49 1079.33 519.02 1124.73 554.91 1150.36   C 573.40 1163.56 596.23 1169.36 619.31 1171.25   C 642.53 1173.16 666.13 1171.22 689.24 1166.66   Q 697.36 1165.05 705.11 1162.41   C 706.22 1162.03 707.19 1162.20 708.32 1161.82   Q 713.05 1160.22 717.40 1158.49   Q 719.93 1157.48 722.89 1156.52   Q 726.23 1155.45 730.08 1153.14   C 731.12 1152.52 732.41 1152.40 733.51 1151.91   C 737.00 1150.38 740.27 1148.27 743.86 1146.58   Q 746.46 1145.35 748.62 1143.45   Q 748.98 1143.14 749.44 1143.02   Q 750.46 1142.77 751.34 1142.20   C 779.41 1124.25 800.40 1098.95 810.45 1067.33   A 1.48 1.48 0.0 0 1 812.47 1066.43   Q 819.41 1069.58 826.60 1072.39   C 846.01 1079.99 866.91 1082.91 887.14 1078.06   C 889.36 1077.53 891.50 1076.44 893.73 1076.12   Q 895.84 1075.83 898.15 1074.70   Q 901.74 1072.94 905.13 1071.32   Q 908.92 1069.50 912.07 1067.55   Q 918.71 1063.44 924.48 1058.78   A 1.91 1.91 0.0 0 1 927.15 1059.04   Q 932.05 1064.91 938.75 1069.65   Q 938.66 1069.96 939.31 1070.01   Q 951.80 1078.33 966.85 1081.11   Q 991.46 1085.67 1015.76 1079.73   Q 1035.41 1074.92 1047.83 1071.37   Q 1051.95 1070.19 1056.22 1069.18   Q 1060.46 1068.18 1064.51 1066.56   C 1066.05 1065.94 1067.64 1066.21 1069.13 1065.72   Q 1077.38 1063.02 1085.25 1060.31   C 1086.23 1059.97 1087.32 1060.12 1088.31 1059.83   Q 1093.82 1058.20 1099.18 1056.07   C 1100.67 1055.48 1102.06 1055.77 1103.53 1055.24   Q 1110.27 1052.82 1117.07 1050.42   C 1118.29 1049.98 1119.43 1050.26 1120.62 1049.85   Q 1127.00 1047.69 1133.53 1046.88   Q 1133.70 1046.86 1133.54 1046.81   Q 1133.40 1046.78 1133.23 1046.79   A 0.06 0.05 35.9 0 1 1133.21 1046.68   Q 1149.18 1043.50 1166.35 1043.36   Q 1172.38 1043.31 1177.59 1044.19   C 1192.41 1046.70 1209.58 1052.51 1223.57 1045.29   Q 1228.02 1042.99 1232.80 1038.87   C 1253.88 1020.66 1263.60 992.33 1262.92 964.81   Q 1262.79 959.81 1259.44 954.25   Q 1259.47 954.08 1259.20 953.92   Q 1256.24 950.47 1252.06 948.18   C 1244.13 943.85 1236.81 946.78 1229.74 951.05   Q 1225.81 953.43 1221.46 955.42   Q 1216.49 957.69 1212.51 957.33   Q 1206.38 956.78 1201.49 952.24   C 1179.26 931.59 1155.83 910.73 1130.13 895.08   Q 1113.89 885.19 1097.64 879.64   C 1067.88 869.46 1047.36 884.36 1029.36 905.73   C 1026.39 909.26 1022.94 912.07 1018.46 913.20   C 1013.29 914.49 1007.39 914.85 1002.24 916.70   C 996.87 918.63 992.64 923.15 988.98 928.02   Z   M 489.87 908.15   Q 487.97 915.00 489.94 921.81   Q 490.44 923.93 491.33 926.18   Q 492.51 929.16 493.59 931.87   Q 494.75 934.75 496.78 937.17   Q 500.07 941.08 503.53 944.12   Q 506.50 946.73 510.21 948.48   Q 515.67 951.06 518.48 951.85   C 525.62 953.86 534.81 953.48 541.84 949.89   Q 544.32 948.62 547.00 947.53   C 549.20 946.64 550.73 944.53 552.84 943.22   Q 556.42 941.02 558.28 937.56   Q 560.92 932.64 560.99 932.52   Q 563.49 928.39 564.70 924.28   C 566.27 918.91 565.84 911.76 564.82 906.58   Q 563.78 901.31 560.27 895.82   Q 560.06 895.49 560.05 895.10   Q 560.03 894.73 559.82 894.41   Q 555.23 887.45 549.49 883.72   Q 545.30 880.99 540.26 878.81   Q 537.19 877.48 533.78 877.16   Q 530.54 876.87 527.33 876.75   Q 519.55 876.48 513.03 879.68   Q 508.14 882.08 503.80 884.85   Q 503.41 885.10 503.29 885.55   Q 503.19 885.91 502.90 886.13   C 501.55 887.13 499.05 888.88 498.44 890.48   Q 498.06 891.47 497.26 892.15   Q 496.15 893.10 495.41 894.42   Q 491.72 901.03 489.87 908.15   Z   M 1061.48 1093.23   A 4.55 0.81 -36.8 0 1 1060.96 1093.60   A 50.14 26.43 -21.4 0 0 1047.09 1107.30   A 49.53 26.35 -21.0 0 0 1043.91 1113.18   A 50.09 26.39 -21.4 0 0 1048.11 1132.37   A 49.84 26.20 -21.3 0 0 1055.71 1136.34   A 50.05 26.40 -21.5 0 0 1083.73 1136.95   A 49.94 26.54 -21.5 0 0 1094.21 1134.22   A 49.98 26.47 -21.7 0 0 1106.23 1129.39   A 4.05 1.33 -23.7 0 0 1106.74 1129.14   A 50.05 26.41 -21.4 0 0 1126.28 1115.79   A 49.58 26.44 -21.1 0 0 1131.37 1110.15   A 50.03 26.42 -21.3 0 0 1136.14 1101.89   A 50.09 26.38 -21.5 0 0 1131.41 1082.83   A 50.03 26.32 -21.3 0 0 1115.43 1077.36   A 50.10 26.38 -21.4 0 0 1087.35 1080.73   A 11.57 0.95 -17.6 0 0 1085.79 1081.22   A 50.08 26.38 -21.4 0 0 1061.48 1093.23   Z   M 1154.28 1137.61   A 49.88 26.48 -21.5 0 0 1172.25 1137.93   A 49.80 26.47 -21.4 0 0 1190.70 1133.47   Q 1191.09 1133.33 1191.48 1133.19   A 49.88 26.36 -21.5 0 0 1221.24 1114.75   A 49.26 26.24 -21.2 0 0 1226.14 1108.89   A 49.88 26.32 -21.6 0 0 1231.14 1096.50   A 49.84 26.35 -21.5 0 0 1226.51 1084.26   A 49.86 26.37 -21.5 0 0 1213.75 1078.26   A 49.83 26.36 -21.5 0 0 1185.50 1079.71   A 49.87 26.37 -21.5 0 0 1154.23 1094.25   A 49.94 26.47 -21.4 0 0 1140.37 1108.59   A 49.98 26.58 -21.2 0 0 1136.73 1117.51   A 49.80 26.33 -21.5 0 0 1141.16 1131.57   A 49.88 26.42 -21.5 0 0 1154.28 1137.61   Z   M 916.4300 1114.1813   A 49.92 26.37 -21.8 0 0 860.2870 1108.2358   A 49.92 26.37 -21.8 0 0 823.7300 1151.2587   A 49.92 26.37 -21.8 0 0 879.8730 1157.2042   A 49.92 26.37 -21.8 0 0 916.4300 1114.1813   Z   M 1008.3223 1114.2322   A 49.92 26.37 -21.7 0 0 952.1898 1108.1888   A 49.92 26.37 -21.7 0 0 915.5577 1151.1478   A 49.92 26.37 -21.7 0 0 971.6902 1157.1912   A 49.92 26.37 -21.7 0 0 1008.3223 1114.2322   Z   M 1129.76 1180.47   A 4.19 1.38 -32.6 0 0 1130.25 1180.14   A 49.93 26.05 -21.4 0 0 1135.63 1176.14   A 49.87 26.35 -21.6 0 0 1147.63 1162.40   A 49.82 26.36 -21.5 0 0 1150.64 1150.00   A 49.83 26.36 -21.7 0 0 1145.80 1140.70   A 49.96 26.49 -21.7 0 0 1132.50 1134.77   A 49.90 26.42 -21.6 0 0 1110.25 1135.26   A 49.71 26.37 -22.0 0 0 1100.44 1137.70   A 49.88 26.41 -21.8 0 0 1086.27 1143.38   A 49.84 26.46 -21.6 0 0 1069.21 1154.68   A 49.85 26.32 -21.6 0 0 1057.54 1170.00   A 49.88 26.38 -21.6 0 0 1061.01 1188.67   A 49.83 26.37 -21.6 0 0 1076.24 1194.81   A 49.89 26.34 -21.6 0 0 1098.26 1193.63   A 49.86 26.39 -21.6 0 0 1129.76 1180.47   Z"></path>
  <ellipse fill="#ee1c22" cx="0.00" cy="0.00" transform="translate(729.55,562.38) rotate(-24.3)" rx="79.96" ry="44.32"></ellipse>
  <path fill="#272123" d="   M 565.67 633.78   Q 565.63 634.03 565.65 634.24   Q 565.74 635.16 566.00 634.28   Q 566.09 633.94 565.89 633.50   C 575.50 611.87 600.56 601.48 622.67 597.24   Q 632.08 595.43 639.40 597.74   Q 649.36 600.87 648.00 611.37   C 645.97 627.05 637.03 641.09 625.24 651.40   C 620.77 655.31 615.61 659.43 610.56 663.32   Q 601.42 670.36 594.67 679.79   Q 594.71 680.09 594.24 680.73   Q 590.04 686.42 587.20 694.04   C 580.00 713.33 591.69 725.64 607.43 734.01   C 627.25 744.55 652.77 746.98 675.35 744.43   C 694.75 742.23 714.43 738.23 732.45 732.02   C 750.30 725.88 780.33 711.30 766.11 686.93   Q 757.72 672.55 746.60 656.92   C 741.51 649.77 743.16 641.71 748.36 635.38   Q 750.93 632.25 752.98 629.28   Q 754.79 626.67 757.10 624.46   Q 759.42 622.25 761.48 619.92   Q 764.70 616.27 768.11 612.42   C 769.03 611.37 770.27 610.85 771.02 609.72   Q 772.51 607.47 774.70 605.90   Q 775.95 605.01 776.92 603.74   Q 778.18 602.08 780.09 600.90   Q 781.08 600.29 781.41 599.18   Q 781.56 598.68 782.01 598.43   Q 784.94 596.84 786.40 595.14   Q 790.50 590.38 796.26 589.10   C 806.52 586.82 814.24 596.37 817.40 604.99   Q 817.41 605.25 817.59 605.24   Q 825.02 625.00 833.80 644.20   C 839.28 656.18 846.60 663.70 861.08 663.44   Q 883.28 663.03 898.59 645.91   C 902.55 641.48 905.43 636.53 908.89 631.84   C 911.54 628.24 912.97 624.31 915.46 620.58   Q 916.57 618.92 917.58 616.98   Q 918.49 615.24 920.34 613.56   Q 920.70 613.23 920.87 612.78   Q 921.49 611.03 924.83 608.44   Q 930.30 604.20 935.31 603.46   Q 935.66 603.57 935.85 603.46   Q 936.13 603.32 935.82 603.27   Q 935.68 603.25 935.55 603.21   Q 943.36 602.18 950.51 604.83   C 956.29 606.98 959.66 610.65 961.03 616.45   C 962.92 624.41 961.63 632.77 960.48 640.73   Q 958.41 654.99 968.62 664.24   Q 975.41 670.38 985.55 671.19   Q 999.37 672.29 1012.54 669.17   C 1055.90 658.91 1089.20 650.82 1129.02 649.53   Q 1130.08 649.49 1129.87 648.45   Q 1129.68 647.51 1128.99 646.76   Q 1115.15 631.70 1099.77 620.71   Q 1085.79 610.73 1068.67 613.47   Q 1064.24 614.18 1060.29 614.78   Q 1057.78 615.16 1050.40 619.00   Q 1049.26 619.59 1047.81 620.03   Q 1046.21 620.52 1045.30 621.18   A 39.05 12.96 -24.9 0 1 1041.19 624.01   Q 1038.05 626.05 1034.91 628.24   Q 1034.80 628.32 1034.84 628.48   Q 1034.86 628.58 1034.78 628.64   Q 1026.93 634.36 1018.55 639.25   Q 1011.26 643.50 1003.59 645.27   Q 997.09 646.77 990.98 644.39   C 988.39 643.37 984.13 639.33 983.26 636.68   C 982.67 634.91 981.87 633.25 981.49 631.42   Q 979.52 621.90 982.20 610.91   Q 985.33 598.04 994.47 589.66   Q 998.48 585.99 1003.81 584.32   Q 1007.60 583.13 1010.96 582.97   C 1026.63 582.25 1034.02 566.89 1044.70 557.84   C 1064.88 540.74 1088.43 542.20 1111.83 553.32   Q 1143.20 568.23 1170.84 593.26   Q 1182.53 603.84 1196.92 616.40   Q 1203.89 622.48 1207.60 623.88   C 1215.64 626.90 1224.56 622.66 1231.57 618.34   Q 1235.97 615.62 1240.02 614.64   C 1248.34 612.63 1256.05 616.84 1260.22 624.13   C 1264.09 630.89 1263.84 637.49 1262.74 645.02   C 1259.72 665.79 1252.40 687.28 1238.60 702.34   C 1228.49 713.36 1214.43 719.24 1199.63 716.51   Q 1192.71 715.24 1186.20 714.16   Q 1159.39 709.73 1131.55 715.80   Q 1122.63 717.75 1114.51 720.46   C 1113.56 720.78 1112.54 720.52 1111.56 720.88   Q 1103.46 723.81 1095.73 725.57   Q 1092.01 726.41 1082.32 729.90   C 1080.12 730.70 1078.05 730.65 1075.89 731.36   Q 1069.26 733.54 1062.63 735.59   Q 1061.71 735.87 1060.72 735.98   Q 1059.84 736.07 1059.00 736.35   Q 1039.44 742.76 1019.53 747.09   C 987.83 753.99 948.86 754.35 926.95 726.68   A 1.71 1.71 0.0 0 0 924.51 726.43   Q 909.13 739.42 890.31 745.28   C 889.21 745.62 887.93 745.41 886.99 745.85   Q 885.94 746.34 884.78 746.60   Q 866.89 750.58 847.24 746.60   Q 840.41 745.22 834.49 743.10   Q 831.82 742.15 829.33 741.43   Q 826.47 740.61 824.12 739.41   Q 819.81 737.22 815.78 735.16   Q 814.22 734.37 812.30 734.09   Q 811.79 734.02 811.57 734.48   Q 810.71 736.27 808.63 741.47   Q 796.93 770.74 773.16 793.41   Q 767.98 798.35 760.97 803.61   Q 754.41 808.54 747.69 812.47   Q 745.77 813.59 743.97 814.73   C 740.67 816.82 737.09 817.61 733.95 819.84   Q 731.98 821.24 729.80 821.82   C 726.43 822.72 723.06 824.55 719.86 826.11   C 718.18 826.92 716.49 826.74 714.77 827.40   Q 709.39 829.48 703.93 831.36   Q 702.77 831.76 701.53 831.64   Q 701.01 831.58 700.57 831.87   C 699.27 832.73 697.95 832.53 696.50 832.98   Q 693.73 833.82 690.93 834.42   Q 646.88 843.71 601.88 837.28   Q 585.06 834.88 570.04 827.81   Q 531.75 809.77 524.05 768.10   C 519.56 743.80 524.77 715.36 534.72 692.96   Q 536.14 689.76 537.40 686.69   C 538.68 683.56 540.23 680.81 541.99 677.89   Q 542.70 676.71 543.18 675.37   Q 543.79 673.68 544.90 672.19   C 545.34 671.60 545.18 670.97 545.55 670.42   Q 547.66 667.27 549.53 664.04   Q 549.92 663.37 550.32 662.74   Q 553.13 658.35 556.87 654.29   C 557.60 653.50 557.59 652.48 558.28 651.67   Q 560.67 648.86 561.59 646.63   Q 563.44 642.12 565.67 633.78   Z"></path>
  <path fill="#2e7e3a" d="   M 935.55 603.21   Q 935.68 603.25 935.82 603.27   Q 936.13 603.32 935.85 603.46   Q 935.66 603.57 935.31 603.46   Q 935.31 603.22 935.55 603.21   Z"></path>
  <path fill="#2e7e3a" d="   M 817.59 605.24   Q 817.41 605.25 817.40 604.99   Q 817.33 604.77 817.51 604.76   Q 817.66 604.75 817.74 604.88   Q 817.84 605.08 817.59 605.24   Z"></path>
  <path fill="#2e7e3a" d="   M 565.89 633.50   Q 566.09 633.94 566.00 634.28   Q 565.74 635.16 565.65 634.24   Q 565.63 634.03 565.67 633.78   Q 565.76 633.61 565.89 633.50   Z"></path>
  <path fill="#272123" d="   M 1110.47 792.69   Q 1110.15 792.51 1110.01 792.95   A 50.48 26.13 -21.7 0 1 1099.00 798.06   A 50.35 26.18 -21.7 0 1 1087.03 801.81   A 50.14 26.36 -21.7 0 1 1062.01 803.46   A 50.31 26.52 -21.8 0 1 1051.02 799.98   A 50.15 26.38 -21.7 0 1 1043.69 779.48   A 50.17 26.36 -21.7 0 1 1052.59 766.35   A 50.22 26.36 -21.8 0 1 1064.69 756.67   A 50.25 26.32 -21.8 0 1 1081.83 748.11   A 49.86 26.53 -22.4 0 1 1089.62 745.56   A 50.09 26.35 -21.8 0 1 1115.00 742.71   A 50.10 26.35 -21.7 0 1 1130.35 747.39   A 50.16 26.39 -21.8 0 1 1137.21 763.74   A 50.21 26.36 -21.8 0 1 1129.30 778.08   A 50.14 26.41 -21.7 0 1 1110.47 792.69   Z"></path>
  <path fill="#272123" d="   M 1192.41 798.37   Q 1191.50 798.53 1191.84 798.67   C 1184.47 801.05 1177.55 802.98 1169.82 803.65   L 1162.04 803.85   C 1154.82 803.63 1148.25 802.28 1142.39 797.85   C 1135.58 792.69 1135.15 784.22 1138.79 776.98   Q 1142.87 768.87 1149.93 763.08   Q 1150.44 763.42 1150.43 762.61   Q 1163.34 752.01 1182.25 745.98   Q 1198.17 740.90 1214.66 743.72   Q 1218.67 744.41 1223.25 747.11   C 1238.66 756.20 1229.18 773.82 1219.49 782.29   Q 1207.47 792.78 1192.41 798.37   Z"></path>
  <path fill="#2e7e3a" d="   M 1150.43 762.61   Q 1150.44 763.42 1149.93 763.08   Q 1150.07 762.83 1150.43 762.61   Z"></path>
  <path fill="#272123" d="   M 897.52 813.18   Q 897.01 813.11 897.04 813.51   Q 896.91 813.60 896.78 813.69   Q 896.22 813.53 896.32 814.00   A 49.89 26.24 -21.7 0 1 855.02 828.63   A 49.94 26.35 -21.7 0 1 837.25 827.28   A 49.60 26.18 -22.0 0 1 829.63 823.88   A 49.91 26.23 -21.7 0 1 822.82 808.77   A 49.96 26.39 -21.4 0 1 825.69 800.72   A 49.82 26.20 -21.6 0 1 837.72 786.97   A 49.90 26.23 -21.7 0 1 874.25 769.60   A 49.95 26.24 -21.6 0 1 897.50 768.21   A 49.88 26.29 -21.8 0 1 907.60 771.12   A 49.91 26.23 -21.7 0 1 916.25 791.49   A 49.79 25.99 -22.0 0 1 911.99 799.50   A 49.83 26.15 -21.6 0 1 897.52 813.18   Z"></path>
  <ellipse fill="#272123" cx="0.00" cy="0.00" transform="translate(961.88,798.30) rotate(-21.6)" rx="49.90" ry="26.36"></ellipse>
  <path fill="#2e7e3a" d="   M 1110.47 792.69   Q 1110.24 792.82 1110.01 792.95   Q 1110.15 792.51 1110.47 792.69   Z"></path>
  <path fill="#2e7e3a" d="   M 1192.41 798.37   Q 1192.53 798.78 1191.84 798.67   Q 1191.50 798.53 1192.41 798.37   Z"></path>
  <ellipse fill="#272123" cx="0.00" cy="0.00" transform="translate(1103.42,830.04) rotate(-21.4)" rx="49.90" ry="26.29"></ellipse>
  <path fill="#2e7e3a" d="   M 1169.82 803.65   L 1170.73 803.74   A 0.01 0.00 -48.6 0 1 1170.73 803.75   Q 1166.41 804.26 1162.04 803.85   L 1169.82 803.65   Z"></path>
  <path fill="#2e7e3a" d="   M 897.52 813.18   A 4.16 0.81 -36.1 0 1 897.04 813.51   Q 897.01 813.11 897.52 813.18   Z"></path>
  <path fill="#2e7e3a" d="   M 896.78 813.69   A 3.96 0.82 -35.7 0 1 896.32 814.00   Q 896.22 813.53 896.78 813.69   Z"></path>
  <path fill="#2e7e3a" d="   M 665.06 1276.05   L 667.29 1276.22   Q 674.15 1276.16 681.01 1276.60   Q 687.92 1277.04 693.03 1277.07   Q 701.08 1277.11 705.07 1277.39   Q 711.37 1277.83 717.46 1277.83   Q 768.25 1277.92 815.47 1278.09   Q 820.30 1278.11 825.57 1278.36   Q 829.65 1278.55 833.99 1278.57   Q 897.53 1278.76 945.33 1278.38   Q 947.70 1278.36 950.43 1278.19   Q 953.31 1278.01 955.09 1278.01   Q 1007.87 1277.92 1058.13 1277.90   C 1062.53 1277.89 1068.61 1277.62 1073.87 1277.74   C 1075.03 1277.76 1076.13 1277.24 1077.25 1277.23   Q 1088.51 1277.15 1099.68 1276.99   Q 1100.10 1276.75 1100.82 1276.92   L 1124.23 1275.68   Q 1125.06 1275.95 1125.48 1275.55   L 1154.50 1273.86   Q 1155.12 1273.97 1155.48 1273.79   Q 1161.03 1274.04 1166.50 1273.11   C 1168.84 1272.71 1172.00 1273.01 1174.75 1272.65   Q 1178.98 1272.09 1183.22 1272.00   Q 1184.94 1271.96 1186.71 1271.55   C 1188.27 1271.19 1190.01 1271.37 1191.58 1271.23   Q 1218.88 1268.74 1250.03 1265.22   Q 1298.64 1259.71 1346.06 1248.62   Q 1359.52 1245.47 1373.63 1241.06   Q 1402.05 1232.19 1426.07 1216.86   Q 1453.26 1199.51 1476.78 1178.28   Q 1481.63 1173.90 1486.61 1169.34   Q 1500.10 1156.97 1510.66 1145.34   C 1513.62 1142.09 1516.75 1139.04 1519.72 1135.73   Q 1544.83 1107.82 1566.66 1079.63   Q 1607.20 1027.25 1638.62 966.06   C 1656.64 930.96 1671.39 893.69 1671.12 854.36   C 1671.08 849.51 1670.73 844.73 1671.21 840.07   Q 1671.35 838.77 1672.49 838.39   Q 1673.26 838.12 1673.52 838.90   Q 1683.15 868.18 1683.22 898.65   C 1683.28 922.59 1678.48 947.00 1670.23 970.20   C 1654.23 1015.20 1632.54 1058.23 1606.81 1098.04   Q 1574.20 1148.51 1535.24 1193.91   Q 1509.90 1223.43 1482.50 1249.36   C 1459.51 1271.12 1434.07 1290.64 1405.91 1304.15   Q 1388.92 1312.30 1368.76 1318.08   Q 1337.85 1326.94 1308.59 1332.05   Q 1240.82 1343.88 1172.18 1349.04   Q 1170.24 1349.18 1168.29 1349.23   C 1165.15 1349.29 1162.21 1349.97 1159.06 1350.04   C 1156.65 1350.10 1154.37 1350.09 1152.00 1350.43   C 1147.23 1351.11 1142.35 1350.75 1137.55 1351.33   C 1132.53 1351.94 1127.28 1351.59 1122.05 1352.08   Q 1115.94 1352.64 1109.10 1352.64   C 1102.66 1352.63 1096.20 1353.40 1089.72 1353.36   Q 1077.75 1353.29 1065.75 1353.66   Q 1054.87 1354.00 1045.71 1354.05   Q 986.99 1354.37 921.19 1354.43   C 919.70 1354.43 918.29 1354.90 916.94 1354.90   Q 884.70 1354.90 852.46 1354.94   C 851.17 1354.94 849.98 1354.50 848.64 1354.49   Q 783.01 1354.27 723.51 1354.17   C 715.90 1354.16 707.94 1353.59 700.84 1353.48   Q 689.45 1353.31 676.99 1352.89   Q 665.23 1352.50 657.98 1352.00   C 653.07 1351.66 647.92 1351.89 643.08 1351.25   C 639.21 1350.74 635.34 1351.10 631.48 1350.60   Q 627.79 1350.13 623.90 1350.08   C 621.27 1350.04 618.86 1349.73 616.31 1349.43   C 613.73 1349.12 611.06 1349.43 608.52 1349.03   Q 606.91 1348.77 605.35 1348.65   Q 595.50 1347.89 585.33 1346.89   Q 583.57 1346.71 581.87 1346.67   C 579.79 1346.61 577.87 1345.89 575.74 1345.93   C 573.09 1345.97 570.72 1345.23 568.03 1345.08   Q 566.56 1345.00 565.03 1344.83   C 514.04 1339.09 463.84 1330.69 415.81 1318.32   Q 399.06 1314.00 381.10 1304.65   Q 364.25 1295.88 342.20 1281.35   C 328.26 1272.17 314.75 1260.62 302.23 1248.60   Q 216.63 1166.44 159.01 1064.13   Q 139.54 1029.56 124.94 996.05   C 113.42 969.59 105.40 941.70 103.05 913.39   Q 102.59 907.84 102.66 895.64   Q 102.72 886.25 103.59 878.51   Q 105.46 861.79 109.90 846.88   Q 111.02 843.13 113.03 839.65   Q 113.16 839.41 113.42 839.29   Q 113.66 839.16 113.94 839.12   A 0.46 0.45 86.3 0 1 114.46 839.58   C 114.00 856.05 114.87 871.72 118.25 888.29   C 123.61 914.60 134.01 941.49 146.84 966.18   Q 191.99 1053.08 258.51 1126.72   Q 262.66 1131.31 266.94 1135.98   C 277.35 1147.34 288.55 1158.10 299.44 1168.92   C 303.73 1173.18 308.22 1177.17 312.77 1181.27   Q 336.97 1203.11 364.74 1219.80   C 382.89 1230.71 402.47 1238.50 422.94 1244.16   C 453.64 1252.64 484.98 1258.87 516.49 1262.69   Q 560.42 1268.03 603.10 1271.65   Q 603.52 1271.68 604.87 1271.94   C 607.29 1272.41 609.87 1272.00 612.34 1272.40   Q 615.31 1272.89 618.13 1272.90   C 622.36 1272.91 626.21 1273.85 630.37 1273.79   C 633.75 1273.73 636.85 1274.47 640.21 1274.54   Q 645.21 1274.65 650.32 1275.11   C 654.72 1275.51 660.15 1275.23 665.06 1276.05   Z"></path>
  <ellipse fill="#ee1c22" cx="0.00" cy="0.00" transform="translate(729.36,894.37) rotate(-24.1)" rx="79.90" ry="44.39"></ellipse>
  <path fill="#272123" d="   M 1259.20 953.92   Q 1258.92 954.36 1259.26 954.62   Q 1259.45 954.77 1259.54 954.54   Q 1259.60 954.38 1259.44 954.25   Q 1262.79 959.81 1262.92 964.81   C 1263.60 992.33 1253.88 1020.66 1232.80 1038.87   Q 1228.02 1042.99 1223.57 1045.29   C 1209.58 1052.51 1192.41 1046.70 1177.59 1044.19   Q 1172.38 1043.31 1166.35 1043.36   Q 1149.18 1043.50 1133.21 1046.68   A 0.06 0.05 35.9 0 0 1133.23 1046.79   Q 1133.40 1046.78 1133.54 1046.81   Q 1133.70 1046.86 1133.53 1046.88   Q 1127.00 1047.69 1120.62 1049.85   C 1119.43 1050.26 1118.29 1049.98 1117.07 1050.42   Q 1110.27 1052.82 1103.53 1055.24   C 1102.06 1055.77 1100.67 1055.48 1099.18 1056.07   Q 1093.82 1058.20 1088.31 1059.83   C 1087.32 1060.12 1086.23 1059.97 1085.25 1060.31   Q 1077.38 1063.02 1069.13 1065.72   C 1067.64 1066.21 1066.05 1065.94 1064.51 1066.56   Q 1060.46 1068.18 1056.22 1069.18   Q 1051.95 1070.19 1047.83 1071.37   Q 1035.41 1074.92 1015.76 1079.73   Q 991.46 1085.67 966.85 1081.11   Q 951.80 1078.33 939.31 1070.01   Q 939.00 1069.43 938.75 1069.65   Q 932.05 1064.91 927.15 1059.04   A 1.91 1.91 0.0 0 0 924.48 1058.78   Q 918.71 1063.44 912.07 1067.55   Q 908.92 1069.50 905.13 1071.32   Q 901.74 1072.94 898.15 1074.70   Q 895.84 1075.83 893.73 1076.12   C 891.50 1076.44 889.36 1077.53 887.14 1078.06   C 866.91 1082.91 846.01 1079.99 826.60 1072.39   Q 819.41 1069.58 812.47 1066.43   A 1.48 1.48 0.0 0 0 810.45 1067.33   C 800.40 1098.95 779.41 1124.25 751.34 1142.20   Q 750.46 1142.77 749.44 1143.02   Q 748.98 1143.14 748.62 1143.45   Q 746.46 1145.35 743.86 1146.58   C 740.27 1148.27 737.00 1150.38 733.51 1151.91   C 732.41 1152.40 731.12 1152.52 730.08 1153.14   Q 726.23 1155.45 722.89 1156.52   Q 719.93 1157.48 717.40 1158.49   Q 713.05 1160.22 708.32 1161.82   C 707.19 1162.20 706.22 1162.03 705.11 1162.41   Q 697.36 1165.05 689.24 1166.66   C 666.13 1171.22 642.53 1173.16 619.31 1171.25   C 596.23 1169.36 573.40 1163.56 554.91 1150.36   C 519.02 1124.73 516.49 1079.33 528.77 1040.51   Q 532.01 1030.27 537.17 1018.45   Q 537.23 1018.31 537.39 1018.37   Q 537.51 1018.42 537.55 1018.30   Q 538.22 1016.16 539.36 1014.21   Q 540.44 1012.37 541.21 1010.46   Q 542.63 1006.93 545.70 1002.78   Q 546.31 1001.96 546.60 1000.91   C 547.16 998.89 549.22 996.66 550.46 994.98   Q 551.97 992.93 553.09 990.74   Q 554.56 987.86 556.63 985.41   Q 558.54 983.15 559.91 980.33   Q 563.68 972.56 566.05 965.59   C 567.43 961.54 568.92 958.50 571.91 955.32   C 587.65 938.61 608.28 930.13 631.33 928.05   Q 636.38 927.59 640.49 929.44   Q 646.52 932.16 647.93 938.53   Q 648.56 941.35 647.95 944.54   C 645.19 959.02 637.88 970.81 627.03 980.74   Q 620.73 986.51 613.78 992.51   Q 609.19 996.48 604.21 1001.32   Q 590.52 1014.66 586.00 1030.95   Q 583.95 1038.35 585.73 1044.21   C 592.28 1065.77 629.47 1075.48 648.45 1076.44   C 681.73 1078.11 715.63 1071.89 744.98 1058.32   C 754.42 1053.95 763.75 1048.18 767.71 1038.66   Q 769.87 1033.46 769.23 1029.11   C 768.53 1024.32 766.52 1019.69 763.99 1015.55   Q 755.31 1001.34 746.74 989.02   Q 745.73 987.57 745.15 985.89   Q 744.75 984.71 744.24 983.55   C 740.78 975.61 746.60 968.44 751.56 962.88   Q 753.46 960.75 755.30 958.51   C 756.95 956.51 758.97 954.93 760.66 952.96   Q 770.45 941.56 781.09 930.76   C 781.67 930.17 782.36 930.01 782.96 929.39   Q 786.89 925.40 792.59 922.67   Q 803.72 917.32 811.26 925.98   Q 814.71 929.95 816.56 934.95   Q 817.69 938.02 818.97 940.99   Q 820.94 945.55 822.84 950.50   Q 824.88 955.84 827.51 961.02   Q 827.44 961.05 827.38 961.08   Q 827.24 961.15 827.26 961.31   Q 827.31 961.64 827.52 961.89   Q 827.70 962.10 827.85 961.86   Q 827.93 961.71 827.82 961.54   Q 827.96 962.52 828.37 963.43   Q 832.03 971.60 835.89 979.81   C 846.11 1001.53 871.57 997.76 888.08 987.05   Q 896.29 981.73 901.25 974.09   Q 901.19 974.37 901.22 974.51   Q 901.29 974.81 901.50 974.53   Q 901.64 974.36 901.44 973.95   Q 905.82 967.34 910.05 960.62   Q 911.19 958.80 912.43 957.24   Q 913.41 956.00 913.96 954.65   C 914.98 952.13 917.39 949.63 918.86 947.28   Q 920.64 944.43 922.36 942.45   Q 929.60 934.13 941.25 934.61   C 965.03 935.60 962.80 955.61 960.38 972.46   C 958.19 987.73 967.91 1000.48 983.13 1002.82   Q 994.98 1004.63 1005.76 1002.38   Q 1037.41 995.79 1074.33 987.69   Q 1084.25 985.52 1093.86 984.11   C 1105.57 982.39 1117.17 982.05 1128.98 981.55   A 0.67 0.67 0.0 0 0 1129.62 980.78   Q 1129.51 980.06 1129.11 979.52   Q 1118.88 965.81 1102.27 954.18   Q 1092.07 947.04 1084.56 945.38   Q 1073.87 943.02 1062.65 946.15   Q 1059.82 946.94 1056.62 947.95   Q 1053.31 948.99 1050.81 950.30   Q 1047.36 952.11 1043.93 953.80   C 1041.69 954.90 1040.09 956.58 1037.96 957.74   Q 1036.70 958.42 1035.54 959.32   Q 1030.77 963.02 1026.00 966.66   Q 1025.84 966.15 1025.49 966.99   Q 1024.40 967.53 1023.34 968.20   Q 1019.22 970.81 1014.53 973.25   C 1013.18 973.96 1012.00 973.69 1010.75 974.29   Q 1007.82 975.70 1003.68 976.69   Q 991.01 979.69 984.12 970.45   Q 983.80 970.02 983.86 969.49   Q 983.92 968.97 983.66 968.52   Q 981.32 964.61 980.94 957.15   Q 980.11 940.78 988.69 928.30   Q 988.72 928.43 988.76 928.51   Q 988.90 928.73 988.99 928.43   Q 989.04 928.24 988.98 928.02   C 992.64 923.15 996.87 918.63 1002.24 916.70   C 1007.39 914.85 1013.29 914.49 1018.46 913.20   C 1022.94 912.07 1026.39 909.26 1029.36 905.73   C 1047.36 884.36 1067.88 869.46 1097.64 879.64   Q 1113.89 885.19 1130.13 895.08   C 1155.83 910.73 1179.26 931.59 1201.49 952.24   Q 1206.38 956.78 1212.51 957.33   Q 1216.49 957.69 1221.46 955.42   Q 1225.81 953.43 1229.74 951.05   C 1236.81 946.78 1244.13 943.85 1252.06 948.18   Q 1256.24 950.47 1259.20 953.92   Z"></path>
  <path fill="#272123" d="   M 489.94 921.81   L 489.87 908.15   Q 491.72 901.03 495.41 894.42   Q 496.15 893.10 497.26 892.15   Q 498.06 891.47 498.44 890.48   C 499.05 888.88 501.55 887.13 502.90 886.13   Q 503.19 885.91 503.29 885.55   Q 503.41 885.10 503.80 884.85   Q 508.14 882.08 513.03 879.68   Q 519.55 876.48 527.33 876.75   Q 530.54 876.87 533.78 877.16   Q 537.19 877.48 540.26 878.81   Q 545.30 880.99 549.49 883.72   Q 555.23 887.45 559.82 894.41   Q 560.03 894.73 560.05 895.10   Q 560.06 895.49 560.27 895.82   Q 563.78 901.31 564.82 906.58   C 565.84 911.76 566.27 918.91 564.70 924.28   Q 563.49 928.39 560.99 932.52   Q 560.92 932.64 558.28 937.56   Q 556.42 941.02 552.84 943.22   C 550.73 944.53 549.20 946.64 547.00 947.53   Q 544.32 948.62 541.84 949.89   C 534.81 953.48 525.62 953.86 518.48 951.85   Q 515.67 951.06 510.21 948.48   Q 506.50 946.73 503.53 944.12   Q 500.07 941.08 496.78 937.17   Q 494.75 934.75 493.59 931.87   Q 492.51 929.16 491.33 926.18   Q 490.44 923.93 489.94 921.81   Z   M 518.42 883.05   Q 515.94 883.80 514.21 884.72   Q 509.70 887.12 505.29 890.56   C 504.60 890.86 504.08 890.97 503.55 891.52   Q 498.23 897.14 496.20 904.06   C 494.92 909.28 493.16 914.09 494.71 919.78   Q 495.82 923.87 497.03 928.44   Q 497.48 930.12 498.46 931.27   Q 500.18 933.27 501.41 935.60   Q 502.78 938.17 508.65 941.96   Q 512.71 946.10 518.09 946.57   Q 527.93 949.37 538.03 946.39   Q 552.89 941.73 558.28 927.58   Q 563.08 916.34 559.27 905.33   Q 558.19 902.22 556.39 899.37   Q 554.86 896.98 553.54 894.61   Q 551.58 891.08 548.01 888.97   Q 546.93 888.33 546.06 887.44   Q 544.55 885.91 542.26 885.10   Q 539.18 884.02 536.41 882.98   Q 527.37 879.96 518.42 883.05   Z"></path>
  <path fill="#2e7e3a" d="   M 536.41 882.98   Q 527.42 881.79 518.42 883.05   Q 527.37 879.96 536.41 882.98   Z"></path>
  <path fill="#ffffff" d="   M 536.41 882.98   Q 539.18 884.02 542.26 885.10   Q 544.55 885.91 546.06 887.44   Q 546.93 888.33 548.01 888.97   Q 551.58 891.08 553.54 894.61   Q 554.86 896.98 556.39 899.37   Q 558.19 902.22 559.27 905.33   Q 563.08 916.34 558.28 927.58   Q 556.59 929.78 555.17 932.14   Q 553.30 935.23 552.00 936.63   Q 549.78 939.03 547.18 941.03   Q 545.90 942.01 542.59 943.64   Q 540.22 944.81 538.03 946.39   Q 527.93 949.37 518.09 946.57   L 508.65 941.96   Q 502.78 938.17 501.41 935.60   Q 500.18 933.27 498.46 931.27   Q 497.48 930.12 497.03 928.44   Q 495.82 923.87 494.71 919.78   C 493.16 914.09 494.92 909.28 496.20 904.06   Q 497.90 901.33 499.40 898.51   Q 500.56 896.33 502.17 894.43   Q 503.73 892.59 505.29 890.56   Q 509.70 887.12 514.21 884.72   Q 515.94 883.80 518.42 883.05   Q 527.42 881.79 536.41 882.98   Z   M 517.53 896.07   C 515.08 895.70 513.21 897.48 513.24 899.86   Q 513.39 910.99 513.25 921.98   Q 513.25 922.26 513.00 922.40   Q 512.71 922.57 512.67 922.89   Q 511.93 927.97 513.44 932.43   Q 515.73 933.48 517.52 932.82   Q 518.87 932.33 518.86 930.89   Q 518.84 924.33 518.92 918.87   Q 518.97 916.19 521.65 916.32   Q 529.34 916.70 533.60 923.18   Q 534.87 925.12 536.33 926.72   Q 538.24 928.84 539.34 931.55   C 540.77 935.09 544.84 934.03 545.65 930.88   Q 545.79 930.33 545.40 929.91   Q 544.39 928.84 543.92 927.80   Q 540.91 923.22 537.46 919.07   C 536.18 917.54 536.70 916.44 537.98 915.11   Q 538.71 914.35 539.13 913.45   L 541.63 912.41   Q 542.16 912.19 542.46 911.71   Q 543.47 910.11 543.67 908.00   Q 544.14 903.09 541.70 900.01   Q 539.90 897.76 535.30 896.64   Q 530.81 895.54 526.17 895.39   C 523.52 895.30 520.44 895.92 517.53 896.07   Z"></path>
  <path fill="#2e7e3a" d="   M 505.29 890.56   Q 503.73 892.59 502.17 894.43   Q 500.56 896.33 499.40 898.51   Q 497.90 901.33 496.20 904.06   Q 498.23 897.14 503.55 891.52   C 504.08 890.97 504.60 890.86 505.29 890.56   Z"></path>
  <path fill="#272123" d="   M 539.13 913.45   C 534.95 915.35 534.67 917.72 537.95 920.89   C 540.36 923.21 540.71 925.89 543.92 927.80   Q 544.39 928.84 545.40 929.91   Q 545.79 930.33 545.65 930.88   C 544.84 934.03 540.77 935.09 539.34 931.55   Q 538.24 928.84 536.33 926.72   Q 534.87 925.12 533.60 923.18   Q 529.34 916.70 521.65 916.32   Q 518.97 916.19 518.92 918.87   Q 518.84 924.33 518.86 930.89   Q 518.87 932.33 517.52 932.82   Q 515.73 933.48 513.44 932.43   Q 513.82 917.97 513.58 904.00   Q 513.53 901.29 514.34 898.78   Q 514.68 897.70 515.59 897.10   Q 516.53 896.47 517.53 896.07   C 520.44 895.92 523.52 895.30 526.17 895.39   Q 530.81 895.54 535.30 896.64   Q 539.90 897.76 541.70 900.01   Q 544.14 903.09 543.67 908.00   Q 543.47 910.11 542.46 911.71   Q 542.16 912.19 541.63 912.41   L 539.13 913.45   Z   M 519.85 900.68   Q 515.70 906.87 519.59 910.60   Q 520.98 911.94 522.48 911.97   Q 527.49 912.05 532.57 912.31   Q 533.74 912.36 534.85 911.82   Q 536.60 910.95 537.21 909.23   Q 539.11 903.84 534.34 900.70   Q 526.50 898.71 519.85 900.68   Z"></path>
  <path fill="#2e7e3a" d="   M 517.53 896.07   Q 516.53 896.47 515.59 897.10   Q 514.68 897.70 514.34 898.78   Q 513.53 901.29 513.58 904.00   Q 513.82 917.97 513.44 932.43   Q 511.93 927.97 512.67 922.89   Q 512.71 922.57 513.00 922.40   Q 513.25 922.26 513.25 921.98   Q 513.39 910.99 513.24 899.86   C 513.21 897.48 515.08 895.70 517.53 896.07   Z"></path>
  <path fill="#2e7e3a" d="   M 534.34 900.70   L 519.85 900.68   Q 526.50 898.71 534.34 900.70   Z"></path>
  <path fill="#ffffff" d="   M 534.34 900.70   Q 539.11 903.84 537.21 909.23   Q 536.60 910.95 534.85 911.82   Q 533.74 912.36 532.57 912.31   Q 527.49 912.05 522.48 911.97   Q 520.98 911.94 519.59 910.60   Q 515.70 906.87 519.85 900.68   L 534.34 900.70   Z"></path>
  <path fill="#2e7e3a" d="   M 489.87 908.15   L 489.94 921.81   Q 487.97 915.00 489.87 908.15   Z"></path>
  <path fill="#2e7e3a" d="   M 539.13 913.45   Q 538.71 914.35 537.98 915.11   C 536.70 916.44 536.18 917.54 537.46 919.07   Q 540.91 923.22 543.92 927.80   C 540.71 925.89 540.36 923.21 537.95 920.89   C 534.67 917.72 534.95 915.35 539.13 913.45   Z"></path>
  <path fill="#2e7e3a" d="   M 558.28 927.58   Q 552.89 941.73 538.03 946.39   Q 540.22 944.81 542.59 943.64   Q 545.90 942.01 547.18 941.03   Q 549.78 939.03 552.00 936.63   Q 553.30 935.23 555.17 932.14   Q 556.59 929.78 558.28 927.58   Z"></path>
  <path fill="#2e7e3a" d="   M 988.98 928.02   Q 989.04 928.24 988.99 928.43   Q 988.90 928.73 988.76 928.51   Q 988.72 928.43 988.69 928.30   Q 988.91 927.92 988.98 928.02   Z"></path>
  <path fill="#2e7e3a" d="   M 518.09 946.57   Q 512.71 946.10 508.65 941.96   L 518.09 946.57   Z"></path>
  <path fill="#2e7e3a" d="   M 1259.20 953.92   Q 1259.47 954.08 1259.44 954.25   Q 1259.60 954.38 1259.54 954.54   Q 1259.45 954.77 1259.26 954.62   Q 1258.92 954.36 1259.20 953.92   Z"></path>
  <path fill="#2e7e3a" d="   M 827.51 961.02   Q 827.69 961.15 827.82 961.54   Q 827.93 961.71 827.85 961.86   Q 827.70 962.10 827.52 961.89   Q 827.31 961.64 827.26 961.31   Q 827.24 961.15 827.38 961.08   Q 827.44 961.05 827.51 961.02   Z"></path>
  <path fill="#2e7e3a" d="   M 1026.00 966.66   Q 1025.92 967.00 1025.49 966.99   Q 1025.84 966.15 1026.00 966.66   Z"></path>
  <path fill="#2e7e3a" d="   M 901.44 973.95   Q 901.64 974.36 901.50 974.53   Q 901.29 974.81 901.22 974.51   Q 901.19 974.37 901.25 974.09   Q 901.35 974.02 901.44 973.95   Z"></path>
  <path fill="#2e7e3a" d="   M 939.31 1070.01   Q 938.66 1069.96 938.75 1069.65   Q 939.00 1069.43 939.31 1070.01   Z"></path>
  <path fill="#272123" d="   M 1106.74 1129.14   Q 1106.66 1128.99 1106.36 1129.07   Q 1106.25 1129.10 1106.19 1129.20   Q 1106.09 1129.37 1106.23 1129.39   A 49.98 26.47 -21.7 0 1 1094.21 1134.22   A 49.94 26.54 -21.5 0 1 1083.73 1136.95   A 50.05 26.40 -21.5 0 1 1055.71 1136.34   A 49.84 26.20 -21.3 0 1 1048.11 1132.37   A 50.09 26.39 -21.4 0 1 1043.91 1113.18   A 49.53 26.35 -21.0 0 1 1047.09 1107.30   A 50.14 26.43 -21.4 0 1 1060.96 1093.60   Q 1061.70 1093.71 1061.48 1093.23   A 50.08 26.38 -21.4 0 1 1085.79 1081.22   A 11.57 0.95 -17.6 0 1 1087.35 1080.73   A 50.10 26.38 -21.4 0 1 1115.43 1077.36   A 50.03 26.32 -21.3 0 1 1131.41 1082.83   A 50.09 26.38 -21.5 0 1 1136.14 1101.89   A 50.03 26.42 -21.3 0 1 1131.37 1110.15   A 49.58 26.44 -21.1 0 1 1126.28 1115.79   A 50.05 26.41 -21.4 0 1 1106.74 1129.14   Z"></path>
  <path fill="#272123" d="   M 1191.48 1133.19   Q 1190.97 1132.99 1190.70 1133.47   A 49.80 26.47 -21.4 0 1 1172.25 1137.93   L 1154.28 1137.61   A 49.88 26.42 -21.5 0 1 1141.16 1131.57   A 49.80 26.33 -21.5 0 1 1136.73 1117.51   A 49.98 26.58 -21.2 0 1 1140.37 1108.59   A 49.94 26.47 -21.4 0 1 1154.23 1094.25   A 49.87 26.37 -21.5 0 1 1185.50 1079.71   A 49.83 26.36 -21.5 0 1 1213.75 1078.26   A 49.86 26.37 -21.5 0 1 1226.51 1084.26   A 49.84 26.35 -21.5 0 1 1231.14 1096.50   A 49.88 26.32 -21.6 0 1 1226.14 1108.89   A 49.26 26.24 -21.2 0 1 1221.24 1114.75   A 49.88 26.36 -21.5 0 1 1191.48 1133.19   Z"></path>
  <path fill="#2e7e3a" d="   M 1061.48 1093.23   Q 1061.70 1093.71 1060.96 1093.60   A 4.55 0.81 -36.8 0 0 1061.48 1093.23   Z"></path>
  <ellipse fill="#272123" cx="0.00" cy="0.00" transform="translate(870.08,1132.72) rotate(-21.8)" rx="49.92" ry="26.37"></ellipse>
  <ellipse fill="#272123" cx="0.00" cy="0.00" transform="translate(961.94,1132.69) rotate(-21.7)" rx="49.92" ry="26.37"></ellipse>
  <path fill="#2e7e3a" d="   M 1106.74 1129.14   A 4.05 1.33 -23.7 0 1 1106.23 1129.39   Q 1106.09 1129.37 1106.19 1129.20   Q 1106.25 1129.10 1106.36 1129.07   Q 1106.66 1128.99 1106.74 1129.14   Z"></path>
  <path fill="#2e7e3a" d="   M 1191.48 1133.19   Q 1191.09 1133.33 1190.70 1133.47   Q 1190.97 1132.99 1191.48 1133.19   Z"></path>
  <path fill="#272123" d="   M 1130.25 1180.14   Q 1129.76 1180.00 1129.76 1180.47   A 49.86 26.39 -21.6 0 1 1098.26 1193.63   A 49.89 26.34 -21.6 0 1 1076.24 1194.81   A 49.83 26.37 -21.6 0 1 1061.01 1188.67   A 49.88 26.38 -21.6 0 1 1057.54 1170.00   A 49.85 26.32 -21.6 0 1 1069.21 1154.68   A 49.84 26.46 -21.6 0 1 1086.27 1143.38   A 49.88 26.41 -21.8 0 1 1100.44 1137.70   A 49.71 26.37 -22.0 0 1 1110.25 1135.26   A 49.90 26.42 -21.6 0 1 1132.50 1134.77   A 49.96 26.49 -21.7 0 1 1145.80 1140.70   A 49.83 26.36 -21.7 0 1 1150.64 1150.00   A 49.82 26.36 -21.5 0 1 1147.63 1162.40   A 49.87 26.35 -21.6 0 1 1135.63 1176.14   A 49.93 26.05 -21.4 0 1 1130.25 1180.14   Z"></path>
  <path fill="#2e7e3a" d="   M 1172.25 1137.93   A 49.88 26.48 -21.5 0 1 1154.28 1137.61   L 1172.25 1137.93   Z"></path>
  <path fill="#2e7e3a" d="   M 1130.25 1180.14   A 4.19 1.38 -32.6 0 1 1129.76 1180.47   Q 1129.76 1180.00 1130.25 1180.14   Z"></path>
  <path fill="#272123" d="   M 1155.48 1273.79   Q 1155.12 1273.97 1154.50 1273.86   Q 1155.06 1273.93 1155.48 1273.79   Z"></path>
  <path fill="#272123" d="   M 1125.48 1275.55   Q 1125.06 1275.95 1124.23 1275.68   L 1125.48 1275.55   Z"></path>
  <path fill="#272123" d="   M 667.29 1276.22   L 665.06 1276.05   Q 666.25 1275.96 667.29 1276.22   Z"></path>
  <path fill="#272123" d="   M 1100.82 1276.92   Q 1100.10 1276.75 1099.68 1276.99   Q 1100.03 1276.72 1100.82 1276.92   Z"></path>
</svg>
