<?xml version="1.0" encoding="UTF-8" standalone="no"?>
<svg xmlns="http://www.w3.org/2000/svg" version="1.1" viewBox="0.00 0.00 1080.00 1080.00">
  <g stroke-width="2.00" fill="none" stroke-linecap="butt">
    <path stroke="#a6e0f5" vector-effect="non-scaling-stroke" d="   M 893.98 401.00   L 886.76 393.61"></path>
    <path stroke="#a6e0f5" vector-effect="non-scaling-stroke" d="   M 879.84 390.88   Q 871.97 391.58 867.50 391.68   Q 825.36 392.64 790.47 370.74   C 777.06 362.32 766.12 350.61 752.40 342.50   Q 734.46 331.90 714.06 336.44   C 700.80 339.38 689.13 345.42 684.82 359.31   Q 682.52 366.69 683.15 374.07"></path>
    <path stroke="#397085" vector-effect="non-scaling-stroke" d="   M 683.15 374.07   Q 679.11 380.27 679.42 388.10"></path>
    <path stroke="#a6e0f5" vector-effect="non-scaling-stroke" d="   M 679.42 388.10   Q 679.27 388.18 679.16 388.22   Q 679.03 388.28 678.91 388.19   Q 668.31 380.50 657.47 373.14   C 656.32 372.35 654.98 371.96 653.57 372.31   C 650.60 373.06 648.12 374.21 645.00 373.00   C 629.50 366.99 613.98 368.21 601.54 378.84   Q 584.56 393.35 583.58 416.26   Q 583.37 421.16 583.99 426.05"></path>
    <path stroke="#397085" vector-effect="non-scaling-stroke" d="   M 583.99 426.05   C 578.24 424.39 579.62 436.43 579.96 439.18"></path>
    <path stroke="#62bf84" vector-effect="non-scaling-stroke" d="   M 579.96 439.18   Q 578.11 442.77 573.50 442.20"></path>
    <path stroke="#a6e0f5" vector-effect="non-scaling-stroke" d="   M 573.50 442.20   Q 563.17 414.66 547.14 386.83   Q 538.59 371.96 522.20 375.53   C 520.81 375.83 519.96 376.94 519.54 378.22   C 517.28 384.98 511.68 380.31 508.60 384.12   Q 505.03 388.54 503.77 394.24   Q 502.75 398.84 503.20 402.71"></path>
    <path stroke="#397085" vector-effect="non-scaling-stroke" d="   M 503.20 402.71   Q 498.32 411.92 502.96 420.54   Q 523.86 459.35 537.52 498.02"></path>
    <path stroke="#a6e0f5" vector-effect="non-scaling-stroke" d="   M 537.52 498.02   Q 536.54 500.69 532.92 503.92   C 529.06 507.36 524.66 508.46 519.92 506.62   C 507.72 501.88 497.74 492.53 490.77 480.76   Q 452.69 416.38 442.50 340.52   C 441.00 329.38 431.23 322.32 420.40 322.18   Q 403.30 321.96 397.87 337.88   Q 395.75 344.10 396.53 351.80"></path>
    <path stroke="#397085" vector-effect="non-scaling-stroke" d="   M 396.53 351.80   Q 395.96 386.93 405.91 421.09   Q 412.73 444.53 422.48 465.43   Q 422.60 465.68 422.55 465.94   Q 422.53 466.10 422.56 466.28"></path>
    <path stroke="#a6e0f5" vector-effect="non-scaling-stroke" d="   M 422.56 466.28   Q 422.49 466.74 422.41 467.17   Q 422.33 467.60 422.32 467.17   Q 422.31 466.97 422.13 466.82   Q 421.89 466.62 421.59 466.57   Q 419.96 466.29 419.21 464.77   Q 403.50 432.78 381.40 405.31   C 370.71 392.02 352.48 372.68 334.83 373.38   C 328.59 373.63 325.06 376.92 322.23 382.47   Q 317.31 392.13 317.06 403.05"></path>
    <path stroke="#397085" vector-effect="non-scaling-stroke" d="   M 317.06 403.05   Q 313.18 410.24 315.97 417.00   Q 318.35 422.79 325.29 429.71   Q 332.11 436.52 338.88 443.36   Q 364.28 469.04 375.29 503.48   Q 377.12 509.21 380.30 522.92"></path>
    <path stroke="#a6e0f5" vector-effect="non-scaling-stroke" d="   M 380.30 522.92   Q 371.80 543.77 350.20 550.60   Q 338.54 554.29 327.10 553.61   Q 313.31 552.79 300.95 548.20   C 278.67 539.93 271.07 519.43 271.05 497.07   Q 271.03 476.44 276.01 455.20   C 276.88 451.52 277.50 447.03 276.23 443.46   Q 273.59 436.05 266.16 436.01   Q 262.84 435.99 259.80 434.63   C 257.24 433.49 256.46 430.51 253.72 429.44   Q 249.83 427.92 245.81 429.93   C 234.41 435.60 229.92 449.56 228.13 461.85   Q 226.13 475.58 226.09 483.76   Q 226.07 487.44 225.87 489.24"></path>
    <path stroke="#397085" vector-effect="non-scaling-stroke" d="   M 225.87 489.24   Q 222.14 489.17 219.44 486.73"></path>
    <path stroke="#bade8e" vector-effect="non-scaling-stroke" d="   M 895.95 421.15   Q 892.14 428.29 885.16 432.71"></path>
    <path stroke="#918f90" vector-effect="non-scaling-stroke" d="   M 885.16 432.71   Q 844.82 440.79 815.27 469.27   Q 807.47 476.79 798.76 487.28   Q 785.67 503.04 770.06 514.50   Q 744.13 533.52 713.83 531.72   C 712.08 531.61 710.79 532.48 709.99 534.00   Q 707.17 539.34 706.87 544.12"></path>
    <path stroke="#bade8e" vector-effect="non-scaling-stroke" d="   M 706.87 544.12   Q 694.78 573.95 674.51 597.20"></path>
    <path stroke="#918f90" vector-effect="non-scaling-stroke" d="   M 674.51 597.20   Q 668.05 601.11 664.99 602.27   Q 649.28 608.23 638.90 595.60   Q 636.96 593.24 634.16 588.62"></path>
    <path stroke="#bade8e" vector-effect="non-scaling-stroke" d="   M 634.16 588.62   Q 632.55 581.96 634.90 575.67   Q 636.05 572.58 639.84 568.23   Q 642.84 564.78 645.74 561.24   Q 655.31 549.57 661.05 536.26"></path>
    <path stroke="#918f90" vector-effect="non-scaling-stroke" d="   M 661.05 536.26   Q 663.36 532.36 664.36 526.94   C 664.83 524.39 664.46 522.88 661.90 521.85   C 638.76 512.45 619.59 498.41 604.53 478.48   Q 587.17 455.51 583.99 426.05"></path>
    <path stroke="#918f90" vector-effect="non-scaling-stroke" d="   M 679.42 388.10   L 693.10 406.69"></path>
    <path stroke="#a6e0f5" vector-effect="non-scaling-stroke" d="   M 693.10 406.69   Q 711.71 443.46 715.66 484.22   Q 715.91 486.78 718.48 486.55   Q 730.16 485.49 739.42 480.18   C 757.46 469.84 771.82 453.13 783.39 436.04"></path>
    <path stroke="#918f90" vector-effect="non-scaling-stroke" d="   M 783.39 436.04   Q 789.05 433.10 791.09 427.37   A 2.45 2.45 0.0 0 0 789.90 424.36   Q 761.93 410.07 739.70 387.08   C 738.52 385.86 737.02 384.82 735.32 385.84   C 731.24 388.28 727.64 391.43 723.39 393.36   Q 716.91 396.30 708.39 395.97   C 694.95 395.46 687.79 385.62 683.15 374.07"></path>
    <path stroke="#bade8e" vector-effect="non-scaling-stroke" d="   M 422.88 467.49   L 422.70 468.23   Q 422.59 468.70 422.34 469.11   Q 420.91 471.39 421.87 474.19   Q 430.66 500.07 426.34 528.07   Q 424.90 537.38 420.85 546.48   Q 414.90 559.80 405.13 570.64"></path>
    <path stroke="#918f90" vector-effect="non-scaling-stroke" d="   M 405.13 570.64   Q 378.66 593.45 344.83 597.10   C 286.10 603.42 233.26 574.46 226.74 512.74   Q 225.62 502.07 225.87 489.24"></path>
    <path stroke="#918f90" vector-effect="non-scaling-stroke" d="   M 380.30 522.92   Q 385.99 498.15 374.12 475.87   Q 352.31 434.93 317.06 403.05"></path>
    <path stroke="#4c6e1f" vector-effect="non-scaling-stroke" d="   M 661.05 536.26   Q 644.45 529.80 628.59 518.65   C 604.30 501.59 587.39 477.23 581.65 448.18   Q 580.74 443.59 579.96 439.18"></path>
    <path stroke="#397085" vector-effect="non-scaling-stroke" d="   M 223.31 522.48   Q 223.70 506.72 223.71 491.00   Q 223.71 489.46 221.95 489.09"></path>
    <path stroke="#133a56" vector-effect="non-scaling-stroke" d="   M 221.95 489.09   Q 221.10 489.34 219.99 488.02   Q 219.72 487.69 219.01 487.71"></path>
    <path stroke="#4c6e1f" vector-effect="non-scaling-stroke" d="   M 634.16 588.62   Q 631.08 593.36 631.01 599.01   C 630.90 607.80 636.57 612.37 644.25 614.76   C 649.66 616.44 655.20 616.59 659.61 614.12   Q 670.31 608.12 674.51 597.20"></path>
    <path stroke="#4c6e1f" vector-effect="non-scaling-stroke" d="   M 223.46 529.47   Q 223.87 532.09 224.38 534.88   Q 231.35 573.51 262.80 593.99   C 284.79 608.32 311.76 611.86 337.67 609.47   Q 350.51 608.28 363.73 603.50   Q 390.12 593.94 405.13 570.64"></path>
    <path stroke="#bade8e" vector-effect="non-scaling-stroke" d="   M 507.40 568.31   Q 501.03 577.36 504.55 588.24"></path>
    <path stroke="#4c6e1f" vector-effect="non-scaling-stroke" d="   M 504.55 588.24   Q 500.27 589.17 499.68 593.00   C 498.64 599.80 503.06 606.11 508.71 609.69   Q 519.13 616.28 525.27 625.28   C 532.28 635.57 533.34 651.04 550.31 648.53   Q 559.16 647.22 563.40 638.52   Q 563.96 637.36 562.37 635.18"></path>
    <path stroke="#bade8e" vector-effect="non-scaling-stroke" d="   M 562.37 635.18   C 564.56 633.76 568.52 631.72 569.74 629.48   Q 580.37 609.97 591.51 590.75   C 597.25 580.86 601.75 567.70 591.74 559.70   Q 585.71 554.88 577.49 555.32   C 565.87 555.95 558.11 567.01 554.47 577.08   A 1.76 1.76 0.0 0 1 551.74 577.87   L 535.72 565.48"></path>
    <path stroke="#918f90" vector-effect="non-scaling-stroke" d="   M 537.52 498.02   Q 537.89 497.22 537.86 496.75   C 535.67 462.44 523.13 430.55 503.20 402.71"></path>
    <path stroke="#bade8e" vector-effect="non-scaling-stroke" d="   M 573.50 442.20   Q 575.29 447.76 577.12 453.28   Q 582.31 468.90 583.53 485.32   Q 584.51 498.40 581.58 509.81   Q 576.75 528.58 562.78 541.97"></path>
    <path stroke="#918f90" vector-effect="non-scaling-stroke" d="   M 562.78 541.97   C 546.95 553.67 529.69 558.64 510.39 554.45   C 494.03 550.91 478.99 540.11 468.27 527.11   C 448.02 502.54 434.57 474.80 422.80 444.22   Q 405.61 399.60 396.53 351.80"></path>
    <path stroke="#4c6e1f" vector-effect="non-scaling-stroke" d="   M 562.78 541.97   Q 560.02 552.22 551.60 556.60   Q 543.59 560.77 535.72 565.48"></path>
    <path stroke="#918f90" vector-effect="non-scaling-stroke" d="   M 535.72 565.48   C 525.79 560.64 515.43 559.36 507.40 568.31"></path>
    <path stroke="#4c6e1f" vector-effect="non-scaling-stroke" d="   M 507.40 568.31   Q 474.20 556.49 453.82 527.65   Q 448.28 519.80 445.04 513.43   Q 436.12 495.86 422.88 467.49"></path>
    <path stroke="#918f90" vector-effect="non-scaling-stroke" d="   M 422.88 467.49   Q 422.59 467.06 422.56 466.28"></path>
    <path stroke="#397085" vector-effect="non-scaling-stroke" d="   M 783.39 436.04   Q 755.39 421.02 733.52 397.81   C 732.32 396.53 730.96 396.04 729.44 396.92   Q 726.59 398.58 716.57 404.85   Q 710.49 408.66 701.51 407.75   Q 697.59 407.36 693.10 406.69"></path>
    <path stroke="#4c6e1f" vector-effect="non-scaling-stroke" d="   M 880.58 444.31   Q 850.69 449.64 826.03 466.87   Q 820.23 470.93 813.07 477.30   Q 805.02 484.47 801.02 488.81   C 790.46 500.25 779.46 511.98 766.95 522.67   Q 740.91 544.94 706.87 544.12"></path>
    <path stroke="#4c6e1f" vector-effect="non-scaling-stroke" d="   M 886.43 436.43   L 885.16 432.71"></path>
    <path stroke="#298bbb" vector-effect="non-scaling-stroke" d="   M 221.95 489.09   Q 221.10 490.02 221.16 493.30"></path>
    <path stroke="#918f90" vector-effect="non-scaling-stroke" d="   M 562.37 635.18   Q 559.96 635.56 557.34 635.98   Q 545.39 637.91 538.65 629.52   C 535.78 625.95 534.61 621.21 532.41 617.12   Q 527.18 607.36 518.49 600.40   Q 518.44 600.36 513.03 596.63   Q 508.04 593.21 504.55 588.24"></path>
    <path stroke="#397085" vector-effect="non-scaling-stroke" d="   M 305.22 502.79   Q 304.43 503.39 304.27 503.99   C 302.12 512.30 301.60 522.76 308.18 528.84   C 313.49 533.75 323.63 535.09 330.48 534.22   Q 339.67 533.07 342.46 523.84"></path>
    <path stroke="#a6e0f5" vector-effect="non-scaling-stroke" d="   M 342.46 523.84   Q 353.45 516.61 356.08 503.47   Q 357.57 496.07 355.32 490.19   Q 350.76 478.29 337.43 473.62   C 336.43 473.27 334.32 473.56 333.22 474.12   C 328.92 476.27 324.41 475.69 319.84 475.62   Q 319.26 475.61 318.77 475.93   Q 304.16 485.48 305.22 502.79"></path>
    <path stroke="#918f90" vector-effect="non-scaling-stroke" d="   M 342.46 523.84   Q 339.96 524.26 337.65 524.73   C 326.47 527.00 316.91 524.04 310.63 514.38   Q 307.78 509.99 305.22 502.79"></path>
    <path stroke="#f68e92" vector-effect="non-scaling-stroke" d="   M 534.78 415.11   Q 533.66 414.64 533.14 413.29   Q 531.19 408.23 528.86 402.76   C 527.70 400.05 517.68 384.62 512.90 391.83   Q 510.17 395.94 512.37 400.04   C 522.02 418.06 530.92 434.82 538.21 453.44   Q 544.78 470.21 546.22 484.53   C 547.08 493.11 545.62 501.36 540.13 508.20   C 530.10 520.69 514.68 514.93 503.64 506.77   C 493.73 499.44 486.35 490.77 480.15 479.65   Q 448.91 423.65 437.51 361.00   Q 435.78 351.46 434.19 341.86   C 431.27 324.18 402.98 328.43 405.36 346.07   C 413.17 403.90 432.51 457.79 463.31 506.89   C 480.96 535.02 515.84 562.72 549.94 540.75   C 568.77 528.63 577.76 504.72 575.89 483.02   Q 575.25 475.62 571.73 463.38   Q 560.35 423.72 538.57 389.16   C 536.33 385.60 531.56 380.69 526.95 383.62   A 0.96 0.95 54.4 0 0 526.72 385.02   Q 537.15 398.00 535.38 414.75   A 0.44 0.43 -75.7 0 1 534.78 415.11"></path>
    <path stroke="#f68e92" vector-effect="non-scaling-stroke" d="   M 807.08 424.48   C 793.24 437.68 781.43 451.84 769.33 466.08   C 755.22 482.68 732.04 498.43 708.61 493.11   A 1.21 1.19 -9.8 0 1 707.89 492.61   Q 706.91 491.11 706.87 489.45   C 706.06 450.74 692.64 409.07 661.20 384.47   Q 660.15 383.65 659.18 384.49   A 1.79 1.79 0.0 0 0 658.86 386.85   L 664.61 395.36   Q 664.96 395.89 664.60 396.40   Q 663.93 397.34 662.04 395.99   A 1.52 1.43 85.4 0 1 661.72 395.70   C 649.43 382.17 630.15 370.74 612.25 381.83   C 581.22 401.05 589.80 441.88 606.38 466.89   Q 630.53 503.30 673.00 517.26   A 2.40 2.40 0.0 0 1 674.61 520.02   Q 669.44 545.83 652.65 566.01   Q 648.88 570.54 644.66 575.36   Q 642.10 578.29 641.93 583.01   C 641.75 588.30 645.10 592.30 649.73 594.55   Q 656.22 597.70 662.70 595.01   Q 666.17 593.58 671.09 588.07   Q 695.16 561.12 703.42 526.18   C 703.73 524.85 704.68 523.41 706.26 523.48   Q 714.05 523.82 721.06 523.93   C 752.40 524.43 778.52 498.96 797.53 476.78   Q 807.26 465.44 810.66 462.19   Q 834.64 439.34 866.58 429.62   Q 872.05 427.95 878.19 426.20   C 891.00 422.53 893.78 406.21 880.41 400.66   Q 876.85 399.19 870.38 399.46   C 843.55 400.62 817.97 395.69 794.76 383.64   C 781.08 376.55 770.39 366.67 758.44 356.89   C 743.30 344.50 727.36 338.56 708.14 346.95   Q 706.27 347.77 706.54 349.81   C 707.64 358.20 711.72 366.38 717.01 373.39   A 0.78 0.77 63.1 0 1 716.62 374.60   Q 716.06 374.78 715.46 374.64   C 705.02 372.23 701.61 365.91 697.91 356.97   A 1.49 1.49 0.0 0 0 695.39 356.60   Q 694.14 358.13 693.41 360.12   Q 689.37 371.16 694.76 379.49   C 700.02 387.61 710.74 390.19 719.50 386.37   Q 723.53 384.61 727.35 381.39   Q 731.59 377.82 736.33 375.09   Q 738.63 373.77 740.39 375.75   Q 768.57 407.46 806.80 423.01   A 0.89 0.89 0.0 0 1 807.08 424.48"></path>
    <path stroke="#f68e92" vector-effect="non-scaling-stroke" d="   M 621.12 420.58   C 621.28 452.50 647.89 475.25 675.55 485.94   Q 676.25 486.21 676.93 485.98   A 1.32 1.31 78.3 0 0 677.81 484.63   C 675.92 460.72 668.90 434.56 653.99 415.92   Q 650.83 411.98 647.10 408.98   C 640.38 403.57 628.58 399.23 623.40 408.76   Q 621.08 413.03 621.12 420.58"></path>
    <path stroke="#f68e92" vector-effect="non-scaling-stroke" d="   M 360.76 410.26   Q 360.61 410.24 359.60 409.65   Q 345.13 401.23 329.86 391.96   A 2.07 2.07 0.0 0 0 327.43 392.17   C 324.26 394.93 325.58 399.95 328.19 402.60   C 347.03 421.74 365.80 442.59 378.38 465.91   C 391.29 489.85 397.44 523.94 376.00 545.08   C 362.73 558.16 344.42 561.72 326.35 561.33   C 305.32 560.88 284.97 555.16 273.44 537.09   C 267.25 527.39 264.45 515.52 263.64 504.06   C 262.40 486.57 265.17 467.60 268.83 449.59   C 269.50 446.27 267.39 443.48 263.88 444.11   C 260.30 444.75 259.27 447.55 257.98 450.74   Q 254.17 460.08 251.06 470.53   A 1.38 1.38 0.0 0 1 248.56 470.86   Q 247.97 469.89 248.11 468.62   Q 249.64 454.01 251.19 439.99   A 1.94 1.93 -86.6 0 0 249.29 437.84   C 244.65 437.79 241.00 444.13 239.99 447.89   C 227.46 494.47 229.15 550.35 275.84 576.70   C 318.92 601.01 385.83 594.05 411.28 546.67   C 439.42 494.29 396.97 432.54 361.10 396.44   Q 351.42 386.70 340.30 381.11   Q 337.34 379.62 334.35 380.89   Q 334.04 381.02 333.77 381.21   Q 331.16 382.99 333.79 384.74   Q 349.30 395.07 361.46 409.03   Q 362.88 410.66 360.76 410.26"></path>
    <path stroke="#a6e0f5" vector-effect="non-scaling-stroke" d="   M 629.80 423.80   Q 633.57 453.06 659.13 467.75"></path>
    <path stroke="#918f90" vector-effect="non-scaling-stroke" d="   M 659.13 467.75   Q 660.64 469.18 663.50 470.78   Q 665.29 471.78 667.28 471.34   Q 668.07 471.17 667.90 470.38   C 663.20 448.35 656.13 426.47 637.56 412.30   C 632.34 408.30 629.37 415.03 628.84 418.82   Q 628.43 421.74 629.80 423.80"></path>
    <path stroke="#397085" vector-effect="non-scaling-stroke" d="   M 659.13 467.75   Q 655.06 438.18 629.80 423.80"></path>
    <path stroke="#4c6e1f" vector-effect="non-scaling-stroke" d="   M 783.47 544.98   Q 782.38 546.01 782.21 546.54   Q 779.65 554.52 783.81 561.46   Q 785.03 563.50 787.05 564.70   C 799.97 572.31 809.59 584.11 814.66 597.94   C 815.37 599.89 816.58 601.40 818.40 602.43   C 825.77 606.58 834.30 608.34 840.62 601.09   Q 844.02 597.19 845.22 591.84"></path>
    <path stroke="#bade8e" vector-effect="non-scaling-stroke" d="   M 845.22 591.84   Q 846.53 590.90 846.93 590.41   Q 854.56 581.07 860.31 570.60   Q 867.39 557.70 874.86 544.14   C 881.51 532.08 880.82 518.89 867.03 513.73   C 849.27 507.09 840.73 523.18 835.02 536.11   A 1.51 1.50 -53.8 0 1 832.52 536.50   Q 829.42 533.01 826.33 530.09   C 818.78 522.95 804.16 514.96 794.29 520.98   Q 790.03 523.57 786.97 530.45   Q 783.89 537.37 783.47 544.98"></path>
    <path stroke="#918f90" vector-effect="non-scaling-stroke" d="   M 845.22 591.84   C 836.77 594.52 827.57 594.97 821.38 587.60   C 816.70 582.02 813.35 573.96 810.44 569.82   Q 799.84 554.78 783.47 544.98"></path>
    <path stroke="#f68e92" vector-effect="non-scaling-stroke" d="   M 332.36 500.80   Q 332.11 500.70 331.97 500.48   Q 327.88 494.28 325.29 487.36   C 324.01 483.96 320.34 483.58 318.26 486.54   Q 308.13 500.92 319.91 513.20   Q 325.23 518.74 332.37 517.76   Q 342.87 516.32 347.37 505.59   Q 350.41 498.34 346.25 490.88   Q 343.75 486.40 338.13 482.73   A 1.93 1.93 0.0 0 0 336.05 482.70   Q 334.72 483.52 334.62 484.98   Q 334.07 492.63 333.70 499.97   Q 333.63 501.36 332.36 500.80"></path>
    <path stroke="#f68e92" vector-effect="non-scaling-stroke" d="   M 810.36 541.54   A 0.71 0.69 -51.8 0 1 809.61 541.64   L 796.25 535.24   Q 792.47 533.43 792.36 537.62   Q 792.33 538.64 792.64 539.71   Q 793.74 543.53 797.07 545.69   C 809.56 553.82 819.37 563.88 824.36 578.01   C 825.95 582.51 829.91 585.62 834.72 585.82   C 840.98 586.07 844.80 581.65 847.68 576.06   Q 857.69 556.67 869.83 535.97   C 874.39 528.18 867.86 521.07 860.06 520.33   C 855.73 519.92 852.26 522.20 850.03 525.79   Q 842.51 537.92 837.31 550.57   A 1.94 1.94 0.0 0 1 833.96 551.00   Q 825.20 539.38 813.63 531.02   C 810.97 529.10 804.45 525.56 801.21 527.19   A 1.68 1.68 0.0 0 0 801.10 530.13   Q 807.21 533.78 810.39 539.60   Q 811.11 540.91 810.36 541.54"></path>
    <path stroke="#f68e92" vector-effect="non-scaling-stroke" d="   M 532.50 587.66   Q 524.22 582.85 515.81 577.86   Q 514.32 576.97 512.71 577.49   A 2.26 2.25 -10.3 0 0 511.14 579.74   C 511.33 584.03 514.02 587.49 517.48 589.77   C 529.28 597.53 538.18 608.21 543.32 621.32   C 547.16 631.13 559.78 631.01 564.28 622.44   Q 575.56 600.97 588.24 579.03   C 592.44 571.77 586.97 564.95 579.94 563.16   Q 572.75 561.32 569.00 567.93   Q 562.44 579.49 555.51 591.38   C 554.50 593.11 552.80 593.19 551.46 591.55   Q 542.76 580.88 531.72 573.00   Q 526.27 569.11 520.22 569.60   Q 519.28 569.67 518.71 570.37   A 1.41 1.40 39.6 0 0 518.90 572.33   C 524.21 576.75 529.63 581.00 533.34 586.79   Q 534.74 588.96 532.50 587.66"></path>
  </g>
  <path fill="#4ec1ea" d="   M 893.98 401.00   L 886.76 393.61   Q 893.48 385.58 900.03 377.44   Q 906.52 369.39 908.62 364.88   C 914.22 352.87 919.95 332.21 911.64 320.66   C 906.37 313.34 901.59 318.08 898.03 323.25   C 896.01 326.19 899.87 329.00 901.73 330.60   C 913.18 340.43 896.55 367.09 890.51 376.01   Q 885.34 383.64 879.84 390.88   Q 871.97 391.58 867.50 391.68   Q 825.36 392.64 790.47 370.74   C 777.06 362.32 766.12 350.61 752.40 342.50   Q 734.46 331.90 714.06 336.44   C 700.80 339.38 689.13 345.42 684.82 359.31   Q 682.52 366.69 683.15 374.07   Q 679.11 380.27 679.42 388.10   Q 679.27 388.18 679.16 388.22   Q 679.03 388.28 678.91 388.19   Q 668.31 380.50 657.47 373.14   C 656.32 372.35 654.98 371.96 653.57 372.31   C 650.60 373.06 648.12 374.21 645.00 373.00   C 629.50 366.99 613.98 368.21 601.54 378.84   Q 584.56 393.35 583.58 416.26   Q 583.37 421.16 583.99 426.05   C 578.24 424.39 579.62 436.43 579.96 439.18   Q 578.11 442.77 573.50 442.20   Q 563.17 414.66 547.14 386.83   Q 538.59 371.96 522.20 375.53   C 520.81 375.83 519.96 376.94 519.54 378.22   C 517.28 384.98 511.68 380.31 508.60 384.12   Q 505.03 388.54 503.77 394.24   Q 502.75 398.84 503.20 402.71   Q 498.32 411.92 502.96 420.54   Q 523.86 459.35 537.52 498.02   Q 536.54 500.69 532.92 503.92   C 529.06 507.36 524.66 508.46 519.92 506.62   C 507.72 501.88 497.74 492.53 490.77 480.76   Q 452.69 416.38 442.50 340.52   C 441.00 329.38 431.23 322.32 420.40 322.18   Q 403.30 321.96 397.87 337.88   Q 395.75 344.10 396.53 351.80   Q 395.96 386.93 405.91 421.09   Q 412.73 444.53 422.48 465.43   Q 422.60 465.68 422.55 465.94   Q 422.53 466.10 422.56 466.28   Q 422.49 466.74 422.41 467.17   Q 422.33 467.60 422.32 467.17   Q 422.31 466.97 422.13 466.82   Q 421.89 466.62 421.59 466.57   Q 419.96 466.29 419.21 464.77   Q 403.50 432.78 381.40 405.31   C 370.71 392.02 352.48 372.68 334.83 373.38   C 328.59 373.63 325.06 376.92 322.23 382.47   Q 317.31 392.13 317.06 403.05   Q 313.18 410.24 315.97 417.00   Q 318.35 422.79 325.29 429.71   Q 332.11 436.52 338.88 443.36   Q 364.28 469.04 375.29 503.48   Q 377.12 509.21 380.30 522.92   Q 371.80 543.77 350.20 550.60   Q 338.54 554.29 327.10 553.61   Q 313.31 552.79 300.95 548.20   C 278.67 539.93 271.07 519.43 271.05 497.07   Q 271.03 476.44 276.01 455.20   C 276.88 451.52 277.50 447.03 276.23 443.46   Q 273.59 436.05 266.16 436.01   Q 262.84 435.99 259.80 434.63   C 257.24 433.49 256.46 430.51 253.72 429.44   Q 249.83 427.92 245.81 429.93   C 234.41 435.60 229.92 449.56 228.13 461.85   Q 226.13 475.58 226.09 483.76   Q 226.07 487.44 225.87 489.24   Q 222.14 489.17 219.44 486.73   Q 210.58 480.79 208.38 479.11   Q 203.49 475.37 194.77 466.98   C 192.40 464.71 188.69 462.50 185.01 460.51   Q 162.88 448.57 152.96 424.70   A 2.82 2.78 -49.8 0 1 152.83 422.99   C 155.44 411.98 147.88 405.16 141.05 397.78   C 137.59 394.05 135.39 389.93 134.27 384.91   Q 128.28 358.06 131.16 329.55   Q 131.30 328.16 132.19 327.32   A 1.80 1.80 0.0 0 1 134.63 327.29   Q 137.79 330.15 140.90 333.11   C 141.95 334.11 143.63 334.49 145.01 334.04   Q 148.53 332.87 151.44 335.09   Q 153.70 336.82 153.56 333.97   C 153.38 330.60 153.47 326.89 157.12 325.51   C 159.77 324.50 161.74 325.10 163.11 321.97   C 181.98 279.03 222.68 268.30 266.00 262.82   C 285.97 260.30 305.86 253.98 325.07 248.07   A 0.91 0.91 0.0 0 0 325.51 246.64   C 323.79 244.46 320.36 237.70 323.88 235.62   C 328.66 232.80 334.30 230.71 339.79 229.21   C 359.95 223.69 380.29 219.68 400.99 217.50   C 461.15 211.16 522.37 203.96 581.57 194.85   Q 597.92 192.33 616.72 188.53   C 621.77 187.50 622.34 192.18 623.14 195.62   A 2.69 2.68 -12.4 0 0 626.31 197.64   Q 655.60 191.46 684.80 192.66   C 698.03 193.20 715.42 195.87 723.56 206.77   Q 724.65 208.22 726.50 208.11   Q 748.57 206.77 770.28 205.44   C 803.19 203.42 832.14 213.65 855.07 237.52   C 856.19 238.69 857.89 238.84 859.42 238.64   A 0.70 0.69 0.6 0 1 860.20 239.43   C 859.90 241.45 860.19 243.27 861.28 245.02   Q 866.42 253.27 869.53 257.76   C 871.52 260.61 875.01 259.91 877.16 257.56   C 883.70 250.41 891.60 247.59 900.49 252.79   C 909.35 257.96 916.16 265.84 910.85 276.73   C 908.27 282.01 908.34 287.17 913.31 291.17   Q 916.92 294.08 917.44 298.88   C 917.68 301.04 920.05 301.41 921.45 300.00   Q 925.03 296.39 931.13 297.41   Q 939.85 298.88 949.24 304.67   Q 949.70 304.95 949.77 305.50   Q 950.19 309.21 949.45 311.81   C 939.61 346.59 921.67 377.73 893.98 401.00   Z   M 623.00 222.61   L 623.68 224.72   A 0.80 0.80 0.0 0 0 624.69 225.24   L 627.25 224.41   A 22.11 1.85 -17.9 0 0 647.72 215.85   L 647.68 215.74   A 22.11 1.85 -17.9 0 0 626.07 220.77   L 623.51 221.60   A 0.80 0.80 0.0 0 0 623.00 222.61   Z   M 305.22 502.79   Q 304.43 503.39 304.27 503.99   C 302.12 512.30 301.60 522.76 308.18 528.84   C 313.49 533.75 323.63 535.09 330.48 534.22   Q 339.67 533.07 342.46 523.84   Q 353.45 516.61 356.08 503.47   Q 357.57 496.07 355.32 490.19   Q 350.76 478.29 337.43 473.62   C 336.43 473.27 334.32 473.56 333.22 474.12   C 328.92 476.27 324.41 475.69 319.84 475.62   Q 319.26 475.61 318.77 475.93   Q 304.16 485.48 305.22 502.79   Z"></path>
  <path fill="#feffff" d="   M 537.52 498.02   Q 537.89 497.22 537.86 496.75   C 535.67 462.44 523.13 430.55 503.20 402.71   Q 502.75 398.84 503.77 394.24   Q 505.03 388.54 508.60 384.12   C 511.68 380.31 517.28 384.98 519.54 378.22   C 519.96 376.94 520.81 375.83 522.20 375.53   Q 538.59 371.96 547.14 386.83   Q 563.17 414.66 573.50 442.20   Q 575.29 447.76 577.12 453.28   Q 582.31 468.90 583.53 485.32   Q 584.51 498.40 581.58 509.81   Q 576.75 528.58 562.78 541.97   C 546.95 553.67 529.69 558.64 510.39 554.45   C 494.03 550.91 478.99 540.11 468.27 527.11   C 448.02 502.54 434.57 474.80 422.80 444.22   Q 405.61 399.60 396.53 351.80   Q 395.75 344.10 397.87 337.88   Q 403.30 321.96 420.40 322.18   C 431.23 322.32 441.00 329.38 442.50 340.52   Q 452.69 416.38 490.77 480.76   C 497.74 492.53 507.72 501.88 519.92 506.62   C 524.66 508.46 529.06 507.36 532.92 503.92   Q 536.54 500.69 537.52 498.02   Z   M 534.78 415.11   Q 533.66 414.64 533.14 413.29   Q 531.19 408.23 528.86 402.76   C 527.70 400.05 517.68 384.62 512.90 391.83   Q 510.17 395.94 512.37 400.04   C 522.02 418.06 530.92 434.82 538.21 453.44   Q 544.78 470.21 546.22 484.53   C 547.08 493.11 545.62 501.36 540.13 508.20   C 530.10 520.69 514.68 514.93 503.64 506.77   C 493.73 499.44 486.35 490.77 480.15 479.65   Q 448.91 423.65 437.51 361.00   Q 435.78 351.46 434.19 341.86   C 431.27 324.18 402.98 328.43 405.36 346.07   C 413.17 403.90 432.51 457.79 463.31 506.89   C 480.96 535.02 515.84 562.72 549.94 540.75   C 568.77 528.63 577.76 504.72 575.89 483.02   Q 575.25 475.62 571.73 463.38   Q 560.35 423.72 538.57 389.16   C 536.33 385.60 531.56 380.69 526.95 383.62   A 0.96 0.95 54.4 0 0 526.72 385.02   Q 537.15 398.00 535.38 414.75   A 0.44 0.43 -75.7 0 1 534.78 415.11   Z"></path>
  <path fill="#ed1c24" d="   M 534.78 415.11   A 0.44 0.43 -75.7 0 0 535.38 414.75   Q 537.15 398.00 526.72 385.02   A 0.96 0.95 54.4 0 1 526.95 383.62   C 531.56 380.69 536.33 385.60 538.57 389.16   Q 560.35 423.72 571.73 463.38   Q 575.25 475.62 575.89 483.02   C 577.76 504.72 568.77 528.63 549.94 540.75   C 515.84 562.72 480.96 535.02 463.31 506.89   C 432.51 457.79 413.17 403.90 405.36 346.07   C 402.98 328.43 431.27 324.18 434.19 341.86   Q 435.78 351.46 437.51 361.00   Q 448.91 423.65 480.15 479.65   C 486.35 490.77 493.73 499.44 503.64 506.77   C 514.68 514.93 530.10 520.69 540.13 508.20   C 545.62 501.36 547.08 493.11 546.22 484.53   Q 544.78 470.21 538.21 453.44   C 530.92 434.82 522.02 418.06 512.37 400.04   Q 510.17 395.94 512.90 391.83   C 517.68 384.62 527.70 400.05 528.86 402.76   Q 531.19 408.23 533.14 413.29   Q 533.66 414.64 534.78 415.11   Z"></path>
  <path fill="#feffff" d="   M 879.84 390.88   Q 882.75 394.41 886.76 393.61   L 893.98 401.00   Q 899.76 410.17 895.95 421.15   Q 892.14 428.29 885.16 432.71   Q 844.82 440.79 815.27 469.27   Q 807.47 476.79 798.76 487.28   Q 785.67 503.04 770.06 514.50   Q 744.13 533.52 713.83 531.72   C 712.08 531.61 710.79 532.48 709.99 534.00   Q 707.17 539.34 706.87 544.12   Q 694.78 573.95 674.51 597.20   Q 668.05 601.11 664.99 602.27   Q 649.28 608.23 638.90 595.60   Q 636.96 593.24 634.16 588.62   Q 632.55 581.96 634.90 575.67   Q 636.05 572.58 639.84 568.23   Q 642.84 564.78 645.74 561.24   Q 655.31 549.57 661.05 536.26   Q 663.36 532.36 664.36 526.94   C 664.83 524.39 664.46 522.88 661.90 521.85   C 638.76 512.45 619.59 498.41 604.53 478.48   Q 587.17 455.51 583.99 426.05   Q 583.37 421.16 583.58 416.26   Q 584.56 393.35 601.54 378.84   C 613.98 368.21 629.50 366.99 645.00 373.00   C 648.12 374.21 650.60 373.06 653.57 372.31   C 654.98 371.96 656.32 372.35 657.47 373.14   Q 668.31 380.50 678.91 388.19   Q 679.03 388.28 679.16 388.22   Q 679.27 388.18 679.42 388.10   L 693.10 406.69   Q 711.71 443.46 715.66 484.22   Q 715.91 486.78 718.48 486.55   Q 730.16 485.49 739.42 480.18   C 757.46 469.84 771.82 453.13 783.39 436.04   Q 789.05 433.10 791.09 427.37   A 2.45 2.45 0.0 0 0 789.90 424.36   Q 761.93 410.07 739.70 387.08   C 738.52 385.86 737.02 384.82 735.32 385.84   C 731.24 388.28 727.64 391.43 723.39 393.36   Q 716.91 396.30 708.39 395.97   C 694.95 395.46 687.79 385.62 683.15 374.07   Q 682.52 366.69 684.82 359.31   C 689.13 345.42 700.80 339.38 714.06 336.44   Q 734.46 331.90 752.40 342.50   C 766.12 350.61 777.06 362.32 790.47 370.74   Q 825.36 392.64 867.50 391.68   Q 871.97 391.58 879.84 390.88   Z   M 807.08 424.48   C 793.24 437.68 781.43 451.84 769.33 466.08   C 755.22 482.68 732.04 498.43 708.61 493.11   A 1.21 1.19 -9.8 0 1 707.89 492.61   Q 706.91 491.11 706.87 489.45   C 706.06 450.74 692.64 409.07 661.20 384.47   Q 660.15 383.65 659.18 384.49   A 1.79 1.79 0.0 0 0 658.86 386.85   L 664.61 395.36   Q 664.96 395.89 664.60 396.40   Q 663.93 397.34 662.04 395.99   A 1.52 1.43 85.4 0 1 661.72 395.70   C 649.43 382.17 630.15 370.74 612.25 381.83   C 581.22 401.05 589.80 441.88 606.38 466.89   Q 630.53 503.30 673.00 517.26   A 2.40 2.40 0.0 0 1 674.61 520.02   Q 669.44 545.83 652.65 566.01   Q 648.88 570.54 644.66 575.36   Q 642.10 578.29 641.93 583.01   C 641.75 588.30 645.10 592.30 649.73 594.55   Q 656.22 597.70 662.70 595.01   Q 666.17 593.58 671.09 588.07   Q 695.16 561.12 703.42 526.18   C 703.73 524.85 704.68 523.41 706.26 523.48   Q 714.05 523.82 721.06 523.93   C 752.40 524.43 778.52 498.96 797.53 476.78   Q 807.26 465.44 810.66 462.19   Q 834.64 439.34 866.58 429.62   Q 872.05 427.95 878.19 426.20   C 891.00 422.53 893.78 406.21 880.41 400.66   Q 876.85 399.19 870.38 399.46   C 843.55 400.62 817.97 395.69 794.76 383.64   C 781.08 376.55 770.39 366.67 758.44 356.89   C 743.30 344.50 727.36 338.56 708.14 346.95   Q 706.27 347.77 706.54 349.81   C 707.64 358.20 711.72 366.38 717.01 373.39   A 0.78 0.77 63.1 0 1 716.62 374.60   Q 716.06 374.78 715.46 374.64   C 705.02 372.23 701.61 365.91 697.91 356.97   A 1.49 1.49 0.0 0 0 695.39 356.60   Q 694.14 358.13 693.41 360.12   Q 689.37 371.16 694.76 379.49   C 700.02 387.61 710.74 390.19 719.50 386.37   Q 723.53 384.61 727.35 381.39   Q 731.59 377.82 736.33 375.09   Q 738.63 373.77 740.39 375.75   Q 768.57 407.46 806.80 423.01   A 0.89 0.89 0.0 0 1 807.08 424.48   Z"></path>
  <path fill="#ed1c24" d="   M 807.08 424.48   A 0.89 0.89 0.0 0 0 806.80 423.01   Q 768.57 407.46 740.39 375.75   Q 738.63 373.77 736.33 375.09   Q 731.59 377.82 727.35 381.39   Q 723.53 384.61 719.50 386.37   C 710.74 390.19 700.02 387.61 694.76 379.49   Q 689.37 371.16 693.41 360.12   Q 694.14 358.13 695.39 356.60   A 1.49 1.49 0.0 0 1 697.91 356.97   C 701.61 365.91 705.02 372.23 715.46 374.64   Q 716.06 374.78 716.62 374.60   A 0.78 0.77 63.1 0 0 717.01 373.39   C 711.72 366.38 707.64 358.20 706.54 349.81   Q 706.27 347.77 708.14 346.95   C 727.36 338.56 743.30 344.50 758.44 356.89   C 770.39 366.67 781.08 376.55 794.76 383.64   C 817.97 395.69 843.55 400.62 870.38 399.46   Q 876.85 399.19 880.41 400.66   C 893.78 406.21 891.00 422.53 878.19 426.20   Q 872.05 427.95 866.58 429.62   Q 834.64 439.34 810.66 462.19   Q 807.26 465.44 797.53 476.78   C 778.52 498.96 752.40 524.43 721.06 523.93   Q 714.05 523.82 706.26 523.48   C 704.68 523.41 703.73 524.85 703.42 526.18   Q 695.16 561.12 671.09 588.07   Q 666.17 593.58 662.70 595.01   Q 656.22 597.70 649.73 594.55   C 645.10 592.30 641.75 588.30 641.93 583.01   Q 642.10 578.29 644.66 575.36   Q 648.88 570.54 652.65 566.01   Q 669.44 545.83 674.61 520.02   A 2.40 2.40 0.0 0 0 673.00 517.26   Q 630.53 503.30 606.38 466.89   C 589.80 441.88 581.22 401.05 612.25 381.83   C 630.15 370.74 649.43 382.17 661.72 395.70   A 1.52 1.43 85.4 0 0 662.04 395.99   Q 663.93 397.34 664.60 396.40   Q 664.96 395.89 664.61 395.36   L 658.86 386.85   A 1.79 1.79 0.0 0 1 659.18 384.49   Q 660.15 383.65 661.20 384.47   C 692.64 409.07 706.06 450.74 706.87 489.45   Q 706.91 491.11 707.89 492.61   A 1.21 1.19 -9.8 0 0 708.61 493.11   C 732.04 498.43 755.22 482.68 769.33 466.08   C 781.43 451.84 793.24 437.68 807.08 424.48   Z   M 621.12 420.58   C 621.28 452.50 647.89 475.25 675.55 485.94   Q 676.25 486.21 676.93 485.98   A 1.32 1.31 78.3 0 0 677.81 484.63   C 675.92 460.72 668.90 434.56 653.99 415.92   Q 650.83 411.98 647.10 408.98   C 640.38 403.57 628.58 399.23 623.40 408.76   Q 621.08 413.03 621.12 420.58   Z"></path>
  <path fill="#231f20" d="   M 396.53 351.80   Q 405.61 399.60 422.80 444.22   C 434.57 474.80 448.02 502.54 468.27 527.11   C 478.99 540.11 494.03 550.91 510.39 554.45   C 529.69 558.64 546.95 553.67 562.78 541.97   Q 560.02 552.22 551.60 556.60   Q 543.59 560.77 535.72 565.48   C 525.79 560.64 515.43 559.36 507.40 568.31   Q 474.20 556.49 453.82 527.65   Q 448.28 519.80 445.04 513.43   Q 436.12 495.86 422.88 467.49   Q 422.59 467.06 422.56 466.28   Q 422.53 466.10 422.55 465.94   Q 422.60 465.68 422.48 465.43   Q 412.73 444.53 405.91 421.09   Q 395.96 386.93 396.53 351.80   Z"></path>
  <path fill="#feffff" d="   M 422.56 466.28   Q 422.59 467.06 422.88 467.49   L 422.70 468.23   Q 422.59 468.70 422.34 469.11   Q 420.91 471.39 421.87 474.19   Q 430.66 500.07 426.34 528.07   Q 424.90 537.38 420.85 546.48   Q 414.90 559.80 405.13 570.64   Q 378.66 593.45 344.83 597.10   C 286.10 603.42 233.26 574.46 226.74 512.74   Q 225.62 502.07 225.87 489.24   Q 226.07 487.44 226.09 483.76   Q 226.13 475.58 228.13 461.85   C 229.92 449.56 234.41 435.60 245.81 429.93   Q 249.83 427.92 253.72 429.44   C 256.46 430.51 257.24 433.49 259.80 434.63   Q 262.84 435.99 266.16 436.01   Q 273.59 436.05 276.23 443.46   C 277.50 447.03 276.88 451.52 276.01 455.20   Q 271.03 476.44 271.05 497.07   C 271.07 519.43 278.67 539.93 300.95 548.20   Q 313.31 552.79 327.10 553.61   Q 338.54 554.29 350.20 550.60   Q 371.80 543.77 380.30 522.92   Q 385.99 498.15 374.12 475.87   Q 352.31 434.93 317.06 403.05   Q 317.31 392.13 322.23 382.47   C 325.06 376.92 328.59 373.63 334.83 373.38   C 352.48 372.68 370.71 392.02 381.40 405.31   Q 403.50 432.78 419.21 464.77   Q 419.96 466.29 421.59 466.57   Q 421.89 466.62 422.13 466.82   Q 422.31 466.97 422.32 467.17   Q 422.33 467.60 422.41 467.17   Q 422.49 466.74 422.56 466.28   Z   M 360.76 410.26   Q 360.61 410.24 359.60 409.65   Q 345.13 401.23 329.86 391.96   A 2.07 2.07 0.0 0 0 327.43 392.17   C 324.26 394.93 325.58 399.95 328.19 402.60   C 347.03 421.74 365.80 442.59 378.38 465.91   C 391.29 489.85 397.44 523.94 376.00 545.08   C 362.73 558.16 344.42 561.72 326.35 561.33   C 305.32 560.88 284.97 555.16 273.44 537.09   C 267.25 527.39 264.45 515.52 263.64 504.06   C 262.40 486.57 265.17 467.60 268.83 449.59   C 269.50 446.27 267.39 443.48 263.88 444.11   C 260.30 444.75 259.27 447.55 257.98 450.74   Q 254.17 460.08 251.06 470.53   A 1.38 1.38 0.0 0 1 248.56 470.86   Q 247.97 469.89 248.11 468.62   Q 249.64 454.01 251.19 439.99   A 1.94 1.93 -86.6 0 0 249.29 437.84   C 244.65 437.79 241.00 444.13 239.99 447.89   C 227.46 494.47 229.15 550.35 275.84 576.70   C 318.92 601.01 385.83 594.05 411.28 546.67   C 439.42 494.29 396.97 432.54 361.10 396.44   Q 351.42 386.70 340.30 381.11   Q 337.34 379.62 334.35 380.89   Q 334.04 381.02 333.77 381.21   Q 331.16 382.99 333.79 384.74   Q 349.30 395.07 361.46 409.03   Q 362.88 410.66 360.76 410.26   Z"></path>
  <path fill="#231f20" d="   M 683.15 374.07   C 687.79 385.62 694.95 395.46 708.39 395.97   Q 716.91 396.30 723.39 393.36   C 727.64 391.43 731.24 388.28 735.32 385.84   C 737.02 384.82 738.52 385.86 739.70 387.08   Q 761.93 410.07 789.90 424.36   A 2.45 2.45 0.0 0 1 791.09 427.37   Q 789.05 433.10 783.39 436.04   Q 755.39 421.02 733.52 397.81   C 732.32 396.53 730.96 396.04 729.44 396.92   Q 726.59 398.58 716.57 404.85   Q 710.49 408.66 701.51 407.75   Q 697.59 407.36 693.10 406.69   L 679.42 388.10   Q 679.11 380.27 683.15 374.07   Z"></path>
  <path fill="#ed1c24" d="   M 360.76 410.26   Q 362.88 410.66 361.46 409.03   Q 349.30 395.07 333.79 384.74   Q 331.16 382.99 333.77 381.21   Q 334.04 381.02 334.35 380.89   Q 337.34 379.62 340.30 381.11   Q 351.42 386.70 361.10 396.44   C 396.97 432.54 439.42 494.29 411.28 546.67   C 385.83 594.05 318.92 601.01 275.84 576.70   C 229.15 550.35 227.46 494.47 239.99 447.89   C 241.00 444.13 244.65 437.79 249.29 437.84   A 1.94 1.93 -86.6 0 1 251.19 439.99   Q 249.64 454.01 248.11 468.62   Q 247.97 469.89 248.56 470.86   A 1.38 1.38 0.0 0 0 251.06 470.53   Q 254.17 460.08 257.98 450.74   C 259.27 447.55 260.30 444.75 263.88 444.11   C 267.39 443.48 269.50 446.27 268.83 449.59   C 265.17 467.60 262.40 486.57 263.64 504.06   C 264.45 515.52 267.25 527.39 273.44 537.09   C 284.97 555.16 305.32 560.88 326.35 561.33   C 344.42 561.72 362.73 558.16 376.00 545.08   C 397.44 523.94 391.29 489.85 378.38 465.91   C 365.80 442.59 347.03 421.74 328.19 402.60   C 325.58 399.95 324.26 394.93 327.43 392.17   A 2.07 2.07 0.0 0 1 329.86 391.96   Q 345.13 401.23 359.60 409.65   Q 360.61 410.24 360.76 410.26   Z"></path>
  <path fill="#4ec1ea" d="   M 783.39 436.04   C 771.82 453.13 757.46 469.84 739.42 480.18   Q 730.16 485.49 718.48 486.55   Q 715.91 486.78 715.66 484.22   Q 711.71 443.46 693.10 406.69   Q 697.59 407.36 701.51 407.75   Q 710.49 408.66 716.57 404.85   Q 726.59 398.58 729.44 396.92   C 730.96 396.04 732.32 396.53 733.52 397.81   Q 755.39 421.02 783.39 436.04   Z"></path>
  <path fill="#feffff" d="   M 675.55 485.94   C 647.89 475.25 621.28 452.50 621.12 420.58   Q 621.08 413.03 623.40 408.76   C 628.58 399.23 640.38 403.57 647.10 408.98   Q 650.83 411.98 653.99 415.92   C 668.90 434.56 675.92 460.72 677.81 484.63   A 1.32 1.31 78.3 0 1 676.93 485.98   Q 676.25 486.21 675.55 485.94   Z   M 629.80 423.80   Q 633.57 453.06 659.13 467.75   Q 660.64 469.18 663.50 470.78   Q 665.29 471.78 667.28 471.34   Q 668.07 471.17 667.90 470.38   C 663.20 448.35 656.13 426.47 637.56 412.30   C 632.34 408.30 629.37 415.03 628.84 418.82   Q 628.43 421.74 629.80 423.80   Z"></path>
  <path fill="#231f20" d="   M 317.06 403.05   Q 352.31 434.93 374.12 475.87   Q 385.99 498.15 380.30 522.92   Q 377.12 509.21 375.29 503.48   Q 364.28 469.04 338.88 443.36   Q 332.11 436.52 325.29 429.71   Q 318.35 422.79 315.97 417.00   Q 313.18 410.24 317.06 403.05   Z"></path>
  <path fill="#231f20" d="   M 503.20 402.71   C 523.13 430.55 535.67 462.44 537.86 496.75   Q 537.89 497.22 537.52 498.02   Q 523.86 459.35 502.96 420.54   Q 498.32 411.92 503.20 402.71   Z"></path>
  <path fill="#231f20" d="   M 659.13 467.75   Q 655.06 438.18 629.80 423.80   Q 628.43 421.74 628.84 418.82   C 629.37 415.03 632.34 408.30 637.56 412.30   C 656.13 426.47 663.20 448.35 667.90 470.38   Q 668.07 471.17 667.28 471.34   Q 665.29 471.78 663.50 470.78   Q 660.64 469.18 659.13 467.75   Z"></path>
  <path fill="#75bd1d" d="   M 886.43 436.43   L 885.16 432.71   Q 892.14 428.29 895.95 421.15   Q 899.89 422.12 903.62 423.48   C 918.48 428.87 935.59 437.08 942.00 452.22   Q 946.03 461.73 943.79 470.98   A 0.95 0.94 17.3 0 1 942.53 471.64   Q 941.09 471.07 940.35 469.71   C 933.17 456.44 923.98 445.44 910.65 438.61   Q 898.71 432.49 886.43 436.43   Z"></path>
  <path fill="#4ec1ea" d="   M 629.80 423.80   Q 655.06 438.18 659.13 467.75   Q 633.57 453.06 629.80 423.80   Z"></path>
  <path fill="#231f20" d="   M 583.99 426.05   Q 587.17 455.51 604.53 478.48   C 619.59 498.41 638.76 512.45 661.90 521.85   C 664.46 522.88 664.83 524.39 664.36 526.94   Q 663.36 532.36 661.05 536.26   Q 644.45 529.80 628.59 518.65   C 604.30 501.59 587.39 477.23 581.65 448.18   Q 580.74 443.59 579.96 439.18   C 579.62 436.43 578.24 424.39 583.99 426.05   Z"></path>
  <path fill="#231f20" d="   M 885.16 432.71   L 886.43 436.43   L 880.58 444.31   Q 850.69 449.64 826.03 466.87   Q 820.23 470.93 813.07 477.30   Q 805.02 484.47 801.02 488.81   C 790.46 500.25 779.46 511.98 766.95 522.67   Q 740.91 544.94 706.87 544.12   Q 707.17 539.34 709.99 534.00   C 710.79 532.48 712.08 531.61 713.83 531.72   Q 744.13 533.52 770.06 514.50   Q 785.67 503.04 798.76 487.28   Q 807.47 476.79 815.27 469.27   Q 844.82 440.79 885.16 432.71   Z"></path>
  <path fill="#75bd1d" d="   M 661.05 536.26   Q 655.31 549.57 645.74 561.24   Q 642.84 564.78 639.84 568.23   Q 636.05 572.58 634.90 575.67   Q 632.55 581.96 634.16 588.62   Q 631.08 593.36 631.01 599.01   C 630.90 607.80 636.57 612.37 644.25 614.76   C 649.66 616.44 655.20 616.59 659.61 614.12   Q 670.31 608.12 674.51 597.20   Q 694.78 573.95 706.87 544.12   Q 740.91 544.94 766.95 522.67   C 779.46 511.98 790.46 500.25 801.02 488.81   Q 805.02 484.47 813.07 477.30   Q 820.23 470.93 826.03 466.87   Q 850.69 449.64 880.58 444.31   Q 896.99 475.38 913.50 506.51   C 916.64 512.44 912.17 515.23 909.61 519.85   C 906.04 526.31 906.31 533.69 906.24 541.00   Q 906.20 545.59 905.51 550.72   Q 902.81 571.00 901.09 594.13   C 900.74 598.79 896.67 600.77 892.74 598.16   Q 887.68 594.82 882.69 591.70   C 880.31 590.20 877.23 591.07 875.93 593.46   Q 874.47 596.13 874.54 599.73   C 874.70 608.28 879.88 614.15 885.34 620.32   Q 885.99 621.06 886.12 622.01   A 1.89 1.89 0.0 0 1 884.72 624.10   C 875.81 626.39 868.42 628.89 866.08 639.09   Q 864.88 644.31 865.06 649.73   C 865.61 666.90 864.24 682.65 858.00 698.59   C 857.25 700.50 857.28 702.38 857.32 704.42   A 0.74 0.73 4.2 0 1 856.46 705.16   C 853.81 704.71 852.27 708.47 851.24 710.37   A 1.13 1.13 0.0 0 0 851.76 711.94   L 855.12 713.49   A 1.09 1.08 -63.0 0 1 855.61 715.01   Q 855.23 715.69 854.47 715.94   Q 842.48 719.87 831.94 725.46   Q 829.71 726.64 827.91 724.89   L 827.26 724.25   Q 825.56 722.61 827.51 721.27   L 837.24 714.63   A 1.04 1.04 0.0 0 0 837.34 712.99   C 834.91 710.84 831.69 712.91 829.50 714.72   Q 825.82 717.78 822.06 721.04   C 816.52 725.86 810.36 723.67 804.71 720.45   C 798.51 716.90 795.36 722.40 790.62 724.86   Q 785.75 727.38 780.52 726.85   C 773.76 726.16 767.27 724.50 760.40 725.17   Q 717.60 729.35 702.55 730.52   Q 692.68 731.28 682.54 730.44   C 673.02 729.65 664.31 730.03 655.98 731.83   C 640.40 735.21 626.46 738.41 610.85 736.75   C 588.50 734.37 564.92 733.47 543.34 738.01   C 537.93 739.15 532.36 740.31 526.85 740.93   Q 513.21 742.47 494.71 743.05   Q 463.27 744.04 433.07 740.65   Q 407.46 737.77 385.95 725.43   Q 384.87 724.82 383.67 724.75   A 1.24 1.23 -4.8 0 0 382.40 726.25   C 384.10 734.08 386.11 741.65 377.49 746.22   Q 371.70 749.29 363.23 750.37   C 355.78 751.32 348.57 748.89 341.08 750.69   Q 333.77 752.44 325.82 751.84   Q 323.48 751.67 315.01 749.59   Q 306.79 747.57 298.17 748.05   Q 287.71 748.64 276.42 749.09   Q 273.72 749.20 272.67 747.10   C 271.92 745.61 272.70 743.40 272.77 741.78   A 2.78 2.78 0.0 0 0 270.39 738.91   L 266.13 738.30   A 1.39 1.38 4.1 0 1 264.94 736.93   C 264.93 734.44 267.59 731.81 269.24 730.11   A 0.97 0.97 0.0 0 0 268.89 728.53   Q 267.85 728.14 266.76 728.17   Q 257.73 728.43 250.38 728.67   C 237.76 729.08 227.92 716.06 222.82 705.83   Q 222.56 705.31 222.09 704.95   L 221.37 704.37   Q 220.95 704.04 220.89 703.52   L 218.27 679.88   A 2.27 2.26 -6.7 0 0 215.73 677.88   Q 204.67 679.29 194.27 675.28   A 1.55 1.55 0.0 0 1 193.58 672.92   C 197.82 667.20 204.33 663.06 211.60 661.24   C 217.19 659.84 216.95 654.87 215.09 650.59   C 212.07 643.61 206.84 637.63 202.60 631.52   C 200.25 628.13 198.50 624.22 197.26 620.17   C 193.11 606.58 187.32 592.30 178.51 581.24   Q 166.31 565.91 145.93 557.70   Q 141.50 555.91 137.25 554.17   A 1.49 1.47 -0.4 0 1 136.44 553.38   C 135.88 552.09 136.88 550.81 137.89 550.21   Q 152.98 541.15 167.64 539.21   Q 192.74 535.90 214.66 531.32   C 217.56 530.71 220.41 529.66 223.46 529.47   Q 223.87 532.09 224.38 534.88   Q 231.35 573.51 262.80 593.99   C 284.79 608.32 311.76 611.86 337.67 609.47   Q 350.51 608.28 363.73 603.50   Q 390.12 593.94 405.13 570.64   Q 414.90 559.80 420.85 546.48   Q 424.90 537.38 426.34 528.07   Q 430.66 500.07 421.87 474.19   Q 420.91 471.39 422.34 469.11   Q 422.59 468.70 422.70 468.23   L 422.88 467.49   Q 436.12 495.86 445.04 513.43   Q 448.28 519.80 453.82 527.65   Q 474.20 556.49 507.40 568.31   Q 501.03 577.36 504.55 588.24   Q 500.27 589.17 499.68 593.00   C 498.64 599.80 503.06 606.11 508.71 609.69   Q 519.13 616.28 525.27 625.28   C 532.28 635.57 533.34 651.04 550.31 648.53   Q 559.16 647.22 563.40 638.52   Q 563.96 637.36 562.37 635.18   C 564.56 633.76 568.52 631.72 569.74 629.48   Q 580.37 609.97 591.51 590.75   C 597.25 580.86 601.75 567.70 591.74 559.70   Q 585.71 554.88 577.49 555.32   C 565.87 555.95 558.11 567.01 554.47 577.08   A 1.76 1.76 0.0 0 1 551.74 577.87   L 535.72 565.48   Q 543.59 560.77 551.60 556.60   Q 560.02 552.22 562.78 541.97   Q 576.75 528.58 581.58 509.81   Q 584.51 498.40 583.53 485.32   Q 582.31 468.90 577.12 453.28   Q 575.29 447.76 573.50 442.20   Q 578.11 442.77 579.96 439.18   Q 580.74 443.59 581.65 448.18   C 587.39 477.23 604.30 501.59 628.59 518.65   Q 644.45 529.80 661.05 536.26   Z   M 783.47 544.98   Q 782.38 546.01 782.21 546.54   Q 779.65 554.52 783.81 561.46   Q 785.03 563.50 787.05 564.70   C 799.97 572.31 809.59 584.11 814.66 597.94   C 815.37 599.89 816.58 601.40 818.40 602.43   C 825.77 606.58 834.30 608.34 840.62 601.09   Q 844.02 597.19 845.22 591.84   Q 846.53 590.90 846.93 590.41   Q 854.56 581.07 860.31 570.60   Q 867.39 557.70 874.86 544.14   C 881.51 532.08 880.82 518.89 867.03 513.73   C 849.27 507.09 840.73 523.18 835.02 536.11   A 1.51 1.50 -53.8 0 1 832.52 536.50   Q 829.42 533.01 826.33 530.09   C 818.78 522.95 804.16 514.96 794.29 520.98   Q 790.03 523.57 786.97 530.45   Q 783.89 537.37 783.47 544.98   Z   M 305.79 736.42   A 0.53 0.52 -84.5 0 0 306.36 737.12   Q 318.65 735.37 330.75 733.57   Q 331.70 733.43 331.75 733.14   A 1.64 1.55 16.1 0 0 330.71 731.39   Q 318.82 726.82 306.61 728.34   A 0.77 0.76 -13.0 0 0 305.98 729.34   Q 307.10 732.69 305.79 736.42   Z"></path>
  <path fill="#feffff" d="   M 342.46 523.84   Q 339.96 524.26 337.65 524.73   C 326.47 527.00 316.91 524.04 310.63 514.38   Q 307.78 509.99 305.22 502.79   Q 304.16 485.48 318.77 475.93   Q 319.26 475.61 319.84 475.62   C 324.41 475.69 328.92 476.27 333.22 474.12   C 334.32 473.56 336.43 473.27 337.43 473.62   Q 350.76 478.29 355.32 490.19   Q 357.57 496.07 356.08 503.47   Q 353.45 516.61 342.46 523.84   Z   M 332.36 500.80   Q 332.11 500.70 331.97 500.48   Q 327.88 494.28 325.29 487.36   C 324.01 483.96 320.34 483.58 318.26 486.54   Q 308.13 500.92 319.91 513.20   Q 325.23 518.74 332.37 517.76   Q 342.87 516.32 347.37 505.59   Q 350.41 498.34 346.25 490.88   Q 343.75 486.40 338.13 482.73   A 1.93 1.93 0.0 0 0 336.05 482.70   Q 334.72 483.52 334.62 484.98   Q 334.07 492.63 333.70 499.97   Q 333.63 501.36 332.36 500.80   Z"></path>
  <path fill="#ed1c24" d="   M 332.36 500.80   Q 333.63 501.36 333.70 499.97   Q 334.07 492.63 334.62 484.98   Q 334.72 483.52 336.05 482.70   A 1.93 1.93 0.0 0 1 338.13 482.73   Q 343.75 486.40 346.25 490.88   Q 350.41 498.34 347.37 505.59   Q 342.87 516.32 332.37 517.76   Q 325.23 518.74 319.91 513.20   Q 308.13 500.92 318.26 486.54   C 320.34 483.58 324.01 483.96 325.29 487.36   Q 327.88 494.28 331.97 500.48   Q 332.11 500.70 332.36 500.80   Z"></path>
  <path fill="#231f20" d="   M 225.87 489.24   Q 225.62 502.07 226.74 512.74   C 233.26 574.46 286.10 603.42 344.83 597.10   Q 378.66 593.45 405.13 570.64   Q 390.12 593.94 363.73 603.50   Q 350.51 608.28 337.67 609.47   C 311.76 611.86 284.79 608.32 262.80 593.99   Q 231.35 573.51 224.38 534.88   Q 223.87 532.09 223.46 529.47   L 223.31 522.48   Q 223.70 506.72 223.71 491.00   Q 223.71 489.46 221.95 489.09   Q 221.10 489.34 219.99 488.02   Q 219.72 487.69 219.01 487.71   L 219.44 486.73   Q 222.14 489.17 225.87 489.24   Z"></path>
  <path fill="#03558b" d="   M 221.95 489.09   Q 221.10 490.02 221.16 493.30   C 219.82 492.07 217.64 489.53 219.01 487.71   Q 219.72 487.69 219.99 488.02   Q 221.10 489.34 221.95 489.09   Z"></path>
  <path fill="#4ec1ea" d="   M 221.95 489.09   Q 223.71 489.46 223.71 491.00   Q 223.70 506.72 223.31 522.48   C 221.46 512.89 221.27 502.98 221.16 493.30   Q 221.10 490.02 221.95 489.09   Z"></path>
  <path fill="#231f20" d="   M 305.22 502.79   Q 307.78 509.99 310.63 514.38   C 316.91 524.04 326.47 527.00 337.65 524.73   Q 339.96 524.26 342.46 523.84   Q 339.67 533.07 330.48 534.22   C 323.63 535.09 313.49 533.75 308.18 528.84   C 301.60 522.76 302.12 512.30 304.27 503.99   Q 304.43 503.39 305.22 502.79   Z"></path>
  <path fill="#feffff" d="   M 845.22 591.84   C 836.77 594.52 827.57 594.97 821.38 587.60   C 816.70 582.02 813.35 573.96 810.44 569.82   Q 799.84 554.78 783.47 544.98   Q 783.89 537.37 786.97 530.45   Q 790.03 523.57 794.29 520.98   C 804.16 514.96 818.78 522.95 826.33 530.09   Q 829.42 533.01 832.52 536.50   A 1.51 1.50 -53.8 0 0 835.02 536.11   C 840.73 523.18 849.27 507.09 867.03 513.73   C 880.82 518.89 881.51 532.08 874.86 544.14   Q 867.39 557.70 860.31 570.60   Q 854.56 581.07 846.93 590.41   Q 846.53 590.90 845.22 591.84   Z   M 810.36 541.54   A 0.71 0.69 -51.8 0 1 809.61 541.64   L 796.25 535.24   Q 792.47 533.43 792.36 537.62   Q 792.33 538.64 792.64 539.71   Q 793.74 543.53 797.07 545.69   C 809.56 553.82 819.37 563.88 824.36 578.01   C 825.95 582.51 829.91 585.62 834.72 585.82   C 840.98 586.07 844.80 581.65 847.68 576.06   Q 857.69 556.67 869.83 535.97   C 874.39 528.18 867.86 521.07 860.06 520.33   C 855.73 519.92 852.26 522.20 850.03 525.79   Q 842.51 537.92 837.31 550.57   A 1.94 1.94 0.0 0 1 833.96 551.00   Q 825.20 539.38 813.63 531.02   C 810.97 529.10 804.45 525.56 801.21 527.19   A 1.68 1.68 0.0 0 0 801.10 530.13   Q 807.21 533.78 810.39 539.60   Q 811.11 540.91 810.36 541.54   Z"></path>
  <path fill="#ed1c24" d="   M 810.36 541.54   Q 811.11 540.91 810.39 539.60   Q 807.21 533.78 801.10 530.13   A 1.68 1.68 0.0 0 1 801.21 527.19   C 804.45 525.56 810.97 529.10 813.63 531.02   Q 825.20 539.38 833.96 551.00   A 1.94 1.94 0.0 0 0 837.31 550.57   Q 842.51 537.92 850.03 525.79   C 852.26 522.20 855.73 519.92 860.06 520.33   C 867.86 521.07 874.39 528.18 869.83 535.97   Q 857.69 556.67 847.68 576.06   C 844.80 581.65 840.98 586.07 834.72 585.82   C 829.91 585.62 825.95 582.51 824.36 578.01   C 819.37 563.88 809.56 553.82 797.07 545.69   Q 793.74 543.53 792.64 539.71   Q 792.33 538.64 792.36 537.62   Q 792.47 533.43 796.25 535.24   L 809.61 541.64   A 0.71 0.69 -51.8 0 0 810.36 541.54   Z"></path>
  <path fill="#231f20" d="   M 783.47 544.98   Q 799.84 554.78 810.44 569.82   C 813.35 573.96 816.70 582.02 821.38 587.60   C 827.57 594.97 836.77 594.52 845.22 591.84   Q 844.02 597.19 840.62 601.09   C 834.30 608.34 825.77 606.58 818.40 602.43   C 816.58 601.40 815.37 599.89 814.66 597.94   C 809.59 584.11 799.97 572.31 787.05 564.70   Q 785.03 563.50 783.81 561.46   Q 779.65 554.52 782.21 546.54   Q 782.38 546.01 783.47 544.98   Z"></path>
  <path fill="#feffff" d="   M 562.37 635.18   Q 559.96 635.56 557.34 635.98   Q 545.39 637.91 538.65 629.52   C 535.78 625.95 534.61 621.21 532.41 617.12   Q 527.18 607.36 518.49 600.40   Q 518.44 600.36 513.03 596.63   Q 508.04 593.21 504.55 588.24   Q 501.03 577.36 507.40 568.31   C 515.43 559.36 525.79 560.64 535.72 565.48   L 551.74 577.87   A 1.76 1.76 0.0 0 0 554.47 577.08   C 558.11 567.01 565.87 555.95 577.49 555.32   Q 585.71 554.88 591.74 559.70   C 601.75 567.70 597.25 580.86 591.51 590.75   Q 580.37 609.97 569.74 629.48   C 568.52 631.72 564.56 633.76 562.37 635.18   Z   M 532.50 587.66   Q 524.22 582.85 515.81 577.86   Q 514.32 576.97 512.71 577.49   A 2.26 2.25 -10.3 0 0 511.14 579.74   C 511.33 584.03 514.02 587.49 517.48 589.77   C 529.28 597.53 538.18 608.21 543.32 621.32   C 547.16 631.13 559.78 631.01 564.28 622.44   Q 575.56 600.97 588.24 579.03   C 592.44 571.77 586.97 564.95 579.94 563.16   Q 572.75 561.32 569.00 567.93   Q 562.44 579.49 555.51 591.38   C 554.50 593.11 552.80 593.19 551.46 591.55   Q 542.76 580.88 531.72 573.00   Q 526.27 569.11 520.22 569.60   Q 519.28 569.67 518.71 570.37   A 1.41 1.40 39.6 0 0 518.90 572.33   C 524.21 576.75 529.63 581.00 533.34 586.79   Q 534.74 588.96 532.50 587.66   Z"></path>
  <path fill="#ed1c24" d="   M 532.50 587.66   Q 534.74 588.96 533.34 586.79   C 529.63 581.00 524.21 576.75 518.90 572.33   A 1.41 1.40 39.6 0 1 518.71 570.37   Q 519.28 569.67 520.22 569.60   Q 526.27 569.11 531.72 573.00   Q 542.76 580.88 551.46 591.55   C 552.80 593.19 554.50 593.11 555.51 591.38   Q 562.44 579.49 569.00 567.93   Q 572.75 561.32 579.94 563.16   C 586.97 564.95 592.44 571.77 588.24 579.03   Q 575.56 600.97 564.28 622.44   C 559.78 631.01 547.16 631.13 543.32 621.32   C 538.18 608.21 529.28 597.53 517.48 589.77   C 514.02 587.49 511.33 584.03 511.14 579.74   A 2.26 2.25 -10.3 0 1 512.71 577.49   Q 514.32 576.97 515.81 577.86   Q 524.22 582.85 532.50 587.66   Z"></path>
  <path fill="#231f20" d="   M 504.55 588.24   Q 508.04 593.21 513.03 596.63   Q 518.44 600.36 518.49 600.40   Q 527.18 607.36 532.41 617.12   C 534.61 621.21 535.78 625.95 538.65 629.52   Q 545.39 637.91 557.34 635.98   Q 559.96 635.56 562.37 635.18   Q 563.96 637.36 563.40 638.52   Q 559.16 647.22 550.31 648.53   C 533.34 651.04 532.28 635.57 525.27 625.28   Q 519.13 616.28 508.71 609.69   C 503.06 606.11 498.64 599.80 499.68 593.00   Q 500.27 589.17 504.55 588.24   Z"></path>
  <path fill="#231f20" d="   M 634.16 588.62   Q 636.96 593.24 638.90 595.60   Q 649.28 608.23 664.99 602.27   Q 668.05 601.11 674.51 597.20   Q 670.31 608.12 659.61 614.12   C 655.20 616.59 649.66 616.44 644.25 614.76   C 636.57 612.37 630.90 607.80 631.01 599.01   Q 631.08 593.36 634.16 588.62   Z"></path>
  <path fill="#75bd1d" d="   M 877.75 681.26   C 881.20 674.64 875.12 668.88 876.74 662.24   C 878.50 655.03 881.60 649.41 887.75 644.89   C 893.41 640.73 898.71 643.04 898.84 650.19   Q 899.26 674.44 887.46 694.88   C 884.79 699.51 879.36 710.33 872.48 707.34   C 868.97 705.82 868.53 702.18 869.80 698.91   Q 873.47 689.46 877.75 681.26   Z"></path>
  <path fill="#03558b" d="   M 814.91 861.99   Q 800.81 871.03 786.18 865.11   C 783.94 864.20 781.87 862.98 779.71 861.95   A 2.13 2.12 -46.9 0 0 777.74 862.02   C 767.71 867.65 757.51 869.45 746.80 864.70   Q 744.07 863.48 741.41 862.15   A 2.89 2.88 42.8 0 0 738.67 862.25   Q 731.23 866.67 723.21 867.45   C 715.10 868.24 706.43 865.48 703.07 857.67   Q 701.76 854.62 701.08 848.93   Q 698.14 824.44 691.75 801.23   Q 690.31 796.00 695.06 795.19   C 700.44 794.27 707.69 793.63 708.66 801.11   Q 711.74 824.82 714.68 848.22   C 715.08 851.40 716.29 854.74 719.83 855.34   C 723.39 855.95 729.99 855.35 730.97 851.00   Q 731.46 848.80 730.82 845.98   Q 728.83 837.30 727.48 829.68   Q 726.78 825.74 729.07 822.76   C 732.42 818.39 741.12 815.26 742.44 823.48   Q 744.31 835.05 746.38 847.16   C 748.06 856.97 754.92 856.02 762.53 855.62   C 767.98 855.33 770.61 852.56 769.42 846.98   Q 767.96 840.18 766.51 833.80   C 765.67 830.14 766.46 826.39 767.98 823.09   C 770.67 817.26 779.46 815.85 780.78 823.80   Q 782.77 835.90 784.77 847.14   C 785.62 851.91 789.01 855.56 793.99 855.93   C 800.77 856.44 808.45 854.69 806.72 845.90   Q 805.41 839.26 803.51 831.13   C 801.70 823.43 806.43 820.31 812.59 818.33   C 816.54 817.06 817.98 820.39 818.42 823.46   Q 820.11 835.31 822.51 847.17   C 823.61 852.58 827.17 855.53 832.67 855.74   C 839.34 855.99 847.72 855.80 846.05 846.12   Q 842.37 824.90 837.83 800.30   C 836.49 793.05 843.75 791.78 848.82 790.94   C 853.34 790.19 853.82 793.97 853.99 797.24   Q 855.35 823.43 860.27 847.69   C 862.46 858.48 856.07 864.99 846.25 866.41   Q 830.35 868.72 817.01 861.89   A 2.11 2.08 -47.3 0 0 814.91 861.99   Z"></path>
  <path fill="#03558b" d="   M 644.99 809.54   A 0.72 0.72 0.0 0 0 644.01 809.56   Q 643.04 810.53 642.12 811.58   C 639.58 814.46 634.81 814.86 631.93 812.29   C 627.96 808.74 625.95 800.44 632.16 797.84   C 636.14 796.18 639.13 798.87 641.40 801.85   A 0.81 0.81 0.0 0 0 642.62 801.92   C 644.01 800.53 645.21 798.82 647.10 798.08   C 655.84 794.65 662.20 808.31 656.01 812.81   Q 652.36 815.47 648.45 813.00   C 647.02 812.10 646.22 810.65 644.99 809.54   Z"></path>
  <ellipse fill="#03558b" cx="0.00" cy="0.00" transform="translate(319.82,805.68) rotate(56.8)" rx="8.67" ry="7.02"></ellipse>
  <path fill="#03558b" d="   M 364.92 801.65   Q 365.77 801.57 366.24 800.84   Q 369.62 795.48 375.45 798.43   Q 379.33 800.39 380.37 805.82   C 381.74 812.93 374.39 816.31 369.14 812.09   Q 368.05 811.21 367.06 810.23   A 1.68 1.68 0.0 0 0 364.42 810.59   Q 362.06 814.68 357.61 813.83   C 353.22 812.99 350.82 809.22 350.25 804.98   C 349.69 800.80 352.52 797.30 356.80 797.46   C 359.58 797.56 361.81 799.25 363.65 801.18   A 1.57 1.56 -24.5 0 0 364.92 801.65   Z"></path>
  <ellipse fill="#03558b" cx="0.00" cy="0.00" transform="translate(769.01,805.63) rotate(56.3)" rx="8.51" ry="7.25"></ellipse>
  <path fill="#03558b" d="   M 434.11 863.04   Q 432.85 864.36 431.44 865.65   C 423.76 872.70 415.74 870.28 408.66 864.06   C 407.72 863.23 406.13 863.32 405.04 863.80   Q 386.26 872.08 368.55 862.00   A 2.57 2.55 44.1 0 0 365.98 862.03   Q 362.96 863.82 360.10 865.09   C 350.15 869.50 339.30 867.23 329.99 862.04   A 2.26 2.26 0.0 0 0 327.66 862.12   Q 315.98 869.72 302.67 866.93   A 2.58 2.58 0.0 0 0 299.58 869.18   C 298.90 875.36 296.82 879.15 290.65 881.14   Q 276.98 885.56 263.12 884.99   C 246.68 884.30 226.90 877.21 230.23 857.27   C 231.28 851.02 235.51 843.61 241.90 841.41   A 1.90 1.89 -21.7 0 1 244.24 842.41   Q 245.14 844.40 245.02 846.78   C 244.25 862.03 250.16 872.09 265.75 875.20   Q 274.06 876.86 279.72 872.68   C 284.77 868.96 284.54 862.87 280.49 858.44   Q 276.30 853.87 272.37 849.27   C 266.51 842.43 269.80 832.54 275.69 826.94   C 278.09 824.66 280.58 824.99 281.89 827.82   C 286.65 838.07 294.42 849.25 304.84 853.81   Q 310.70 856.37 315.72 855.21   C 319.16 854.41 320.79 851.03 320.14 847.67   Q 318.29 838.11 316.59 828.79   C 315.46 822.64 319.75 820.53 324.43 818.62   C 327.60 817.34 330.43 818.35 331.09 821.98   Q 333.34 834.37 335.66 846.95   C 337.11 854.83 343.18 856.43 350.51 855.70   Q 359.80 854.78 357.91 845.76   Q 356.39 838.52 354.67 830.71   Q 353.38 824.86 357.70 821.46   C 361.55 818.41 368.09 814.80 369.44 822.93   Q 371.56 835.65 373.77 848.67   C 375.08 856.40 386.11 856.33 391.94 855.49   Q 393.50 855.27 394.77 854.57   Q 395.26 854.30 395.36 853.76   Q 395.60 852.52 395.21 851.26   Q 393.51 845.74 391.65 840.42   C 388.09 830.23 391.28 825.11 401.05 821.41   C 404.71 820.03 406.50 822.78 406.64 825.90   Q 407.27 840.95 413.43 854.04   Q 415.17 857.73 419.16 857.85   C 421.70 857.92 423.86 855.98 423.41 853.36   Q 421.40 841.85 419.47 830.37   C 418.95 827.29 419.88 824.56 423.15 823.51   Q 426.76 822.35 430.22 821.92   A 3.03 3.02 -5.1 0 1 433.61 824.75   C 434.12 834.05 435.00 844.67 439.32 852.90   C 440.71 855.56 444.19 859.34 447.55 857.87   C 449.54 857.00 450.20 855.08 449.88 853.06   Q 448.02 841.50 446.41 830.90   C 445.60 825.59 449.83 822.93 454.34 822.00   Q 459.25 820.99 459.89 826.46   Q 461.19 837.55 465.00 846.96   Q 467.56 853.29 472.66 855.02   C 480.05 857.53 488.01 853.00 484.77 844.36   C 481.93 836.81 478.88 825.59 487.83 820.80   C 494.09 817.45 500.04 822.83 498.19 829.54   Q 496.20 836.77 498.93 845.22   C 501.29 852.55 498.52 859.39 491.94 863.24   C 482.51 868.76 473.01 868.72 463.13 865.08   C 460.84 864.24 457.98 865.88 455.84 866.60   Q 445.06 870.20 436.17 862.91   A 1.51 1.51 0.0 0 0 434.11 863.04   Z"></path>
  <path fill="#03558b" d="   M 562.82 867.65   A 1.30 1.30 0.0 0 0 561.59 866.73   C 547.57 866.60 537.38 861.71 532.67 848.06   C 524.87 825.41 552.31 812.83 567.10 830.00   Q 584.57 850.27 574.53 874.68   Q 568.82 888.59 553.88 887.12   Q 546.98 886.44 542.15 882.93   Q 539.47 880.98 538.60 877.80   Q 538.45 877.23 538.42 876.64   Q 538.26 873.21 541.23 874.91   C 547.48 878.47 554.81 880.29 560.04 874.07   C 561.20 872.68 563.38 869.48 562.82 867.65   Z   M 551.65 831.16   C 547.45 830.66 546.56 838.05 546.65 840.84   C 546.87 847.83 552.72 853.24 558.70 856.15   A 1.91 1.91 0.0 0 0 561.44 854.49   Q 561.77 843.24 554.56 833.02   Q 553.41 831.38 551.65 831.16   Z"></path>
  <path fill="#03558b" d="   M 659.76 859.75   C 665.85 858.40 670.18 855.52 669.00 848.45   Q 667.41 838.95 665.95 829.79   Q 665.17 824.86 670.39 822.82   Q 676.12 820.59 682.60 823.62   A 1.84 1.83 -64.5 0 1 683.47 826.09   C 678.76 835.80 684.88 846.14 683.30 856.35   C 681.80 866.08 668.85 867.81 660.87 869.42   Q 639.22 873.77 617.65 868.05   Q 609.54 865.90 605.67 862.25   C 596.12 853.25 602.30 838.89 610.99 831.81   Q 612.41 830.65 614.02 830.03   A 1.33 1.32 -6.7 0 1 615.81 831.44   Q 615.36 834.73 614.89 837.78   C 612.96 850.43 621.30 857.70 632.83 860.21   Q 645.34 862.94 659.76 859.75   Z"></path>
  <ellipse fill="#03558b" cx="0.00" cy="0.00" transform="translate(488.65,880.38) rotate(60.7)" rx="8.72" ry="7.15"></ellipse>
  <path fill="#03558b" d="   M 743.27 877.08   C 744.33 874.18 745.89 870.98 749.75 872.40   Q 758.03 875.46 757.67 883.28   C 757.43 888.45 751.30 890.65 747.46 887.52   C 746.05 886.38 743.70 884.10 741.83 885.47   Q 739.61 887.10 737.96 889.27   A 1.66 1.65 32.2 0 1 735.88 889.74   C 731.51 887.50 727.87 884.25 727.30 879.07   C 726.94 875.86 729.11 872.98 732.27 872.44   C 735.84 871.83 739.72 875.00 742.12 877.34   A 0.70 0.70 0.0 0 0 743.27 877.08   Z"></path>
  <ellipse fill="#03558b" cx="0.00" cy="0.00" transform="translate(818.65,880.37) rotate(57.9)" rx="8.87" ry="7.10"></ellipse>
</svg>
