<?xml version="1.0" encoding="UTF-8" standalone="no"?>
<svg xmlns="http://www.w3.org/2000/svg" version="1.1" viewBox="0.00 0.00 450.00 150.00">
  <g stroke-width="2.00" fill="none" stroke-linecap="butt">
    <path stroke="#cf7841" vector-effect="non-scaling-stroke" d="   M 126.74 46.44   Q 126.30 50.53 127.90 54.53   Q 129.97 59.72 133.75 63.49"></path>
    <path stroke="#f68e92" vector-effect="non-scaling-stroke" d="   M 133.75 63.49   L 135.79 63.44"></path>
    <path stroke="#cf7841" vector-effect="non-scaling-stroke" d="   M 135.79 63.44   Q 141.21 57.81 142.51 51.85   Q 143.35 47.99 142.49 43.07"></path>
    <path stroke="#af693d" vector-effect="non-scaling-stroke" d="   M 142.49 43.07   Q 141.73 32.99 135.10 26.52   A 0.52 0.52 0.0 0 0 134.37 26.53   Q 126.46 34.81 126.74 46.44"></path>
    <path stroke="#90c55a" vector-effect="non-scaling-stroke" d="   M 142.49 43.07   Q 139.84 39.51 138.14 35.56   Q 137.51 34.11 136.84 33.33   Q 135.97 32.31 134.94 31.52   A 0.67 0.67 0.0 0 0 134.04 31.60   C 131.27 34.68 130.46 37.17 129.19 41.64   Q 128.43 44.30 126.74 46.44"></path>
    <path stroke="#d8eaae" vector-effect="non-scaling-stroke" d="   M 135.79 63.44   Q 134.82 60.00 137.21 57.11   Q 137.27 57.03 137.19 56.97   L 136.98 56.80   Q 136.83 56.67 136.68 56.81   L 135.35 58.16   Q 134.94 58.58 134.48 58.22   L 133.53 57.47   Q 133.10 57.13 133.15 57.68   L 133.75 63.49"></path>
    <path stroke="#cf7841" vector-effect="non-scaling-stroke" d="   M 138.64 68.25   L 138.38 73.22   A 0.56 0.55 -83.4 0 0 138.83 73.79   Q 140.80 74.15 141.50 73.32"></path>
    <path stroke="#f68e92" vector-effect="non-scaling-stroke" d="   M 141.50 73.32   L 144.42 73.03"></path>
    <path stroke="#cf7841" vector-effect="non-scaling-stroke" d="   M 144.42 73.03   Q 150.99 71.71 156.16 67.33"></path>
    <path stroke="#f68e92" vector-effect="non-scaling-stroke" d="   M 156.16 67.33   Q 318.54 67.39 364.25 67.30   C 371.16 67.29 370.48 71.40 370.51 77.06   Q 370.62 98.57 370.53 123.98   Q 370.52 127.10 369.75 128.37   Q 368.42 130.54 365.85 130.54   Q 225.67 130.53 85.32 130.54   C 82.70 130.54 80.50 128.54 80.50 125.85   Q 80.52 99.29 80.45 72.59   C 80.43 68.34 83.62 67.29 87.37 67.32   Q 99.95 67.44 113.02 67.27"></path>
    <path stroke="#cf7841" vector-effect="non-scaling-stroke" d="   M 113.02 67.27   Q 118.14 71.68 124.83 73.01"></path>
    <path stroke="#f68e92" vector-effect="non-scaling-stroke" d="   M 124.83 73.01   Q 126.28 72.92 128.11 73.57"></path>
    <path stroke="#cf7841" vector-effect="non-scaling-stroke" d="   M 128.11 73.57   Q 129.52 74.26 130.61 73.75   Q 131.09 73.52 131.04 72.98   L 130.77 70.22"></path>
    <path stroke="#af693d" vector-effect="non-scaling-stroke" d="   M 130.77 70.22   C 130.49 59.31 121.42 50.82 111.58 47.81   C 109.45 47.16 107.06 47.09 104.77 46.91   A 1.26 1.26 0.0 0 0 103.46 48.53   L 104.65 52.56"></path>
    <path stroke="#cf7841" vector-effect="non-scaling-stroke" d="   M 104.65 52.56   Q 104.45 54.30 105.04 54.76   Q 105.33 54.98 105.35 55.34   C 105.53 58.01 109.53 63.35 111.26 65.41"></path>
    <path stroke="#f68e92" vector-effect="non-scaling-stroke" d="   M 111.26 65.41   Q 98.32 65.43 85.49 65.55   C 81.03 65.59 78.31 68.39 78.31 72.66   Q 78.31 98.82 78.32 125.44   C 78.33 129.66 81.50 132.72 85.65 132.72   Q 225.79 132.70 365.64 132.70   C 369.45 132.70 372.68 129.47 372.68 125.69   Q 372.65 99.65 372.71 72.92   C 372.72 69.01 370.24 65.47 366.00 65.47   Q 262.58 65.45 159.17 65.44"></path>
    <path stroke="#af693d" vector-effect="non-scaling-stroke" d="   M 159.17 65.44   Q 158.68 65.21 158.41 64.79"></path>
    <path stroke="#cf7841" vector-effect="non-scaling-stroke" d="   M 158.41 64.79   Q 163.14 59.47 164.59 53.05"></path>
    <path stroke="#af693d" vector-effect="non-scaling-stroke" d="   M 164.59 53.05   L 165.50 47.68   A 0.70 0.70 0.0 0 0 164.79 46.86   Q 153.91 47.14 146.34 54.35   Q 139.80 60.57 138.64 68.25"></path>
    <path stroke="#90c55a" vector-effect="non-scaling-stroke" d="   M 164.59 53.05   Q 163.01 50.82 160.61 51.82   C 158.56 52.67 156.54 53.02 154.67 54.16   Q 152.17 55.67 149.62 57.22   Q 143.16 61.14 140.32 68.02   Q 140.15 68.45 139.69 68.39   L 138.64 68.25"></path>
    <path stroke="#90c55a" vector-effect="non-scaling-stroke" d="   M 158.41 64.79   Q 157.85 64.73 158.08 65.51"></path>
    <path stroke="#d8eaae" vector-effect="non-scaling-stroke" d="   M 158.08 65.51   Q 156.23 66.38 156.16 67.33"></path>
    <path stroke="#d8eaae" vector-effect="non-scaling-stroke" d="   M 144.42 73.03   Q 145.72 72.07 149.05 70.33   Q 152.09 68.75 154.42 65.64   Q 156.64 62.66 158.76 59.47   Q 158.89 59.28 158.70 59.14   L 158.50 58.99   A 0.06 0.06 0.0 0 0 158.41 59.00   C 154.55 64.33 150.31 68.29 143.81 69.55   Q 142.55 69.79 141.66 70.57   Q 139.92 72.09 141.50 73.32"></path>
    <path stroke="#b8daab" vector-effect="non-scaling-stroke" d="   M 159.17 65.44   Q 158.68 65.32 158.08 65.51"></path>
    <path stroke="#d8eaae" vector-effect="non-scaling-stroke" d="   M 128.11 73.57   C 129.36 70.84 127.38 70.01 125.08 69.50   Q 119.43 68.25 115.63 64.47   Q 113.87 62.72 114.50 65.13   Q 114.76 66.11 116.53 67.46   Q 120.33 70.36 124.83 73.01"></path>
    <path stroke="#d8eaae" vector-effect="non-scaling-stroke" d="   M 113.02 67.27   Q 112.31 65.94 111.26 65.41"></path>
    <path stroke="#90c55a" vector-effect="non-scaling-stroke" d="   M 130.77 70.22   Q 128.25 67.45 126.83 63.93   Q 126.18 62.28 121.60 57.99   C 121.16 57.58 120.27 57.56 119.72 57.11   Q 112.69 51.30 104.65 52.56"></path>
    <path stroke="#f68e92" vector-effect="non-scaling-stroke" d="   M 138.82 75.47   A 0.35 0.35 0.0 0 0 138.47 75.12   L 130.53 75.12   A 0.35 0.35 0.0 0 0 130.18 75.47   L 130.18 106.15   A 0.35 0.35 0.0 0 0 130.53 106.50   L 138.47 106.50   A 0.35 0.35 0.0 0 0 138.82 106.15   L 138.82 75.47"></path>
    <path stroke="#f68e92" vector-effect="non-scaling-stroke" d="   M 323.01 98.28   Q 323.94 97.13 323.65 95.59   A 1.61 1.61 0.0 0 1 323.91 94.36   L 324.53 93.47   A 0.63 0.62 -55.4 0 0 324.38 92.60   Q 324.07 92.38 323.86 92.07   Q 323.53 91.56 323.64 90.95   Q 323.97 89.12 322.48 86.99   Q 318.79 81.77 312.76 81.79   C 311.32 81.79 310.38 82.46 309.01 82.71   C 305.93 83.26 302.96 87.69 302.53 89.93   Q 302.45 90.37 302.10 90.63   A 0.83 0.83 0.0 0 0 301.77 91.27   L 301.70 95.97   A 0.23 0.22 -0.0 0 1 301.47 96.19   Q 231.14 96.20 160.98 96.19   C 157.87 96.19 156.16 96.50 154.44 94.43   Q 152.93 92.61 151.46 90.89   Q 151.09 90.45 150.65 90.83   L 144.19 96.50   Q 143.75 96.88 144.07 97.37   C 145.48 99.55 147.40 100.62 147.48 103.51   Q 147.52 105.24 146.15 106.54   Q 138.78 113.51 137.96 114.26   A 0.76 0.76 0.0 0 0 137.88 115.29   L 142.92 121.57   A 0.74 0.74 0.0 0 0 144.02 121.63   Q 147.73 117.94 151.32 114.97   Q 154.47 112.36 156.95 107.03   Q 157.18 106.52 157.74 106.52   L 302.77 106.52   Q 303.38 106.52 303.62 107.09   Q 305.60 111.89 310.01 114.46   Q 312.91 116.15 316.07 117.22   Q 319.10 118.23 322.90 117.88   A 1.06 1.04 12.2 0 0 323.71 117.37   L 327.33 111.30   Q 327.59 110.86 327.24 110.51   Q 325.60 108.85 326.99 107.14   Q 327.49 106.53 328.27 106.50   L 332.19 106.37   A 0.86 0.85 -14.9 0 1 332.98 106.82   Q 335.55 111.63 339.51 112.78   Q 344.04 114.08 348.21 113.07   C 356.45 111.07 360.46 101.50 356.28 94.21   Q 352.13 86.96 343.62 87.34   C 339.00 87.54 335.78 90.29 333.27 93.86   Q 331.87 95.85 329.64 96.10   Q 327.47 96.35 325.24 97.23   A 2.23 2.19 8.7 0 0 324.32 97.89   Q 323.88 98.42 323.24 98.62   Q 322.58 98.82 323.01 98.28"></path>
    <path stroke="#f68e92" vector-effect="non-scaling-stroke" d="   M 102.26 103.96   C 103.38 106.61 107.63 109.49 110.15 109.41   Q 110.82 109.39 111.36 109.79   Q 111.98 110.25 112.72 110.31   A 1.66 1.65 -59.6 0 0 113.75 110.04   Q 114.94 109.25 116.43 109.34   Q 116.97 109.38 117.45 109.13   Q 126.92 104.36 125.33 93.70   Q 125.19 92.76 124.72 91.89   C 121.83 86.61 117.69 83.03 111.24 83.85   Q 103.49 84.83 100.79 92.88   Q 100.64 93.35 100.16 93.49   Q 91.76 95.87 91.65 103.78   Q 91.51 113.19 91.61 123.03   Q 91.61 123.65 92.23 123.65   L 100.15 123.68   Q 100.73 123.68 100.72 123.10   L 100.71 104.32   Q 100.71 103.91 101.07 103.72   Q 101.40 103.56 101.77 103.60   A 0.60 0.58 80.6 0 1 102.26 103.96"></path>
    <path stroke="#f68e92" vector-effect="non-scaling-stroke" d="   M 310.13 96.37   Q 315.31 96.99 315.83 93.24   A 2.27 2.26 -77.4 0 0 314.27 90.77   C 310.75 89.66 309.74 93.35 309.70 95.88   Q 309.69 96.32 310.13 96.37"></path>
    <path stroke="#f68e92" vector-effect="non-scaling-stroke" d="   M 344.4996 103.8093   A 3.36 3.06 91.2 0 0 347.6293 100.5141   A 3.36 3.06 91.2 0 0 344.6404 97.0907   A 3.36 3.06 91.2 0 0 341.5107 100.3859   A 3.36 3.06 91.2 0 0 344.4996 103.8093"></path>
    <path stroke="#f68e92" vector-effect="non-scaling-stroke" d="   M 316.08 104.65   Q 315.22 104.51 314.49 104.92   A 0.84 0.84 0.0 0 0 314.42 106.34   Q 316.20 107.59 318.48 107.56   Q 319.04 107.55 319.07 106.98   Q 319.17 105.00 320.24 102.65   Q 320.54 101.98 319.94 102.40   L 317.12 104.41   Q 316.65 104.74 316.08 104.65"></path>
    <path stroke="#f68e92" vector-effect="non-scaling-stroke" d="   M 115.5281 98.4932   A 2.88 2.88 0.0 0 0 114.9050 94.4682   L 114.2594 93.9957   A 2.88 2.88 0.0 0 0 110.2344 94.6188   L 109.8919 95.0868   A 2.88 2.88 0.0 0 0 110.5150 99.1118   L 111.1606 99.5843   A 2.88 2.88 0.0 0 0 115.1856 98.9612   L 115.5281 98.4932"></path>
  </g>
  <path fill="#ed1c24" d="   M 152.12 39.83   Q 153.97 39.87 155.42 39.43   Q 157.17 38.89 158.24 38.85   C 161.46 38.72 165.06 38.49 168.21 39.36   Q 170.09 39.88 171.97 39.89   A 1.97 1.97 0.0 0 1 173.93 41.66   Q 174.87 51.29 171.73 60.24   A 0.38 0.38 0.0 0 0 172.09 60.74   Q 270.21 60.76 368.27 60.76   C 372.67 60.76 376.97 64.73 376.97 69.24   Q 376.96 97.74 376.98 128.35   C 376.98 132.47 373.56 136.97 369.20 136.97   Q 225.10 136.98 82.47 136.98   C 77.52 136.98 73.98 132.93 73.99 128.05   Q 74.06 99.33 74.00 70.24   C 73.99 64.66 78.00 60.54 83.62 60.67   Q 90.32 60.82 96.60 60.73   A 0.36 0.36 0.0 0 0 96.93 60.24   Q 93.09 50.62 94.98 41.38   A 1.83 1.83 0.0 0 1 96.70 39.91   Q 101.15 39.72 105.75 38.87   C 108.02 38.46 113.04 40.02 116.56 39.82   Q 117.18 39.78 117.25 39.16   Q 119.22 22.05 133.54 13.23   A 1.56 1.53 44.9 0 1 135.17 13.24   Q 145.88 19.91 149.93 31.80   Q 150.18 32.52 150.29 33.27   Q 150.40 33.98 150.81 34.54   A 0.49 0.43 -72.1 0 1 150.90 34.75   L 151.64 39.42   A 0.50 0.48 -3.4 0 0 152.12 39.83   Z   M 126.74 46.44   Q 126.30 50.53 127.90 54.53   Q 129.97 59.72 133.75 63.49   L 135.79 63.44   Q 141.21 57.81 142.51 51.85   Q 143.35 47.99 142.49 43.07   Q 141.73 32.99 135.10 26.52   A 0.52 0.52 0.0 0 0 134.37 26.53   Q 126.46 34.81 126.74 46.44   Z   M 138.64 68.25   L 138.38 73.22   A 0.56 0.55 -83.4 0 0 138.83 73.79   Q 140.80 74.15 141.50 73.32   L 144.42 73.03   Q 150.99 71.71 156.16 67.33   Q 318.54 67.39 364.25 67.30   C 371.16 67.29 370.48 71.40 370.51 77.06   Q 370.62 98.57 370.53 123.98   Q 370.52 127.10 369.75 128.37   Q 368.42 130.54 365.85 130.54   Q 225.67 130.53 85.32 130.54   C 82.70 130.54 80.50 128.54 80.50 125.85   Q 80.52 99.29 80.45 72.59   C 80.43 68.34 83.62 67.29 87.37 67.32   Q 99.95 67.44 113.02 67.27   Q 118.14 71.68 124.83 73.01   Q 126.28 72.92 128.11 73.57   Q 129.52 74.26 130.61 73.75   Q 131.09 73.52 131.04 72.98   L 130.77 70.22   C 130.49 59.31 121.42 50.82 111.58 47.81   C 109.45 47.16 107.06 47.09 104.77 46.91   A 1.26 1.26 0.0 0 0 103.46 48.53   L 104.65 52.56   Q 104.45 54.30 105.04 54.76   Q 105.33 54.98 105.35 55.34   C 105.53 58.01 109.53 63.35 111.26 65.41   Q 98.32 65.43 85.49 65.55   C 81.03 65.59 78.31 68.39 78.31 72.66   Q 78.31 98.82 78.32 125.44   C 78.33 129.66 81.50 132.72 85.65 132.72   Q 225.79 132.70 365.64 132.70   C 369.45 132.70 372.68 129.47 372.68 125.69   Q 372.65 99.65 372.71 72.92   C 372.72 69.01 370.24 65.47 366.00 65.47   Q 262.58 65.45 159.17 65.44   Q 158.68 65.21 158.41 64.79   Q 163.14 59.47 164.59 53.05   L 165.50 47.68   A 0.70 0.70 0.0 0 0 164.79 46.86   Q 153.91 47.14 146.34 54.35   Q 139.80 60.57 138.64 68.25   Z   M 138.82 75.47   A 0.35 0.35 0.0 0 0 138.47 75.12   L 130.53 75.12   A 0.35 0.35 0.0 0 0 130.18 75.47   L 130.18 106.15   A 0.35 0.35 0.0 0 0 130.53 106.50   L 138.47 106.50   A 0.35 0.35 0.0 0 0 138.82 106.15   L 138.82 75.47   Z   M 323.01 98.28   Q 323.94 97.13 323.65 95.59   A 1.61 1.61 0.0 0 1 323.91 94.36   L 324.53 93.47   A 0.63 0.62 -55.4 0 0 324.38 92.60   Q 324.07 92.38 323.86 92.07   Q 323.53 91.56 323.64 90.95   Q 323.97 89.12 322.48 86.99   Q 318.79 81.77 312.76 81.79   C 311.32 81.79 310.38 82.46 309.01 82.71   C 305.93 83.26 302.96 87.69 302.53 89.93   Q 302.45 90.37 302.10 90.63   A 0.83 0.83 0.0 0 0 301.77 91.27   L 301.70 95.97   A 0.23 0.22 -0.0 0 1 301.47 96.19   Q 231.14 96.20 160.98 96.19   C 157.87 96.19 156.16 96.50 154.44 94.43   Q 152.93 92.61 151.46 90.89   Q 151.09 90.45 150.65 90.83   L 144.19 96.50   Q 143.75 96.88 144.07 97.37   C 145.48 99.55 147.40 100.62 147.48 103.51   Q 147.52 105.24 146.15 106.54   Q 138.78 113.51 137.96 114.26   A 0.76 0.76 0.0 0 0 137.88 115.29   L 142.92 121.57   A 0.74 0.74 0.0 0 0 144.02 121.63   Q 147.73 117.94 151.32 114.97   Q 154.47 112.36 156.95 107.03   Q 157.18 106.52 157.74 106.52   L 302.77 106.52   Q 303.38 106.52 303.62 107.09   Q 305.60 111.89 310.01 114.46   Q 312.91 116.15 316.07 117.22   Q 319.10 118.23 322.90 117.88   A 1.06 1.04 12.2 0 0 323.71 117.37   L 327.33 111.30   Q 327.59 110.86 327.24 110.51   Q 325.60 108.85 326.99 107.14   Q 327.49 106.53 328.27 106.50   L 332.19 106.37   A 0.86 0.85 -14.9 0 1 332.98 106.82   Q 335.55 111.63 339.51 112.78   Q 344.04 114.08 348.21 113.07   C 356.45 111.07 360.46 101.50 356.28 94.21   Q 352.13 86.96 343.62 87.34   C 339.00 87.54 335.78 90.29 333.27 93.86   Q 331.87 95.85 329.64 96.10   Q 327.47 96.35 325.24 97.23   A 2.23 2.19 8.7 0 0 324.32 97.89   Q 323.88 98.42 323.24 98.62   Q 322.58 98.82 323.01 98.28   Z   M 102.26 103.96   C 103.38 106.61 107.63 109.49 110.15 109.41   Q 110.82 109.39 111.36 109.79   Q 111.98 110.25 112.72 110.31   A 1.66 1.65 -59.6 0 0 113.75 110.04   Q 114.94 109.25 116.43 109.34   Q 116.97 109.38 117.45 109.13   Q 126.92 104.36 125.33 93.70   Q 125.19 92.76 124.72 91.89   C 121.83 86.61 117.69 83.03 111.24 83.85   Q 103.49 84.83 100.79 92.88   Q 100.64 93.35 100.16 93.49   Q 91.76 95.87 91.65 103.78   Q 91.51 113.19 91.61 123.03   Q 91.61 123.65 92.23 123.65   L 100.15 123.68   Q 100.73 123.68 100.72 123.10   L 100.71 104.32   Q 100.71 103.91 101.07 103.72   Q 101.40 103.56 101.77 103.60   A 0.60 0.58 80.6 0 1 102.26 103.96   Z"></path>
  <path fill="#70b556" d="   M 142.49 43.07   Q 139.84 39.51 138.14 35.56   Q 137.51 34.11 136.84 33.33   Q 135.97 32.31 134.94 31.52   A 0.67 0.67 0.0 0 0 134.04 31.60   C 131.27 34.68 130.46 37.17 129.19 41.64   Q 128.43 44.30 126.74 46.44   Q 126.46 34.81 134.37 26.53   A 0.52 0.52 0.0 0 1 135.10 26.52   Q 141.73 32.99 142.49 43.07   Z"></path>
  <path fill="#b0d45d" d="   M 142.49 43.07   Q 143.35 47.99 142.51 51.85   Q 141.21 57.81 135.79 63.44   Q 134.82 60.00 137.21 57.11   Q 137.27 57.03 137.19 56.97   L 136.98 56.80   Q 136.83 56.67 136.68 56.81   L 135.35 58.16   Q 134.94 58.58 134.48 58.22   L 133.53 57.47   Q 133.10 57.13 133.15 57.68   L 133.75 63.49   Q 129.97 59.72 127.90 54.53   Q 126.30 50.53 126.74 46.44   Q 128.43 44.30 129.19 41.64   C 130.46 37.17 131.27 34.68 134.04 31.60   A 0.67 0.67 0.0 0 1 134.94 31.52   Q 135.97 32.31 136.84 33.33   Q 137.51 34.11 138.14 35.56   Q 139.84 39.51 142.49 43.07   Z"></path>
  <path fill="#70b556" d="   M 164.59 53.05   Q 163.01 50.82 160.61 51.82   C 158.56 52.67 156.54 53.02 154.67 54.16   Q 152.17 55.67 149.62 57.22   Q 143.16 61.14 140.32 68.02   Q 140.15 68.45 139.69 68.39   L 138.64 68.25   Q 139.80 60.57 146.34 54.35   Q 153.91 47.14 164.79 46.86   A 0.70 0.70 0.0 0 1 165.50 47.68   L 164.59 53.05   Z"></path>
  <path fill="#70b556" d="   M 130.77 70.22   Q 128.25 67.45 126.83 63.93   Q 126.18 62.28 121.60 57.99   C 121.16 57.58 120.27 57.56 119.72 57.11   Q 112.69 51.30 104.65 52.56   L 103.46 48.53   A 1.26 1.26 0.0 0 1 104.77 46.91   C 107.06 47.09 109.45 47.16 111.58 47.81   C 121.42 50.82 130.49 59.31 130.77 70.22   Z"></path>
  <path fill="#b0d45d" d="   M 164.59 53.05   Q 163.14 59.47 158.41 64.79   Q 157.85 64.73 158.08 65.51   Q 156.23 66.38 156.16 67.33   Q 150.99 71.71 144.42 73.03   Q 145.72 72.07 149.05 70.33   Q 152.09 68.75 154.42 65.64   Q 156.64 62.66 158.76 59.47   Q 158.89 59.28 158.70 59.14   L 158.50 58.99   A 0.06 0.06 0.0 0 0 158.41 59.00   C 154.55 64.33 150.31 68.29 143.81 69.55   Q 142.55 69.79 141.66 70.57   Q 139.92 72.09 141.50 73.32   Q 140.80 74.15 138.83 73.79   A 0.56 0.55 -83.4 0 1 138.38 73.22   L 138.64 68.25   L 139.69 68.39   Q 140.15 68.45 140.32 68.02   Q 143.16 61.14 149.62 57.22   Q 152.17 55.67 154.67 54.16   C 156.54 53.02 158.56 52.67 160.61 51.82   Q 163.01 50.82 164.59 53.05   Z"></path>
  <path fill="#b0d45d" d="   M 130.77 70.22   L 131.04 72.98   Q 131.09 73.52 130.61 73.75   Q 129.52 74.26 128.11 73.57   C 129.36 70.84 127.38 70.01 125.08 69.50   Q 119.43 68.25 115.63 64.47   Q 113.87 62.72 114.50 65.13   Q 114.76 66.11 116.53 67.46   Q 120.33 70.36 124.83 73.01   Q 118.14 71.68 113.02 67.27   Q 112.31 65.94 111.26 65.41   C 109.53 63.35 105.53 58.01 105.35 55.34   Q 105.33 54.98 105.04 54.76   Q 104.45 54.30 104.65 52.56   Q 112.69 51.30 119.72 57.11   C 120.27 57.56 121.16 57.58 121.60 57.99   Q 126.18 62.28 126.83 63.93   Q 128.25 67.45 130.77 70.22   Z"></path>
  <path fill="#ffffff" d="   M 135.79 63.44   L 133.75 63.49   L 133.15 57.68   Q 133.10 57.13 133.53 57.47   L 134.48 58.22   Q 134.94 58.58 135.35 58.16   L 136.68 56.81   Q 136.83 56.67 136.98 56.80   L 137.19 56.97   Q 137.27 57.03 137.21 57.11   Q 134.82 60.00 135.79 63.44   Z"></path>
  <path fill="#ffffff" d="   M 144.42 73.03   L 141.50 73.32   Q 139.92 72.09 141.66 70.57   Q 142.55 69.79 143.81 69.55   C 150.31 68.29 154.55 64.33 158.41 59.00   A 0.06 0.06 0.0 0 1 158.50 58.99   L 158.70 59.14   Q 158.89 59.28 158.76 59.47   Q 156.64 62.66 154.42 65.64   Q 152.09 68.75 149.05 70.33   Q 145.72 72.07 144.42 73.03   Z"></path>
  <path fill="#ffffff" d="   M 128.11 73.57   Q 126.28 72.92 124.83 73.01   Q 120.33 70.36 116.53 67.46   Q 114.76 66.11 114.50 65.13   Q 113.87 62.72 115.63 64.47   Q 119.43 68.25 125.08 69.50   C 127.38 70.01 129.36 70.84 128.11 73.57   Z"></path>
  <path fill="#70b556" d="   M 158.41 64.79   Q 158.68 65.21 159.17 65.44   Q 158.68 65.32 158.08 65.51   Q 157.85 64.73 158.41 64.79   Z"></path>
  <path fill="#ffffff" d="   M 111.26 65.41   Q 112.31 65.94 113.02 67.27   Q 99.95 67.44 87.37 67.32   C 83.62 67.29 80.43 68.34 80.45 72.59   Q 80.52 99.29 80.50 125.85   C 80.50 128.54 82.70 130.54 85.32 130.54   Q 225.67 130.53 365.85 130.54   Q 368.42 130.54 369.75 128.37   Q 370.52 127.10 370.53 123.98   Q 370.62 98.57 370.51 77.06   C 370.48 71.40 371.16 67.29 364.25 67.30   Q 318.54 67.39 156.16 67.33   Q 156.23 66.38 158.08 65.51   Q 158.68 65.32 159.17 65.44   Q 262.58 65.45 366.00 65.47   C 370.24 65.47 372.72 69.01 372.71 72.92   Q 372.65 99.65 372.68 125.69   C 372.68 129.47 369.45 132.70 365.64 132.70   Q 225.79 132.70 85.65 132.72   C 81.50 132.72 78.33 129.66 78.32 125.44   Q 78.31 98.82 78.31 72.66   C 78.31 68.39 81.03 65.59 85.49 65.55   Q 98.32 65.43 111.26 65.41   Z"></path>
  <rect fill="#ffffff" x="130.18" y="75.12" width="8.64" height="31.38" rx="0.35"></rect>
  <path fill="#ffffff" d="   M 323.24 98.62   Q 323.88 98.42 324.32 97.89   A 2.23 2.19 8.7 0 1 325.24 97.23   Q 327.47 96.35 329.64 96.10   Q 331.87 95.85 333.27 93.86   C 335.78 90.29 339.00 87.54 343.62 87.34   Q 352.13 86.96 356.28 94.21   C 360.46 101.50 356.45 111.07 348.21 113.07   Q 344.04 114.08 339.51 112.78   Q 335.55 111.63 332.98 106.82   A 0.86 0.85 -14.9 0 0 332.19 106.37   L 328.27 106.50   Q 327.49 106.53 326.99 107.14   Q 325.60 108.85 327.24 110.51   Q 327.59 110.86 327.33 111.30   L 323.71 117.37   A 1.06 1.04 12.2 0 1 322.90 117.88   Q 319.10 118.23 316.07 117.22   Q 312.91 116.15 310.01 114.46   Q 305.60 111.89 303.62 107.09   Q 303.38 106.52 302.77 106.52   L 157.74 106.52   Q 157.18 106.52 156.95 107.03   Q 154.47 112.36 151.32 114.97   Q 147.73 117.94 144.02 121.63   A 0.74 0.74 0.0 0 1 142.92 121.57   L 137.88 115.29   A 0.76 0.76 0.0 0 1 137.96 114.26   Q 138.78 113.51 146.15 106.54   Q 147.52 105.24 147.48 103.51   C 147.40 100.62 145.48 99.55 144.07 97.37   Q 143.75 96.88 144.19 96.50   L 150.65 90.83   Q 151.09 90.45 151.46 90.89   Q 152.93 92.61 154.44 94.43   C 156.16 96.50 157.87 96.19 160.98 96.19   Q 231.14 96.20 301.47 96.19   A 0.23 0.22 -0.0 0 0 301.70 95.97   L 301.77 91.27   A 0.83 0.83 0.0 0 1 302.10 90.63   Q 302.45 90.37 302.53 89.93   C 302.96 87.69 305.93 83.26 309.01 82.71   C 310.38 82.46 311.32 81.79 312.76 81.79   Q 318.79 81.77 322.48 86.99   Q 323.97 89.12 323.64 90.95   Q 323.53 91.56 323.86 92.07   Q 324.07 92.38 324.38 92.60   A 0.63 0.62 -55.4 0 1 324.53 93.47   L 323.91 94.36   A 1.61 1.61 0.0 0 0 323.65 95.59   Q 323.94 97.13 323.01 98.28   Q 322.58 98.82 323.24 98.62   Z   M 310.13 96.37   Q 315.31 96.99 315.83 93.24   A 2.27 2.26 -77.4 0 0 314.27 90.77   C 310.75 89.66 309.74 93.35 309.70 95.88   Q 309.69 96.32 310.13 96.37   Z   M 344.4996 103.8093   A 3.36 3.06 91.2 0 0 347.6293 100.5141   A 3.36 3.06 91.2 0 0 344.6404 97.0907   A 3.36 3.06 91.2 0 0 341.5107 100.3859   A 3.36 3.06 91.2 0 0 344.4996 103.8093   Z   M 316.08 104.65   Q 315.22 104.51 314.49 104.92   A 0.84 0.84 0.0 0 0 314.42 106.34   Q 316.20 107.59 318.48 107.56   Q 319.04 107.55 319.07 106.98   Q 319.17 105.00 320.24 102.65   Q 320.54 101.98 319.94 102.40   L 317.12 104.41   Q 316.65 104.74 316.08 104.65   Z"></path>
  <path fill="#ffffff" d="   M 101.77 103.60   Q 101.40 103.56 101.07 103.72   Q 100.71 103.91 100.71 104.32   L 100.72 123.10   Q 100.73 123.68 100.15 123.68   L 92.23 123.65   Q 91.61 123.65 91.61 123.03   Q 91.51 113.19 91.65 103.78   Q 91.76 95.87 100.16 93.49   Q 100.64 93.35 100.79 92.88   Q 103.49 84.83 111.24 83.85   C 117.69 83.03 121.83 86.61 124.72 91.89   Q 125.19 92.76 125.33 93.70   Q 126.92 104.36 117.45 109.13   Q 116.97 109.38 116.43 109.34   Q 114.94 109.25 113.75 110.04   A 1.66 1.65 -59.6 0 1 112.72 110.31   Q 111.98 110.25 111.36 109.79   Q 110.82 109.39 110.15 109.41   C 107.63 109.49 103.38 106.61 102.26 103.96   A 0.60 0.58 80.6 0 0 101.77 103.60   Z   M 115.5281 98.4932   A 2.88 2.88 0.0 0 0 114.9050 94.4682   L 114.2594 93.9957   A 2.88 2.88 0.0 0 0 110.2344 94.6188   L 109.8919 95.0868   A 2.88 2.88 0.0 0 0 110.5150 99.1118   L 111.1606 99.5843   A 2.88 2.88 0.0 0 0 115.1856 98.9612   L 115.5281 98.4932   Z"></path>
  <path fill="#ed1c24" d="   M 310.13 96.37   Q 309.69 96.32 309.70 95.88   C 309.74 93.35 310.75 89.66 314.27 90.77   A 2.27 2.26 -77.4 0 1 315.83 93.24   Q 315.31 96.99 310.13 96.37   Z"></path>
  <rect fill="#ed1c24" x="-3.28" y="-3.17" transform="translate(112.71,96.79) rotate(36.2)" width="6.56" height="6.34" rx="2.88"></rect>
  <ellipse fill="#ed1c24" cx="0.00" cy="0.00" transform="translate(344.57,100.45) rotate(91.2)" rx="3.36" ry="3.06"></ellipse>
  <path fill="#ed1c24" d="   M 317.12 104.41   L 319.94 102.40   Q 320.54 101.98 320.24 102.65   Q 319.17 105.00 319.07 106.98   Q 319.04 107.55 318.48 107.56   Q 316.20 107.59 314.42 106.34   A 0.84 0.84 0.0 0 1 314.49 104.92   Q 315.22 104.51 316.08 104.65   Q 316.65 104.74 317.12 104.41   Z"></path>
</svg>
