<?xml version="1.0" encoding="UTF-8" standalone="no"?>
<!DOCTYPE svg PUBLIC "-//W3C//DTD SVG 1.1//EN" "http://www.w3.org/Graphics/SVG/1.1/DTD/svg11.dtd">
<svg xmlns="http://www.w3.org/2000/svg" version="1.1" viewBox="0.00 0.00 705.00 350.00">
<g stroke-width="2.00" fill="none" stroke-linecap="butt">
<path stroke="#f18222" vector-effect="non-scaling-stroke" d="
  M 448.38 253.99
  Q 467.98 250.44 484.83 244.36
  Q 491.09 242.10 496.68 239.22
  C 504.77 235.04 512.62 230.34 518.45 223.52
  C 523.38 217.75 524.02 212.21 522.44 204.75
  Q 512.80 159.22 478.15 130.20
  C 469.02 122.55 457.71 115.42 447.10 110.38
  Q 412.26 93.83 370.23 90.29
  C 358.77 89.32 346.97 89.74 334.51 89.78
  C 332.91 89.79 331.41 90.73 329.78 90.76
  Q 323.34 90.90 315.16 92.18
  Q 283.53 97.14 257.00 110.11
  C 226.34 125.11 202.40 148.69 189.05 180.22
  Q 184.01 192.12 181.45 205.87
  Q 180.38 211.60 181.04 215.09
  C 182.40 222.13 189.21 228.05 195.08 232.02
  Q 202.79 237.23 211.35 241.20
  C 217.20 243.91 223.49 245.74 229.51 247.82
  Q 236.54 250.25 243.28 251.62
  Q 278.37 258.74 313.92 259.74
  Q 316.67 259.82 319.51 260.00
  Q 322.55 260.19 325.15 260.18
  Q 329.26 260.15 333.44 260.57
  C 353.52 262.57 376.27 261.21 397.72 259.93
  Q 416.63 258.80 443.74 254.77
  Q 445.95 254.44 448.38 253.99"
/>
<path stroke="#f08e91" vector-effect="non-scaling-stroke" d="
  M 328.67 112.07
  C 328.53 109.10 330.72 106.89 331.08 103.92
  A 0.61 0.60 7.5 0 0 330.57 103.26
  C 326.90 102.66 321.16 105.02 318.07 106.62
  C 314.43 108.49 310.28 113.75 316.05 116.42
  C 319.88 118.19 323.80 117.79 327.89 117.98
  Q 328.55 118.01 328.60 117.36
  Q 328.81 114.77 328.67 112.07"
/>
<path stroke="#f08e91" vector-effect="non-scaling-stroke" d="
  M 400.31 103.29
  C 395.81 104.26 384.36 107.58 386.48 114.41
  Q 386.67 115.02 387.20 115.37
  C 390.99 117.95 395.62 117.99 400.14 117.85
  Q 401.78 117.80 401.58 116.18
  Q 400.84 110.16 403.83 104.97
  A 1.20 1.19 19.3 0 0 402.97 103.19
  Q 401.66 103.00 400.31 103.29"
/>
<path stroke="#f08e91" vector-effect="non-scaling-stroke" d="
  M 311.01 141.37
  Q 313.35 136.27 316.43 131.12
  A 0.62 0.61 14.2 0 0 315.87 130.19
  Q 309.87 130.45 302.19 131.52
  Q 301.64 131.59 301.42 132.10
  C 292.72 151.90 281.21 168.64 264.37 181.55
  Q 260.23 184.73 258.10 189.22
  Q 256.76 192.06 256.88 196.43
  C 256.97 199.74 257.62 210.41 263.87 204.26
  Q 283.02 185.43 298.26 162.23
  Q 302.15 156.31 306.14 149.80
  Q 306.25 149.62 306.43 149.72
  L 306.44 149.72
  Q 306.60 149.81 306.52 149.98
  Q 302.09 159.57 303.70 169.94
  Q 305.09 178.85 312.32 185.28
  C 313.55 186.38 314.62 185.92 316.04 186.07
  Q 319.54 186.42 322.75 184.44
  C 342.38 172.31 354.21 153.28 347.95 130.17
  Q 347.80 129.60 347.60 129.04
  Q 347.37 128.41 346.72 128.16
  Q 343.53 126.94 340.97 127.90
  C 338.23 128.93 333.20 131.48 330.32 130.61
  A 1.75 1.69 -9.8 0 1 329.47 130.03
  L 327.75 127.79
  A 0.82 0.82 0.0 0 0 326.66 127.60
  Q 317.84 133.14 311.25 141.52
  Q 310.53 142.44 311.01 141.37"
/>
<path stroke="#f08e91" vector-effect="non-scaling-stroke" d="
  M 384.26 141.36
  Q 386.72 136.31 389.61 131.06
  A 0.58 0.58 0.0 0 0 389.06 130.21
  L 376.68 131.15
  Q 375.11 131.27 374.47 132.70
  C 368.07 147.01 360.07 160.08 349.23 171.46
  C 340.04 181.09 325.57 186.17 331.15 203.08
  C 332.20 206.27 334.04 207.11 336.64 204.63
  C 353.10 188.92 367.42 169.99 379.38 149.59
  Q 379.46 149.45 379.62 149.50
  Q 379.75 149.53 379.89 149.44
  A 0.06 0.06 0.0 0 1 379.98 149.51
  Q 378.33 153.90 377.29 158.12
  Q 376.46 161.50 376.71 166.92
  C 377.04 174.14 380.27 180.54 385.51 185.37
  Q 385.90 185.73 386.44 185.80
  C 389.13 186.15 392.45 186.45 394.91 185.04
  C 407.49 177.85 418.01 166.86 421.59 152.84
  C 422.90 147.72 422.55 142.49 422.51 137.28
  C 422.49 135.06 421.86 133.08 421.52 130.88
  C 420.52 124.29 410.86 129.17 407.65 130.39
  Q 405.75 131.11 403.74 130.72
  Q 403.20 130.61 402.86 130.18
  L 401.17 127.98
  A 1.11 1.11 0.0 0 0 399.69 127.72
  Q 391.85 132.76 384.51 141.53
  Q 383.72 142.47 384.26 141.36"
/>
<path stroke="#f08e91" vector-effect="non-scaling-stroke" d="
  M 370.37 220.29
  Q 370.48 220.35 370.47 220.48
  C 370.16 227.47 369.89 233.81 372.34 240.18
  Q 372.97 241.82 374.46 240.90
  Q 375.88 240.02 376.91 238.73
  Q 382.14 232.20 385.67 225.13
  Q 385.97 224.52 386.64 224.33
  A 0.37 0.37 0.0 0 1 387.10 224.77
  Q 385.43 232.18 386.87 240.00
  Q 386.99 240.65 387.64 240.56
  Q 390.50 240.18 393.50 239.13
  A 0.71 0.70 69.4 0 0 393.92 238.19
  Q 393.33 236.78 393.28 235.26
  C 393.00 227.87 392.94 221.05 396.06 213.99
  Q 397.58 210.57 394.97 207.89
  Q 394.24 207.13 393.39 206.59
  Q 390.23 204.59 389.43 208.24
  C 387.87 215.31 384.42 225.23 378.61 229.71
  A 0.71 0.70 -23.8 0 1 377.48 229.28
  C 377.02 226.76 376.44 224.51 376.43 221.87
  Q 376.41 214.60 377.52 207.47
  A 0.85 0.84 87.3 0 0 376.48 206.52
  L 369.81 208.19
  Q 369.29 208.32 369.21 208.85
  C 367.71 219.55 363.98 229.54 356.74 237.28
  Q 355.44 238.67 357.21 239.36
  L 359.94 240.43
  Q 361.64 241.09 362.52 239.49
  Q 367.50 230.41 369.57 220.40
  A 0.39 0.38 21.6 0 1 370.15 220.15
  L 370.37 220.29"
/>
<path stroke="#f08e91" vector-effect="non-scaling-stroke" d="
  M 277.56 220.21
  A 0.48 0.47 8.0 0 1 277.95 220.72
  Q 277.13 229.48 278.64 237.27
  Q 278.98 239.02 279.98 240.59
  Q 280.70 241.70 281.73 240.88
  C 286.86 236.80 290.38 230.21 293.18 224.73
  Q 294.39 222.36 294.60 225.02
  Q 294.62 225.22 293.98 226.18
  Q 293.69 226.61 293.70 227.13
  L 293.76 238.90
  Q 293.78 241.12 295.90 240.49
  L 299.82 239.33
  Q 301.14 238.94 300.97 237.57
  Q 300.11 230.94 300.72 224.07
  Q 301.17 219.02 303.63 213.42
  C 304.28 211.94 304.00 210.44 303.18 209.08
  A 0.95 0.94 50.5 0 0 301.67 208.93
  Q 298.53 212.36 295.42 215.35
  Q 293.98 216.75 293.25 218.79
  Q 291.15 224.72 286.63 229.59
  A 1.01 1.00 -33.8 0 1 284.95 229.26
  Q 283.95 226.59 283.81 223.91
  Q 283.43 216.48 284.91 207.82
  Q 285.13 206.51 283.81 206.61
  Q 281.05 206.83 277.75 207.85
  Q 276.60 208.21 276.44 209.40
  Q 274.53 223.79 266.02 235.24
  Q 264.86 236.81 263.37 238.14
  Q 262.72 238.72 263.54 239.02
  L 267.55 240.50
  A 1.35 1.33 -56.4 0 0 268.94 240.21
  Q 270.15 239.02 270.87 237.56
  Q 274.56 230.03 277.09 220.30
  Q 277.13 220.13 277.31 220.16
  L 277.56 220.21"
/>
<path stroke="#f08e91" vector-effect="non-scaling-stroke" d="
  M 317.85 235.94
  Q 318.62 235.24 318.85 236.26
  L 319.75 240.25
  Q 320.02 241.47 321.24 241.20
  L 325.04 240.36
  Q 325.92 240.17 325.79 239.28
  C 325.41 236.67 323.93 232.00 325.24 229.63
  C 327.08 226.32 330.18 222.41 326.32 219.03
  A 1.69 1.69 0.0 0 0 324.05 219.07
  L 322.53 220.51
  Q 322.11 220.91 321.56 220.70
  Q 320.39 220.24 319.53 219.27
  A 1.96 1.96 0.0 0 0 317.09 218.89
  C 311.91 221.88 298.74 232.60 306.22 239.56
  C 307.82 241.04 308.65 242.88 311.26 241.45
  C 313.97 239.97 315.62 237.96 317.85 235.94"
/>
<path stroke="#f08e91" vector-effect="non-scaling-stroke" d="
  M 410.93 235.66
  Q 411.70 235.37 411.71 236.19
  Q 411.76 238.74 412.78 240.86
  A 0.70 0.70 0.0 0 0 413.56 241.24
  L 417.90 240.32
  A 0.55 0.54 -5.0 0 0 418.33 239.82
  C 418.62 235.67 416.07 232.02 418.74 228.34
  C 420.61 225.77 422.25 220.29 418.24 218.64
  A 0.89 0.89 0.0 0 0 417.27 218.83
  L 415.95 220.11
  A 1.89 1.87 -51.8 0 1 413.69 220.39
  L 410.70 218.64
  Q 410.25 218.38 409.80 218.66
  Q 403.04 222.92 398.27 229.55
  Q 396.50 232.02 396.66 234.85
  Q 396.94 239.78 402.44 241.90
  Q 403.00 242.12 403.52 241.83
  Q 406.92 239.94 409.12 237.02
  Q 409.84 236.07 410.93 235.66"
/>
<path stroke="#f08e91" vector-effect="non-scaling-stroke" d="
  M 337.30 235.70
  Q 335.68 235.68 336.90 234.61
  Q 343.25 229.01 347.79 224.22
  Q 349.62 222.30 349.33 219.29
  Q 349.28 218.73 348.72 218.73
  L 335.22 218.71
  Q 334.62 218.71 334.45 219.28
  L 333.20 223.75
  A 0.36 0.35 -80.4 0 0 333.52 224.21
  L 340.54 224.63
  A 0.41 0.41 0.0 0 1 340.80 225.33
  L 329.93 235.64
  Q 329.40 236.14 329.50 236.86
  Q 329.78 238.80 330.78 240.65
  Q 331.11 241.25 331.79 241.25
  L 341.85 241.27
  Q 344.02 241.27 344.71 239.22
  Q 344.82 238.87 345.10 238.05
  Q 345.85 235.80 343.48 235.77
  L 337.30 235.70"
/>
<path stroke="#f08e91" vector-effect="non-scaling-stroke" d="
  M 432.40 225.05
  A 0.52 0.52 0.0 0 1 432.62 225.92
  L 422.35 236.07
  Q 421.88 236.54 422.12 237.16
  L 423.83 241.47
  Q 424.05 242.04 424.65 241.92
  Q 429.82 240.91 435.39 241.32
  A 1.50 1.49 12.2 0 0 436.90 240.35
  L 438.09 237.14
  Q 438.43 236.22 437.47 236.38
  C 434.65 236.84 432.77 235.58 430.10 235.74
  A 0.55 0.55 0.0 0 1 429.68 234.79
  Q 434.88 229.71 440.25 224.45
  Q 442.36 222.39 441.81 219.21
  Q 441.72 218.72 441.22 218.72
  L 428.45 218.72
  A 1.43 1.43 0.0 0 0 427.08 219.73
  L 425.95 223.53
  Q 425.71 224.35 426.56 224.30
  Q 429.34 224.15 432.40 225.05"
/>
<path stroke="#f08e91" vector-effect="non-scaling-stroke" d="
  M 320.99 150.57
  Q 316.55 161.23 317.83 174.19
  Q 317.88 174.71 318.36 174.90
  Q 320.30 175.68 321.94 174.50
  C 334.71 165.31 338.55 151.51 333.82 136.59
  Q 333.65 136.08 333.18 135.82
  Q 331.20 134.76 329.68 136.47
  Q 324.34 142.53 320.99 150.57"
/>
<path stroke="#f08e91" vector-effect="non-scaling-stroke" d="
  M 395.28 174.50
  C 408.08 165.16 411.65 151.81 407.12 136.86
  A 2.23 2.23 0.0 0 0 403.30 136.05
  Q 388.99 152.50 391.18 174.06
  Q 391.23 174.61 391.74 174.84
  Q 393.63 175.70 395.28 174.50"
/>
<path stroke="#f08e91" vector-effect="non-scaling-stroke" d="
  M 311.9709 236.4330
  A 6.96 2.19 122.3 0 0 317.5411 231.7202
  A 6.96 2.19 122.3 0 0 319.4091 224.6670
  A 6.96 2.19 122.3 0 0 313.8389 229.3798
  A 6.96 2.19 122.3 0 0 311.9709 236.4330"
/>
<path stroke="#f08e91" vector-effect="non-scaling-stroke" d="
  M 412.02 223.61
  C 409.28 225.78 403.22 232.39 404.53 235.91
  A 0.97 0.96 -34.0 0 0 406.15 236.22
  C 407.98 234.21 410.90 232.25 411.67 229.63
  Q 412.41 227.10 412.58 223.91
  A 0.35 0.34 72.6 0 0 412.02 223.61"
/>
</g>
<path fill="#ffe61f" d="
  M 337.70 266.77
  C 331.08 266.73 324.10 267.11 317.43 266.43
  C 314.25 266.11 311.04 266.39 307.91 265.99
  Q 302.29 265.27 297.41 265.25
  C 291.97 265.22 286.86 264.22 281.48 264.02
  Q 278.27 263.90 275.06 263.56
  Q 250.50 260.93 227.92 254.61
  Q 223.67 253.42 220.09 251.98
  Q 217.49 250.93 214.89 250.13
  Q 212.29 249.32 209.84 248.30
  Q 198.33 243.49 187.85 236.21
  Q 186.03 234.95 184.55 233.50
  C 183.15 232.12 181.45 231.29 180.25 229.73
  Q 178.42 227.35 176.38 225.02
  Q 175.46 223.98 173.90 219.97
  C 172.54 216.49 173.18 212.81 173.29 209.21
  Q 173.30 208.71 173.64 208.34
  C 174.49 207.41 174.17 206.07 174.42 204.87
  Q 176.73 193.94 179.32 186.79
  Q 180.48 183.59 181.68 180.43
  Q 182.92 177.18 184.34 174.16
  Q 190.31 161.47 198.46 150.05
  Q 200.39 147.35 202.52 144.90
  C 204.51 142.61 206.19 140.28 208.30 138.09
  Q 217.76 128.25 227.94 119.94
  C 230.76 117.64 234.09 116.32 236.81 114.17
  Q 243.07 109.25 248.21 106.89
  Q 250.59 105.80 252.88 104.50
  C 257.06 102.11 261.57 100.34 265.87 98.18
  C 267.45 97.39 268.89 97.83 270.28 96.97
  C 273.35 95.05 277.08 94.45 280.47 93.09
  C 283.44 91.90 286.93 90.66 290.15 90.10
  C 291.53 89.87 292.78 89.09 294.11 88.87
  Q 296.02 88.56 297.80 88.09
  C 299.61 87.61 302.03 87.86 303.92 87.09
  Q 305.02 86.65 306.25 86.60
  C 308.51 86.50 310.36 85.63 312.57 85.40
  Q 314.17 85.25 315.85 84.23
  Q 316.28 83.98 316.76 84.10
  Q 319.68 84.85 321.99 84.15
  Q 325.11 83.22 327.03 83.21
  Q 331.87 83.21 337.41 83.25
  C 339.67 83.26 341.40 82.15 343.61 82.14
  Q 352.06 82.11 361.45 82.13
  Q 364.00 82.14 366.53 82.49
  Q 371.21 83.14 371.53 83.16
  Q 378.26 83.56 385.24 84.74
  Q 389.56 85.48 393.40 85.65
  Q 394.84 85.72 396.48 86.27
  Q 397.99 86.79 399.62 86.81
  Q 400.08 86.82 400.50 87.00
  Q 402.08 87.67 403.91 87.83
  Q 407.70 88.15 411.05 89.55
  Q 413.46 90.56 415.99 91.01
  Q 420.84 91.86 425.24 93.88
  Q 426.40 94.41 427.68 94.52
  C 428.85 94.62 429.98 95.33 431.16 95.73
  Q 438.32 98.11 446.36 102.03
  Q 448.94 103.29 451.42 104.48
  Q 461.66 109.42 471.88 116.43
  Q 485.18 125.55 498.25 139.74
  C 500.01 141.64 501.14 143.79 503.03 145.56
  C 504.80 147.23 505.94 149.36 507.54 151.20
  C 509.38 153.32 510.67 156.08 512.23 158.52
  Q 516.90 165.80 520.51 174.17
  Q 522.42 178.61 524.26 182.95
  Q 526.01 187.08 527.30 191.98
  Q 529.44 200.13 531.56 207.99
  Q 532.32 210.81 531.91 220.66
  C 531.82 222.68 532.41 224.57 529.84 225.27
  Q 529.28 225.42 528.88 225.83
  Q 517.37 237.57 503.60 244.43
  C 490.61 250.91 477.80 254.75 462.46 258.47
  Q 460.29 259.00 458.65 259.04
  Q 457.50 259.06 456.50 259.41
  Q 455.47 259.77 454.43 259.96
  Q 435.81 263.37 425.36 264.29
  Q 414.69 265.22 404.23 266.20
  Q 398.28 266.75 393.23 266.75
  C 388.14 266.75 383.33 267.84 378.35 267.88
  Q 361.27 268.03 344.03 267.88
  C 341.77 267.86 339.90 266.79 337.70 266.77
  Z
  M 448.38 253.99
  Q 467.98 250.44 484.83 244.36
  Q 491.09 242.10 496.68 239.22
  C 504.77 235.04 512.62 230.34 518.45 223.52
  C 523.38 217.75 524.02 212.21 522.44 204.75
  Q 512.80 159.22 478.15 130.20
  C 469.02 122.55 457.71 115.42 447.10 110.38
  Q 412.26 93.83 370.23 90.29
  C 358.77 89.32 346.97 89.74 334.51 89.78
  C 332.91 89.79 331.41 90.73 329.78 90.76
  Q 323.34 90.90 315.16 92.18
  Q 283.53 97.14 257.00 110.11
  C 226.34 125.11 202.40 148.69 189.05 180.22
  Q 184.01 192.12 181.45 205.87
  Q 180.38 211.60 181.04 215.09
  C 182.40 222.13 189.21 228.05 195.08 232.02
  Q 202.79 237.23 211.35 241.20
  C 217.20 243.91 223.49 245.74 229.51 247.82
  Q 236.54 250.25 243.28 251.62
  Q 278.37 258.74 313.92 259.74
  Q 316.67 259.82 319.51 260.00
  Q 322.55 260.19 325.15 260.18
  Q 329.26 260.15 333.44 260.57
  C 353.52 262.57 376.27 261.21 397.72 259.93
  Q 416.63 258.80 443.74 254.77
  Q 445.95 254.44 448.38 253.99
  Z"
/>
<path fill="#e31e25" d="
  M 448.38 253.99
  Q 445.95 254.44 443.74 254.77
  Q 416.63 258.80 397.72 259.93
  C 376.27 261.21 353.52 262.57 333.44 260.57
  Q 329.26 260.15 325.15 260.18
  Q 322.55 260.19 319.51 260.00
  Q 316.67 259.82 313.92 259.74
  Q 278.37 258.74 243.28 251.62
  Q 236.54 250.25 229.51 247.82
  C 223.49 245.74 217.20 243.91 211.35 241.20
  Q 202.79 237.23 195.08 232.02
  C 189.21 228.05 182.40 222.13 181.04 215.09
  Q 180.38 211.60 181.45 205.87
  Q 184.01 192.12 189.05 180.22
  C 202.40 148.69 226.34 125.11 257.00 110.11
  Q 283.53 97.14 315.16 92.18
  Q 323.34 90.90 329.78 90.76
  C 331.41 90.73 332.91 89.79 334.51 89.78
  C 346.97 89.74 358.77 89.32 370.23 90.29
  Q 412.26 93.83 447.10 110.38
  C 457.71 115.42 469.02 122.55 478.15 130.20
  Q 512.80 159.22 522.44 204.75
  C 524.02 212.21 523.38 217.75 518.45 223.52
  C 512.62 230.34 504.77 235.04 496.68 239.22
  Q 491.09 242.10 484.83 244.36
  Q 467.98 250.44 448.38 253.99
  Z
  M 328.67 112.07
  C 328.53 109.10 330.72 106.89 331.08 103.92
  A 0.61 0.60 7.5 0 0 330.57 103.26
  C 326.90 102.66 321.16 105.02 318.07 106.62
  C 314.43 108.49 310.28 113.75 316.05 116.42
  C 319.88 118.19 323.80 117.79 327.89 117.98
  Q 328.55 118.01 328.60 117.36
  Q 328.81 114.77 328.67 112.07
  Z
  M 400.31 103.29
  C 395.81 104.26 384.36 107.58 386.48 114.41
  Q 386.67 115.02 387.20 115.37
  C 390.99 117.95 395.62 117.99 400.14 117.85
  Q 401.78 117.80 401.58 116.18
  Q 400.84 110.16 403.83 104.97
  A 1.20 1.19 19.3 0 0 402.97 103.19
  Q 401.66 103.00 400.31 103.29
  Z
  M 311.01 141.37
  Q 313.35 136.27 316.43 131.12
  A 0.62 0.61 14.2 0 0 315.87 130.19
  Q 309.87 130.45 302.19 131.52
  Q 301.64 131.59 301.42 132.10
  C 292.72 151.90 281.21 168.64 264.37 181.55
  Q 260.23 184.73 258.10 189.22
  Q 256.76 192.06 256.88 196.43
  C 256.97 199.74 257.62 210.41 263.87 204.26
  Q 283.02 185.43 298.26 162.23
  Q 302.15 156.31 306.14 149.80
  Q 306.25 149.62 306.43 149.72
  L 306.44 149.72
  Q 306.60 149.81 306.52 149.98
  Q 302.09 159.57 303.70 169.94
  Q 305.09 178.85 312.32 185.28
  C 313.55 186.38 314.62 185.92 316.04 186.07
  Q 319.54 186.42 322.75 184.44
  C 342.38 172.31 354.21 153.28 347.95 130.17
  Q 347.80 129.60 347.60 129.04
  Q 347.37 128.41 346.72 128.16
  Q 343.53 126.94 340.97 127.90
  C 338.23 128.93 333.20 131.48 330.32 130.61
  A 1.75 1.69 -9.8 0 1 329.47 130.03
  L 327.75 127.79
  A 0.82 0.82 0.0 0 0 326.66 127.60
  Q 317.84 133.14 311.25 141.52
  Q 310.53 142.44 311.01 141.37
  Z
  M 384.26 141.36
  Q 386.72 136.31 389.61 131.06
  A 0.58 0.58 0.0 0 0 389.06 130.21
  L 376.68 131.15
  Q 375.11 131.27 374.47 132.70
  C 368.07 147.01 360.07 160.08 349.23 171.46
  C 340.04 181.09 325.57 186.17 331.15 203.08
  C 332.20 206.27 334.04 207.11 336.64 204.63
  C 353.10 188.92 367.42 169.99 379.38 149.59
  Q 379.46 149.45 379.62 149.50
  Q 379.75 149.53 379.89 149.44
  A 0.06 0.06 0.0 0 1 379.98 149.51
  Q 378.33 153.90 377.29 158.12
  Q 376.46 161.50 376.71 166.92
  C 377.04 174.14 380.27 180.54 385.51 185.37
  Q 385.90 185.73 386.44 185.80
  C 389.13 186.15 392.45 186.45 394.91 185.04
  C 407.49 177.85 418.01 166.86 421.59 152.84
  C 422.90 147.72 422.55 142.49 422.51 137.28
  C 422.49 135.06 421.86 133.08 421.52 130.88
  C 420.52 124.29 410.86 129.17 407.65 130.39
  Q 405.75 131.11 403.74 130.72
  Q 403.20 130.61 402.86 130.18
  L 401.17 127.98
  A 1.11 1.11 0.0 0 0 399.69 127.72
  Q 391.85 132.76 384.51 141.53
  Q 383.72 142.47 384.26 141.36
  Z
  M 370.37 220.29
  Q 370.48 220.35 370.47 220.48
  C 370.16 227.47 369.89 233.81 372.34 240.18
  Q 372.97 241.82 374.46 240.90
  Q 375.88 240.02 376.91 238.73
  Q 382.14 232.20 385.67 225.13
  Q 385.97 224.52 386.64 224.33
  A 0.37 0.37 0.0 0 1 387.10 224.77
  Q 385.43 232.18 386.87 240.00
  Q 386.99 240.65 387.64 240.56
  Q 390.50 240.18 393.50 239.13
  A 0.71 0.70 69.4 0 0 393.92 238.19
  Q 393.33 236.78 393.28 235.26
  C 393.00 227.87 392.94 221.05 396.06 213.99
  Q 397.58 210.57 394.97 207.89
  Q 394.24 207.13 393.39 206.59
  Q 390.23 204.59 389.43 208.24
  C 387.87 215.31 384.42 225.23 378.61 229.71
  A 0.71 0.70 -23.8 0 1 377.48 229.28
  C 377.02 226.76 376.44 224.51 376.43 221.87
  Q 376.41 214.60 377.52 207.47
  A 0.85 0.84 87.3 0 0 376.48 206.52
  L 369.81 208.19
  Q 369.29 208.32 369.21 208.85
  C 367.71 219.55 363.98 229.54 356.74 237.28
  Q 355.44 238.67 357.21 239.36
  L 359.94 240.43
  Q 361.64 241.09 362.52 239.49
  Q 367.50 230.41 369.57 220.40
  A 0.39 0.38 21.6 0 1 370.15 220.15
  L 370.37 220.29
  Z
  M 277.56 220.21
  A 0.48 0.47 8.0 0 1 277.95 220.72
  Q 277.13 229.48 278.64 237.27
  Q 278.98 239.02 279.98 240.59
  Q 280.70 241.70 281.73 240.88
  C 286.86 236.80 290.38 230.21 293.18 224.73
  Q 294.39 222.36 294.60 225.02
  Q 294.62 225.22 293.98 226.18
  Q 293.69 226.61 293.70 227.13
  L 293.76 238.90
  Q 293.78 241.12 295.90 240.49
  L 299.82 239.33
  Q 301.14 238.94 300.97 237.57
  Q 300.11 230.94 300.72 224.07
  Q 301.17 219.02 303.63 213.42
  C 304.28 211.94 304.00 210.44 303.18 209.08
  A 0.95 0.94 50.5 0 0 301.67 208.93
  Q 298.53 212.36 295.42 215.35
  Q 293.98 216.75 293.25 218.79
  Q 291.15 224.72 286.63 229.59
  A 1.01 1.00 -33.8 0 1 284.95 229.26
  Q 283.95 226.59 283.81 223.91
  Q 283.43 216.48 284.91 207.82
  Q 285.13 206.51 283.81 206.61
  Q 281.05 206.83 277.75 207.85
  Q 276.60 208.21 276.44 209.40
  Q 274.53 223.79 266.02 235.24
  Q 264.86 236.81 263.37 238.14
  Q 262.72 238.72 263.54 239.02
  L 267.55 240.50
  A 1.35 1.33 -56.4 0 0 268.94 240.21
  Q 270.15 239.02 270.87 237.56
  Q 274.56 230.03 277.09 220.30
  Q 277.13 220.13 277.31 220.16
  L 277.56 220.21
  Z
  M 317.85 235.94
  Q 318.62 235.24 318.85 236.26
  L 319.75 240.25
  Q 320.02 241.47 321.24 241.20
  L 325.04 240.36
  Q 325.92 240.17 325.79 239.28
  C 325.41 236.67 323.93 232.00 325.24 229.63
  C 327.08 226.32 330.18 222.41 326.32 219.03
  A 1.69 1.69 0.0 0 0 324.05 219.07
  L 322.53 220.51
  Q 322.11 220.91 321.56 220.70
  Q 320.39 220.24 319.53 219.27
  A 1.96 1.96 0.0 0 0 317.09 218.89
  C 311.91 221.88 298.74 232.60 306.22 239.56
  C 307.82 241.04 308.65 242.88 311.26 241.45
  C 313.97 239.97 315.62 237.96 317.85 235.94
  Z
  M 410.93 235.66
  Q 411.70 235.37 411.71 236.19
  Q 411.76 238.74 412.78 240.86
  A 0.70 0.70 0.0 0 0 413.56 241.24
  L 417.90 240.32
  A 0.55 0.54 -5.0 0 0 418.33 239.82
  C 418.62 235.67 416.07 232.02 418.74 228.34
  C 420.61 225.77 422.25 220.29 418.24 218.64
  A 0.89 0.89 0.0 0 0 417.27 218.83
  L 415.95 220.11
  A 1.89 1.87 -51.8 0 1 413.69 220.39
  L 410.70 218.64
  Q 410.25 218.38 409.80 218.66
  Q 403.04 222.92 398.27 229.55
  Q 396.50 232.02 396.66 234.85
  Q 396.94 239.78 402.44 241.90
  Q 403.00 242.12 403.52 241.83
  Q 406.92 239.94 409.12 237.02
  Q 409.84 236.07 410.93 235.66
  Z
  M 337.30 235.70
  Q 335.68 235.68 336.90 234.61
  Q 343.25 229.01 347.79 224.22
  Q 349.62 222.30 349.33 219.29
  Q 349.28 218.73 348.72 218.73
  L 335.22 218.71
  Q 334.62 218.71 334.45 219.28
  L 333.20 223.75
  A 0.36 0.35 -80.4 0 0 333.52 224.21
  L 340.54 224.63
  A 0.41 0.41 0.0 0 1 340.80 225.33
  L 329.93 235.64
  Q 329.40 236.14 329.50 236.86
  Q 329.78 238.80 330.78 240.65
  Q 331.11 241.25 331.79 241.25
  L 341.85 241.27
  Q 344.02 241.27 344.71 239.22
  Q 344.82 238.87 345.10 238.05
  Q 345.85 235.80 343.48 235.77
  L 337.30 235.70
  Z
  M 432.40 225.05
  A 0.52 0.52 0.0 0 1 432.62 225.92
  L 422.35 236.07
  Q 421.88 236.54 422.12 237.16
  L 423.83 241.47
  Q 424.05 242.04 424.65 241.92
  Q 429.82 240.91 435.39 241.32
  A 1.50 1.49 12.2 0 0 436.90 240.35
  L 438.09 237.14
  Q 438.43 236.22 437.47 236.38
  C 434.65 236.84 432.77 235.58 430.10 235.74
  A 0.55 0.55 0.0 0 1 429.68 234.79
  Q 434.88 229.71 440.25 224.45
  Q 442.36 222.39 441.81 219.21
  Q 441.72 218.72 441.22 218.72
  L 428.45 218.72
  A 1.43 1.43 0.0 0 0 427.08 219.73
  L 425.95 223.53
  Q 425.71 224.35 426.56 224.30
  Q 429.34 224.15 432.40 225.05
  Z"
/>
<path fill="#fcfdfd" d="
  M 331.08 103.92
  C 330.72 106.89 328.53 109.10 328.67 112.07
  Q 328.81 114.77 328.60 117.36
  Q 328.55 118.01 327.89 117.98
  C 323.80 117.79 319.88 118.19 316.05 116.42
  C 310.28 113.75 314.43 108.49 318.07 106.62
  C 321.16 105.02 326.90 102.66 330.57 103.26
  A 0.61 0.60 7.5 0 1 331.08 103.92
  Z"
/>
<path fill="#fcfdfd" d="
  M 386.48 114.41
  C 384.36 107.58 395.81 104.26 400.31 103.29
  Q 401.66 103.00 402.97 103.19
  A 1.20 1.19 19.3 0 1 403.83 104.97
  Q 400.84 110.16 401.58 116.18
  Q 401.78 117.80 400.14 117.85
  C 395.62 117.99 390.99 117.95 387.20 115.37
  Q 386.67 115.02 386.48 114.41
  Z"
/>
<path fill="#fcfdfd" d="
  M 311.25 141.52
  Q 317.84 133.14 326.66 127.60
  A 0.82 0.82 0.0 0 1 327.75 127.79
  L 329.47 130.03
  A 1.75 1.69 -9.8 0 0 330.32 130.61
  C 333.20 131.48 338.23 128.93 340.97 127.90
  Q 343.53 126.94 346.72 128.16
  Q 347.37 128.41 347.60 129.04
  Q 347.80 129.60 347.95 130.17
  C 354.21 153.28 342.38 172.31 322.75 184.44
  Q 319.54 186.42 316.04 186.07
  C 314.62 185.92 313.55 186.38 312.32 185.28
  Q 305.09 178.85 303.70 169.94
  Q 302.09 159.57 306.52 149.98
  Q 306.60 149.81 306.44 149.72
  L 306.43 149.72
  Q 306.25 149.62 306.14 149.80
  Q 302.15 156.31 298.26 162.23
  Q 283.02 185.43 263.87 204.26
  C 257.62 210.41 256.97 199.74 256.88 196.43
  Q 256.76 192.06 258.10 189.22
  Q 260.23 184.73 264.37 181.55
  C 281.21 168.64 292.72 151.90 301.42 132.10
  Q 301.64 131.59 302.19 131.52
  Q 309.87 130.45 315.87 130.19
  A 0.62 0.61 14.2 0 1 316.43 131.12
  Q 313.35 136.27 311.01 141.37
  Q 310.53 142.44 311.25 141.52
  Z
  M 320.99 150.57
  Q 316.55 161.23 317.83 174.19
  Q 317.88 174.71 318.36 174.90
  Q 320.30 175.68 321.94 174.50
  C 334.71 165.31 338.55 151.51 333.82 136.59
  Q 333.65 136.08 333.18 135.82
  Q 331.20 134.76 329.68 136.47
  Q 324.34 142.53 320.99 150.57
  Z"
/>
<path fill="#fcfdfd" d="
  M 384.51 141.53
  Q 391.85 132.76 399.69 127.72
  A 1.11 1.11 0.0 0 1 401.17 127.98
  L 402.86 130.18
  Q 403.20 130.61 403.74 130.72
  Q 405.75 131.11 407.65 130.39
  C 410.86 129.17 420.52 124.29 421.52 130.88
  C 421.86 133.08 422.49 135.06 422.51 137.28
  C 422.55 142.49 422.90 147.72 421.59 152.84
  C 418.01 166.86 407.49 177.85 394.91 185.04
  C 392.45 186.45 389.13 186.15 386.44 185.80
  Q 385.90 185.73 385.51 185.37
  C 380.27 180.54 377.04 174.14 376.71 166.92
  Q 376.46 161.50 377.29 158.12
  Q 378.33 153.90 379.98 149.51
  A 0.06 0.06 0.0 0 0 379.89 149.44
  Q 379.75 149.53 379.62 149.50
  Q 379.46 149.45 379.38 149.59
  C 367.42 169.99 353.10 188.92 336.64 204.63
  C 334.04 207.11 332.20 206.27 331.15 203.08
  C 325.57 186.17 340.04 181.09 349.23 171.46
  C 360.07 160.08 368.07 147.01 374.47 132.70
  Q 375.11 131.27 376.68 131.15
  L 389.06 130.21
  A 0.58 0.58 0.0 0 1 389.61 131.06
  Q 386.72 136.31 384.26 141.36
  Q 383.72 142.47 384.51 141.53
  Z
  M 395.28 174.50
  C 408.08 165.16 411.65 151.81 407.12 136.86
  A 2.23 2.23 0.0 0 0 403.30 136.05
  Q 388.99 152.50 391.18 174.06
  Q 391.23 174.61 391.74 174.84
  Q 393.63 175.70 395.28 174.50
  Z"
/>
<path fill="#e31e25" d="
  M 320.99 150.57
  Q 324.34 142.53 329.68 136.47
  Q 331.20 134.76 333.18 135.82
  Q 333.65 136.08 333.82 136.59
  C 338.55 151.51 334.71 165.31 321.94 174.50
  Q 320.30 175.68 318.36 174.90
  Q 317.88 174.71 317.83 174.19
  Q 316.55 161.23 320.99 150.57
  Z"
/>
<path fill="#e31e25" d="
  M 407.12 136.86
  C 411.65 151.81 408.08 165.16 395.28 174.50
  Q 393.63 175.70 391.74 174.84
  Q 391.23 174.61 391.18 174.06
  Q 388.99 152.50 403.30 136.05
  A 2.23 2.23 0.0 0 1 407.12 136.86
  Z"
/>
<path fill="#fcfdfd" d="
  M 370.37 220.29
  L 370.15 220.15
  A 0.39 0.38 21.6 0 0 369.57 220.40
  Q 367.50 230.41 362.52 239.49
  Q 361.64 241.09 359.94 240.43
  L 357.21 239.36
  Q 355.44 238.67 356.74 237.28
  C 363.98 229.54 367.71 219.55 369.21 208.85
  Q 369.29 208.32 369.81 208.19
  L 376.48 206.52
  A 0.85 0.84 87.3 0 1 377.52 207.47
  Q 376.41 214.60 376.43 221.87
  C 376.44 224.51 377.02 226.76 377.48 229.28
  A 0.71 0.70 -23.8 0 0 378.61 229.71
  C 384.42 225.23 387.87 215.31 389.43 208.24
  Q 390.23 204.59 393.39 206.59
  Q 394.24 207.13 394.97 207.89
  Q 397.58 210.57 396.06 213.99
  C 392.94 221.05 393.00 227.87 393.28 235.26
  Q 393.33 236.78 393.92 238.19
  A 0.71 0.70 69.4 0 1 393.50 239.13
  Q 390.50 240.18 387.64 240.56
  Q 386.99 240.65 386.87 240.00
  Q 385.43 232.18 387.10 224.77
  A 0.37 0.37 0.0 0 0 386.64 224.33
  Q 385.97 224.52 385.67 225.13
  Q 382.14 232.20 376.91 238.73
  Q 375.88 240.02 374.46 240.90
  Q 372.97 241.82 372.34 240.18
  C 369.89 233.81 370.16 227.47 370.47 220.48
  Q 370.48 220.35 370.37 220.29
  Z"
/>
<path fill="#fcfdfd" d="
  M 277.56 220.21
  L 277.31 220.16
  Q 277.13 220.13 277.09 220.30
  Q 274.56 230.03 270.87 237.56
  Q 270.15 239.02 268.94 240.21
  A 1.35 1.33 -56.4 0 1 267.55 240.50
  L 263.54 239.02
  Q 262.72 238.72 263.37 238.14
  Q 264.86 236.81 266.02 235.24
  Q 274.53 223.79 276.44 209.40
  Q 276.60 208.21 277.75 207.85
  Q 281.05 206.83 283.81 206.61
  Q 285.13 206.51 284.91 207.82
  Q 283.43 216.48 283.81 223.91
  Q 283.95 226.59 284.95 229.26
  A 1.01 1.00 -33.8 0 0 286.63 229.59
  Q 291.15 224.72 293.25 218.79
  Q 293.98 216.75 295.42 215.35
  Q 298.53 212.36 301.67 208.93
  A 0.95 0.94 50.5 0 1 303.18 209.08
  C 304.00 210.44 304.28 211.94 303.63 213.42
  Q 301.17 219.02 300.72 224.07
  Q 300.11 230.94 300.97 237.57
  Q 301.14 238.94 299.82 239.33
  L 295.90 240.49
  Q 293.78 241.12 293.76 238.90
  L 293.70 227.13
  Q 293.69 226.61 293.98 226.18
  Q 294.62 225.22 294.60 225.02
  Q 294.39 222.36 293.18 224.73
  C 290.38 230.21 286.86 236.80 281.73 240.88
  Q 280.70 241.70 279.98 240.59
  Q 278.98 239.02 278.64 237.27
  Q 277.13 229.48 277.95 220.72
  A 0.48 0.47 8.0 0 0 277.56 220.21
  Z"
/>
<path fill="#fcfdfd" d="
  M 317.85 235.94
  C 315.62 237.96 313.97 239.97 311.26 241.45
  C 308.65 242.88 307.82 241.04 306.22 239.56
  C 298.74 232.60 311.91 221.88 317.09 218.89
  A 1.96 1.96 0.0 0 1 319.53 219.27
  Q 320.39 220.24 321.56 220.70
  Q 322.11 220.91 322.53 220.51
  L 324.05 219.07
  A 1.69 1.69 0.0 0 1 326.32 219.03
  C 330.18 222.41 327.08 226.32 325.24 229.63
  C 323.93 232.00 325.41 236.67 325.79 239.28
  Q 325.92 240.17 325.04 240.36
  L 321.24 241.20
  Q 320.02 241.47 319.75 240.25
  L 318.85 236.26
  Q 318.62 235.24 317.85 235.94
  Z
  M 311.9709 236.4330
  A 6.96 2.19 122.3 0 0 317.5411 231.7202
  A 6.96 2.19 122.3 0 0 319.4091 224.6670
  A 6.96 2.19 122.3 0 0 313.8389 229.3798
  A 6.96 2.19 122.3 0 0 311.9709 236.4330
  Z"
/>
<path fill="#fcfdfd" d="
  M 410.93 235.66
  Q 409.84 236.07 409.12 237.02
  Q 406.92 239.94 403.52 241.83
  Q 403.00 242.12 402.44 241.90
  Q 396.94 239.78 396.66 234.85
  Q 396.50 232.02 398.27 229.55
  Q 403.04 222.92 409.80 218.66
  Q 410.25 218.38 410.70 218.64
  L 413.69 220.39
  A 1.89 1.87 -51.8 0 0 415.95 220.11
  L 417.27 218.83
  A 0.89 0.89 0.0 0 1 418.24 218.64
  C 422.25 220.29 420.61 225.77 418.74 228.34
  C 416.07 232.02 418.62 235.67 418.33 239.82
  A 0.55 0.54 -5.0 0 1 417.90 240.32
  L 413.56 241.24
  A 0.70 0.70 0.0 0 1 412.78 240.86
  Q 411.76 238.74 411.71 236.19
  Q 411.70 235.37 410.93 235.66
  Z
  M 412.02 223.61
  C 409.28 225.78 403.22 232.39 404.53 235.91
  A 0.97 0.96 -34.0 0 0 406.15 236.22
  C 407.98 234.21 410.90 232.25 411.67 229.63
  Q 412.41 227.10 412.58 223.91
  A 0.35 0.34 72.6 0 0 412.02 223.61
  Z"
/>
<path fill="#fcfdfd" d="
  M 337.30 235.70
  L 343.48 235.77
  Q 345.85 235.80 345.10 238.05
  Q 344.82 238.87 344.71 239.22
  Q 344.02 241.27 341.85 241.27
  L 331.79 241.25
  Q 331.11 241.25 330.78 240.65
  Q 329.78 238.80 329.50 236.86
  Q 329.40 236.14 329.93 235.64
  L 340.80 225.33
  A 0.41 0.41 0.0 0 0 340.54 224.63
  L 333.52 224.21
  A 0.36 0.35 -80.4 0 1 333.20 223.75
  L 334.45 219.28
  Q 334.62 218.71 335.22 218.71
  L 348.72 218.73
  Q 349.28 218.73 349.33 219.29
  Q 349.62 222.30 347.79 224.22
  Q 343.25 229.01 336.90 234.61
  Q 335.68 235.68 337.30 235.70
  Z"
/>
<path fill="#fcfdfd" d="
  M 432.40 225.05
  Q 429.34 224.15 426.56 224.30
  Q 425.71 224.35 425.95 223.53
  L 427.08 219.73
  A 1.43 1.43 0.0 0 1 428.45 218.72
  L 441.22 218.72
  Q 441.72 218.72 441.81 219.21
  Q 442.36 222.39 440.25 224.45
  Q 434.88 229.71 429.68 234.79
  A 0.55 0.55 0.0 0 0 430.10 235.74
  C 432.77 235.58 434.65 236.84 437.47 236.38
  Q 438.43 236.22 438.09 237.14
  L 436.90 240.35
  A 1.50 1.49 12.2 0 1 435.39 241.32
  Q 429.82 240.91 424.65 241.92
  Q 424.05 242.04 423.83 241.47
  L 422.12 237.16
  Q 421.88 236.54 422.35 236.07
  L 432.62 225.92
  A 0.52 0.52 0.0 0 0 432.40 225.05
  Z"
/>
<path fill="#e31e25" d="
  M 404.53 235.91
  C 403.22 232.39 409.28 225.78 412.02 223.61
  A 0.35 0.34 72.6 0 1 412.58 223.91
  Q 412.41 227.10 411.67 229.63
  C 410.90 232.25 407.98 234.21 406.15 236.22
  A 0.97 0.96 -34.0 0 1 404.53 235.91
  Z"
/>
<ellipse fill="#e31e25" cx="0.00" cy="0.00" transform="translate(315.69,230.55) rotate(122.3)" rx="6.96" ry="2.19"/>
</svg>
