<?xml version="1.0" encoding="UTF-8" standalone="no"?>
<svg xmlns="http://www.w3.org/2000/svg" version="1.1" viewBox="0.00 0.00 1681.00 1719.00">
  <g stroke-width="2.00" fill="none" stroke-linecap="butt">
    <path stroke="#8296ba" vector-effect="non-scaling-stroke" d="   M 242.17 537.90   L 248.05 531.30   A 0.45 0.45 0.0 0 0 248.05 530.70   L 247.81 530.43   Q 247.67 530.28 247.53 530.43   L 236.82 541.25"></path>
    <path stroke="#8296ba" vector-effect="non-scaling-stroke" d="   M 1563.87 937.79   Q 1569.04 928.78 1571.39 918.63"></path>
    <path stroke="#8296ba" vector-effect="non-scaling-stroke" d="   M 1596.10 823.74   L 1598.17 809.50"></path>
    <path stroke="#8296ba" vector-effect="non-scaling-stroke" d="   M 1478.55 447.76   L 1473.21 440.57   A 0.93 0.93 0.0 0 0 1471.90 440.39   Q 1471.17 440.94 1471.77 442.02   Q 1473.94 445.92 1476.81 449.46"></path>
    <path stroke="#8296ba" vector-effect="non-scaling-stroke" d="   M 1544.78 657.74   L 1545.93 683.70"></path>
    <path stroke="#8296ba" vector-effect="non-scaling-stroke" d="   M 1436.21 714.67   Q 1437.15 689.76 1436.21 664.83"></path>
    <path stroke="#f1878b" vector-effect="non-scaling-stroke" d="   M 1032.3909 520.9656   A 33.85 33.85 0.0 0 0 991.5304 496.0243   L 760.8841 551.8235   A 33.85 33.85 0.0 0 0 735.9428 592.6839   L 737.0291 597.1744   A 33.85 33.85 0.0 0 0 777.8896 622.1157   L 1008.5359 566.3165   A 33.85 33.85 0.0 0 0 1033.4772 525.4561   L 1032.3909 520.9656"></path>
    <path stroke="#f1878b" vector-effect="non-scaling-stroke" d="   M 1138.1348 657.3075   A 33.22 33.22 0.0 0 0 1107.4369 621.7437   L 1101.8719 621.3350   A 33.22 33.22 0.0 0 0 1066.3082 652.0329   L 1048.8452 889.8325   A 33.22 33.22 0.0 0 0 1079.5431 925.3963   L 1085.1081 925.8050   A 33.22 33.22 0.0 0 0 1120.6718 895.1071   L 1138.1348 657.3075"></path>
    <path stroke="#f1878b" vector-effect="non-scaling-stroke" d="   M 734.86 882.06   C 736.18 880.13 738.19 878.46 739.91 876.77   Q 758.05 858.93 775.00 841.76   Q 836.94 778.99 864.35 695.58   C 870.09 678.11 870.41 659.08 858.36 644.46   C 853.86 639.01 848.25 635.24 841.38 634.03   Q 828.18 631.70 817.10 635.73   C 805.28 640.03 795.72 650.33 791.98 662.01   Q 787.66 675.50 783.32 687.65   Q 776.11 707.81 761.28 731.87   Q 721.29 796.73 657.48 832.99   C 624.55 851.71 587.64 863.88 549.97 869.57   Q 472.02 881.33 386.50 878.88   C 370.47 878.42 356.54 876.49 341.44 872.87   Q 329.04 869.90 318.37 872.47   C 305.33 875.61 297.13 886.26 292.49 898.50   C 287.03 912.91 289.62 927.78 300.87 938.10   C 308.70 945.28 318.75 949.01 329.08 950.58   Q 395.58 960.75 460.64 958.48   Q 548.85 955.39 634.09 928.52   Q 636.88 927.64 636.88 930.53   Q 636.89 934.55 637.15 938.56   C 638.72 962.15 653.29 972.65 674.40 976.79   Q 714.59 984.69 752.36 970.90   Q 760.41 967.96 770.60 962.72   Q 787.30 954.15 803.40 943.62   Q 872.47 898.44 932.89 861.10   Q 936.60 858.81 937.83 863.03   C 942.41 878.85 948.81 902.85 937.00 916.99   C 930.62 924.62 921.32 929.68 911.41 930.77   Q 906.10 931.35 898.53 930.02   C 887.21 928.03 874.60 927.08 863.69 927.80   C 849.54 928.74 844.31 940.49 842.98 952.89   C 840.66 974.64 853.05 992.22 871.56 1002.28   Q 896.83 1016.02 923.94 1009.38   C 970.43 997.99 1012.90 965.09 1021.22 915.72   Q 1024.50 896.27 1021.83 878.53   Q 1020.38 868.85 1016.13 860.84   Q 993.04 817.28 968.52 771.96   Q 959.92 756.09 958.80 754.49   C 949.55 741.34 935.80 731.79 919.42 732.35   C 902.51 732.93 890.93 744.18 887.61 760.38   Q 884.74 774.38 890.70 787.90   C 891.35 789.37 891.58 791.35 889.95 792.30   Q 812.93 837.24 735.26 882.49   Q 734.12 883.15 734.86 882.06"></path>
    <path stroke="#f1878b" vector-effect="non-scaling-stroke" d="   M 1296.0455 806.7045   A 34.85 34.85 0.0 0 0 1246.7602 806.6184   L 1079.6770 973.1194   A 34.85 34.85 0.0 0 0 1079.5910 1022.4047   L 1081.6945 1024.5155   A 34.85 34.85 0.0 0 0 1130.9798 1024.6016   L 1298.0630 858.1006   A 34.85 34.85 0.0 0 0 1298.1490 808.8153   L 1296.0455 806.7045"></path>
  </g>
  <path fill="#ef1c23" d="   M 232.38 934.57   C 232.04 930.84 231.53 927.21 231.52 923.51   Q 231.51 895.37 231.41 865.56   Q 231.39 860.42 231.51 855.74   Q 231.61 851.97 232.49 845.80   Q 233.45 839.09 234.10 831.69   Q 235.50 815.72 238.83 795.64   C 240.16 787.67 242.20 779.85 243.49 771.81   Q 244.17 767.53 245.42 763.60   C 246.56 760.02 247.13 756.30 248.11 752.65   C 251.43 740.28 254.81 728.14 258.91 715.79   Q 263.43 702.21 267.75 689.24   C 268.63 686.58 269.94 684.28 270.79 681.70   Q 273.84 672.50 277.29 665.49   Q 280.12 659.73 282.13 654.40   Q 283.91 649.65 286.25 645.26   Q 291.38 635.62 296.23 623.84   C 298.23 619.00 301.89 614.17 304.47 609.04   Q 314.75 588.63 322.78 575.98   Q 325.93 571.00 327.98 567.52   C 333.64 557.93 340.16 548.70 346.29 539.50   C 351.79 531.27 357.96 523.70 363.62 515.53   Q 373.92 500.64 385.99 486.93   Q 389.34 483.12 392.56 479.16   C 395.44 475.61 398.45 472.42 401.31 468.81   Q 406.38 462.38 412.15 456.65   Q 432.20 436.73 453.28 415.67   C 457.17 411.79 461.74 409.18 465.53 405.39   Q 469.76 401.15 474.41 396.66   C 477.65 393.54 481.46 391.19 484.65 388.16   Q 488.14 384.84 492.05 381.94   C 495.55 379.35 498.62 376.46 502.13 373.85   C 511.25 367.08 520.08 360.02 529.34 353.76   C 533.97 350.63 538.07 347.28 542.69 344.19   C 553.11 337.24 563.34 330.12 573.90 323.81   Q 583.95 317.81 593.56 312.01   C 602.85 306.41 612.77 301.89 622.02 296.52   C 629.81 291.99 638.15 287.63 646.32 284.04   C 665.87 275.47 686.57 265.98 704.06 259.70   C 710.91 257.23 718.02 254.17 724.30 252.17   C 730.04 250.35 735.84 248.21 741.64 246.61   C 747.93 244.87 754.15 242.49 760.53 240.65   C 775.32 236.38 790.81 232.81 806.08 229.40   Q 813.89 227.65 821.41 226.51   Q 837.86 224.02 855.29 221.08   Q 865.06 219.43 875.44 218.43   Q 899.42 216.13 911.85 216.04   Q 938.19 215.85 965.20 215.91   C 973.43 215.93 981.47 216.47 989.59 216.90   C 995.62 217.22 1001.62 218.24 1007.60 218.77   Q 1011.30 219.09 1015.11 219.65   Q 1042.93 223.72 1060.75 227.37   Q 1079.26 231.16 1104.94 238.94   C 1109.06 240.19 1113.10 242.18 1117.38 243.51   Q 1136.49 249.44 1150.60 255.47   Q 1158.51 258.84 1165.75 262.08   C 1192.66 274.14 1216.69 289.35 1242.05 306.69   C 1246.42 309.67 1250.07 313.16 1254.24 316.13   Q 1262.88 322.29 1269.25 328.22   C 1273.96 332.62 1279.13 336.24 1283.72 340.78   Q 1294.89 351.83 1306.56 363.60   C 1310.14 367.22 1312.86 371.45 1316.29 375.18   C 1320.15 379.38 1323.90 384.27 1327.53 388.86   Q 1345.66 411.73 1360.98 437.14   C 1365.66 444.89 1369.80 453.39 1374.01 461.45   Q 1380.66 474.17 1390.37 497.14   C 1392.86 503.03 1394.59 509.30 1396.91 515.26   Q 1399.03 520.68 1400.63 526.25   Q 1402.23 531.81 1404.11 537.63   Q 1407.11 546.89 1410.01 560.98   C 1411.24 566.97 1413.31 572.85 1414.29 578.92   Q 1419.22 609.76 1420.72 628.00   C 1421.46 636.93 1422.10 646.28 1422.05 655.15   Q 1421.96 674.43 1422.00 693.60   Q 1422.01 701.57 1421.41 709.27   Q 1420.74 717.70 1420.05 724.89   Q 1417.07 756.06 1412.21 778.03   Q 1409.32 791.08 1406.26 803.78   Q 1404.15 812.58 1401.72 820.98   Q 1400.15 826.42 1398.46 832.49   Q 1396.75 838.63 1395.01 843.86   C 1390.88 856.34 1386.93 868.97 1382.22 880.57   Q 1369.71 911.40 1357.76 936.63   Q 1355.47 941.48 1352.74 946.27   C 1346.00 958.10 1339.35 970.42 1332.54 982.11   C 1324.39 996.07 1315.01 1009.42 1306.20 1022.73   C 1298.11 1034.95 1289.29 1046.33 1280.52 1057.95   C 1278.90 1060.10 1276.95 1061.93 1275.43 1064.10   Q 1272.39 1068.45 1268.70 1072.28   C 1265.39 1075.72 1263.08 1079.78 1259.84 1083.07   C 1255.74 1087.24 1252.91 1092.14 1248.82 1096.21   Q 1222.08 1122.88 1196.04 1149.03   Q 1191.93 1153.16 1187.68 1156.26   C 1182.18 1160.27 1177.95 1165.46 1172.36 1169.80   C 1163.88 1176.39 1155.54 1183.41 1146.95 1189.79   C 1141.67 1193.71 1136.80 1198.00 1131.46 1201.75   Q 1120.69 1209.32 1109.78 1217.18   Q 1107.16 1219.06 1104.35 1220.76   Q 1101.28 1222.60 1098.58 1224.41   Q 1075.28 1239.99 1056.92 1250.38   Q 1049.21 1254.74 1041.10 1259.08   Q 1005.37 1278.23 979.63 1288.89   Q 965.87 1294.58 951.89 1300.10   C 945.97 1302.43 940.12 1304.26 934.35 1306.73   C 928.92 1309.05 923.23 1309.94 917.65 1311.79   C 908.51 1314.81 899.58 1318.09 890.14 1320.51   Q 875.90 1324.16 862.59 1327.73   Q 856.05 1329.49 849.99 1330.71   Q 838.32 1333.07 822.75 1335.82   C 818.51 1336.57 814.19 1336.87 810.09 1337.83   Q 805.58 1338.88 800.84 1339.35   C 796.66 1339.76 792.59 1340.72 788.32 1340.94   Q 782.36 1341.26 776.05 1342.37   C 770.84 1343.29 765.25 1343.03 759.88 1343.37   C 755.17 1343.67 750.47 1344.05 745.72 1344.04   Q 721.12 1343.96 694.94 1344.02   C 681.30 1344.06 669.00 1343.62 656.06 1342.45   Q 645.86 1341.53 636.56 1340.59   Q 629.63 1339.90 621.48 1338.61   C 606.96 1336.31 592.65 1332.29 578.28 1329.48   C 570.72 1328.00 563.65 1325.54 556.28 1323.52   Q 551.00 1322.07 545.80 1320.56   Q 539.82 1318.84 534.26 1316.61   C 529.18 1314.57 523.91 1313.21 518.91 1311.21   C 509.03 1307.25 498.57 1303.39 488.85 1298.49   Q 472.94 1290.47 457.94 1282.99   Q 452.99 1280.52 448.25 1277.60   C 444.00 1274.98 439.68 1272.53 435.50 1269.74   C 424.92 1262.69 414.06 1255.73 403.89 1247.98   C 400.53 1245.41 397.49 1242.63 394.14 1240.10   Q 390.61 1237.45 387.12 1234.49   C 383.99 1231.85 380.71 1229.74 377.73 1226.75   Q 360.26 1209.26 343.25 1192.29   C 339.68 1188.73 337.26 1184.45 333.75 1180.88   C 329.68 1176.75 326.66 1172.05 322.89 1167.72   C 319.96 1164.35 317.78 1160.51 315.07 1156.87   Q 301.12 1138.12 291.31 1120.32   Q 288.77 1115.73 286.52 1112.01   C 282.72 1105.73 279.51 1099.14 276.22 1092.55   Q 273.69 1087.47 271.48 1082.20   Q 265.18 1067.16 259.17 1052.23   Q 257.18 1047.27 255.59 1042.18   C 254.15 1037.57 252.41 1033.21 251.16 1028.57   Q 249.14 1021.07 247.06 1013.99   C 244.23 1004.38 242.65 994.33 240.31 984.52   C 238.09 975.21 236.81 965.80 235.18 956.22   Q 233.41 945.83 232.38 934.57   Z   M 1032.3909 520.9656   A 33.85 33.85 0.0 0 0 991.5304 496.0243   L 760.8841 551.8235   A 33.85 33.85 0.0 0 0 735.9428 592.6839   L 737.0291 597.1744   A 33.85 33.85 0.0 0 0 777.8896 622.1157   L 1008.5359 566.3165   A 33.85 33.85 0.0 0 0 1033.4772 525.4561   L 1032.3909 520.9656   Z   M 1138.1348 657.3075   A 33.22 33.22 0.0 0 0 1107.4369 621.7437   L 1101.8719 621.3350   A 33.22 33.22 0.0 0 0 1066.3082 652.0329   L 1048.8452 889.8325   A 33.22 33.22 0.0 0 0 1079.5431 925.3963   L 1085.1081 925.8050   A 33.22 33.22 0.0 0 0 1120.6718 895.1071   L 1138.1348 657.3075   Z   M 734.86 882.06   C 736.18 880.13 738.19 878.46 739.91 876.77   Q 758.05 858.93 775.00 841.76   Q 836.94 778.99 864.35 695.58   C 870.09 678.11 870.41 659.08 858.36 644.46   C 853.86 639.01 848.25 635.24 841.38 634.03   Q 828.18 631.70 817.10 635.73   C 805.28 640.03 795.72 650.33 791.98 662.01   Q 787.66 675.50 783.32 687.65   Q 776.11 707.81 761.28 731.87   Q 721.29 796.73 657.48 832.99   C 624.55 851.71 587.64 863.88 549.97 869.57   Q 472.02 881.33 386.50 878.88   C 370.47 878.42 356.54 876.49 341.44 872.87   Q 329.04 869.90 318.37 872.47   C 305.33 875.61 297.13 886.26 292.49 898.50   C 287.03 912.91 289.62 927.78 300.87 938.10   C 308.70 945.28 318.75 949.01 329.08 950.58   Q 395.58 960.75 460.64 958.48   Q 548.85 955.39 634.09 928.52   Q 636.88 927.64 636.88 930.53   Q 636.89 934.55 637.15 938.56   C 638.72 962.15 653.29 972.65 674.40 976.79   Q 714.59 984.69 752.36 970.90   Q 760.41 967.96 770.60 962.72   Q 787.30 954.15 803.40 943.62   Q 872.47 898.44 932.89 861.10   Q 936.60 858.81 937.83 863.03   C 942.41 878.85 948.81 902.85 937.00 916.99   C 930.62 924.62 921.32 929.68 911.41 930.77   Q 906.10 931.35 898.53 930.02   C 887.21 928.03 874.60 927.08 863.69 927.80   C 849.54 928.74 844.31 940.49 842.98 952.89   C 840.66 974.64 853.05 992.22 871.56 1002.28   Q 896.83 1016.02 923.94 1009.38   C 970.43 997.99 1012.90 965.09 1021.22 915.72   Q 1024.50 896.27 1021.83 878.53   Q 1020.38 868.85 1016.13 860.84   Q 993.04 817.28 968.52 771.96   Q 959.92 756.09 958.80 754.49   C 949.55 741.34 935.80 731.79 919.42 732.35   C 902.51 732.93 890.93 744.18 887.61 760.38   Q 884.74 774.38 890.70 787.90   C 891.35 789.37 891.58 791.35 889.95 792.30   Q 812.93 837.24 735.26 882.49   Q 734.12 883.15 734.86 882.06   Z   M 1296.0455 806.7045   A 34.85 34.85 0.0 0 0 1246.7602 806.6184   L 1079.6770 973.1194   A 34.85 34.85 0.0 0 0 1079.5910 1022.4047   L 1081.6945 1024.5155   A 34.85 34.85 0.0 0 0 1130.9798 1024.6016   L 1298.0630 858.1006   A 34.85 34.85 0.0 0 0 1298.1490 808.8153   L 1296.0455 806.7045   Z"></path>
  <path fill="#113981" d="   M 242.17 537.90   L 248.05 531.30   A 0.45 0.45 0.0 0 0 248.05 530.70   L 247.81 530.43   Q 247.67 530.28 247.53 530.43   L 236.82 541.25   Q 227.82 550.93 218.45 560.59   Q 214.56 564.60 211.65 568.43   C 208.83 572.15 205.67 575.36 202.70 579.08   Q 185.70 600.38 181.57 606.59   Q 173.64 618.55 165.97 629.98   Q 163.90 633.06 162.13 636.11   C 159.22 641.12 156.03 645.94 153.45 651.06   C 151.31 655.31 148.53 659.09 146.32 663.44   Q 138.19 679.48 133.55 689.28   C 131.69 693.20 130.46 697.44 128.34 701.40   C 125.06 707.49 123.21 713.86 120.68 720.29   Q 119.26 723.89 118.07 727.25   Q 114.27 737.95 110.03 750.72   Q 106.60 761.05 104.42 769.90   Q 97.61 797.54 93.15 825.22   C 92.26 830.70 92.02 836.28 91.68 841.88   Q 91.55 844.09 90.89 848.54   Q 89.94 854.93 89.98 861.59   Q 90.13 885.86 89.98 911.78   Q 89.95 916.63 90.34 920.97   C 91.62 934.99 92.68 948.70 95.17 962.11   Q 98.71 981.26 103.76 1003.01   Q 104.70 1007.06 105.79 1010.27   C 107.36 1014.94 108.19 1019.79 109.78 1024.43   Q 111.20 1028.60 112.24 1032.88   C 113.12 1036.49 114.89 1039.84 116.06 1043.31   C 118.27 1049.88 120.21 1056.32 123.36 1062.81   C 125.58 1067.39 127.05 1072.20 129.39 1076.74   Q 132.35 1082.51 134.96 1089.34   Q 137.69 1096.50 142.93 1104.44   C 144.78 1107.25 145.97 1110.36 147.71 1113.21   Q 155.05 1125.28 162.16 1137.32   Q 163.17 1139.04 167.12 1144.19   Q 169.72 1147.59 172.07 1151.07   C 177.02 1158.44 182.72 1165.25 188.16 1172.22   Q 191.69 1176.75 194.94 1179.96   C 199.84 1184.79 203.46 1190.34 208.26 1195.19   Q 217.07 1204.08 226.16 1213.15   Q 230.39 1217.38 235.37 1221.11   C 239.71 1224.36 243.30 1228.39 247.87 1231.94   Q 254.55 1237.15 261.12 1242.50   C 269.86 1249.63 279.05 1256.64 288.40 1262.97   C 292.72 1265.90 296.76 1269.18 301.09 1272.06   C 309.39 1277.58 317.51 1283.17 326.17 1288.35   Q 331.47 1291.52 336.96 1295.17   C 340.31 1297.40 344.25 1299.00 347.74 1301.22   Q 353.39 1304.81 359.67 1307.87   C 364.36 1310.16 368.55 1313.25 373.22 1315.59   Q 383.51 1320.72 394.11 1326.07   C 399.99 1329.03 406.13 1331.03 411.89 1333.96   Q 416.19 1336.14 421.30 1338.13   C 425.58 1339.79 429.58 1341.83 433.77 1343.50   Q 442.06 1346.83 450.86 1350.35   C 456.97 1352.80 463.35 1354.80 469.62 1356.89   C 474.61 1358.54 479.45 1360.80 484.58 1362.16   C 492.25 1364.18 499.66 1367.30 507.32 1369.28   C 518.58 1372.17 529.71 1375.46 540.80 1378.14   C 552.36 1380.95 563.94 1383.88 575.62 1386.05   C 592.50 1389.19 609.34 1392.30 626.29 1394.59   Q 628.64 1394.90 630.97 1395.22   Q 639.30 1396.35 648.06 1397.50   Q 655.41 1398.47 662.47 1399.04   C 668.82 1399.54 675.32 1400.44 681.84 1400.79   C 699.57 1401.73 717.56 1402.41 735.52 1403.33   Q 745.69 1403.85 755.51 1403.98   Q 782.03 1404.31 795.78 1403.49   Q 813.54 1402.43 829.96 1401.47   Q 840.25 1400.87 849.94 1399.85   Q 862.71 1398.51 876.63 1397.24   Q 880.70 1396.87 884.43 1396.28   Q 888.51 1395.62 892.42 1395.14   C 896.93 1394.58 901.30 1393.59 905.80 1393.15   C 911.01 1392.64 916.13 1391.77 921.38 1391.12   Q 924.56 1390.73 927.45 1390.17   Q 943.19 1387.13 959.01 1384.10   Q 967.40 1382.50 975.71 1380.51   C 983.04 1378.76 990.57 1377.40 997.73 1375.70   C 1007.05 1373.50 1016.46 1371.35 1025.54 1368.68   Q 1034.91 1365.92 1044.41 1363.48   Q 1053.91 1361.05 1062.41 1358.21   Q 1074.98 1354.02 1087.32 1349.92   Q 1092.80 1348.10 1098.03 1345.97   C 1102.78 1344.04 1107.33 1342.65 1112.13 1340.74   Q 1126.21 1335.15 1140.58 1328.99   C 1153.42 1323.49 1166.09 1317.83 1178.16 1311.86   C 1192.28 1304.87 1206.28 1298.20 1219.90 1290.57   Q 1241.58 1278.41 1263.38 1264.85   Q 1273.34 1258.65 1287.28 1249.15   C 1293.33 1245.02 1299.11 1240.73 1305.17 1236.39   Q 1328.57 1219.60 1341.79 1208.52   Q 1350.17 1201.50 1358.68 1194.96   Q 1363.38 1191.35 1367.17 1187.82   Q 1369.98 1185.20 1372.91 1182.93   C 1377.39 1179.48 1381.51 1175.57 1385.83 1172.19   C 1392.75 1166.78 1398.45 1160.10 1405.37 1154.61   Q 1409.32 1151.47 1412.59 1148.26   Q 1426.50 1134.57 1439.35 1121.58   C 1446.39 1114.47 1452.59 1106.42 1459.60 1099.30   Q 1463.01 1095.85 1466.07 1091.91   C 1468.74 1088.46 1471.72 1085.31 1474.45 1081.93   C 1482.50 1071.95 1490.83 1061.68 1498.41 1051.23   Q 1515.15 1028.17 1526.60 1009.83   Q 1539.01 989.95 1551.57 965.14   Q 1557.46 953.52 1561.65 943.69   Q 1562.26 942.24 1562.71 940.74   Q 1563.19 939.14 1563.87 937.79   Q 1569.04 928.78 1571.39 918.63   Q 1574.49 913.65 1576.47 907.71   Q 1586.91 876.24 1592.63 847.93   Q 1594.50 838.68 1596.10 823.74   L 1598.17 809.50   C 1599.26 802.89 1600.63 796.17 1600.99 789.65   C 1601.38 782.59 1601.88 775.34 1601.94 768.26   C 1602.11 747.49 1602.51 726.00 1599.95 705.19   C 1599.28 699.74 1598.85 694.24 1597.98 688.79   Q 1592.03 651.37 1580.20 616.98   Q 1576.11 605.07 1570.88 592.03   C 1564.82 576.88 1557.49 563.21 1550.29 548.73   Q 1546.39 540.87 1542.14 533.95   Q 1539.12 529.04 1536.26 524.19   C 1531.75 516.50 1526.83 509.28 1521.96 501.96   Q 1517.71 495.57 1513.13 489.55   Q 1508.42 483.36 1503.66 477.22   Q 1502.36 475.54 1500.99 473.78   Q 1488.28 457.44 1480.63 448.38   Q 1479.79 447.38 1478.55 447.76   L 1473.21 440.57   A 0.93 0.93 0.0 0 0 1471.90 440.39   Q 1471.17 440.94 1471.77 442.02   Q 1473.94 445.92 1476.81 449.46   Q 1476.40 449.74 1476.35 450.21   Q 1476.30 450.57 1476.50 450.88   Q 1480.03 456.49 1483.44 462.09   C 1489.74 472.44 1494.88 483.68 1500.28 494.53   Q 1502.50 499.00 1504.09 503.30   C 1505.59 507.38 1507.65 511.07 1509.25 515.11   C 1512.97 524.54 1517.03 533.89 1520.18 543.53   C 1523.23 552.88 1526.59 561.79 1528.81 571.26   C 1530.33 577.72 1532.39 584.05 1533.93 590.53   Q 1538.16 608.30 1540.78 626.73   Q 1541.41 631.15 1542.02 634.64   Q 1542.70 638.57 1543.11 642.26   Q 1543.96 650.05 1544.78 657.74   L 1545.93 683.70   Q 1546.06 694.52 1545.98 705.33   Q 1545.92 713.71 1545.07 721.06   C 1543.98 730.50 1544.17 739.93 1542.91 749.54   Q 1542.11 755.63 1541.54 762.03   C 1541.09 767.14 1539.16 772.11 1538.59 777.29   Q 1538.04 782.21 1537.48 787.21   C 1537.09 790.75 1535.40 793.97 1534.81 797.19   C 1534.04 801.43 1533.81 805.87 1532.35 809.97   C 1530.61 814.85 1529.78 819.90 1528.08 824.77   Q 1526.84 828.33 1525.86 832.49   C 1524.66 837.58 1522.80 842.57 1521.17 847.53   Q 1519.94 851.26 1518.52 854.79   Q 1515.16 863.12 1511.78 871.61   Q 1509.81 876.58 1507.42 881.30   C 1503.84 888.38 1501.70 896.12 1497.34 902.87   Q 1493.61 908.65 1490.48 915.10   Q 1488.50 919.18 1486.08 922.89   C 1483.83 926.34 1481.98 930.02 1479.69 933.47   C 1473.45 942.87 1467.21 952.44 1460.37 961.59   C 1454.70 969.17 1449.34 976.76 1443.53 983.47   C 1440.82 986.60 1438.64 990.01 1435.81 993.09   Q 1432.76 996.40 1429.91 1000.02   Q 1425.76 1005.29 1421.69 1010.47   Q 1418.00 1015.18 1414.09 1018.91   C 1409.55 1023.24 1406.60 1028.47 1402.03 1032.98   Q 1396.47 1038.46 1390.96 1044.03   C 1387.31 1047.71 1384.81 1052.17 1381.14 1055.87   Q 1370.80 1066.30 1361.46 1075.44   C 1357.85 1078.96 1353.43 1081.58 1349.73 1085.27   Q 1342.02 1092.96 1334.67 1100.33   C 1330.60 1104.42 1325.84 1107.18 1321.85 1111.15   C 1318.33 1114.64 1314.03 1117.02 1310.58 1120.48   Q 1307.63 1123.44 1304.18 1125.83   C 1301.05 1128.01 1298.47 1130.77 1295.43 1132.91   C 1291.73 1135.52 1288.54 1138.52 1285.01 1141.21   C 1281.02 1144.24 1277.05 1147.31 1272.88 1150.08   C 1267.96 1153.34 1263.45 1157.04 1258.47 1160.37   Q 1246.39 1168.46 1235.08 1175.98   Q 1227.33 1181.13 1217.99 1186.33   Q 1198.14 1197.40 1177.82 1209.00   Q 1175.96 1210.07 1173.94 1211.12   Q 1173.46 1211.36 1172.95 1211.21   Q 1171.66 1210.82 1171.43 1209.55   A 1.00 0.99 64.6 0 1 1171.76 1208.62   C 1175.04 1205.83 1178.09 1202.80 1181.36 1200.12   Q 1192.42 1191.10 1203.98 1181.75   Q 1210.55 1176.44 1216.00 1170.95   C 1221.95 1164.96 1228.82 1160.16 1234.86 1154.13   Q 1247.52 1141.49 1259.90 1128.99   C 1264.68 1124.16 1268.74 1118.39 1273.59 1113.34   C 1277.90 1108.87 1281.86 1103.74 1286.00 1098.78   Q 1296.34 1086.43 1307.35 1072.13   C 1312.69 1065.20 1317.97 1057.40 1323.24 1050.03   Q 1331.04 1039.10 1347.25 1012.06   Q 1360.67 989.68 1373.54 962.89   C 1378.14 953.31 1382.21 943.02 1386.54 933.06   Q 1389.13 927.10 1391.34 921.16   Q 1396.59 907.02 1401.84 893.15   Q 1404.42 886.35 1406.10 879.56   C 1407.44 874.13 1409.41 869.12 1410.83 863.91   Q 1419.45 832.23 1421.43 823.20   Q 1425.41 805.00 1429.82 781.18   C 1430.73 776.23 1431.44 770.32 1432.40 764.44   Q 1435.93 742.73 1436.21 714.67   Q 1437.15 689.76 1436.21 664.83   Q 1434.75 628.23 1430.09 603.19   C 1426.92 586.16 1424.18 571.55 1419.79 555.21   C 1418.55 550.59 1417.10 546.26 1415.92 541.70   Q 1414.90 537.76 1413.46 533.64   C 1412.11 529.81 1411.22 525.60 1409.49 521.94   C 1408.73 520.32 1408.62 518.59 1407.92 516.88   Q 1405.04 509.84 1404.11 507.13   Q 1399.78 494.47 1395.41 485.14   C 1392.17 478.23 1389.53 471.24 1386.23 464.54   C 1383.79 459.60 1381.45 454.50 1378.43 449.76   C 1375.42 445.05 1373.20 440.04 1370.22 435.40   C 1368.07 432.05 1366.34 428.49 1364.10 425.23   C 1359.92 419.12 1356.59 412.60 1352.06 406.77   C 1349.38 403.34 1347.23 399.64 1344.64 396.15   Q 1338.37 387.72 1331.73 379.10   C 1330.06 376.93 1327.81 375.14 1326.21 372.89   Q 1322.05 367.05 1318.38 363.40   Q 1300.82 345.96 1284.22 329.19   Q 1277.24 322.14 1269.78 316.19   Q 1255.75 305.00 1246.60 298.59   Q 1240.68 294.43 1235.45 290.56   C 1228.79 285.62 1221.76 281.86 1214.93 277.38   Q 1202.14 268.98 1190.35 263.20   C 1183.00 259.60 1175.97 254.37 1168.49 251.48   Q 1161.45 248.76 1155.49 245.77   Q 1150.47 243.26 1145.85 241.56   C 1141.43 239.94 1137.36 237.53 1132.86 236.04   Q 1127.54 234.27 1122.05 232.09   C 1114.91 229.24 1109.44 227.38 1102.69 225.55   Q 1099.15 224.59 1096.30 222.55   A 0.87 0.86 49.0 0 1 1096.40 221.08   Q 1099.50 219.49 1102.34 217.67   C 1108.17 213.93 1117.88 216.82 1124.15 218.50   C 1129.23 219.85 1134.22 219.70 1139.20 220.45   Q 1168.77 224.91 1188.51 229.93   Q 1202.94 233.59 1218.06 237.48   C 1228.03 240.05 1237.40 243.83 1247.12 246.29   Q 1253.01 247.77 1257.88 249.94   C 1262.61 252.05 1267.75 253.40 1272.56 255.41   Q 1278.13 257.75 1284.36 259.81   C 1289.10 261.38 1293.55 263.82 1298.31 265.71   Q 1303.14 267.62 1307.84 269.80   C 1312.10 271.79 1316.57 273.28 1320.82 275.39   Q 1334.28 282.10 1348.08 289.02   Q 1353.15 291.57 1357.39 294.23   C 1361.63 296.88 1365.96 298.91 1370.29 301.53   C 1386.25 311.17 1402.47 320.68 1417.37 331.99   C 1421.72 335.30 1426.28 338.00 1430.59 341.62   C 1437.19 347.16 1444.59 351.87 1450.89 357.77   Q 1453.57 360.28 1456.64 362.51   C 1461.42 365.98 1465.63 370.60 1469.81 374.75   C 1473.32 378.22 1477.37 380.68 1480.86 384.03   Q 1489.99 392.82 1499.90 402.83   Q 1504.46 407.44 1508.79 412.96   Q 1513.37 418.80 1519.05 424.06   Q 1521.86 426.65 1524.17 430.03   C 1527.62 435.05 1532.28 439.01 1536.08 443.96   Q 1541.10 450.48 1546.77 457.41   C 1551.72 463.44 1555.66 469.60 1560.23 475.65   C 1564.79 481.69 1568.81 488.22 1573.04 494.51   C 1578.29 502.31 1583.02 510.79 1588.16 519.11   C 1591.77 524.96 1594.27 531.21 1597.95 536.85   C 1601.09 541.64 1603.50 546.86 1606.01 551.98   Q 1608.65 557.34 1610.80 562.96   C 1612.71 567.96 1615.48 572.46 1617.43 577.48   C 1621.07 586.86 1625.08 596.09 1628.22 605.64   Q 1631.82 616.58 1635.54 627.63   Q 1636.99 631.93 1638.11 636.38   C 1639.67 642.61 1641.30 648.96 1642.48 655.36   C 1643.29 659.71 1644.62 664.01 1645.49 668.36   Q 1648.48 683.44 1651.30 700.13   Q 1651.93 703.86 1651.94 707.55   Q 1652.08 745.93 1652.02 791.94   Q 1652.02 798.25 1651.05 804.54   C 1649.74 812.98 1648.77 821.26 1646.92 829.71   Q 1643.38 845.89 1639.75 862.18   Q 1638.67 867.07 1637.28 871.43   C 1636.00 875.43 1635.20 879.58 1633.86 883.55   Q 1631.11 891.65 1628.51 899.50   Q 1625.94 907.26 1622.88 914.86   Q 1618.89 924.79 1614.43 935.98   Q 1612.00 942.08 1609.10 947.99   C 1606.52 953.25 1604.62 958.82 1602.05 964.00   C 1597.45 973.23 1593.17 982.85 1587.70 991.51   Q 1584.87 995.98 1582.44 1001.13   C 1579.95 1006.41 1576.49 1011.06 1573.85 1016.33   Q 1571.92 1020.17 1569.64 1023.56   C 1567.60 1026.60 1566.13 1029.96 1564.03 1032.96   C 1559.73 1039.10 1556.25 1045.56 1552.24 1051.66   C 1546.61 1060.19 1541.25 1068.35 1535.10 1076.55   Q 1524.50 1090.68 1514.49 1103.98   C 1512.45 1106.69 1509.68 1108.96 1507.79 1111.67   Q 1504.30 1116.66 1500.32 1120.62   Q 1497.42 1123.51 1495.22 1126.38   C 1493.17 1129.05 1491.23 1131.79 1488.84 1134.18   Q 1463.71 1159.23 1440.74 1182.26   Q 1438.30 1184.71 1435.73 1186.67   C 1433.22 1188.59 1430.61 1190.27 1428.42 1192.60   C 1423.59 1197.75 1417.84 1201.14 1412.89 1206.08   C 1410.31 1208.66 1406.92 1210.63 1404.19 1213.00   Q 1401.28 1215.52 1398.43 1217.66   C 1388.69 1224.98 1379.11 1232.52 1369.06 1239.34   C 1364.84 1242.21 1360.85 1245.46 1356.50 1248.36   C 1348.04 1254.00 1339.99 1259.41 1331.01 1264.87   C 1325.76 1268.06 1320.46 1271.59 1315.10 1274.79   Q 1290.83 1289.26 1266.60 1303.89   Q 1261.10 1307.21 1255.66 1310.20   C 1250.83 1312.86 1246.10 1315.84 1241.12 1318.45   Q 1235.05 1321.63 1228.05 1325.69   Q 1219.22 1330.80 1208.10 1335.78   Q 1187.59 1344.96 1167.40 1353.88   C 1152.16 1360.61 1136.49 1366.72 1120.76 1373.01   C 1109.04 1377.70 1098.19 1381.38 1085.73 1384.86   Q 1053.86 1393.74 1022.71 1402.68   C 1011.31 1405.96 1000.55 1409.57 989.13 1412.57   C 987.63 1412.97 986.17 1413.00 984.69 1413.32   Q 975.88 1415.17 967.05 1416.76   C 963.10 1417.47 959.28 1418.50 955.29 1419.14   Q 946.96 1420.47 927.78 1424.19   Q 924.11 1424.90 920.47 1425.27   C 917.16 1425.60 914.16 1426.88 910.81 1426.97   Q 906.71 1427.09 902.80 1428.15   C 897.82 1429.50 892.79 1428.81 887.72 1429.99   C 882.14 1431.29 876.56 1430.46 871.09 1431.61   Q 864.68 1432.96 858.57 1433.02   C 849.14 1433.12 840.43 1434.71 831.28 1434.94   C 820.38 1435.21 809.66 1436.19 798.67 1436.14   Q 761.76 1436.00 726.84 1436.10   C 714.17 1436.14 701.09 1435.49 689.00 1434.40   Q 679.07 1433.50 667.47 1432.80   C 662.35 1432.49 657.16 1431.64 652.11 1431.11   Q 633.50 1429.18 615.55 1426.10   C 601.04 1423.61 586.76 1422.21 572.58 1419.07   Q 544.58 1412.87 515.09 1406.31   Q 511.39 1405.49 508.11 1404.44   C 496.96 1400.87 485.41 1398.91 474.32 1395.18   C 468.25 1393.13 462.10 1391.57 455.93 1389.40   Q 452.14 1388.07 447.62 1386.84   Q 441.14 1385.06 434.12 1382.14   C 425.52 1378.56 416.19 1376.15 407.38 1372.61   C 399.29 1369.37 391.25 1366.34 383.17 1362.69   C 378.74 1360.68 374.26 1359.10 369.90 1357.02   C 364.77 1354.58 359.45 1352.82 354.32 1350.24   Q 343.14 1344.62 329.56 1337.84   Q 323.47 1334.80 317.61 1331.24   C 312.37 1328.07 306.92 1325.65 301.58 1322.43   C 292.02 1316.66 283.03 1311.40 273.49 1305.10   Q 264.19 1298.97 255.10 1292.63   Q 241.14 1282.89 221.31 1267.19   Q 215.27 1262.40 211.32 1258.41   C 206.49 1253.52 200.94 1250.18 196.09 1245.24   Q 185.79 1234.78 175.75 1224.88   C 171.84 1221.01 169.17 1216.27 165.31 1212.39   C 161.61 1208.67 157.76 1205.21 154.65 1200.91   C 151.95 1197.18 148.88 1193.91 146.05 1190.15   Q 137.41 1178.69 128.65 1166.86   Q 123.84 1160.37 119.78 1153.34   C 115.96 1146.73 111.58 1140.85 108.00 1134.18   Q 105.44 1129.40 102.14 1123.83   Q 97.66 1116.26 91.23 1102.38   Q 83.45 1085.58 78.01 1070.76   Q 75.89 1065.00 73.69 1059.39   Q 71.49 1053.80 69.71 1047.91   Q 66.74 1038.07 63.70 1027.67   Q 60.77 1017.67 58.53 1008.36   Q 54.74 992.64 53.42 984.11   Q 51.63 972.45 50.22 960.96   Q 49.31 953.56 48.95 947.00   C 48.61 940.78 47.96 934.70 47.98 928.43   Q 48.02 905.44 47.99 884.10   Q 47.98 878.53 48.26 873.30   C 48.72 864.59 48.93 855.59 49.83 847.27   C 51.51 831.67 54.09 818.70 57.74 799.41   C 60.01 787.44 62.62 775.91 66.10 764.78   Q 68.35 757.60 69.64 752.98   C 72.33 743.41 75.59 734.10 78.71 724.71   C 84.38 707.62 91.91 689.67 98.41 674.57   Q 106.51 655.72 117.72 634.87   Q 137.68 597.72 160.42 565.65   Q 163.82 560.85 167.31 555.88   C 172.67 548.25 178.78 541.04 184.55 533.74   Q 188.20 529.12 191.67 525.23   C 195.01 521.48 197.92 517.21 201.37 513.75   Q 205.62 509.48 208.97 505.22   Q 212.73 500.42 216.44 496.59   Q 228.55 484.11 241.16 471.92   Q 242.49 470.64 247.08 467.16   C 251.40 463.89 255.03 459.84 258.91 456.11   C 262.99 452.18 267.61 448.91 271.85 445.12   Q 274.82 442.46 278.40 439.67   Q 285.27 434.32 292.20 428.47   C 299.72 422.13 307.09 416.72 314.63 410.97   C 321.40 405.80 328.08 400.12 335.23 395.22   C 341.93 390.62 348.22 385.80 355.11 381.19   Q 371.51 370.21 386.76 360.29   Q 391.08 357.48 395.97 354.42   Q 404.64 348.98 413.34 343.86   Q 465.23 313.30 522.19 288.14   C 535.09 282.44 548.74 277.32 562.20 271.90   Q 565.03 270.76 572.63 268.07   C 577.25 266.43 581.88 264.25 586.53 262.84   Q 593.11 260.83 599.68 258.08   Q 605.63 255.60 611.86 254.02   C 620.86 251.74 629.94 248.01 639.35 245.65   C 645.03 244.23 650.50 241.95 656.24 240.49   Q 679.38 234.58 701.75 229.16   Q 708.53 227.51 716.54 226.10   A 10.04 9.89 -43.3 0 1 720.47 226.19   L 731.21 228.63   A 1.18 1.18 0.0 0 1 732.08 229.44   Q 732.48 230.84 731.12 231.01   Q 726.70 231.56 722.78 233.27   C 720.02 234.46 717.22 235.06 714.51 236.22   C 708.72 238.72 702.76 240.61 696.91 242.87   C 691.70 244.89 686.45 246.96 681.30 249.39   C 677.32 251.26 673.09 252.59 669.05 254.54   C 663.86 257.05 658.43 258.85 653.25 261.43   Q 632.57 271.70 609.38 283.30   C 604.43 285.78 599.95 288.83 595.24 291.27   C 590.64 293.66 586.44 296.46 581.95 299.01   C 576.88 301.89 572.12 305.37 567.22 308.27   Q 561.13 311.88 557.67 314.20   C 550.19 319.22 542.45 324.07 535.36 329.46   C 530.99 332.78 526.33 335.68 521.98 338.97   Q 512.40 346.22 502.24 353.77   Q 498.89 356.25 495.74 359.22   C 492.08 362.67 487.92 365.28 484.18 368.65   C 481.34 371.21 478.02 373.13 475.22 375.82   C 473.59 377.39 472.11 379.02 470.22 380.32   Q 465.07 383.88 462.36 386.61   Q 432.03 417.13 402.24 446.73   Q 398.47 450.48 395.78 454.23   C 392.58 458.70 388.50 462.25 385.08 466.56   C 373.50 481.15 361.58 495.56 351.52 510.70   Q 347.40 516.91 343.31 522.23   C 339.41 527.29 336.65 533.10 333.15 538.25   Q 324.01 551.73 318.10 562.32   Q 315.08 567.75 312.93 571.34   Q 310.12 576.02 307.90 580.40   Q 296.77 602.37 285.58 624.95   C 283.04 630.07 281.21 635.38 278.77 640.51   Q 276.65 644.97 274.93 649.63   C 273.74 652.84 271.91 655.73 270.79 658.95   Q 266.71 670.58 261.91 682.18   C 259.36 688.32 257.37 694.98 255.17 701.38   Q 253.48 706.32 252.15 711.27   C 250.94 715.81 249.03 720.06 247.85 724.55   Q 243.67 740.49 238.92 756.52   Q 236.10 766.03 233.55 779.42   C 232.28 786.07 230.23 793.40 229.13 800.48   Q 225.92 821.09 223.15 845.18   Q 221.97 855.46 221.96 865.23   Q 221.94 888.54 222.07 912.75   C 222.09 916.23 222.07 919.77 222.80 923.18   C 223.87 928.17 223.40 933.12 224.01 938.18   Q 226.10 955.57 229.05 973.21   Q 232.38 993.10 236.95 1009.35   Q 239.15 1017.18 241.19 1025.07   Q 243.22 1032.95 245.77 1040.06   Q 251.96 1057.35 257.55 1070.65   Q 259.45 1075.17 261.50 1080.11   C 266.50 1092.20 272.88 1103.91 278.81 1115.76   Q 283.15 1124.45 288.10 1132.55   C 292.48 1139.72 296.84 1147.34 301.64 1154.53   C 308.36 1164.61 314.69 1174.95 322.34 1184.21   Q 323.51 1185.62 322.16 1186.85   C 320.78 1188.11 320.07 1187.33 318.86 1186.56   Q 312.46 1182.52 307.24 1178.44   C 303.46 1175.47 299.14 1173.18 295.55 1170.15   C 290.51 1165.92 285.28 1162.17 280.53 1157.75   C 277.12 1154.58 273.17 1152.27 269.80 1148.89   Q 259.00 1138.05 248.59 1127.73   Q 244.96 1124.13 241.88 1119.87   C 238.41 1115.08 233.96 1111.44 230.41 1106.65   C 225.19 1099.62 219.84 1092.85 214.97 1085.56   C 212.30 1081.57 209.38 1078.14 206.77 1073.80   Q 200.80 1063.88 195.14 1054.10   Q 193.60 1051.43 192.21 1048.97   Q 189.20 1043.66 187.36 1039.19   C 186.11 1036.16 184.20 1033.89 182.97 1031.00   Q 180.87 1026.07 178.43 1021.08   Q 176.04 1016.19 174.00 1011.13   C 172.08 1006.36 170.14 1001.65 168.52 996.68   Q 164.68 984.81 160.78 973.47   Q 157.51 963.97 155.12 954.82   C 148.57 929.80 144.26 902.01 141.98 879.87   C 140.72 867.59 139.95 855.47 139.93 843.41   C 139.90 825.92 139.65 809.50 140.99 792.21   C 141.47 786.08 142.30 780.05 143.02 774.02   Q 147.01 740.95 156.15 707.48   Q 158.48 698.93 161.42 690.43   C 164.03 682.91 166.38 675.35 169.23 667.79   Q 174.40 654.07 178.83 644.74   Q 183.65 634.58 188.43 623.57   C 190.39 619.04 193.52 614.57 195.85 610.05   C 207.08 588.24 219.85 567.81 234.84 548.67   Q 236.83 546.13 238.60 543.36   Q 240.28 540.71 242.17 537.90   Z"></path>
  <path fill="#f2f2f2" d="   M 1478.55 447.76   Q 1477.80 448.95 1476.81 449.46   Q 1473.94 445.92 1471.77 442.02   Q 1471.17 440.94 1471.90 440.39   A 0.93 0.93 0.0 0 1 1473.21 440.57   L 1478.55 447.76   Z"></path>
  <rect fill="#f2f2f2" x="-152.50" y="-36.16" transform="translate(884.71,559.07) rotate(-13.6)" width="305.00" height="72.32" rx="33.85"></rect>
  <path fill="#f2f2f2" d="   M 242.17 537.90   Q 239.66 540.86 236.82 541.25   L 247.53 530.43   Q 247.67 530.28 247.81 530.43   L 248.05 530.70   A 0.45 0.45 0.0 0 1 248.05 531.30   L 242.17 537.90   Z"></path>
  <rect fill="#f2f2f2" x="-36.01" y="-152.44" transform="translate(1093.49,773.57) rotate(4.2)" width="72.02" height="304.88" rx="33.22"></rect>
  <path fill="#f2f2f2" d="   M 734.86 882.06   Q 734.12 883.15 735.26 882.49   Q 812.93 837.24 889.95 792.30   C 891.58 791.35 891.35 789.37 890.70 787.90   Q 884.74 774.38 887.61 760.38   C 890.93 744.18 902.51 732.93 919.42 732.35   C 935.80 731.79 949.55 741.34 958.80 754.49   Q 959.92 756.09 968.52 771.96   Q 993.04 817.28 1016.13 860.84   Q 1020.38 868.85 1021.83 878.53   Q 1024.50 896.27 1021.22 915.72   C 1012.90 965.09 970.43 997.99 923.94 1009.38   Q 896.83 1016.02 871.56 1002.28   C 853.05 992.22 840.66 974.64 842.98 952.89   C 844.31 940.49 849.54 928.74 863.69 927.80   C 874.60 927.08 887.21 928.03 898.53 930.02   Q 906.10 931.35 911.41 930.77   C 921.32 929.68 930.62 924.62 937.00 916.99   C 948.81 902.85 942.41 878.85 937.83 863.03   Q 936.60 858.81 932.89 861.10   Q 872.47 898.44 803.40 943.62   Q 787.30 954.15 770.60 962.72   Q 760.41 967.96 752.36 970.90   Q 714.59 984.69 674.40 976.79   C 653.29 972.65 638.72 962.15 637.15 938.56   Q 636.89 934.55 636.88 930.53   Q 636.88 927.64 634.09 928.52   Q 548.85 955.39 460.64 958.48   Q 395.58 960.75 329.08 950.58   C 318.75 949.01 308.70 945.28 300.87 938.10   C 289.62 927.78 287.03 912.91 292.49 898.50   C 297.13 886.26 305.33 875.61 318.37 872.47   Q 329.04 869.90 341.44 872.87   C 356.54 876.49 370.47 878.42 386.50 878.88   Q 472.02 881.33 549.97 869.57   C 587.64 863.88 624.55 851.71 657.48 832.99   Q 721.29 796.73 761.28 731.87   Q 776.11 707.81 783.32 687.65   Q 787.66 675.50 791.98 662.01   C 795.72 650.33 805.28 640.03 817.10 635.73   Q 828.18 631.70 841.38 634.03   C 848.25 635.24 853.86 639.01 858.36 644.46   C 870.41 659.08 870.09 678.11 864.35 695.58   Q 836.94 778.99 775.00 841.76   Q 758.05 858.93 739.91 876.77   C 738.19 878.46 736.18 880.13 734.86 882.06   Z"></path>
  <path fill="#f2f2f2" d="   M 1544.78 657.74   Q 1546.67 670.57 1545.93 683.70   L 1544.78 657.74   Z"></path>
  <path fill="#f2f2f2" d="   M 1436.21 714.67   Q 1435.37 689.76 1436.21 664.83   Q 1437.15 689.76 1436.21 714.67   Z"></path>
  <rect fill="#f2f2f2" x="-152.79" y="-36.34" transform="translate(1188.87,915.61) rotate(-44.9)" width="305.58" height="72.68" rx="34.85"></rect>
  <path fill="#f2f2f2" d="   M 1596.10 823.74   Q 1596.39 816.52 1598.17 809.50   L 1596.10 823.74   Z"></path>
  <path fill="#f2f2f2" d="   M 1571.39 918.63   Q 1569.04 928.78 1563.87 937.79   Q 1564.61 926.98 1571.39 918.63   Z"></path>
</svg>
