<?xml version="1.0" encoding="UTF-8" standalone="no"?>
<svg xmlns="http://www.w3.org/2000/svg" version="1.1" viewBox="0.00 0.00 200.00 200.00">
  <path fill="#ed1c22" d="   M 165.80 99.82   Q 166.34 101.20 166.45 99.72   L 167.08 91.28   Q 167.14 90.53 167.79 90.90   L 199.22 108.44   Q 200.50 109.16 199.04 109.33   L 192.82 110.07   A 0.47 0.47 0.0 0 0 192.40 110.55   C 192.69 126.37 182.48 137.79 168.98 145.26   C 149.07 156.29 125.07 159.36 101.84 157.38   Q 80.88 155.59 63.26 147.94   Q 46.77 140.78 37.59 126.47   Q 36.02 124.02 35.41 121.30   Q 35.33 120.96 35.66 120.83   Q 35.71 120.81 35.76 120.83   Q 35.88 120.86 35.94 120.98   C 43.39 135.84 58.36 143.99 74.07 148.05   Q 100.11 154.78 126.45 147.85   C 142.08 143.73 157.15 134.65 164.24 120.06   C 166.92 114.54 167.09 106.45 164.50 100.09   C 162.77 95.84 160.91 91.89 157.65 88.70   C 153.02 84.18 148.12 79.99 142.18 77.04   C 130.95 71.47 119.56 68.45 107.06 67.75   Q 99.10 67.30 91.52 67.72   Q 82.04 68.25 70.23 71.73   Q 54.15 76.47 42.65 87.86   C 37.45 93.02 31.49 103.32 33.29 111.28   C 33.89 113.94 34.65 116.49 34.08 119.26   Q 33.32 122.97 33.02 126.58   Q 32.97 127.26 32.37 126.93   L 1.24 109.79   Q -0.13 109.04 1.43 108.89   L 6.59 108.40   Q 7.33 108.33 7.36 107.59   C 8.67 74.15 50.84 61.24 77.59 60.24   C 104.52 59.24 136.51 63.78 156.09 83.22   Q 160.38 87.49 162.44 91.98   Q 164.30 96.04 165.80 99.82   Z"></path>
  <path fill="#231f20" d="   M 99.71 90.77   C 97.00 89.10 94.09 86.14 94.55 82.65   Q 95.50 75.60 102.56 73.98   C 109.38 72.43 117.56 75.65 116.70 83.91   C 116.11 89.55 111.22 95.58 107.75 100.30   Q 107.38 100.79 106.77 100.79   L 95.13 100.80   Q 94.60 100.80 94.86 100.35   L 99.95 91.72   Q 100.30 91.13 99.71 90.77   Z"></path>
  <path fill="#231f20" d="   M 124.73 101.37   A 0.35 0.35 0.0 0 0 124.42 101.88   Q 128.04 109.16 133.88 115.28   Q 134.28 115.70 134.77 116.06   Q 136.72 117.49 135.93 115.19   Q 135.37 113.57 134.05 112.23   A 1.07 1.07 0.0 0 1 133.99 110.80   L 140.46 102.99   Q 140.84 102.54 141.24 102.97   Q 146.31 108.30 146.64 115.21   C 146.92 121.26 143.47 125.60 137.50 126.40   Q 129.31 127.51 123.66 120.48   A 0.59 0.59 0.0 0 0 122.78 120.44   C 119.33 124.09 115.07 126.90 109.98 126.61   Q 105.04 126.33 101.15 126.37   Q 99.40 126.38 100.32 124.90   L 104.59 118.03   A 3.26 3.24 15.7 0 1 107.36 116.49   L 120.48 116.49   Q 121.16 116.49 120.80 115.92   L 111.64 101.37   A 1.09 1.08 45.4 0 1 111.64 100.22   L 116.71 92.09   Q 117.02 91.60 117.59 91.60   L 143.02 91.60   A 0.30 0.29 15.0 0 1 143.28 92.04   Q 140.66 96.38 137.17 100.23   Q 136.10 101.42 134.50 101.39   Q 129.45 101.28 124.73 101.37   Z"></path>
  <path fill="#231f20" d="   M 77.12 102.63   C 79.05 107.34 83.58 115.56 88.12 117.54   A 0.48 0.48 0.0 0 0 88.76 116.94   Q 88.09 115.00 86.75 113.67   A 1.69 1.68 -51.9 0 1 86.50 111.59   Q 89.06 107.41 92.73 104.12   Q 93.19 103.71 93.52 104.23   Q 95.84 107.94 98.00 111.31   C 102.24 117.91 98.15 125.73 90.91 127.03   Q 88.08 127.53 84.57 127.09   C 80.66 126.59 78.41 123.62 75.68 121.22   Q 75.18 120.78 74.78 121.31   Q 70.60 126.95 63.96 127.20   Q 58.24 127.42 52.31 127.20   A 0.13 0.13 0.0 0 1 52.20 127.01   L 57.54 117.49   A 0.54 0.54 0.0 0 1 58.02 117.20   L 72.82 117.22   Q 73.26 117.22 73.02 116.85   L 63.72 102.54   A 0.96 0.95 45.7 0 1 63.73 101.49   L 69.75 92.41   Q 70.16 91.79 70.91 91.79   L 95.97 91.80   Q 96.70 91.80 96.36 92.45   Q 93.77 97.33 90.30 101.28   A 2.45 2.43 -69.0 0 1 88.48 102.10   L 77.48 102.09   Q 76.89 102.09 77.12 102.63   Z"></path>
  <path fill="#231f20" d="   M 130.77 131.46   C 132.60 128.04 137.61 128.58 138.66 132.25   C 140.03 136.99 133.76 139.30 130.71 135.18   A 0.31 0.30 43.6 0 0 130.21 135.19   Q 127.84 138.74 124.29 137.12   C 118.09 134.31 125.29 125.14 130.04 131.52   Q 130.45 132.06 130.77 131.46   Z"></path>
  <path fill="#231f20" d="   M 81.96 132.42   Q 83.85 129.41 87.09 130.46   C 93.20 132.44 88.56 141.52 82.97 137.50   Q 82.50 137.16 82.21 136.66   L 81.81 135.97   Q 81.48 135.39 81.12 135.96   C 78.75 139.63 73.38 138.81 73.04 134.45   C 72.69 129.96 79.29 128.30 81.04 132.35   Q 81.43 133.25 81.96 132.42   Z"></path>
</svg>
